<?xml version="1.0" encoding="UTF-8"?>
<svg xmlns="http://www.w3.org/2000/svg" xmlns:xlink="http://www.w3.org/1999/xlink" width="504pt" height="360pt" viewBox="0 0 504 360" version="1.1">
<defs>
<clipPath id="clip1">
  <path d="M 8.21875 5.480469 L 498.519531 5.480469 L 498.519531 323.566406 L 8.21875 323.566406 Z M 8.21875 5.480469 "/>
</clipPath>
<clipPath id="clip2">
  <path d="M 8.21875 254 L 498.519531 254 L 498.519531 256 L 8.21875 256 Z M 8.21875 254 "/>
</clipPath>
<clipPath id="clip3">
  <path d="M 8.21875 145 L 498.519531 145 L 498.519531 147 L 8.21875 147 Z M 8.21875 145 "/>
</clipPath>
<clipPath id="clip4">
  <path d="M 8.21875 37 L 498.519531 37 L 498.519531 38 L 8.21875 38 Z M 8.21875 37 "/>
</clipPath>
<clipPath id="clip5">
  <path d="M 20 5.480469 L 22 5.480469 L 22 323.566406 L 20 323.566406 Z M 20 5.480469 "/>
</clipPath>
<clipPath id="clip6">
  <path d="M 113 5.480469 L 115 5.480469 L 115 323.566406 L 113 323.566406 Z M 113 5.480469 "/>
</clipPath>
<clipPath id="clip7">
  <path d="M 206 5.480469 L 208 5.480469 L 208 323.566406 L 206 323.566406 Z M 206 5.480469 "/>
</clipPath>
<clipPath id="clip8">
  <path d="M 299 5.480469 L 301 5.480469 L 301 323.566406 L 299 323.566406 Z M 299 5.480469 "/>
</clipPath>
<clipPath id="clip9">
  <path d="M 392 5.480469 L 393 5.480469 L 393 323.566406 L 392 323.566406 Z M 392 5.480469 "/>
</clipPath>
<clipPath id="clip10">
  <path d="M 485 5.480469 L 486 5.480469 L 486 323.566406 L 485 323.566406 Z M 485 5.480469 "/>
</clipPath>
<clipPath id="clip11">
  <path d="M 8.21875 308 L 498.519531 308 L 498.519531 310 L 8.21875 310 Z M 8.21875 308 "/>
</clipPath>
<clipPath id="clip12">
  <path d="M 8.21875 199 L 498.519531 199 L 498.519531 201 L 8.21875 201 Z M 8.21875 199 "/>
</clipPath>
<clipPath id="clip13">
  <path d="M 8.21875 91 L 498.519531 91 L 498.519531 93 L 8.21875 93 Z M 8.21875 91 "/>
</clipPath>
<clipPath id="clip14">
  <path d="M 67 5.480469 L 69 5.480469 L 69 323.566406 L 67 323.566406 Z M 67 5.480469 "/>
</clipPath>
<clipPath id="clip15">
  <path d="M 159 5.480469 L 162 5.480469 L 162 323.566406 L 159 323.566406 Z M 159 5.480469 "/>
</clipPath>
<clipPath id="clip16">
  <path d="M 252 5.480469 L 254 5.480469 L 254 323.566406 L 252 323.566406 Z M 252 5.480469 "/>
</clipPath>
<clipPath id="clip17">
  <path d="M 345 5.480469 L 347 5.480469 L 347 323.566406 L 345 323.566406 Z M 345 5.480469 "/>
</clipPath>
<clipPath id="clip18">
  <path d="M 438 5.480469 L 440 5.480469 L 440 323.566406 L 438 323.566406 Z M 438 5.480469 "/>
</clipPath>
<clipPath id="clip19">
  <path d="M 8.21875 307 L 498.519531 307 L 498.519531 311 L 8.21875 311 Z M 8.21875 307 "/>
</clipPath>
<clipPath id="clip20">
  <path d="M 214 5.480469 L 218 5.480469 L 218 323.566406 L 214 323.566406 Z M 214 5.480469 "/>
</clipPath>
</defs>
<g id="surface64">
<rect x="0" y="0" width="504" height="360" style="fill:rgb(100%,100%,100%);fill-opacity:1;stroke:none;"/>
<rect x="0" y="0" width="504" height="360" style="fill:rgb(100%,100%,100%);fill-opacity:1;stroke:none;"/>
<path style="fill:none;stroke-width:1.066978;stroke-linecap:round;stroke-linejoin:round;stroke:rgb(100%,100%,100%);stroke-opacity:1;stroke-miterlimit:10;" d="M 0 360 L 504 360 L 504 0 L 0 0 Z M 0 360 "/>
<g clip-path="url(#clip1)" clip-rule="nonzero">
<path style=" stroke:none;fill-rule:nonzero;fill:rgb(92.156863%,92.156863%,92.156863%);fill-opacity:1;" d="M 8.21875 323.566406 L 498.519531 323.566406 L 498.519531 5.480469 L 8.21875 5.480469 Z M 8.21875 323.566406 "/>
</g>
<g clip-path="url(#clip2)" clip-rule="nonzero">
<path style="fill:none;stroke-width:0.533489;stroke-linecap:butt;stroke-linejoin:round;stroke:rgb(100%,100%,100%);stroke-opacity:1;stroke-miterlimit:10;" d="M 8.21875 254.746094 L 498.519531 254.746094 "/>
</g>
<g clip-path="url(#clip3)" clip-rule="nonzero">
<path style="fill:none;stroke-width:0.533489;stroke-linecap:butt;stroke-linejoin:round;stroke:rgb(100%,100%,100%);stroke-opacity:1;stroke-miterlimit:10;" d="M 8.21875 146.019531 L 498.519531 146.019531 "/>
</g>
<g clip-path="url(#clip4)" clip-rule="nonzero">
<path style="fill:none;stroke-width:0.533489;stroke-linecap:butt;stroke-linejoin:round;stroke:rgb(100%,100%,100%);stroke-opacity:1;stroke-miterlimit:10;" d="M 8.21875 37.292969 L 498.519531 37.292969 "/>
</g>
<g clip-path="url(#clip5)" clip-rule="nonzero">
<path style="fill:none;stroke-width:0.533489;stroke-linecap:butt;stroke-linejoin:round;stroke:rgb(100%,100%,100%);stroke-opacity:1;stroke-miterlimit:10;" d="M 21.21875 323.566406 L 21.21875 5.480469 "/>
</g>
<g clip-path="url(#clip6)" clip-rule="nonzero">
<path style="fill:none;stroke-width:0.533489;stroke-linecap:butt;stroke-linejoin:round;stroke:rgb(100%,100%,100%);stroke-opacity:1;stroke-miterlimit:10;" d="M 114.078125 323.566406 L 114.078125 5.480469 "/>
</g>
<g clip-path="url(#clip7)" clip-rule="nonzero">
<path style="fill:none;stroke-width:0.533489;stroke-linecap:butt;stroke-linejoin:round;stroke:rgb(100%,100%,100%);stroke-opacity:1;stroke-miterlimit:10;" d="M 206.941406 323.566406 L 206.941406 5.480469 "/>
</g>
<g clip-path="url(#clip8)" clip-rule="nonzero">
<path style="fill:none;stroke-width:0.533489;stroke-linecap:butt;stroke-linejoin:round;stroke:rgb(100%,100%,100%);stroke-opacity:1;stroke-miterlimit:10;" d="M 299.800781 323.566406 L 299.800781 5.480469 "/>
</g>
<g clip-path="url(#clip9)" clip-rule="nonzero">
<path style="fill:none;stroke-width:0.533489;stroke-linecap:butt;stroke-linejoin:round;stroke:rgb(100%,100%,100%);stroke-opacity:1;stroke-miterlimit:10;" d="M 392.660156 323.566406 L 392.660156 5.480469 "/>
</g>
<g clip-path="url(#clip10)" clip-rule="nonzero">
<path style="fill:none;stroke-width:0.533489;stroke-linecap:butt;stroke-linejoin:round;stroke:rgb(100%,100%,100%);stroke-opacity:1;stroke-miterlimit:10;" d="M 485.519531 323.566406 L 485.519531 5.480469 "/>
</g>
<g clip-path="url(#clip11)" clip-rule="nonzero">
<path style="fill:none;stroke-width:1.066978;stroke-linecap:butt;stroke-linejoin:round;stroke:rgb(100%,100%,100%);stroke-opacity:1;stroke-miterlimit:10;" d="M 8.21875 309.109375 L 498.519531 309.109375 "/>
</g>
<g clip-path="url(#clip12)" clip-rule="nonzero">
<path style="fill:none;stroke-width:1.066978;stroke-linecap:butt;stroke-linejoin:round;stroke:rgb(100%,100%,100%);stroke-opacity:1;stroke-miterlimit:10;" d="M 8.21875 200.382813 L 498.519531 200.382813 "/>
</g>
<g clip-path="url(#clip13)" clip-rule="nonzero">
<path style="fill:none;stroke-width:1.066978;stroke-linecap:butt;stroke-linejoin:round;stroke:rgb(100%,100%,100%);stroke-opacity:1;stroke-miterlimit:10;" d="M 8.21875 91.65625 L 498.519531 91.65625 "/>
</g>
<g clip-path="url(#clip14)" clip-rule="nonzero">
<path style="fill:none;stroke-width:1.066978;stroke-linecap:butt;stroke-linejoin:round;stroke:rgb(100%,100%,100%);stroke-opacity:1;stroke-miterlimit:10;" d="M 67.648438 323.566406 L 67.648438 5.480469 "/>
</g>
<g clip-path="url(#clip15)" clip-rule="nonzero">
<path style="fill:none;stroke-width:1.066978;stroke-linecap:butt;stroke-linejoin:round;stroke:rgb(100%,100%,100%);stroke-opacity:1;stroke-miterlimit:10;" d="M 160.507813 323.566406 L 160.507813 5.480469 "/>
</g>
<g clip-path="url(#clip16)" clip-rule="nonzero">
<path style="fill:none;stroke-width:1.066978;stroke-linecap:butt;stroke-linejoin:round;stroke:rgb(100%,100%,100%);stroke-opacity:1;stroke-miterlimit:10;" d="M 253.371094 323.566406 L 253.371094 5.480469 "/>
</g>
<g clip-path="url(#clip17)" clip-rule="nonzero">
<path style="fill:none;stroke-width:1.066978;stroke-linecap:butt;stroke-linejoin:round;stroke:rgb(100%,100%,100%);stroke-opacity:1;stroke-miterlimit:10;" d="M 346.230469 323.566406 L 346.230469 5.480469 "/>
</g>
<g clip-path="url(#clip18)" clip-rule="nonzero">
<path style="fill:none;stroke-width:1.066978;stroke-linecap:butt;stroke-linejoin:round;stroke:rgb(100%,100%,100%);stroke-opacity:1;stroke-miterlimit:10;" d="M 439.089844 323.566406 L 439.089844 5.480469 "/>
</g>
<path style="fill:none;stroke-width:3.200935;stroke-linecap:butt;stroke-linejoin:round;stroke:rgb(0%,0%,0%);stroke-opacity:1;stroke-miterlimit:10;" d="M 30.503906 309.011719 L 34.960938 308.972656 L 39.421875 308.925781 L 43.878906 308.863281 L 48.335938 308.777344 L 52.792969 308.664063 L 57.25 308.519531 L 61.707031 308.328125 L 66.164063 308.085938 L 70.621094 307.773438 L 75.078125 307.378906 L 79.535156 306.882813 L 83.992188 306.261719 L 88.449219 305.488281 L 92.90625 304.535156 L 97.363281 303.371094 L 101.820313 301.953125 L 106.28125 300.242188 L 110.738281 298.191406 L 115.195313 295.753906 L 119.652344 292.875 L 124.109375 289.503906 L 128.566406 285.578125 L 133.023438 281.050781 L 137.480469 275.867188 L 141.9375 269.972656 L 146.394531 263.328125 L 150.851563 255.898438 L 155.308594 247.660156 L 159.765625 238.59375 L 164.222656 228.707031 L 168.679688 218.019531 L 173.140625 206.570313 L 177.597656 194.417969 L 182.054688 181.644531 L 186.511719 168.355469 L 190.96875 154.667969 L 195.425781 140.730469 L 199.882813 126.707031 L 204.339844 112.773438 L 208.796875 99.128906 L 213.253906 85.964844 L 217.710938 73.488281 L 222.167969 61.902344 L 226.625 51.402344 L 231.082031 42.171875 L 235.539063 34.371094 L 239.996094 28.148438 L 244.457031 23.617188 L 248.914063 20.863281 L 253.371094 19.9375 L 257.828125 20.863281 L 262.285156 23.617188 L 266.742188 28.148438 L 271.199219 34.371094 L 275.65625 42.171875 L 280.113281 51.402344 L 284.570313 61.902344 L 289.027344 73.488281 L 293.484375 85.964844 L 297.941406 99.128906 L 302.398438 112.773438 L 306.855469 126.707031 L 311.316406 140.730469 L 315.773438 154.667969 L 320.230469 168.355469 L 324.6875 181.644531 L 329.144531 194.417969 L 333.601563 206.570313 L 338.058594 218.019531 L 342.515625 228.707031 L 346.972656 238.59375 L 351.429688 247.660156 L 355.886719 255.898438 L 360.34375 263.328125 L 364.800781 269.972656 L 369.257813 275.867188 L 373.714844 281.050781 L 378.175781 285.578125 L 382.632813 289.503906 L 387.089844 292.875 L 391.546875 295.753906 L 396.003906 298.191406 L 400.460938 300.242188 L 404.917969 301.953125 L 409.375 303.371094 L 413.832031 304.535156 L 418.289063 305.488281 L 422.746094 306.261719 L 427.203125 306.882813 L 431.660156 307.378906 L 436.117188 307.773438 L 440.574219 308.085938 L 445.03125 308.328125 L 449.492188 308.519531 L 453.949219 308.664063 L 458.40625 308.777344 L 462.863281 308.863281 L 467.320313 308.925781 L 471.777344 308.972656 L 476.234375 309.011719 "/>
<g clip-path="url(#clip19)" clip-rule="nonzero">
<path style="fill:none;stroke-width:3.200935;stroke-linecap:butt;stroke-linejoin:round;stroke:rgb(0%,0%,0%);stroke-opacity:1;stroke-miterlimit:10;" d="M 8.21875 309.109375 L 498.519531 309.109375 "/>
</g>
<g clip-path="url(#clip20)" clip-rule="nonzero">
<path style="fill:none;stroke-width:3.200935;stroke-linecap:butt;stroke-linejoin:round;stroke:rgb(9.803922%,25.882353%,29.803922%);stroke-opacity:1;stroke-miterlimit:10;" d="M 216.226563 323.566406 L 216.226563 5.480469 "/>
</g>
<path style="fill:none;stroke-width:1.066978;stroke-linecap:butt;stroke-linejoin:round;stroke:rgb(20%,20%,20%);stroke-opacity:1;stroke-miterlimit:10;" d="M 67.648438 326.304688 L 67.648438 323.566406 "/>
<path style="fill:none;stroke-width:1.066978;stroke-linecap:butt;stroke-linejoin:round;stroke:rgb(20%,20%,20%);stroke-opacity:1;stroke-miterlimit:10;" d="M 160.507813 326.304688 L 160.507813 323.566406 "/>
<path style="fill:none;stroke-width:1.066978;stroke-linecap:butt;stroke-linejoin:round;stroke:rgb(20%,20%,20%);stroke-opacity:1;stroke-miterlimit:10;" d="M 253.371094 326.304688 L 253.371094 323.566406 "/>
<path style="fill:none;stroke-width:1.066978;stroke-linecap:butt;stroke-linejoin:round;stroke:rgb(20%,20%,20%);stroke-opacity:1;stroke-miterlimit:10;" d="M 346.230469 326.304688 L 346.230469 323.566406 "/>
<path style="fill:none;stroke-width:1.066978;stroke-linecap:butt;stroke-linejoin:round;stroke:rgb(20%,20%,20%);stroke-opacity:1;stroke-miterlimit:10;" d="M 439.089844 326.304688 L 439.089844 323.566406 "/>
<path style=" stroke:none;fill-rule:nonzero;fill:rgb(30.196078%,30.196078%,30.196078%);fill-opacity:1;" d="M 61.890625 336.753906 L 61.890625 335.855469 L 63.992188 335.855469 L 63.992188 329.503906 L 62.128906 330.835938 L 62.128906 329.839844 L 64.082031 328.496094 L 65.054688 328.496094 L 65.054688 335.855469 L 67.0625 335.855469 L 67.0625 336.753906 Z M 61.890625 336.753906 "/>
<path style=" stroke:none;fill-rule:nonzero;fill:rgb(30.196078%,30.196078%,30.196078%);fill-opacity:1;" d="M 73.855469 332.621094 L 73.851563 332.855469 L 73.84375 333.082031 L 73.835938 333.300781 L 73.816406 333.515625 L 73.796875 333.71875 L 73.773438 333.914063 L 73.742188 334.105469 L 73.707031 334.285156 L 73.667969 334.460938 L 73.625 334.625 L 73.578125 334.785156 L 73.53125 334.9375 L 73.476563 335.085938 L 73.421875 335.226563 L 73.359375 335.359375 L 73.296875 335.488281 L 73.230469 335.609375 L 73.160156 335.726563 L 73.085938 335.835938 L 73.011719 335.9375 L 72.933594 336.035156 L 72.851563 336.128906 L 72.679688 336.292969 L 72.589844 336.367188 L 72.402344 336.5 L 72.199219 336.609375 L 72.097656 336.652344 L 71.992188 336.695313 L 71.773438 336.765625 L 71.664063 336.792969 L 71.550781 336.816406 L 71.4375 336.835938 L 71.324219 336.851563 L 71.207031 336.863281 L 70.972656 336.871094 L 70.851563 336.867188 L 70.734375 336.863281 L 70.617188 336.851563 L 70.503906 336.835938 L 70.390625 336.816406 L 70.277344 336.792969 L 70.167969 336.765625 L 70.058594 336.730469 L 69.953125 336.695313 L 69.742188 336.609375 L 69.546875 336.5 L 69.359375 336.367188 L 69.269531 336.292969 L 69.097656 336.128906 L 69.015625 336.035156 L 68.9375 335.9375 L 68.863281 335.835938 L 68.792969 335.726563 L 68.722656 335.613281 L 68.660156 335.492188 L 68.597656 335.363281 L 68.539063 335.230469 L 68.484375 335.089844 L 68.429688 334.945313 L 68.335938 334.632813 L 68.292969 334.464844 L 68.257813 334.292969 L 68.226563 334.109375 L 68.195313 333.917969 L 68.171875 333.722656 L 68.152344 333.519531 L 68.136719 333.304688 L 68.128906 333.085938 L 68.121094 332.859375 L 68.117188 332.621094 L 68.121094 332.378906 L 68.128906 332.140625 L 68.136719 331.914063 L 68.152344 331.695313 L 68.171875 331.484375 L 68.195313 331.28125 L 68.226563 331.085938 L 68.257813 330.902344 L 68.292969 330.726563 L 68.335938 330.558594 L 68.382813 330.398438 L 68.429688 330.246094 L 68.484375 330.097656 L 68.539063 329.957031 L 68.597656 329.824219 L 68.660156 329.695313 L 68.726563 329.574219 L 68.796875 329.460938 L 68.867188 329.355469 L 68.945313 329.253906 L 69.023438 329.160156 L 69.105469 329.070313 L 69.1875 328.988281 L 69.277344 328.910156 L 69.367188 328.839844 L 69.460938 328.773438 L 69.554688 328.714844 L 69.652344 328.664063 L 69.753906 328.617188 L 69.859375 328.574219 L 69.964844 328.535156 L 70.183594 328.472656 L 70.296875 328.445313 L 70.523438 328.40625 L 70.644531 328.390625 L 70.761719 328.382813 L 70.882813 328.375 L 71.125 328.375 L 71.242188 328.382813 L 71.355469 328.390625 L 71.46875 328.40625 L 71.578125 328.425781 L 71.691406 328.445313 L 71.796875 328.472656 L 71.90625 328.503906 L 72.011719 328.535156 L 72.113281 328.574219 L 72.21875 328.617188 L 72.316406 328.664063 L 72.414063 328.714844 L 72.511719 328.773438 L 72.601563 328.839844 L 72.691406 328.910156 L 72.777344 328.988281 L 72.863281 329.070313 L 72.945313 329.160156 L 73.023438 329.253906 L 73.097656 329.355469 L 73.171875 329.460938 L 73.238281 329.574219 L 73.304688 329.695313 L 73.367188 329.824219 L 73.425781 329.957031 L 73.484375 330.097656 L 73.535156 330.246094 L 73.585938 330.398438 L 73.632813 330.558594 L 73.675781 330.726563 L 73.710938 330.902344 L 73.746094 331.085938 L 73.773438 331.28125 L 73.800781 331.484375 L 73.820313 331.695313 L 73.835938 331.914063 L 73.847656 332.140625 L 73.851563 332.378906 Z M 72.78125 332.621094 L 72.78125 332.429688 L 72.777344 332.242188 L 72.773438 332.0625 L 72.765625 331.886719 L 72.753906 331.722656 L 72.742188 331.5625 L 72.726563 331.40625 L 72.707031 331.261719 L 72.6875 331.121094 L 72.664063 330.988281 L 72.640625 330.859375 L 72.613281 330.734375 L 72.585938 330.617188 L 72.554688 330.507813 L 72.519531 330.398438 L 72.484375 330.296875 L 72.40625 330.109375 L 72.363281 330.023438 L 72.320313 329.945313 L 72.273438 329.867188 L 72.222656 329.796875 L 72.171875 329.730469 L 72.121094 329.667969 L 72.066406 329.609375 L 72.007813 329.558594 L 71.949219 329.511719 L 71.886719 329.464844 L 71.824219 329.429688 L 71.757813 329.394531 L 71.691406 329.363281 L 71.550781 329.308594 L 71.480469 329.289063 L 71.40625 329.269531 L 71.25 329.246094 L 71.171875 329.238281 L 71.089844 329.230469 L 70.917969 329.230469 L 70.832031 329.238281 L 70.75 329.246094 L 70.667969 329.257813 L 70.589844 329.269531 L 70.433594 329.308594 L 70.363281 329.335938 L 70.289063 329.363281 L 70.222656 329.394531 L 70.15625 329.429688 L 70.089844 329.46875 L 70.027344 329.511719 L 69.96875 329.5625 L 69.851563 329.671875 L 69.796875 329.734375 L 69.695313 329.875 L 69.648438 329.949219 L 69.601563 330.03125 L 69.5625 330.117188 L 69.519531 330.207031 L 69.484375 330.304688 L 69.445313 330.40625 L 69.414063 330.511719 L 69.382813 330.625 L 69.351563 330.742188 L 69.328125 330.863281 L 69.300781 330.992188 L 69.261719 331.265625 L 69.242188 331.414063 L 69.226563 331.566406 L 69.214844 331.726563 L 69.203125 331.890625 L 69.195313 332.066406 L 69.191406 332.246094 L 69.1875 332.429688 L 69.183594 332.621094 L 69.1875 332.808594 L 69.191406 332.992188 L 69.195313 333.164063 L 69.203125 333.335938 L 69.214844 333.496094 L 69.226563 333.652344 L 69.242188 333.804688 L 69.261719 333.949219 L 69.28125 334.089844 L 69.300781 334.222656 L 69.328125 334.351563 L 69.355469 334.472656 L 69.386719 334.589844 L 69.417969 334.703125 L 69.453125 334.808594 L 69.488281 334.910156 L 69.527344 335.007813 L 69.566406 335.101563 L 69.609375 335.1875 L 69.652344 335.269531 L 69.703125 335.347656 L 69.75 335.417969 L 69.804688 335.488281 L 69.855469 335.550781 L 69.96875 335.664063 L 70.03125 335.714844 L 70.09375 335.761719 L 70.15625 335.800781 L 70.222656 335.839844 L 70.289063 335.871094 L 70.359375 335.902344 L 70.429688 335.925781 L 70.503906 335.949219 L 70.578125 335.96875 L 70.734375 335.992188 L 70.816406 336.003906 L 70.898438 336.007813 L 71.066406 336.007813 L 71.148438 336.003906 L 71.304688 335.980469 L 71.378906 335.96875 L 71.453125 335.949219 L 71.527344 335.925781 L 71.597656 335.902344 L 71.664063 335.871094 L 71.734375 335.839844 L 71.800781 335.800781 L 71.863281 335.761719 L 71.925781 335.714844 L 71.984375 335.664063 L 72.042969 335.609375 L 72.097656 335.550781 L 72.148438 335.488281 L 72.25 335.347656 L 72.296875 335.269531 L 72.34375 335.1875 L 72.386719 335.101563 L 72.425781 335.007813 L 72.464844 334.910156 L 72.503906 334.808594 L 72.539063 334.703125 L 72.570313 334.589844 L 72.601563 334.472656 L 72.628906 334.351563 L 72.652344 334.222656 L 72.679688 334.089844 L 72.699219 333.949219 L 72.71875 333.804688 L 72.734375 333.652344 L 72.75 333.496094 L 72.761719 333.335938 L 72.777344 332.992188 L 72.78125 332.808594 Z M 72.78125 332.621094 "/>
<path style=" stroke:none;fill-rule:nonzero;fill:rgb(30.196078%,30.196078%,30.196078%);fill-opacity:1;" d="M 154.75 336.753906 L 154.75 335.855469 L 156.851563 335.855469 L 156.851563 329.503906 L 154.988281 330.835938 L 154.988281 329.839844 L 156.941406 328.496094 L 157.914063 328.496094 L 157.914063 335.855469 L 159.921875 335.855469 L 159.921875 336.753906 Z M 154.75 336.753906 "/>
<path style=" stroke:none;fill-rule:nonzero;fill:rgb(30.196078%,30.196078%,30.196078%);fill-opacity:1;" d="M 166.679688 334.0625 L 166.679688 334.1875 L 166.671875 334.308594 L 166.664063 334.425781 L 166.632813 334.660156 L 166.613281 334.769531 L 166.585938 334.882813 L 166.558594 334.992188 L 166.527344 335.097656 L 166.492188 335.199219 L 166.453125 335.300781 L 166.410156 335.402344 L 166.363281 335.496094 L 166.3125 335.589844 L 166.203125 335.769531 L 166.140625 335.855469 L 166.074219 335.9375 L 166.007813 336.015625 L 165.859375 336.164063 L 165.78125 336.234375 L 165.699219 336.296875 L 165.609375 336.359375 L 165.519531 336.417969 L 165.425781 336.476563 L 165.230469 336.578125 L 165.125 336.621094 L 165.015625 336.664063 L 164.90625 336.703125 L 164.789063 336.738281 L 164.671875 336.769531 L 164.550781 336.796875 L 164.425781 336.820313 L 164.167969 336.851563 L 164.03125 336.863281 L 163.75 336.871094 L 163.621094 336.871094 L 163.496094 336.863281 L 163.375 336.855469 L 163.257813 336.847656 L 163.140625 336.832031 L 163.027344 336.816406 L 162.917969 336.796875 L 162.8125 336.773438 L 162.710938 336.746094 L 162.613281 336.71875 L 162.519531 336.6875 L 162.425781 336.652344 L 162.339844 336.617188 L 162.167969 336.539063 L 162.089844 336.496094 L 162.011719 336.449219 L 161.9375 336.402344 L 161.867188 336.355469 L 161.796875 336.300781 L 161.671875 336.191406 L 161.609375 336.132813 L 161.554688 336.074219 L 161.5 336.011719 L 161.445313 335.945313 L 161.398438 335.882813 L 161.351563 335.816406 L 161.265625 335.675781 L 161.226563 335.601563 L 161.191406 335.53125 L 161.128906 335.382813 L 161.074219 335.226563 L 161.027344 335.070313 L 160.988281 334.90625 L 162.054688 334.785156 L 162.101563 334.925781 L 162.117188 334.96875 L 162.132813 335.015625 L 162.152344 335.0625 L 162.171875 335.105469 L 162.195313 335.152344 L 162.214844 335.195313 L 162.238281 335.242188 L 162.261719 335.285156 L 162.289063 335.328125 L 162.316406 335.367188 L 162.34375 335.410156 L 162.375 335.449219 L 162.410156 335.488281 L 162.441406 335.523438 L 162.476563 335.5625 L 162.554688 335.632813 L 162.597656 335.667969 L 162.640625 335.699219 L 162.734375 335.761719 L 162.78125 335.789063 L 162.832031 335.816406 L 162.886719 335.839844 L 162.9375 335.863281 L 162.996094 335.886719 L 163.050781 335.910156 L 163.113281 335.929688 L 163.175781 335.945313 L 163.242188 335.960938 L 163.382813 335.984375 L 163.53125 336 L 163.609375 336.003906 L 163.691406 336.007813 L 163.855469 336.007813 L 164.011719 336 L 164.089844 335.988281 L 164.164063 335.980469 L 164.238281 335.964844 L 164.308594 335.949219 L 164.382813 335.929688 L 164.449219 335.910156 L 164.515625 335.886719 L 164.582031 335.859375 L 164.648438 335.828125 L 164.710938 335.796875 L 164.769531 335.765625 L 164.828125 335.726563 L 164.9375 335.648438 L 164.988281 335.605469 L 165.039063 335.558594 L 165.085938 335.511719 L 165.132813 335.460938 L 165.175781 335.410156 L 165.21875 335.355469 L 165.261719 335.296875 L 165.296875 335.238281 L 165.335938 335.175781 L 165.367188 335.113281 L 165.398438 335.046875 L 165.429688 334.976563 L 165.453125 334.90625 L 165.480469 334.835938 L 165.5 334.761719 L 165.539063 334.605469 L 165.5625 334.441406 L 165.574219 334.355469 L 165.578125 334.269531 L 165.582031 334.179688 L 165.582031 334.011719 L 165.574219 333.863281 L 165.5625 333.792969 L 165.554688 333.722656 L 165.539063 333.652344 L 165.523438 333.585938 L 165.484375 333.453125 L 165.460938 333.390625 L 165.40625 333.265625 L 165.378906 333.207031 L 165.34375 333.148438 L 165.3125 333.089844 L 165.273438 333.039063 L 165.238281 332.984375 L 165.195313 332.933594 L 165.109375 332.839844 L 165.0625 332.792969 L 165.015625 332.75 L 164.960938 332.707031 L 164.910156 332.667969 L 164.855469 332.632813 L 164.738281 332.5625 L 164.675781 332.53125 L 164.613281 332.503906 L 164.546875 332.476563 L 164.480469 332.453125 L 164.410156 332.429688 L 164.339844 332.410156 L 164.269531 332.394531 L 164.195313 332.378906 L 164.121094 332.367188 L 164.042969 332.359375 L 163.960938 332.351563 L 163.878906 332.347656 L 163.691406 332.347656 L 163.640625 332.351563 L 163.59375 332.355469 L 163.542969 332.359375 L 163.496094 332.363281 L 163.308594 332.394531 L 163.265625 332.402344 L 163.09375 332.449219 L 163.054688 332.464844 L 163.011719 332.476563 L 162.855469 332.539063 L 162.820313 332.558594 L 162.785156 332.574219 L 162.644531 332.652344 L 162.613281 332.671875 L 162.582031 332.695313 L 162.546875 332.714844 L 162.519531 332.738281 L 162.488281 332.757813 L 162.460938 332.78125 L 162.429688 332.800781 L 162.402344 332.824219 L 162.371094 332.847656 L 162.316406 332.894531 L 162.289063 332.914063 L 162.261719 332.9375 L 161.230469 332.9375 L 161.503906 328.496094 L 166.199219 328.496094 L 166.199219 329.394531 L 162.464844 329.394531 L 162.308594 332.011719 L 162.367188 331.96875 L 162.425781 331.929688 L 162.488281 331.890625 L 162.554688 331.851563 L 162.625 331.8125 L 162.695313 331.777344 L 162.769531 331.742188 L 162.847656 331.707031 L 163.011719 331.644531 L 163.097656 331.613281 L 163.1875 331.585938 L 163.277344 331.5625 L 163.375 331.542969 L 163.472656 331.527344 L 163.574219 331.511719 L 163.679688 331.5 L 163.789063 331.492188 L 163.898438 331.488281 L 164.011719 331.484375 L 164.136719 331.488281 L 164.253906 331.492188 L 164.371094 331.503906 L 164.484375 331.515625 L 164.597656 331.53125 L 164.816406 331.578125 L 164.917969 331.605469 L 165.019531 331.636719 L 165.121094 331.671875 L 165.21875 331.710938 L 165.3125 331.753906 L 165.492188 331.847656 L 165.578125 331.902344 L 165.660156 331.957031 L 165.738281 332.011719 L 165.816406 332.074219 L 165.957031 332.207031 L 166.027344 332.277344 L 166.089844 332.347656 L 166.152344 332.421875 L 166.210938 332.5 L 166.265625 332.582031 L 166.316406 332.664063 L 166.367188 332.75 L 166.410156 332.835938 L 166.453125 332.925781 L 166.492188 333.019531 L 166.527344 333.117188 L 166.558594 333.214844 L 166.585938 333.3125 L 166.613281 333.414063 L 166.632813 333.519531 L 166.664063 333.730469 L 166.671875 333.839844 L 166.679688 333.953125 Z M 166.679688 334.0625 "/>
<path style=" stroke:none;fill-rule:nonzero;fill:rgb(30.196078%,30.196078%,30.196078%);fill-opacity:1;" d="M 247.300781 336.753906 L 247.300781 336.007813 L 247.359375 335.875 L 247.425781 335.742188 L 247.492188 335.613281 L 247.558594 335.488281 L 247.628906 335.363281 L 247.703125 335.246094 L 247.78125 335.128906 L 247.859375 335.015625 L 247.941406 334.910156 L 248.027344 334.800781 L 248.113281 334.699219 L 248.203125 334.59375 L 248.289063 334.496094 L 248.46875 334.300781 L 248.652344 334.117188 L 248.839844 333.9375 L 248.933594 333.851563 L 249.027344 333.769531 L 249.125 333.683594 L 249.3125 333.519531 L 249.59375 333.285156 L 249.6875 333.210938 L 249.777344 333.136719 L 249.964844 332.988281 L 250.054688 332.917969 L 250.144531 332.84375 L 250.230469 332.769531 L 250.316406 332.699219 L 250.402344 332.625 L 250.480469 332.554688 L 250.5625 332.480469 L 250.640625 332.40625 L 250.714844 332.335938 L 250.789063 332.261719 L 250.859375 332.1875 L 250.992188 332.039063 L 251.054688 331.964844 L 251.113281 331.886719 L 251.222656 331.730469 L 251.273438 331.652344 L 251.320313 331.574219 L 251.363281 331.492188 L 251.402344 331.410156 L 251.4375 331.324219 L 251.46875 331.238281 L 251.496094 331.148438 L 251.515625 331.058594 L 251.53125 330.964844 L 251.542969 330.867188 L 251.550781 330.769531 L 251.554688 330.671875 L 251.550781 330.601563 L 251.550781 330.535156 L 251.535156 330.402344 L 251.527344 330.34375 L 251.515625 330.28125 L 251.484375 330.164063 L 251.46875 330.109375 L 251.449219 330.054688 L 251.402344 329.953125 L 251.375 329.902344 L 251.320313 329.808594 L 251.289063 329.765625 L 251.21875 329.679688 L 251.183594 329.640625 L 251.144531 329.605469 L 251.058594 329.535156 L 251.015625 329.503906 L 250.972656 329.476563 L 250.921875 329.445313 L 250.875 329.421875 L 250.773438 329.375 L 250.664063 329.335938 L 250.605469 329.316406 L 250.550781 329.300781 L 250.433594 329.277344 L 250.371094 329.265625 L 250.246094 329.25 L 250.113281 329.242188 L 249.984375 329.242188 L 249.859375 329.25 L 249.800781 329.253906 L 249.738281 329.265625 L 249.679688 329.273438 L 249.5625 329.296875 L 249.507813 329.3125 L 249.449219 329.328125 L 249.394531 329.347656 L 249.34375 329.367188 L 249.289063 329.390625 L 249.238281 329.414063 L 249.1875 329.441406 L 249.140625 329.464844 L 249 329.558594 L 248.914063 329.628906 L 248.796875 329.746094 L 248.761719 329.792969 L 248.726563 329.835938 L 248.691406 329.882813 L 248.660156 329.929688 L 248.628906 329.980469 L 248.601563 330.03125 L 248.574219 330.085938 L 248.527344 330.195313 L 248.488281 330.3125 L 248.457031 330.4375 L 248.445313 330.5 L 248.433594 330.566406 L 248.425781 330.636719 L 247.347656 330.535156 L 247.359375 330.449219 L 247.375 330.359375 L 247.390625 330.273438 L 247.410156 330.1875 L 247.433594 330.105469 L 247.460938 330.019531 L 247.488281 329.9375 L 247.519531 329.859375 L 247.554688 329.777344 L 247.632813 329.621094 L 247.675781 329.546875 L 247.722656 329.472656 L 247.769531 329.402344 L 247.878906 329.261719 L 247.933594 329.199219 L 247.996094 329.132813 L 248.058594 329.074219 L 248.125 329.011719 L 248.195313 328.953125 L 248.265625 328.898438 L 248.339844 328.84375 L 248.417969 328.792969 L 248.582031 328.699219 L 248.667969 328.65625 L 248.753906 328.617188 L 248.847656 328.578125 L 248.941406 328.542969 L 249.039063 328.511719 L 249.136719 328.484375 L 249.242188 328.457031 L 249.347656 328.4375 L 249.457031 328.417969 L 249.570313 328.402344 L 249.683594 328.390625 L 249.800781 328.382813 L 249.921875 328.375 L 250.167969 328.375 L 250.289063 328.378906 L 250.40625 328.386719 L 250.519531 328.398438 L 250.628906 328.410156 L 250.738281 328.425781 L 250.84375 328.445313 L 251.046875 328.492188 L 251.144531 328.519531 L 251.238281 328.550781 L 251.417969 328.621094 L 251.503906 328.660156 L 251.585938 328.703125 L 251.664063 328.746094 L 251.742188 328.796875 L 251.816406 328.84375 L 251.882813 328.898438 L 251.953125 328.953125 L 252.015625 329.011719 L 252.078125 329.074219 L 252.195313 329.207031 L 252.296875 329.347656 L 252.34375 329.421875 L 252.386719 329.5 L 252.425781 329.582031 L 252.460938 329.664063 L 252.496094 329.75 L 252.523438 329.835938 L 252.550781 329.929688 L 252.574219 330.023438 L 252.59375 330.117188 L 252.609375 330.214844 L 252.621094 330.316406 L 252.636719 330.527344 L 252.636719 330.71875 L 252.632813 330.800781 L 252.625 330.882813 L 252.613281 330.960938 L 252.597656 331.042969 L 252.582031 331.121094 L 252.5625 331.199219 L 252.539063 331.277344 L 252.515625 331.351563 L 252.484375 331.425781 L 252.453125 331.503906 L 252.421875 331.574219 L 252.351563 331.722656 L 252.3125 331.792969 L 252.183594 332.003906 L 252.136719 332.074219 L 252.085938 332.140625 L 252.035156 332.210938 L 251.984375 332.277344 L 251.820313 332.476563 L 251.761719 332.542969 L 251.703125 332.605469 L 251.640625 332.671875 L 251.578125 332.734375 L 251.511719 332.796875 L 251.445313 332.863281 L 251.246094 333.050781 L 251.175781 333.113281 L 251.109375 333.175781 L 251.039063 333.234375 L 250.898438 333.359375 L 250.828125 333.417969 L 250.753906 333.480469 L 250.613281 333.597656 L 250.539063 333.660156 L 250.46875 333.71875 L 250.394531 333.777344 L 250.324219 333.835938 L 250.25 333.898438 L 250.179688 333.957031 L 250.105469 334.015625 L 250.035156 334.074219 L 249.960938 334.132813 L 249.890625 334.195313 L 249.820313 334.253906 L 249.753906 334.3125 L 249.683594 334.371094 L 249.550781 334.488281 L 249.484375 334.550781 L 249.359375 334.667969 L 249.238281 334.789063 L 249.179688 334.851563 L 249.121094 334.910156 L 249.0625 334.972656 L 249.007813 335.03125 L 248.957031 335.09375 L 248.902344 335.15625 L 248.851563 335.21875 L 248.804688 335.28125 L 248.757813 335.339844 L 248.710938 335.402344 L 248.667969 335.464844 L 248.628906 335.53125 L 248.589844 335.59375 L 248.554688 335.660156 L 248.519531 335.722656 L 248.488281 335.789063 L 248.460938 335.855469 L 252.765625 335.855469 L 252.765625 336.753906 Z M 247.300781 336.753906 "/>
<path style=" stroke:none;fill-rule:nonzero;fill:rgb(30.196078%,30.196078%,30.196078%);fill-opacity:1;" d="M 259.574219 332.621094 L 259.574219 332.855469 L 259.566406 333.082031 L 259.554688 333.300781 L 259.539063 333.515625 L 259.519531 333.71875 L 259.492188 333.914063 L 259.464844 334.105469 L 259.429688 334.285156 L 259.390625 334.460938 L 259.347656 334.625 L 259.300781 334.785156 L 259.25 334.9375 L 259.199219 335.085938 L 259.140625 335.226563 L 259.082031 335.359375 L 259.019531 335.488281 L 258.953125 335.609375 L 258.882813 335.726563 L 258.808594 335.835938 L 258.730469 335.9375 L 258.652344 336.035156 L 258.570313 336.128906 L 258.488281 336.210938 L 258.398438 336.292969 L 258.308594 336.367188 L 258.121094 336.5 L 258.023438 336.554688 L 257.921875 336.609375 L 257.710938 336.695313 L 257.601563 336.730469 L 257.496094 336.765625 L 257.382813 336.792969 L 257.273438 336.816406 L 257.160156 336.835938 L 257.042969 336.851563 L 256.929688 336.863281 L 256.8125 336.867188 L 256.691406 336.871094 L 256.570313 336.867188 L 256.453125 336.863281 L 256.335938 336.851563 L 256.222656 336.835938 L 256.109375 336.816406 L 255.996094 336.792969 L 255.886719 336.765625 L 255.777344 336.730469 L 255.671875 336.695313 L 255.566406 336.652344 L 255.464844 336.609375 L 255.363281 336.554688 L 255.265625 336.5 L 255.078125 336.367188 L 254.988281 336.292969 L 254.902344 336.210938 L 254.820313 336.128906 L 254.738281 336.035156 L 254.660156 335.9375 L 254.585938 335.835938 L 254.511719 335.726563 L 254.445313 335.613281 L 254.378906 335.492188 L 254.316406 335.363281 L 254.257813 335.230469 L 254.203125 335.089844 L 254.152344 334.945313 L 254.101563 334.789063 L 254.054688 334.632813 L 254.015625 334.464844 L 253.976563 334.292969 L 253.945313 334.109375 L 253.917969 333.917969 L 253.894531 333.722656 L 253.875 333.519531 L 253.859375 333.304688 L 253.847656 333.085938 L 253.839844 332.859375 L 253.839844 332.378906 L 253.847656 332.140625 L 253.859375 331.914063 L 253.875 331.695313 L 253.894531 331.484375 L 253.917969 331.28125 L 253.945313 331.085938 L 253.976563 330.902344 L 254.015625 330.726563 L 254.054688 330.558594 L 254.101563 330.398438 L 254.152344 330.246094 L 254.203125 330.097656 L 254.261719 329.957031 L 254.320313 329.824219 L 254.382813 329.695313 L 254.449219 329.574219 L 254.515625 329.460938 L 254.589844 329.355469 L 254.664063 329.253906 L 254.742188 329.160156 L 254.824219 329.070313 L 254.910156 328.988281 L 254.996094 328.910156 L 255.085938 328.839844 L 255.179688 328.773438 L 255.273438 328.714844 L 255.375 328.664063 L 255.476563 328.617188 L 255.578125 328.574219 L 255.683594 328.535156 L 255.902344 328.472656 L 256.015625 328.445313 L 256.128906 328.425781 L 256.246094 328.40625 L 256.363281 328.390625 L 256.605469 328.375 L 256.84375 328.375 L 256.960938 328.382813 L 257.074219 328.390625 L 257.1875 328.40625 L 257.300781 328.425781 L 257.410156 328.445313 L 257.519531 328.472656 L 257.730469 328.535156 L 257.835938 328.574219 L 257.9375 328.617188 L 258.039063 328.664063 L 258.136719 328.714844 L 258.230469 328.773438 L 258.324219 328.839844 L 258.410156 328.910156 L 258.5 328.988281 L 258.582031 329.070313 L 258.664063 329.160156 L 258.742188 329.253906 L 258.820313 329.355469 L 258.890625 329.460938 L 258.960938 329.574219 L 259.027344 329.695313 L 259.089844 329.824219 L 259.148438 329.957031 L 259.203125 330.097656 L 259.257813 330.246094 L 259.304688 330.398438 L 259.351563 330.558594 L 259.394531 330.726563 L 259.433594 330.902344 L 259.464844 331.085938 L 259.496094 331.28125 L 259.519531 331.484375 L 259.539063 331.695313 L 259.554688 331.914063 L 259.566406 332.140625 L 259.574219 332.378906 Z M 258.503906 332.621094 L 258.5 332.429688 L 258.496094 332.242188 L 258.492188 332.0625 L 258.484375 331.886719 L 258.472656 331.722656 L 258.460938 331.5625 L 258.445313 331.40625 L 258.425781 331.261719 L 258.40625 331.121094 L 258.386719 330.988281 L 258.359375 330.859375 L 258.335938 330.734375 L 258.304688 330.617188 L 258.242188 330.398438 L 258.203125 330.296875 L 258.167969 330.203125 L 258.125 330.109375 L 258.085938 330.023438 L 257.992188 329.867188 L 257.945313 329.796875 L 257.894531 329.730469 L 257.839844 329.667969 L 257.785156 329.609375 L 257.726563 329.558594 L 257.667969 329.511719 L 257.605469 329.464844 L 257.542969 329.429688 L 257.476563 329.394531 L 257.410156 329.363281 L 257.34375 329.335938 L 257.273438 329.308594 L 257.125 329.269531 L 257.050781 329.257813 L 256.972656 329.246094 L 256.890625 329.238281 L 256.8125 329.230469 L 256.640625 329.230469 L 256.46875 329.246094 L 256.386719 329.257813 L 256.308594 329.269531 L 256.230469 329.289063 L 256.15625 329.308594 L 256.082031 329.335938 L 256.011719 329.363281 L 255.941406 329.394531 L 255.875 329.429688 L 255.808594 329.46875 L 255.746094 329.511719 L 255.6875 329.5625 L 255.628906 329.617188 L 255.574219 329.671875 L 255.519531 329.734375 L 255.464844 329.804688 L 255.414063 329.875 L 255.367188 329.949219 L 255.324219 330.03125 L 255.28125 330.117188 L 255.242188 330.207031 L 255.203125 330.304688 L 255.167969 330.40625 L 255.132813 330.511719 L 255.101563 330.625 L 255.074219 330.742188 L 255.046875 330.863281 L 255.023438 330.992188 L 255 331.128906 L 254.980469 331.265625 L 254.960938 331.414063 L 254.945313 331.566406 L 254.933594 331.726563 L 254.921875 331.890625 L 254.914063 332.066406 L 254.910156 332.246094 L 254.90625 332.429688 L 254.90625 332.808594 L 254.910156 332.992188 L 254.914063 333.164063 L 254.921875 333.335938 L 254.933594 333.496094 L 254.945313 333.652344 L 254.960938 333.804688 L 254.980469 333.949219 L 255 334.089844 L 255.023438 334.222656 L 255.046875 334.351563 L 255.074219 334.472656 L 255.105469 334.589844 L 255.136719 334.703125 L 255.171875 334.808594 L 255.207031 334.910156 L 255.246094 335.007813 L 255.285156 335.101563 L 255.328125 335.1875 L 255.375 335.269531 L 255.421875 335.347656 L 255.523438 335.488281 L 255.578125 335.550781 L 255.632813 335.609375 L 255.691406 335.664063 L 255.75 335.714844 L 255.8125 335.761719 L 255.875 335.800781 L 255.941406 335.839844 L 256.011719 335.871094 L 256.078125 335.902344 L 256.152344 335.925781 L 256.222656 335.949219 L 256.300781 335.96875 L 256.375 335.980469 L 256.457031 335.992188 L 256.535156 336.003906 L 256.621094 336.007813 L 256.785156 336.007813 L 256.867188 336.003906 L 257.023438 335.980469 L 257.097656 335.96875 L 257.171875 335.949219 L 257.246094 335.925781 L 257.316406 335.902344 L 257.386719 335.871094 L 257.453125 335.839844 L 257.519531 335.800781 L 257.582031 335.761719 L 257.644531 335.714844 L 257.703125 335.664063 L 257.761719 335.609375 L 257.816406 335.550781 L 257.871094 335.488281 L 257.921875 335.417969 L 257.96875 335.347656 L 258.015625 335.269531 L 258.0625 335.1875 L 258.105469 335.101563 L 258.148438 335.007813 L 258.1875 334.910156 L 258.222656 334.808594 L 258.257813 334.703125 L 258.289063 334.589844 L 258.320313 334.472656 L 258.347656 334.351563 L 258.375 334.222656 L 258.398438 334.089844 L 258.421875 333.949219 L 258.441406 333.804688 L 258.457031 333.652344 L 258.46875 333.496094 L 258.480469 333.335938 L 258.492188 333.164063 L 258.496094 332.992188 L 258.5 332.808594 Z M 258.503906 332.621094 "/>
<path style=" stroke:none;fill-rule:nonzero;fill:rgb(30.196078%,30.196078%,30.196078%);fill-opacity:1;" d="M 340.160156 336.753906 L 340.160156 336.007813 L 340.285156 335.742188 L 340.351563 335.613281 L 340.417969 335.488281 L 340.492188 335.363281 L 340.640625 335.128906 L 340.71875 335.015625 L 340.800781 334.910156 L 340.886719 334.800781 L 340.972656 334.699219 L 341.0625 334.59375 L 341.148438 334.496094 L 341.328125 334.300781 L 341.511719 334.117188 L 341.699219 333.9375 L 341.792969 333.851563 L 341.890625 333.769531 L 341.984375 333.683594 L 342.171875 333.519531 L 342.453125 333.285156 L 342.640625 333.136719 L 342.730469 333.0625 L 342.824219 332.988281 L 342.914063 332.917969 L 343.09375 332.769531 L 343.175781 332.699219 L 343.261719 332.625 L 343.34375 332.554688 L 343.5 332.40625 L 343.574219 332.335938 L 343.648438 332.261719 L 343.789063 332.113281 L 343.914063 331.964844 L 343.972656 331.886719 L 344.082031 331.730469 L 344.132813 331.652344 L 344.179688 331.574219 L 344.222656 331.492188 L 344.261719 331.410156 L 344.296875 331.324219 L 344.328125 331.238281 L 344.355469 331.148438 L 344.375 331.058594 L 344.390625 330.964844 L 344.402344 330.867188 L 344.410156 330.769531 L 344.414063 330.671875 L 344.414063 330.601563 L 344.410156 330.535156 L 344.402344 330.46875 L 344.398438 330.402344 L 344.386719 330.34375 L 344.375 330.28125 L 344.363281 330.222656 L 344.347656 330.164063 L 344.308594 330.054688 L 344.238281 329.902344 L 344.207031 329.855469 L 344.179688 329.808594 L 344.148438 329.765625 L 344.078125 329.679688 L 344.042969 329.640625 L 344.003906 329.605469 L 343.960938 329.570313 L 343.921875 329.535156 L 343.875 329.503906 L 343.832031 329.476563 L 343.785156 329.445313 L 343.632813 329.375 L 343.46875 329.316406 L 343.410156 329.300781 L 343.292969 329.277344 L 343.230469 329.265625 L 343.105469 329.25 L 343.042969 329.246094 L 342.976563 329.242188 L 342.84375 329.242188 L 342.78125 329.246094 L 342.722656 329.25 L 342.660156 329.253906 L 342.601563 329.265625 L 342.539063 329.273438 L 342.480469 329.285156 L 342.425781 329.296875 L 342.308594 329.328125 L 342.253906 329.347656 L 342.203125 329.367188 L 342.148438 329.390625 L 342.097656 329.414063 L 342.050781 329.441406 L 342 329.464844 L 341.90625 329.527344 L 341.863281 329.558594 L 341.816406 329.59375 L 341.773438 329.628906 L 341.65625 329.746094 L 341.621094 329.792969 L 341.585938 329.835938 L 341.550781 329.882813 L 341.519531 329.929688 L 341.488281 329.980469 L 341.460938 330.03125 L 341.433594 330.085938 L 341.386719 330.195313 L 341.347656 330.3125 L 341.316406 330.4375 L 341.304688 330.5 L 341.292969 330.566406 L 341.285156 330.636719 L 340.207031 330.535156 L 340.21875 330.449219 L 340.234375 330.359375 L 340.25 330.273438 L 340.269531 330.1875 L 340.292969 330.105469 L 340.320313 330.019531 L 340.347656 329.9375 L 340.382813 329.859375 L 340.414063 329.777344 L 340.492188 329.621094 L 340.535156 329.546875 L 340.582031 329.472656 L 340.628906 329.402344 L 340.738281 329.261719 L 340.796875 329.199219 L 340.855469 329.132813 L 340.917969 329.074219 L 340.984375 329.011719 L 341.054688 328.953125 L 341.203125 328.84375 L 341.277344 328.792969 L 341.441406 328.699219 L 341.527344 328.65625 L 341.707031 328.578125 L 341.800781 328.542969 L 341.898438 328.511719 L 342.101563 328.457031 L 342.207031 328.4375 L 342.316406 328.417969 L 342.429688 328.402344 L 342.542969 328.390625 L 342.785156 328.375 L 343.03125 328.375 L 343.148438 328.378906 L 343.265625 328.386719 L 343.378906 328.398438 L 343.488281 328.410156 L 343.597656 328.425781 L 343.703125 328.445313 L 343.90625 328.492188 L 344.003906 328.519531 L 344.097656 328.550781 L 344.191406 328.585938 L 344.277344 328.621094 L 344.363281 328.660156 L 344.445313 328.703125 L 344.523438 328.746094 L 344.601563 328.796875 L 344.675781 328.84375 L 344.746094 328.898438 L 344.8125 328.953125 L 344.878906 329.011719 L 344.9375 329.074219 L 345 329.140625 L 345.054688 329.207031 L 345.15625 329.347656 L 345.203125 329.421875 L 345.246094 329.5 L 345.285156 329.582031 L 345.320313 329.664063 L 345.355469 329.75 L 345.386719 329.835938 L 345.433594 330.023438 L 345.453125 330.117188 L 345.46875 330.214844 L 345.480469 330.316406 L 345.492188 330.421875 L 345.496094 330.527344 L 345.496094 330.71875 L 345.492188 330.800781 L 345.484375 330.882813 L 345.472656 330.960938 L 345.460938 331.042969 L 345.421875 331.199219 L 345.398438 331.277344 L 345.375 331.351563 L 345.34375 331.425781 L 345.316406 331.503906 L 345.28125 331.574219 L 345.210938 331.722656 L 345.132813 331.863281 L 345.089844 331.933594 L 344.996094 332.074219 L 344.945313 332.140625 L 344.898438 332.210938 L 344.84375 332.277344 L 344.792969 332.34375 L 344.738281 332.410156 L 344.621094 332.542969 L 344.5625 332.605469 L 344.5 332.671875 L 344.4375 332.734375 L 344.371094 332.796875 L 344.304688 332.863281 L 344.105469 333.050781 L 344.035156 333.113281 L 343.96875 333.175781 L 343.898438 333.234375 L 343.757813 333.359375 L 343.6875 333.417969 L 343.617188 333.480469 L 343.542969 333.539063 L 343.472656 333.597656 L 343.398438 333.660156 L 343.257813 333.777344 L 343.183594 333.835938 L 343.113281 333.898438 L 342.964844 334.015625 L 342.824219 334.132813 L 342.753906 334.195313 L 342.613281 334.3125 L 342.546875 334.371094 L 342.476563 334.429688 L 342.410156 334.488281 L 342.34375 334.550781 L 342.21875 334.667969 L 342.097656 334.789063 L 342.039063 334.851563 L 341.980469 334.910156 L 341.925781 334.972656 L 341.871094 335.03125 L 341.761719 335.15625 L 341.710938 335.21875 L 341.664063 335.28125 L 341.617188 335.339844 L 341.570313 335.402344 L 341.527344 335.464844 L 341.488281 335.53125 L 341.449219 335.59375 L 341.414063 335.660156 L 341.378906 335.722656 L 341.347656 335.789063 L 341.320313 335.855469 L 345.625 335.855469 L 345.625 336.753906 Z M 340.160156 336.753906 "/>
<path style=" stroke:none;fill-rule:nonzero;fill:rgb(30.196078%,30.196078%,30.196078%);fill-opacity:1;" d="M 352.398438 334.0625 L 352.398438 334.1875 L 352.390625 334.308594 L 352.382813 334.425781 L 352.371094 334.542969 L 352.351563 334.660156 L 352.332031 334.769531 L 352.308594 334.882813 L 352.28125 334.992188 L 352.246094 335.097656 L 352.210938 335.199219 L 352.171875 335.300781 L 352.128906 335.402344 L 352.035156 335.589844 L 351.980469 335.679688 L 351.921875 335.769531 L 351.859375 335.855469 L 351.796875 335.9375 L 351.726563 336.015625 L 351.65625 336.089844 L 351.582031 336.164063 L 351.5 336.234375 L 351.417969 336.296875 L 351.332031 336.359375 L 351.242188 336.417969 L 351.148438 336.476563 L 351.050781 336.527344 L 350.949219 336.578125 L 350.84375 336.621094 L 350.734375 336.664063 L 350.625 336.703125 L 350.511719 336.738281 L 350.394531 336.769531 L 350.273438 336.796875 L 350.148438 336.820313 L 350.019531 336.835938 L 349.886719 336.851563 L 349.75 336.863281 L 349.613281 336.867188 L 349.46875 336.871094 L 349.339844 336.871094 L 349.214844 336.863281 L 349.09375 336.855469 L 348.976563 336.847656 L 348.859375 336.832031 L 348.75 336.816406 L 348.640625 336.796875 L 348.535156 336.773438 L 348.332031 336.71875 L 348.238281 336.6875 L 348.058594 336.617188 L 347.972656 336.578125 L 347.890625 336.539063 L 347.808594 336.496094 L 347.585938 336.355469 L 347.453125 336.246094 L 347.390625 336.191406 L 347.273438 336.074219 L 347.21875 336.011719 L 347.167969 335.945313 L 347.117188 335.882813 L 347.070313 335.816406 L 346.984375 335.675781 L 346.949219 335.601563 L 346.914063 335.53125 L 346.878906 335.457031 L 346.847656 335.382813 L 346.792969 335.226563 L 346.746094 335.070313 L 346.726563 334.988281 L 346.710938 334.90625 L 347.777344 334.785156 L 347.789063 334.832031 L 347.820313 334.925781 L 347.835938 334.96875 L 347.875 335.0625 L 347.894531 335.105469 L 347.914063 335.152344 L 347.9375 335.195313 L 347.957031 335.242188 L 347.984375 335.285156 L 348.007813 335.328125 L 348.035156 335.367188 L 348.066406 335.410156 L 348.128906 335.488281 L 348.164063 335.523438 L 348.199219 335.5625 L 348.234375 335.597656 L 348.273438 335.632813 L 348.316406 335.667969 L 348.359375 335.699219 L 348.453125 335.761719 L 348.5 335.789063 L 348.550781 335.816406 L 348.714844 335.886719 L 348.773438 335.910156 L 348.832031 335.929688 L 348.964844 335.960938 L 349.03125 335.972656 L 349.101563 335.984375 L 349.25 336 L 349.328125 336.003906 L 349.410156 336.007813 L 349.574219 336.007813 L 349.65625 336.003906 L 349.734375 336 L 349.808594 335.988281 L 349.882813 335.980469 L 350.03125 335.949219 L 350.171875 335.910156 L 350.238281 335.886719 L 350.304688 335.859375 L 350.429688 335.796875 L 350.488281 335.765625 L 350.546875 335.726563 L 350.65625 335.648438 L 350.707031 335.605469 L 350.757813 335.558594 L 350.804688 335.511719 L 350.898438 335.410156 L 350.941406 335.355469 L 351.019531 335.238281 L 351.089844 335.113281 L 351.121094 335.046875 L 351.175781 334.90625 L 351.199219 334.835938 L 351.222656 334.761719 L 351.242188 334.683594 L 351.257813 334.605469 L 351.273438 334.523438 L 351.285156 334.441406 L 351.300781 334.269531 L 351.304688 334.179688 L 351.304688 334.011719 L 351.300781 333.9375 L 351.292969 333.863281 L 351.285156 333.792969 L 351.261719 333.652344 L 351.242188 333.585938 L 351.226563 333.519531 L 351.203125 333.453125 L 351.15625 333.328125 L 351.128906 333.265625 L 351.066406 333.148438 L 351.03125 333.089844 L 350.996094 333.039063 L 350.957031 332.984375 L 350.917969 332.933594 L 350.875 332.886719 L 350.78125 332.792969 L 350.734375 332.75 L 350.683594 332.707031 L 350.628906 332.667969 L 350.574219 332.632813 L 350.457031 332.5625 L 350.394531 332.53125 L 350.332031 332.503906 L 350.265625 332.476563 L 350.132813 332.429688 L 350.0625 332.410156 L 349.914063 332.378906 L 349.839844 332.367188 L 349.683594 332.351563 L 349.601563 332.347656 L 349.414063 332.347656 L 349.261719 332.359375 L 349.214844 332.363281 L 349.074219 332.386719 L 348.988281 332.402344 L 348.941406 332.414063 L 348.855469 332.4375 L 348.816406 332.449219 L 348.773438 332.464844 L 348.734375 332.476563 L 348.691406 332.492188 L 348.613281 332.523438 L 348.578125 332.539063 L 348.539063 332.558594 L 348.503906 332.574219 L 348.398438 332.632813 L 348.367188 332.652344 L 348.332031 332.671875 L 348.300781 332.695313 L 348.269531 332.714844 L 348.238281 332.738281 L 348.207031 332.757813 L 348.179688 332.78125 L 348.148438 332.800781 L 348.09375 332.847656 L 348.0625 332.871094 L 348.035156 332.894531 L 348.007813 332.914063 L 347.980469 332.9375 L 346.949219 332.9375 L 347.226563 328.496094 L 351.917969 328.496094 L 351.917969 329.394531 L 348.1875 329.394531 L 348.027344 332.011719 L 348.085938 331.96875 L 348.210938 331.890625 L 348.34375 331.8125 L 348.492188 331.742188 L 348.570313 331.707031 L 348.648438 331.675781 L 348.730469 331.644531 L 348.816406 331.613281 L 348.90625 331.585938 L 349 331.5625 L 349.09375 331.542969 L 349.191406 331.527344 L 349.296875 331.511719 L 349.398438 331.5 L 349.507813 331.492188 L 349.734375 331.484375 L 349.976563 331.492188 L 350.09375 331.503906 L 350.207031 331.515625 L 350.316406 331.53125 L 350.429688 331.554688 L 350.535156 331.578125 L 350.640625 331.605469 L 350.742188 331.636719 L 350.839844 331.671875 L 350.9375 331.710938 L 351.03125 331.753906 L 351.125 331.800781 L 351.210938 331.847656 L 351.296875 331.902344 L 351.378906 331.957031 L 351.457031 332.011719 L 351.535156 332.074219 L 351.609375 332.140625 L 351.679688 332.207031 L 351.8125 332.347656 L 351.871094 332.421875 L 351.929688 332.5 L 351.984375 332.582031 L 352.035156 332.664063 L 352.085938 332.75 L 352.132813 332.835938 L 352.171875 332.925781 L 352.210938 333.019531 L 352.28125 333.214844 L 352.308594 333.3125 L 352.332031 333.414063 L 352.371094 333.625 L 352.382813 333.730469 L 352.390625 333.839844 L 352.398438 333.953125 Z M 352.398438 334.0625 "/>
<path style=" stroke:none;fill-rule:nonzero;fill:rgb(30.196078%,30.196078%,30.196078%);fill-opacity:1;" d="M 438.5625 334.472656 L 438.5625 334.585938 L 438.546875 334.804688 L 438.53125 334.910156 L 438.515625 335.011719 L 438.496094 335.113281 L 438.472656 335.210938 L 438.410156 335.398438 L 438.375 335.488281 L 438.296875 335.660156 L 438.203125 335.824219 L 438.09375 335.972656 L 438.035156 336.046875 L 437.972656 336.113281 L 437.90625 336.179688 L 437.765625 336.304688 L 437.609375 336.414063 L 437.527344 336.464844 L 437.441406 336.511719 L 437.351563 336.558594 L 437.257813 336.601563 L 437.0625 336.679688 L 436.851563 336.742188 L 436.742188 336.769531 L 436.628906 336.792969 L 436.515625 336.8125 L 436.398438 336.832031 L 436.277344 336.84375 L 436.152344 336.855469 L 436.027344 336.863281 L 435.761719 336.871094 L 435.609375 336.867188 L 435.464844 336.863281 L 435.324219 336.855469 L 435.1875 336.839844 L 435.054688 336.824219 L 434.925781 336.804688 L 434.804688 336.777344 L 434.6875 336.75 L 434.574219 336.71875 L 434.46875 336.683594 L 434.363281 336.644531 L 434.265625 336.601563 L 434.078125 336.507813 L 433.992188 336.460938 L 433.90625 336.410156 L 433.824219 336.355469 L 433.675781 336.238281 L 433.605469 336.179688 L 433.476563 336.050781 L 433.417969 335.980469 L 433.359375 335.914063 L 433.308594 335.84375 L 433.257813 335.769531 L 433.171875 335.621094 L 433.132813 335.542969 L 433.097656 335.464844 L 433.0625 335.382813 L 433.03125 335.300781 L 433.003906 335.21875 L 432.933594 334.972656 L 432.914063 334.886719 L 432.898438 334.800781 L 432.886719 334.71875 L 432.875 334.632813 L 433.964844 334.53125 L 433.972656 334.597656 L 433.984375 334.660156 L 434 334.722656 L 434.011719 334.785156 L 434.027344 334.847656 L 434.066406 334.964844 L 434.085938 335.019531 L 434.132813 335.128906 L 434.160156 335.183594 L 434.1875 335.234375 L 434.21875 335.285156 L 434.25 335.332031 L 434.285156 335.382813 L 434.355469 335.46875 L 434.394531 335.511719 L 434.4375 335.554688 L 434.523438 335.632813 L 434.617188 335.703125 L 434.71875 335.765625 L 434.773438 335.792969 L 434.890625 335.847656 L 434.949219 335.871094 L 435.011719 335.890625 L 435.078125 335.914063 L 435.210938 335.945313 L 435.285156 335.960938 L 435.359375 335.972656 L 435.433594 335.980469 L 435.511719 335.988281 L 435.675781 335.996094 L 435.761719 335.996094 L 435.917969 335.992188 L 436.066406 335.980469 L 436.207031 335.960938 L 436.34375 335.933594 L 436.472656 335.898438 L 436.59375 335.855469 L 436.707031 335.804688 L 436.816406 335.746094 L 436.917969 335.679688 L 437.011719 335.605469 L 437.097656 335.523438 L 437.175781 335.433594 L 437.242188 335.335938 L 437.300781 335.230469 L 437.351563 335.117188 L 437.394531 334.996094 L 437.425781 334.867188 L 437.449219 334.734375 L 437.460938 334.589844 L 437.46875 334.4375 L 437.464844 334.347656 L 437.457031 334.261719 L 437.449219 334.179688 L 437.433594 334.101563 L 437.414063 334.027344 L 437.394531 333.957031 L 437.367188 333.886719 L 437.335938 333.824219 L 437.300781 333.761719 L 437.222656 333.652344 L 437.179688 333.597656 L 437.085938 333.503906 L 437.035156 333.457031 L 436.984375 333.414063 L 436.929688 333.375 L 436.875 333.339844 L 436.816406 333.304688 L 436.699219 333.242188 L 436.574219 333.1875 L 436.507813 333.164063 L 436.445313 333.140625 L 436.3125 333.101563 L 436.242188 333.085938 L 436.03125 333.050781 L 435.964844 333.042969 L 435.894531 333.035156 L 435.828125 333.027344 L 435.761719 333.023438 L 435.574219 333.011719 L 435.511719 333.011719 L 435.453125 333.007813 L 434.855469 333.007813 L 434.855469 332.09375 L 435.546875 332.09375 L 435.734375 332.082031 L 435.921875 332.058594 L 435.984375 332.046875 L 436.050781 332.035156 L 436.113281 332.023438 L 436.175781 332.007813 L 436.238281 331.988281 L 436.355469 331.949219 L 436.472656 331.902344 L 436.527344 331.875 L 436.636719 331.8125 L 436.6875 331.78125 L 436.738281 331.742188 L 436.789063 331.707031 L 436.835938 331.664063 L 436.921875 331.578125 L 436.964844 331.53125 L 437.003906 331.480469 L 437.039063 331.429688 L 437.074219 331.375 L 437.109375 331.316406 L 437.136719 331.257813 L 437.164063 331.195313 L 437.1875 331.128906 L 437.207031 331.0625 L 437.222656 330.988281 L 437.234375 330.914063 L 437.242188 330.835938 L 437.25 330.753906 L 437.25 330.671875 L 437.246094 330.542969 L 437.234375 330.417969 L 437.214844 330.300781 L 437.1875 330.1875 L 437.152344 330.078125 L 437.109375 329.976563 L 437.058594 329.882813 L 437 329.792969 L 436.933594 329.707031 L 436.859375 329.628906 L 436.777344 329.554688 L 436.6875 329.488281 L 436.589844 329.429688 L 436.488281 329.382813 L 436.375 329.339844 L 436.257813 329.304688 L 436.128906 329.277344 L 435.996094 329.257813 L 435.851563 329.246094 L 435.703125 329.242188 L 435.566406 329.246094 L 435.433594 329.257813 L 435.308594 329.273438 L 435.1875 329.300781 L 435.070313 329.332031 L 434.960938 329.371094 L 434.855469 329.417969 L 434.757813 329.46875 L 434.660156 329.53125 L 434.574219 329.597656 L 434.492188 329.671875 L 434.414063 329.753906 L 434.347656 329.839844 L 434.289063 329.933594 L 434.234375 330.03125 L 434.1875 330.132813 L 434.148438 330.242188 L 434.117188 330.359375 L 434.09375 330.480469 L 434.074219 330.605469 L 433.015625 330.523438 L 433.027344 330.417969 L 433.046875 330.3125 L 433.066406 330.210938 L 433.121094 330.015625 L 433.152344 329.921875 L 433.1875 329.832031 L 433.226563 329.742188 L 433.265625 329.65625 L 433.3125 329.574219 L 433.359375 329.496094 L 433.410156 329.417969 L 433.464844 329.347656 L 433.519531 329.273438 L 433.636719 329.140625 L 433.699219 329.078125 L 433.765625 329.019531 L 433.835938 328.960938 L 433.90625 328.90625 L 433.976563 328.855469 L 434.054688 328.804688 L 434.132813 328.757813 L 434.210938 328.714844 L 434.292969 328.671875 L 434.375 328.636719 L 434.460938 328.597656 L 434.640625 328.535156 L 434.730469 328.507813 L 434.917969 328.460938 L 435.015625 328.441406 L 435.109375 328.421875 L 435.207031 328.410156 L 435.308594 328.394531 L 435.40625 328.386719 L 435.507813 328.378906 L 435.613281 328.375 L 435.851563 328.375 L 435.984375 328.382813 L 436.113281 328.390625 L 436.238281 328.402344 L 436.359375 328.417969 L 436.476563 328.4375 L 436.589844 328.460938 L 436.699219 328.488281 L 436.804688 328.515625 L 436.90625 328.550781 L 437.003906 328.585938 L 437.097656 328.625 L 437.1875 328.664063 L 437.273438 328.707031 L 437.4375 328.800781 L 437.511719 328.851563 L 437.585938 328.90625 L 437.652344 328.960938 L 437.71875 329.019531 L 437.78125 329.078125 L 437.839844 329.140625 L 437.894531 329.203125 L 437.945313 329.269531 L 438.039063 329.410156 L 438.078125 329.480469 L 438.117188 329.554688 L 438.152344 329.632813 L 438.183594 329.710938 L 438.210938 329.789063 L 438.238281 329.871094 L 438.257813 329.953125 L 438.28125 330.039063 L 438.296875 330.121094 L 438.320313 330.292969 L 438.328125 330.382813 L 438.332031 330.46875 L 438.335938 330.558594 L 438.332031 330.632813 L 438.332031 330.703125 L 438.316406 330.84375 L 438.308594 330.910156 L 438.296875 330.980469 L 438.285156 331.046875 L 438.269531 331.113281 L 438.253906 331.175781 L 438.214844 331.300781 L 438.191406 331.363281 L 438.164063 331.425781 L 438.136719 331.484375 L 438.105469 331.539063 L 438.074219 331.597656 L 438.039063 331.652344 L 438.003906 331.703125 L 437.964844 331.757813 L 437.925781 331.808594 L 437.878906 331.859375 L 437.835938 331.90625 L 437.785156 331.953125 L 437.738281 332 L 437.628906 332.085938 L 437.570313 332.125 L 437.511719 332.167969 L 437.449219 332.203125 L 437.386719 332.242188 L 437.320313 332.277344 L 437.25 332.3125 L 437.179688 332.34375 L 437.105469 332.371094 L 437.027344 332.402344 L 436.949219 332.429688 L 436.867188 332.453125 L 436.78125 332.476563 L 436.695313 332.496094 L 436.605469 332.515625 L 436.605469 332.539063 L 436.703125 332.550781 L 436.800781 332.566406 L 436.894531 332.582031 L 436.984375 332.601563 L 437.15625 332.648438 L 437.320313 332.703125 L 437.398438 332.734375 L 437.546875 332.804688 L 437.617188 332.839844 L 437.683594 332.878906 L 437.746094 332.917969 L 437.871094 333.003906 L 437.980469 333.097656 L 438.03125 333.144531 L 438.082031 333.195313 L 438.128906 333.25 L 438.214844 333.359375 L 438.253906 333.414063 L 438.292969 333.472656 L 438.328125 333.53125 L 438.359375 333.59375 L 438.441406 333.78125 L 438.464844 333.847656 L 438.484375 333.914063 L 438.503906 333.984375 L 438.519531 334.050781 L 438.53125 334.121094 L 438.542969 334.1875 L 438.550781 334.257813 L 438.558594 334.332031 L 438.5625 334.402344 Z M 438.5625 334.472656 "/>
<path style=" stroke:none;fill-rule:nonzero;fill:rgb(30.196078%,30.196078%,30.196078%);fill-opacity:1;" d="M 445.296875 332.621094 L 445.292969 332.855469 L 445.285156 333.082031 L 445.273438 333.300781 L 445.257813 333.515625 L 445.238281 333.71875 L 445.214844 333.914063 L 445.183594 334.105469 L 445.148438 334.285156 L 445.109375 334.460938 L 445.066406 334.625 L 445.019531 334.785156 L 444.972656 334.9375 L 444.917969 335.085938 L 444.863281 335.226563 L 444.800781 335.359375 L 444.738281 335.488281 L 444.671875 335.609375 L 444.601563 335.726563 L 444.527344 335.835938 L 444.453125 335.9375 L 444.371094 336.035156 L 444.292969 336.128906 L 444.121094 336.292969 L 444.03125 336.367188 L 443.9375 336.433594 L 443.839844 336.5 L 443.742188 336.554688 L 443.640625 336.609375 L 443.539063 336.652344 L 443.429688 336.695313 L 443.324219 336.730469 L 443.214844 336.765625 L 443.105469 336.792969 L 442.992188 336.816406 L 442.878906 336.835938 L 442.765625 336.851563 L 442.648438 336.863281 L 442.414063 336.871094 L 442.292969 336.867188 L 442.175781 336.863281 L 442.058594 336.851563 L 441.941406 336.835938 L 441.828125 336.816406 L 441.71875 336.792969 L 441.609375 336.765625 L 441.390625 336.695313 L 441.289063 336.652344 L 441.183594 336.609375 L 440.988281 336.5 L 440.890625 336.433594 L 440.800781 336.367188 L 440.710938 336.292969 L 440.539063 336.128906 L 440.457031 336.035156 L 440.378906 335.9375 L 440.304688 335.835938 L 440.234375 335.726563 L 440.164063 335.613281 L 440.101563 335.492188 L 440.039063 335.363281 L 439.980469 335.230469 L 439.921875 335.089844 L 439.871094 334.945313 L 439.820313 334.789063 L 439.777344 334.632813 L 439.734375 334.464844 L 439.699219 334.292969 L 439.664063 334.109375 L 439.636719 333.917969 L 439.613281 333.722656 L 439.59375 333.519531 L 439.578125 333.304688 L 439.566406 333.085938 L 439.5625 332.859375 L 439.558594 332.621094 L 439.5625 332.378906 L 439.566406 332.140625 L 439.578125 331.914063 L 439.59375 331.695313 L 439.613281 331.484375 L 439.636719 331.28125 L 439.664063 331.085938 L 439.699219 330.902344 L 439.734375 330.726563 L 439.777344 330.558594 L 439.820313 330.398438 L 439.871094 330.246094 L 439.925781 330.097656 L 439.980469 329.957031 L 440.039063 329.824219 L 440.101563 329.695313 L 440.167969 329.574219 L 440.238281 329.460938 L 440.308594 329.355469 L 440.386719 329.253906 L 440.464844 329.160156 L 440.546875 329.070313 L 440.628906 328.988281 L 440.71875 328.910156 L 440.808594 328.839844 L 440.898438 328.773438 L 440.996094 328.714844 L 441.09375 328.664063 L 441.195313 328.617188 L 441.300781 328.574219 L 441.40625 328.535156 L 441.625 328.472656 L 441.734375 328.445313 L 441.851563 328.425781 L 441.964844 328.40625 L 442.082031 328.390625 L 442.324219 328.375 L 442.566406 328.375 L 442.679688 328.382813 L 442.796875 328.390625 L 442.910156 328.40625 L 443.128906 328.445313 L 443.238281 328.472656 L 443.449219 328.535156 L 443.554688 328.574219 L 443.65625 328.617188 L 443.757813 328.664063 L 443.855469 328.714844 L 443.949219 328.773438 L 444.042969 328.839844 L 444.132813 328.910156 L 444.21875 328.988281 L 444.304688 329.070313 L 444.382813 329.160156 L 444.464844 329.253906 L 444.539063 329.355469 L 444.609375 329.460938 L 444.679688 329.574219 L 444.746094 329.695313 L 444.808594 329.824219 L 444.867188 329.957031 L 444.925781 330.097656 L 444.976563 330.246094 L 445.027344 330.398438 L 445.074219 330.558594 L 445.113281 330.726563 L 445.152344 330.902344 L 445.1875 331.085938 L 445.214844 331.28125 L 445.238281 331.484375 L 445.257813 331.695313 L 445.273438 331.914063 L 445.285156 332.140625 L 445.292969 332.378906 Z M 444.222656 332.621094 L 444.222656 332.429688 L 444.21875 332.242188 L 444.210938 332.0625 L 444.203125 331.886719 L 444.195313 331.722656 L 444.179688 331.5625 L 444.164063 331.40625 L 444.148438 331.261719 L 444.128906 331.121094 L 444.105469 330.988281 L 444.082031 330.859375 L 444.054688 330.734375 L 444.023438 330.617188 L 443.996094 330.507813 L 443.960938 330.398438 L 443.925781 330.296875 L 443.847656 330.109375 L 443.804688 330.023438 L 443.761719 329.945313 L 443.714844 329.867188 L 443.664063 329.796875 L 443.613281 329.730469 L 443.558594 329.667969 L 443.503906 329.609375 L 443.449219 329.558594 L 443.386719 329.511719 L 443.328125 329.464844 L 443.261719 329.429688 L 443.199219 329.394531 L 443.132813 329.363281 L 442.992188 329.308594 L 442.921875 329.289063 L 442.847656 329.269531 L 442.691406 329.246094 L 442.613281 329.238281 L 442.53125 329.230469 L 442.359375 329.230469 L 442.273438 329.238281 L 442.191406 329.246094 L 442.027344 329.269531 L 441.949219 329.289063 L 441.875 329.308594 L 441.800781 329.335938 L 441.730469 329.363281 L 441.664063 329.394531 L 441.59375 329.429688 L 441.53125 329.46875 L 441.46875 329.511719 L 441.40625 329.5625 L 441.347656 329.617188 L 441.292969 329.671875 L 441.238281 329.734375 L 441.136719 329.875 L 441.089844 329.949219 L 441.042969 330.03125 L 441 330.117188 L 440.960938 330.207031 L 440.921875 330.304688 L 440.886719 330.40625 L 440.855469 330.511719 L 440.824219 330.625 L 440.792969 330.742188 L 440.765625 330.863281 L 440.742188 330.992188 L 440.71875 331.128906 L 440.699219 331.265625 L 440.683594 331.414063 L 440.667969 331.566406 L 440.65625 331.726563 L 440.644531 331.890625 L 440.636719 332.066406 L 440.628906 332.246094 L 440.625 332.429688 L 440.625 332.808594 L 440.628906 332.992188 L 440.644531 333.335938 L 440.65625 333.496094 L 440.667969 333.652344 L 440.683594 333.804688 L 440.699219 333.949219 L 440.71875 334.089844 L 440.742188 334.222656 L 440.769531 334.351563 L 440.796875 334.472656 L 440.824219 334.589844 L 440.859375 334.703125 L 440.890625 334.808594 L 440.929688 334.910156 L 440.964844 335.007813 L 441.007813 335.101563 L 441.050781 335.1875 L 441.09375 335.269531 L 441.140625 335.347656 L 441.242188 335.488281 L 441.296875 335.550781 L 441.351563 335.609375 L 441.410156 335.664063 L 441.472656 335.714844 L 441.53125 335.761719 L 441.664063 335.839844 L 441.730469 335.871094 L 441.800781 335.902344 L 441.871094 335.925781 L 441.945313 335.949219 L 442.019531 335.96875 L 442.175781 335.992188 L 442.257813 336.003906 L 442.339844 336.007813 L 442.507813 336.007813 L 442.585938 336.003906 L 442.667969 335.992188 L 442.742188 335.980469 L 442.820313 335.96875 L 442.894531 335.949219 L 442.964844 335.925781 L 443.039063 335.902344 L 443.105469 335.871094 L 443.175781 335.839844 L 443.238281 335.800781 L 443.304688 335.761719 L 443.363281 335.714844 L 443.425781 335.664063 L 443.480469 335.609375 L 443.535156 335.550781 L 443.589844 335.488281 L 443.691406 335.347656 L 443.738281 335.269531 L 443.78125 335.1875 L 443.824219 335.101563 L 443.867188 335.007813 L 443.90625 334.910156 L 443.941406 334.808594 L 443.976563 334.703125 L 444.011719 334.589844 L 444.039063 334.472656 L 444.066406 334.351563 L 444.09375 334.222656 L 444.117188 334.089844 L 444.140625 333.949219 L 444.160156 333.804688 L 444.175781 333.652344 L 444.191406 333.496094 L 444.203125 333.335938 L 444.21875 332.992188 L 444.222656 332.808594 Z M 444.222656 332.621094 "/>
<path style=" stroke:none;fill-rule:nonzero;fill:rgb(0%,0%,0%);fill-opacity:1;" d="M 255.074219 351.617188 L 253.351563 348.9375 L 251.617188 351.617188 L 249.574219 351.617188 L 252.28125 347.792969 L 249.703125 344.21875 L 251.773438 344.21875 L 253.351563 346.640625 L 254.925781 344.21875 L 257.011719 344.21875 L 254.433594 347.773438 L 257.160156 351.617188 Z M 255.074219 351.617188 "/>
</g>
</svg>
