<?xml version="1.0" encoding="UTF-8"?>
<svg xmlns="http://www.w3.org/2000/svg" xmlns:xlink="http://www.w3.org/1999/xlink" width="504pt" height="288pt" viewBox="0 0 504 288">
<defs>
<g>
<g id="glyph-0-0">
<path d="M 0.546875 0 L 0.546875 -12.25 L 10.28125 -12.25 L 10.28125 0 Z M 8.734375 -1.53125 L 8.734375 -10.71875 L 2.078125 -10.71875 L 2.078125 -1.53125 Z M 8.734375 -1.53125 "/>
</g>
<g id="glyph-0-1">
<path d="M 1.40625 -11.421875 L 2.921875 -11.421875 L 2.921875 -8.9375 L 4.34375 -8.9375 L 4.34375 -7.703125 L 2.921875 -7.703125 L 2.921875 -1.875 C 2.921875 -1.5625 3.023438 -1.351562 3.234375 -1.25 C 3.347656 -1.1875 3.539062 -1.15625 3.8125 -1.15625 C 3.882812 -1.15625 3.960938 -1.15625 4.046875 -1.15625 C 4.128906 -1.164062 4.226562 -1.175781 4.34375 -1.1875 L 4.34375 0 C 4.175781 0.0507812 4 0.0859375 3.8125 0.109375 C 3.625 0.128906 3.421875 0.140625 3.203125 0.140625 C 2.503906 0.140625 2.03125 -0.0351562 1.78125 -0.390625 C 1.53125 -0.753906 1.40625 -1.222656 1.40625 -1.796875 L 1.40625 -7.703125 L 0.1875 -7.703125 L 0.1875 -8.9375 L 1.40625 -8.9375 Z M 1.40625 -11.421875 "/>
</g>
<g id="glyph-0-2">
</g>
<g id="glyph-0-3">
<path d="M 9.46875 -6.859375 L 9.46875 -5.453125 L 0.765625 -5.453125 L 0.765625 -6.859375 Z M 9.46875 -3.28125 L 9.46875 -1.84375 L 0.765625 -1.84375 L 0.765625 -3.28125 Z M 9.46875 -3.28125 "/>
</g>
<g id="glyph-0-4">
<path d="M 0.53125 0 C 0.582031 -1.03125 0.789062 -1.925781 1.15625 -2.6875 C 1.53125 -3.445312 2.253906 -4.140625 3.328125 -4.765625 L 4.9375 -5.6875 C 5.65625 -6.101562 6.160156 -6.457031 6.453125 -6.75 C 6.898438 -7.21875 7.125 -7.75 7.125 -8.34375 C 7.125 -9.03125 6.914062 -9.578125 6.5 -9.984375 C 6.082031 -10.398438 5.53125 -10.609375 4.84375 -10.609375 C 3.8125 -10.609375 3.097656 -10.21875 2.703125 -9.4375 C 2.492188 -9.019531 2.378906 -8.441406 2.359375 -7.703125 L 0.828125 -7.703125 C 0.835938 -8.742188 1.03125 -9.59375 1.40625 -10.25 C 2.050781 -11.40625 3.195312 -11.984375 4.84375 -11.984375 C 6.207031 -11.984375 7.207031 -11.613281 7.84375 -10.875 C 8.476562 -10.132812 8.796875 -9.3125 8.796875 -8.40625 C 8.796875 -7.445312 8.457031 -6.628906 7.78125 -5.953125 C 7.394531 -5.554688 6.695312 -5.078125 5.6875 -4.515625 L 4.546875 -3.890625 C 4.003906 -3.585938 3.578125 -3.300781 3.265625 -3.03125 C 2.703125 -2.539062 2.347656 -2.003906 2.203125 -1.421875 L 8.734375 -1.421875 L 8.734375 0 Z M 0.53125 0 "/>
</g>
<g id="glyph-0-5">
<path d="M 1.453125 -1.8125 L 3.203125 -1.8125 L 3.203125 0 L 1.453125 0 Z M 1.453125 -1.8125 "/>
</g>
<g id="glyph-0-6">
<path d="M 4.640625 -6.9375 C 5.304688 -6.9375 5.820312 -7.117188 6.1875 -7.484375 C 6.5625 -7.859375 6.75 -8.300781 6.75 -8.8125 C 6.75 -9.257812 6.570312 -9.664062 6.21875 -10.03125 C 5.863281 -10.40625 5.320312 -10.59375 4.59375 -10.59375 C 3.875 -10.59375 3.351562 -10.40625 3.03125 -10.03125 C 2.707031 -9.664062 2.546875 -9.234375 2.546875 -8.734375 C 2.546875 -8.171875 2.753906 -7.726562 3.171875 -7.40625 C 3.585938 -7.09375 4.078125 -6.9375 4.640625 -6.9375 Z M 4.734375 -1.03125 C 5.429688 -1.03125 6.007812 -1.21875 6.46875 -1.59375 C 6.925781 -1.96875 7.15625 -2.523438 7.15625 -3.265625 C 7.15625 -4.035156 6.914062 -4.617188 6.4375 -5.015625 C 5.96875 -5.421875 5.363281 -5.625 4.625 -5.625 C 3.90625 -5.625 3.316406 -5.421875 2.859375 -5.015625 C 2.410156 -4.609375 2.1875 -4.039062 2.1875 -3.3125 C 2.1875 -2.695312 2.394531 -2.160156 2.8125 -1.703125 C 3.226562 -1.253906 3.867188 -1.03125 4.734375 -1.03125 Z M 2.609375 -6.359375 C 2.179688 -6.535156 1.851562 -6.742188 1.625 -6.984375 C 1.1875 -7.429688 0.96875 -8.007812 0.96875 -8.71875 C 0.96875 -9.613281 1.289062 -10.378906 1.9375 -11.015625 C 2.582031 -11.648438 3.492188 -11.96875 4.671875 -11.96875 C 5.816406 -11.96875 6.710938 -11.664062 7.359375 -11.0625 C 8.015625 -10.46875 8.34375 -9.765625 8.34375 -8.953125 C 8.34375 -8.210938 8.15625 -7.609375 7.78125 -7.140625 C 7.570312 -6.878906 7.242188 -6.625 6.796875 -6.375 C 7.285156 -6.144531 7.675781 -5.882812 7.96875 -5.59375 C 8.488281 -5.039062 8.75 -4.316406 8.75 -3.421875 C 8.75 -2.367188 8.394531 -1.476562 7.6875 -0.75 C 6.988281 -0.0195312 5.992188 0.34375 4.703125 0.34375 C 3.535156 0.34375 2.550781 0.0273438 1.75 -0.59375 C 0.945312 -1.226562 0.546875 -2.148438 0.546875 -3.359375 C 0.546875 -4.054688 0.71875 -4.660156 1.0625 -5.171875 C 1.40625 -5.691406 1.921875 -6.085938 2.609375 -6.359375 Z M 2.609375 -6.359375 "/>
</g>
<g id="glyph-0-7">
<path d="M 5 -11.984375 C 6.332031 -11.984375 7.257812 -11.640625 7.78125 -10.953125 C 8.3125 -10.265625 8.578125 -9.550781 8.578125 -8.8125 L 7.09375 -8.8125 C 7 -9.28125 6.851562 -9.648438 6.65625 -9.921875 C 6.300781 -10.421875 5.753906 -10.671875 5.015625 -10.671875 C 4.179688 -10.671875 3.515625 -10.28125 3.015625 -9.5 C 2.523438 -8.726562 2.25 -7.617188 2.1875 -6.171875 C 2.53125 -6.679688 2.96875 -7.0625 3.5 -7.3125 C 3.976562 -7.53125 4.507812 -7.640625 5.09375 -7.640625 C 6.09375 -7.640625 6.960938 -7.320312 7.703125 -6.6875 C 8.453125 -6.050781 8.828125 -5.097656 8.828125 -3.828125 C 8.828125 -2.742188 8.472656 -1.78125 7.765625 -0.9375 C 7.066406 -0.101562 6.0625 0.3125 4.75 0.3125 C 3.632812 0.3125 2.671875 -0.109375 1.859375 -0.953125 C 1.046875 -1.804688 0.640625 -3.238281 0.640625 -5.25 C 0.640625 -6.726562 0.820312 -7.984375 1.1875 -9.015625 C 1.875 -10.992188 3.144531 -11.984375 5 -11.984375 Z M 4.890625 -1.03125 C 5.679688 -1.03125 6.269531 -1.296875 6.65625 -1.828125 C 7.050781 -2.359375 7.25 -2.984375 7.25 -3.703125 C 7.25 -4.316406 7.070312 -4.898438 6.71875 -5.453125 C 6.375 -6.003906 5.738281 -6.28125 4.8125 -6.28125 C 4.164062 -6.28125 3.597656 -6.066406 3.109375 -5.640625 C 2.628906 -5.210938 2.390625 -4.566406 2.390625 -3.703125 C 2.390625 -2.941406 2.609375 -2.304688 3.046875 -1.796875 C 3.484375 -1.285156 4.097656 -1.03125 4.890625 -1.03125 Z M 4.890625 -1.03125 "/>
</g>
<g id="glyph-1-0">
<path d="M 0.453125 0 L 0.453125 -10.046875 L 8.421875 -10.046875 L 8.421875 0 Z M 7.171875 -1.265625 L 7.171875 -8.78125 L 1.703125 -8.78125 L 1.703125 -1.265625 Z M 7.171875 -1.265625 "/>
</g>
<g id="glyph-1-1">
<path d="M 0.578125 -4.53125 L 4.015625 -4.53125 L 4.015625 -3.265625 L 0.578125 -3.265625 Z M 0.578125 -4.53125 "/>
</g>
<g id="glyph-1-2">
<path d="M 1.734375 -2.5 C 1.816406 -1.789062 2.140625 -1.304688 2.703125 -1.046875 C 2.992188 -0.898438 3.332031 -0.828125 3.71875 -0.828125 C 4.445312 -0.828125 4.984375 -1.0625 5.328125 -1.53125 C 5.679688 -2 5.859375 -2.515625 5.859375 -3.078125 C 5.859375 -3.765625 5.648438 -4.289062 5.234375 -4.65625 C 4.816406 -5.03125 4.316406 -5.21875 3.734375 -5.21875 C 3.316406 -5.21875 2.953125 -5.132812 2.640625 -4.96875 C 2.335938 -4.8125 2.082031 -4.585938 1.875 -4.296875 L 0.8125 -4.359375 L 1.546875 -9.625 L 6.640625 -9.625 L 6.640625 -8.4375 L 2.46875 -8.4375 L 2.0625 -5.71875 C 2.289062 -5.882812 2.503906 -6.015625 2.703125 -6.109375 C 3.066406 -6.253906 3.488281 -6.328125 3.96875 -6.328125 C 4.863281 -6.328125 5.625 -6.035156 6.25 -5.453125 C 6.875 -4.878906 7.1875 -4.148438 7.1875 -3.265625 C 7.1875 -2.335938 6.898438 -1.519531 6.328125 -0.8125 C 5.753906 -0.101562 4.84375 0.25 3.59375 0.25 C 2.800781 0.25 2.097656 0.0234375 1.484375 -0.421875 C 0.867188 -0.867188 0.523438 -1.5625 0.453125 -2.5 Z M 1.734375 -2.5 "/>
</g>
<g id="glyph-1-3">
<path d="M 1.203125 -1.484375 L 2.625 -1.484375 L 2.625 0 L 1.203125 0 Z M 1.203125 -1.484375 "/>
</g>
<g id="glyph-1-4">
<path d="M 3.78125 -9.796875 C 5.050781 -9.796875 5.96875 -9.269531 6.53125 -8.21875 C 6.96875 -7.414062 7.1875 -6.3125 7.1875 -4.90625 C 7.1875 -3.570312 6.988281 -2.472656 6.59375 -1.609375 C 6.019531 -0.359375 5.082031 0.265625 3.78125 0.265625 C 2.601562 0.265625 1.726562 -0.242188 1.15625 -1.265625 C 0.675781 -2.117188 0.4375 -3.265625 0.4375 -4.703125 C 0.4375 -5.804688 0.582031 -6.757812 0.875 -7.5625 C 1.40625 -9.050781 2.375 -9.796875 3.78125 -9.796875 Z M 3.78125 -0.859375 C 4.414062 -0.859375 4.921875 -1.140625 5.296875 -1.703125 C 5.671875 -2.265625 5.859375 -3.316406 5.859375 -4.859375 C 5.859375 -5.972656 5.722656 -6.890625 5.453125 -7.609375 C 5.179688 -8.328125 4.648438 -8.6875 3.859375 -8.6875 C 3.140625 -8.6875 2.609375 -8.34375 2.265625 -7.65625 C 1.929688 -6.976562 1.765625 -5.976562 1.765625 -4.65625 C 1.765625 -3.65625 1.875 -2.851562 2.09375 -2.25 C 2.414062 -1.320312 2.976562 -0.859375 3.78125 -0.859375 Z M 3.78125 -0.859375 "/>
</g>
<g id="glyph-1-5">
<path d="M 0.4375 0 C 0.476562 -0.84375 0.648438 -1.578125 0.953125 -2.203125 C 1.265625 -2.828125 1.859375 -3.394531 2.734375 -3.90625 L 4.046875 -4.65625 C 4.628906 -5 5.039062 -5.289062 5.28125 -5.53125 C 5.65625 -5.914062 5.84375 -6.351562 5.84375 -6.84375 C 5.84375 -7.40625 5.671875 -7.851562 5.328125 -8.1875 C 4.984375 -8.53125 4.53125 -8.703125 3.96875 -8.703125 C 3.125 -8.703125 2.539062 -8.378906 2.21875 -7.734375 C 2.039062 -7.390625 1.941406 -6.914062 1.921875 -6.3125 L 0.671875 -6.3125 C 0.691406 -7.164062 0.851562 -7.863281 1.15625 -8.40625 C 1.6875 -9.351562 2.625 -9.828125 3.96875 -9.828125 C 5.09375 -9.828125 5.910156 -9.519531 6.421875 -8.90625 C 6.941406 -8.300781 7.203125 -7.628906 7.203125 -6.890625 C 7.203125 -6.109375 6.925781 -5.4375 6.375 -4.875 C 6.0625 -4.550781 5.488281 -4.160156 4.65625 -3.703125 L 3.71875 -3.1875 C 3.28125 -2.9375 2.929688 -2.703125 2.671875 -2.484375 C 2.210938 -2.085938 1.925781 -1.644531 1.8125 -1.15625 L 7.15625 -1.15625 L 7.15625 0 Z M 0.4375 0 "/>
</g>
<g id="glyph-2-0">
<path d="M 1.203125 -11.515625 L 10.484375 -11.515625 L 10.484375 0 L 1.203125 0 Z M 9.046875 -1.4375 L 9.046875 -10.078125 L 2.640625 -10.078125 L 2.640625 -1.4375 Z M 9.046875 -1.4375 "/>
</g>
<g id="glyph-2-1">
<path d="M 4.9375 -1.59375 L 4.9375 0.078125 L 3.890625 0.125 C 2.835938 0.15625 2.117188 -0.03125 1.734375 -0.4375 C 1.484375 -0.6875 1.359375 -1.078125 1.359375 -1.609375 L 1.359375 -6.859375 L 0.171875 -6.859375 L 0.171875 -8.4375 L 1.359375 -8.4375 L 1.359375 -10.8125 L 3.5625 -10.8125 L 3.5625 -8.4375 L 4.9375 -8.4375 L 4.9375 -6.859375 L 3.5625 -6.859375 L 3.5625 -2.359375 C 3.5625 -2.003906 3.601562 -1.785156 3.6875 -1.703125 C 3.78125 -1.617188 4.050781 -1.578125 4.5 -1.578125 C 4.570312 -1.578125 4.644531 -1.578125 4.71875 -1.578125 C 4.789062 -1.578125 4.863281 -1.582031 4.9375 -1.59375 Z M 4.9375 -1.59375 "/>
</g>
</g>
<clipPath id="clip-0">
<path clip-rule="nonzero" d="M 5.480469 5.480469 L 498.523438 5.480469 L 498.523438 243.851562 L 5.480469 243.851562 Z M 5.480469 5.480469 "/>
</clipPath>
<clipPath id="clip-1">
<path clip-rule="nonzero" d="M 5.480469 205 L 498.523438 205 L 498.523438 207 L 5.480469 207 Z M 5.480469 205 "/>
</clipPath>
<clipPath id="clip-2">
<path clip-rule="nonzero" d="M 5.480469 151 L 498.523438 151 L 498.523438 153 L 5.480469 153 Z M 5.480469 151 "/>
</clipPath>
<clipPath id="clip-3">
<path clip-rule="nonzero" d="M 5.480469 97 L 498.523438 97 L 498.523438 98 L 5.480469 98 Z M 5.480469 97 "/>
</clipPath>
<clipPath id="clip-4">
<path clip-rule="nonzero" d="M 5.480469 43 L 498.523438 43 L 498.523438 44 L 5.480469 44 Z M 5.480469 43 "/>
</clipPath>
<clipPath id="clip-5">
<path clip-rule="nonzero" d="M 83 5.480469 L 85 5.480469 L 85 243.851562 L 83 243.851562 Z M 83 5.480469 "/>
</clipPath>
<clipPath id="clip-6">
<path clip-rule="nonzero" d="M 195 5.480469 L 197 5.480469 L 197 243.851562 L 195 243.851562 Z M 195 5.480469 "/>
</clipPath>
<clipPath id="clip-7">
<path clip-rule="nonzero" d="M 307 5.480469 L 309 5.480469 L 309 243.851562 L 307 243.851562 Z M 307 5.480469 "/>
</clipPath>
<clipPath id="clip-8">
<path clip-rule="nonzero" d="M 419 5.480469 L 421 5.480469 L 421 243.851562 L 419 243.851562 Z M 419 5.480469 "/>
</clipPath>
<clipPath id="clip-9">
<path clip-rule="nonzero" d="M 5.480469 232 L 498.523438 232 L 498.523438 234 L 5.480469 234 Z M 5.480469 232 "/>
</clipPath>
<clipPath id="clip-10">
<path clip-rule="nonzero" d="M 5.480469 178 L 498.523438 178 L 498.523438 180 L 5.480469 180 Z M 5.480469 178 "/>
</clipPath>
<clipPath id="clip-11">
<path clip-rule="nonzero" d="M 5.480469 124 L 498.523438 124 L 498.523438 126 L 5.480469 126 Z M 5.480469 124 "/>
</clipPath>
<clipPath id="clip-12">
<path clip-rule="nonzero" d="M 5.480469 69 L 498.523438 69 L 498.523438 72 L 5.480469 72 Z M 5.480469 69 "/>
</clipPath>
<clipPath id="clip-13">
<path clip-rule="nonzero" d="M 5.480469 15 L 498.523438 15 L 498.523438 17 L 5.480469 17 Z M 5.480469 15 "/>
</clipPath>
<clipPath id="clip-14">
<path clip-rule="nonzero" d="M 27 5.480469 L 29 5.480469 L 29 243.851562 L 27 243.851562 Z M 27 5.480469 "/>
</clipPath>
<clipPath id="clip-15">
<path clip-rule="nonzero" d="M 139 5.480469 L 141 5.480469 L 141 243.851562 L 139 243.851562 Z M 139 5.480469 "/>
</clipPath>
<clipPath id="clip-16">
<path clip-rule="nonzero" d="M 251 5.480469 L 253 5.480469 L 253 243.851562 L 251 243.851562 Z M 251 5.480469 "/>
</clipPath>
<clipPath id="clip-17">
<path clip-rule="nonzero" d="M 363 5.480469 L 365 5.480469 L 365 243.851562 L 363 243.851562 Z M 363 5.480469 "/>
</clipPath>
<clipPath id="clip-18">
<path clip-rule="nonzero" d="M 475 5.480469 L 477 5.480469 L 477 243.851562 L 475 243.851562 Z M 475 5.480469 "/>
</clipPath>
</defs>
<rect x="-50.4" y="-28.8" width="604.8" height="345.6" fill="rgb(100%, 100%, 100%)" fill-opacity="1"/>
<rect x="-50.4" y="-28.8" width="604.8" height="345.6" fill="rgb(100%, 100%, 100%)" fill-opacity="1"/>
<path fill="none" stroke-width="1.066978" stroke-linecap="round" stroke-linejoin="round" stroke="rgb(100%, 100%, 100%)" stroke-opacity="1" stroke-miterlimit="10" d="M 0 288 L 504 288 L 504 0 L 0 0 Z M 0 288 "/>
<g clip-path="url(#clip-0)">
<path fill-rule="nonzero" fill="rgb(92.156863%, 92.156863%, 92.156863%)" fill-opacity="1" d="M 5.480469 243.847656 L 498.523438 243.847656 L 498.523438 5.476562 L 5.480469 5.476562 Z M 5.480469 243.847656 "/>
</g>
<g clip-path="url(#clip-1)">
<path fill="none" stroke-width="0.533489" stroke-linecap="butt" stroke-linejoin="round" stroke="rgb(100%, 100%, 100%)" stroke-opacity="1" stroke-miterlimit="10" d="M 5.480469 205.925781 L 498.519531 205.925781 "/>
</g>
<g clip-path="url(#clip-2)">
<path fill="none" stroke-width="0.533489" stroke-linecap="butt" stroke-linejoin="round" stroke="rgb(100%, 100%, 100%)" stroke-opacity="1" stroke-miterlimit="10" d="M 5.480469 151.75 L 498.519531 151.75 "/>
</g>
<g clip-path="url(#clip-3)">
<path fill="none" stroke-width="0.533489" stroke-linecap="butt" stroke-linejoin="round" stroke="rgb(100%, 100%, 100%)" stroke-opacity="1" stroke-miterlimit="10" d="M 5.480469 97.578125 L 498.519531 97.578125 "/>
</g>
<g clip-path="url(#clip-4)">
<path fill="none" stroke-width="0.533489" stroke-linecap="butt" stroke-linejoin="round" stroke="rgb(100%, 100%, 100%)" stroke-opacity="1" stroke-miterlimit="10" d="M 5.480469 43.402344 L 498.519531 43.402344 "/>
</g>
<g clip-path="url(#clip-5)">
<path fill="none" stroke-width="0.533489" stroke-linecap="butt" stroke-linejoin="round" stroke="rgb(100%, 100%, 100%)" stroke-opacity="1" stroke-miterlimit="10" d="M 83.917969 243.847656 L 83.917969 5.480469 "/>
</g>
<g clip-path="url(#clip-6)">
<path fill="none" stroke-width="0.533489" stroke-linecap="butt" stroke-linejoin="round" stroke="rgb(100%, 100%, 100%)" stroke-opacity="1" stroke-miterlimit="10" d="M 195.972656 243.847656 L 195.972656 5.480469 "/>
</g>
<g clip-path="url(#clip-7)">
<path fill="none" stroke-width="0.533489" stroke-linecap="butt" stroke-linejoin="round" stroke="rgb(100%, 100%, 100%)" stroke-opacity="1" stroke-miterlimit="10" d="M 308.027344 243.847656 L 308.027344 5.480469 "/>
</g>
<g clip-path="url(#clip-8)">
<path fill="none" stroke-width="0.533489" stroke-linecap="butt" stroke-linejoin="round" stroke="rgb(100%, 100%, 100%)" stroke-opacity="1" stroke-miterlimit="10" d="M 420.082031 243.847656 L 420.082031 5.480469 "/>
</g>
<g clip-path="url(#clip-9)">
<path fill="none" stroke-width="1.066978" stroke-linecap="butt" stroke-linejoin="round" stroke="rgb(100%, 100%, 100%)" stroke-opacity="1" stroke-miterlimit="10" d="M 5.480469 233.015625 L 498.519531 233.015625 "/>
</g>
<g clip-path="url(#clip-10)">
<path fill="none" stroke-width="1.066978" stroke-linecap="butt" stroke-linejoin="round" stroke="rgb(100%, 100%, 100%)" stroke-opacity="1" stroke-miterlimit="10" d="M 5.480469 178.839844 L 498.519531 178.839844 "/>
</g>
<g clip-path="url(#clip-11)">
<path fill="none" stroke-width="1.066978" stroke-linecap="butt" stroke-linejoin="round" stroke="rgb(100%, 100%, 100%)" stroke-opacity="1" stroke-miterlimit="10" d="M 5.480469 124.664062 L 498.519531 124.664062 "/>
</g>
<g clip-path="url(#clip-12)">
<path fill="none" stroke-width="1.066978" stroke-linecap="butt" stroke-linejoin="round" stroke="rgb(100%, 100%, 100%)" stroke-opacity="1" stroke-miterlimit="10" d="M 5.480469 70.488281 L 498.519531 70.488281 "/>
</g>
<g clip-path="url(#clip-13)">
<path fill="none" stroke-width="1.066978" stroke-linecap="butt" stroke-linejoin="round" stroke="rgb(100%, 100%, 100%)" stroke-opacity="1" stroke-miterlimit="10" d="M 5.480469 16.3125 L 498.519531 16.3125 "/>
</g>
<g clip-path="url(#clip-14)">
<path fill="none" stroke-width="1.066978" stroke-linecap="butt" stroke-linejoin="round" stroke="rgb(100%, 100%, 100%)" stroke-opacity="1" stroke-miterlimit="10" d="M 27.890625 243.847656 L 27.890625 5.480469 "/>
</g>
<g clip-path="url(#clip-15)">
<path fill="none" stroke-width="1.066978" stroke-linecap="butt" stroke-linejoin="round" stroke="rgb(100%, 100%, 100%)" stroke-opacity="1" stroke-miterlimit="10" d="M 139.945312 243.847656 L 139.945312 5.480469 "/>
</g>
<g clip-path="url(#clip-16)">
<path fill="none" stroke-width="1.066978" stroke-linecap="butt" stroke-linejoin="round" stroke="rgb(100%, 100%, 100%)" stroke-opacity="1" stroke-miterlimit="10" d="M 252 243.847656 L 252 5.480469 "/>
</g>
<g clip-path="url(#clip-17)">
<path fill="none" stroke-width="1.066978" stroke-linecap="butt" stroke-linejoin="round" stroke="rgb(100%, 100%, 100%)" stroke-opacity="1" stroke-miterlimit="10" d="M 364.054688 243.847656 L 364.054688 5.480469 "/>
</g>
<g clip-path="url(#clip-18)">
<path fill="none" stroke-width="1.066978" stroke-linecap="butt" stroke-linejoin="round" stroke="rgb(100%, 100%, 100%)" stroke-opacity="1" stroke-miterlimit="10" d="M 476.109375 243.847656 L 476.109375 5.480469 "/>
</g>
<g fill="rgb(0%, 0%, 0%)" fill-opacity="1">
<use xlink:href="#glyph-0-1" x="391.582031" y="211.571289"/>
<use xlink:href="#glyph-0-2" x="396.582031" y="211.571289"/>
<use xlink:href="#glyph-0-3" x="401.582031" y="211.571289"/>
<use xlink:href="#glyph-0-2" x="411.582031" y="211.571289"/>
<use xlink:href="#glyph-0-4" x="416.582031" y="211.571289"/>
<use xlink:href="#glyph-0-5" x="425.582031" y="211.571289"/>
<use xlink:href="#glyph-0-6" x="430.582031" y="211.571289"/>
<use xlink:href="#glyph-0-7" x="439.582031" y="211.571289"/>
</g>
<path fill="none" stroke-width="1.066978" stroke-linecap="butt" stroke-linejoin="round" stroke="rgb(20%, 20%, 20%)" stroke-opacity="1" stroke-miterlimit="10" d="M 27.890625 246.589844 L 27.890625 243.847656 "/>
<path fill="none" stroke-width="1.066978" stroke-linecap="butt" stroke-linejoin="round" stroke="rgb(20%, 20%, 20%)" stroke-opacity="1" stroke-miterlimit="10" d="M 139.945312 246.589844 L 139.945312 243.847656 "/>
<path fill="none" stroke-width="1.066978" stroke-linecap="butt" stroke-linejoin="round" stroke="rgb(20%, 20%, 20%)" stroke-opacity="1" stroke-miterlimit="10" d="M 252 246.589844 L 252 243.847656 "/>
<path fill="none" stroke-width="1.066978" stroke-linecap="butt" stroke-linejoin="round" stroke="rgb(20%, 20%, 20%)" stroke-opacity="1" stroke-miterlimit="10" d="M 364.054688 246.589844 L 364.054688 243.847656 "/>
<path fill="none" stroke-width="1.066978" stroke-linecap="butt" stroke-linejoin="round" stroke="rgb(20%, 20%, 20%)" stroke-opacity="1" stroke-miterlimit="10" d="M 476.109375 246.589844 L 476.109375 243.847656 "/>
<g fill="rgb(30.196078%, 30.196078%, 30.196078%)" fill-opacity="1">
<use xlink:href="#glyph-1-1" x="15.390625" y="259.561523"/>
<use xlink:href="#glyph-1-2" x="20.390625" y="259.561523"/>
<use xlink:href="#glyph-1-3" x="28.390625" y="259.561523"/>
<use xlink:href="#glyph-1-4" x="32.390625" y="259.561523"/>
</g>
<g fill="rgb(30.196078%, 30.196078%, 30.196078%)" fill-opacity="1">
<use xlink:href="#glyph-1-1" x="127.445312" y="259.561523"/>
<use xlink:href="#glyph-1-5" x="132.445312" y="259.561523"/>
<use xlink:href="#glyph-1-3" x="140.445312" y="259.561523"/>
<use xlink:href="#glyph-1-2" x="144.445312" y="259.561523"/>
</g>
<g fill="rgb(30.196078%, 30.196078%, 30.196078%)" fill-opacity="1">
<use xlink:href="#glyph-1-4" x="242" y="259.561523"/>
<use xlink:href="#glyph-1-3" x="250" y="259.561523"/>
<use xlink:href="#glyph-1-4" x="254" y="259.561523"/>
</g>
<g fill="rgb(30.196078%, 30.196078%, 30.196078%)" fill-opacity="1">
<use xlink:href="#glyph-1-5" x="354.054688" y="259.561523"/>
<use xlink:href="#glyph-1-3" x="362.054688" y="259.561523"/>
<use xlink:href="#glyph-1-2" x="366.054688" y="259.561523"/>
</g>
<g fill="rgb(30.196078%, 30.196078%, 30.196078%)" fill-opacity="1">
<use xlink:href="#glyph-1-2" x="466.109375" y="259.561523"/>
<use xlink:href="#glyph-1-3" x="474.109375" y="259.561523"/>
<use xlink:href="#glyph-1-4" x="478.109375" y="259.561523"/>
</g>
<g fill="rgb(0%, 0%, 0%)" fill-opacity="1">
<use xlink:href="#glyph-2-1" x="249.5" y="277.839844"/>
</g>
</svg>
