<?xml version="1.0" encoding="UTF-8"?>
<svg xmlns="http://www.w3.org/2000/svg" xmlns:xlink="http://www.w3.org/1999/xlink" width="576pt" height="288pt" viewBox="0 0 576 288" version="1.1">
<defs>
<clipPath id="clip1">
  <path d="M 8.21875 5.480469 L 570.519531 5.480469 L 570.519531 264.503906 L 8.21875 264.503906 Z M 8.21875 5.480469 "/>
</clipPath>
<clipPath id="clip2">
  <path d="M 8.21875 213 L 570.519531 213 L 570.519531 214 L 8.21875 214 Z M 8.21875 213 "/>
</clipPath>
<clipPath id="clip3">
  <path d="M 8.21875 157 L 570.519531 157 L 570.519531 158 L 8.21875 158 Z M 8.21875 157 "/>
</clipPath>
<clipPath id="clip4">
  <path d="M 8.21875 101 L 570.519531 101 L 570.519531 102 L 8.21875 102 Z M 8.21875 101 "/>
</clipPath>
<clipPath id="clip5">
  <path d="M 8.21875 45 L 570.519531 45 L 570.519531 46 L 8.21875 46 Z M 8.21875 45 "/>
</clipPath>
<clipPath id="clip6">
  <path d="M 97 5.480469 L 98 5.480469 L 98 264.503906 L 97 264.503906 Z M 97 5.480469 "/>
</clipPath>
<clipPath id="clip7">
  <path d="M 225 5.480469 L 226 5.480469 L 226 264.503906 L 225 264.503906 Z M 225 5.480469 "/>
</clipPath>
<clipPath id="clip8">
  <path d="M 353 5.480469 L 354 5.480469 L 354 264.503906 L 353 264.503906 Z M 353 5.480469 "/>
</clipPath>
<clipPath id="clip9">
  <path d="M 480 5.480469 L 482 5.480469 L 482 264.503906 L 480 264.503906 Z M 480 5.480469 "/>
</clipPath>
<clipPath id="clip10">
  <path d="M 8.21875 240 L 570.519531 240 L 570.519531 243 L 8.21875 243 Z M 8.21875 240 "/>
</clipPath>
<clipPath id="clip11">
  <path d="M 8.21875 184 L 570.519531 184 L 570.519531 186 L 8.21875 186 Z M 8.21875 184 "/>
</clipPath>
<clipPath id="clip12">
  <path d="M 8.21875 128 L 570.519531 128 L 570.519531 130 L 8.21875 130 Z M 8.21875 128 "/>
</clipPath>
<clipPath id="clip13">
  <path d="M 8.21875 72 L 570.519531 72 L 570.519531 74 L 8.21875 74 Z M 8.21875 72 "/>
</clipPath>
<clipPath id="clip14">
  <path d="M 8.21875 16 L 570.519531 16 L 570.519531 18 L 8.21875 18 Z M 8.21875 16 "/>
</clipPath>
<clipPath id="clip15">
  <path d="M 33 5.480469 L 35 5.480469 L 35 264.503906 L 33 264.503906 Z M 33 5.480469 "/>
</clipPath>
<clipPath id="clip16">
  <path d="M 161 5.480469 L 163 5.480469 L 163 264.503906 L 161 264.503906 Z M 161 5.480469 "/>
</clipPath>
<clipPath id="clip17">
  <path d="M 288 5.480469 L 290 5.480469 L 290 264.503906 L 288 264.503906 Z M 288 5.480469 "/>
</clipPath>
<clipPath id="clip18">
  <path d="M 416 5.480469 L 418 5.480469 L 418 264.503906 L 416 264.503906 Z M 416 5.480469 "/>
</clipPath>
<clipPath id="clip19">
  <path d="M 544 5.480469 L 546 5.480469 L 546 264.503906 L 544 264.503906 Z M 544 5.480469 "/>
</clipPath>
<clipPath id="clip20">
  <path d="M 8.21875 239 L 570.519531 239 L 570.519531 244 L 8.21875 244 Z M 8.21875 239 "/>
</clipPath>
</defs>
<g id="surface319">
<rect x="0" y="0" width="576" height="288" style="fill:rgb(100%,100%,100%);fill-opacity:1;stroke:none;"/>
<rect x="0" y="0" width="576" height="288" style="fill:rgb(100%,100%,100%);fill-opacity:1;stroke:none;"/>
<path style="fill:none;stroke-width:1.066978;stroke-linecap:round;stroke-linejoin:round;stroke:rgb(100%,100%,100%);stroke-opacity:1;stroke-miterlimit:10;" d="M 0 288 L 576 288 L 576 0 L 0 0 Z M 0 288 "/>
<g clip-path="url(#clip1)" clip-rule="nonzero">
<path style=" stroke:none;fill-rule:nonzero;fill:rgb(92.156863%,92.156863%,92.156863%);fill-opacity:1;" d="M 8.21875 264.503906 L 570.519531 264.503906 L 570.519531 5.480469 L 8.21875 5.480469 Z M 8.21875 264.503906 "/>
</g>
<g clip-path="url(#clip2)" clip-rule="nonzero">
<path style="fill:none;stroke-width:0.533489;stroke-linecap:butt;stroke-linejoin:round;stroke:rgb(100%,100%,100%);stroke-opacity:1;stroke-miterlimit:10;" d="M 8.21875 213.484375 L 570.519531 213.484375 "/>
</g>
<g clip-path="url(#clip3)" clip-rule="nonzero">
<path style="fill:none;stroke-width:0.533489;stroke-linecap:butt;stroke-linejoin:round;stroke:rgb(100%,100%,100%);stroke-opacity:1;stroke-miterlimit:10;" d="M 8.21875 157.417969 L 570.519531 157.417969 "/>
</g>
<g clip-path="url(#clip4)" clip-rule="nonzero">
<path style="fill:none;stroke-width:0.533489;stroke-linecap:butt;stroke-linejoin:round;stroke:rgb(100%,100%,100%);stroke-opacity:1;stroke-miterlimit:10;" d="M 8.21875 101.351563 L 570.519531 101.351563 "/>
</g>
<g clip-path="url(#clip5)" clip-rule="nonzero">
<path style="fill:none;stroke-width:0.533489;stroke-linecap:butt;stroke-linejoin:round;stroke:rgb(100%,100%,100%);stroke-opacity:1;stroke-miterlimit:10;" d="M 8.21875 45.285156 L 570.519531 45.285156 "/>
</g>
<g clip-path="url(#clip6)" clip-rule="nonzero">
<path style="fill:none;stroke-width:0.533489;stroke-linecap:butt;stroke-linejoin:round;stroke:rgb(100%,100%,100%);stroke-opacity:1;stroke-miterlimit:10;" d="M 97.675781 264.503906 L 97.675781 5.480469 "/>
</g>
<g clip-path="url(#clip7)" clip-rule="nonzero">
<path style="fill:none;stroke-width:0.533489;stroke-linecap:butt;stroke-linejoin:round;stroke:rgb(100%,100%,100%);stroke-opacity:1;stroke-miterlimit:10;" d="M 225.472656 264.503906 L 225.472656 5.480469 "/>
</g>
<g clip-path="url(#clip8)" clip-rule="nonzero">
<path style="fill:none;stroke-width:0.533489;stroke-linecap:butt;stroke-linejoin:round;stroke:rgb(100%,100%,100%);stroke-opacity:1;stroke-miterlimit:10;" d="M 353.269531 264.503906 L 353.269531 5.480469 "/>
</g>
<g clip-path="url(#clip9)" clip-rule="nonzero">
<path style="fill:none;stroke-width:0.533489;stroke-linecap:butt;stroke-linejoin:round;stroke:rgb(100%,100%,100%);stroke-opacity:1;stroke-miterlimit:10;" d="M 481.0625 264.503906 L 481.0625 5.480469 "/>
</g>
<g clip-path="url(#clip10)" clip-rule="nonzero">
<path style="fill:none;stroke-width:1.066978;stroke-linecap:butt;stroke-linejoin:round;stroke:rgb(100%,100%,100%);stroke-opacity:1;stroke-miterlimit:10;" d="M 8.21875 241.515625 L 570.519531 241.515625 "/>
</g>
<g clip-path="url(#clip11)" clip-rule="nonzero">
<path style="fill:none;stroke-width:1.066978;stroke-linecap:butt;stroke-linejoin:round;stroke:rgb(100%,100%,100%);stroke-opacity:1;stroke-miterlimit:10;" d="M 8.21875 185.449219 L 570.519531 185.449219 "/>
</g>
<g clip-path="url(#clip12)" clip-rule="nonzero">
<path style="fill:none;stroke-width:1.066978;stroke-linecap:butt;stroke-linejoin:round;stroke:rgb(100%,100%,100%);stroke-opacity:1;stroke-miterlimit:10;" d="M 8.21875 129.386719 L 570.519531 129.386719 "/>
</g>
<g clip-path="url(#clip13)" clip-rule="nonzero">
<path style="fill:none;stroke-width:1.066978;stroke-linecap:butt;stroke-linejoin:round;stroke:rgb(100%,100%,100%);stroke-opacity:1;stroke-miterlimit:10;" d="M 8.21875 73.320313 L 570.519531 73.320313 "/>
</g>
<g clip-path="url(#clip14)" clip-rule="nonzero">
<path style="fill:none;stroke-width:1.066978;stroke-linecap:butt;stroke-linejoin:round;stroke:rgb(100%,100%,100%);stroke-opacity:1;stroke-miterlimit:10;" d="M 8.21875 17.253906 L 570.519531 17.253906 "/>
</g>
<g clip-path="url(#clip15)" clip-rule="nonzero">
<path style="fill:none;stroke-width:1.066978;stroke-linecap:butt;stroke-linejoin:round;stroke:rgb(100%,100%,100%);stroke-opacity:1;stroke-miterlimit:10;" d="M 33.777344 264.503906 L 33.777344 5.480469 "/>
</g>
<g clip-path="url(#clip16)" clip-rule="nonzero">
<path style="fill:none;stroke-width:1.066978;stroke-linecap:butt;stroke-linejoin:round;stroke:rgb(100%,100%,100%);stroke-opacity:1;stroke-miterlimit:10;" d="M 161.574219 264.503906 L 161.574219 5.480469 "/>
</g>
<g clip-path="url(#clip17)" clip-rule="nonzero">
<path style="fill:none;stroke-width:1.066978;stroke-linecap:butt;stroke-linejoin:round;stroke:rgb(100%,100%,100%);stroke-opacity:1;stroke-miterlimit:10;" d="M 289.371094 264.503906 L 289.371094 5.480469 "/>
</g>
<g clip-path="url(#clip18)" clip-rule="nonzero">
<path style="fill:none;stroke-width:1.066978;stroke-linecap:butt;stroke-linejoin:round;stroke:rgb(100%,100%,100%);stroke-opacity:1;stroke-miterlimit:10;" d="M 417.164063 264.503906 L 417.164063 5.480469 "/>
</g>
<g clip-path="url(#clip19)" clip-rule="nonzero">
<path style="fill:none;stroke-width:1.066978;stroke-linecap:butt;stroke-linejoin:round;stroke:rgb(100%,100%,100%);stroke-opacity:1;stroke-miterlimit:10;" d="M 544.960938 264.503906 L 544.960938 5.480469 "/>
</g>
<path style="fill:none;stroke-width:3.200935;stroke-linecap:butt;stroke-linejoin:round;stroke:rgb(0%,0%,0%);stroke-opacity:1;stroke-miterlimit:10;" d="M 33.777344 241.441406 L 38.890625 241.414063 L 44.003906 241.375 L 49.113281 241.328125 L 54.226563 241.261719 L 59.335938 241.175781 L 64.449219 241.0625 L 69.5625 240.914063 L 74.671875 240.726563 L 79.785156 240.484375 L 84.898438 240.179688 L 90.007813 239.796875 L 95.121094 239.316406 L 100.230469 238.71875 L 105.34375 237.980469 L 110.457031 237.078125 L 115.566406 235.984375 L 120.679688 234.660156 L 125.792969 233.074219 L 130.902344 231.1875 L 136.015625 228.960938 L 141.125 226.351563 L 146.238281 223.316406 L 151.351563 219.816406 L 156.460938 215.804688 L 161.574219 211.246094 L 166.6875 206.109375 L 171.796875 200.359375 L 176.910156 193.984375 L 182.019531 186.976563 L 187.132813 179.328125 L 192.246094 171.0625 L 197.355469 162.207031 L 202.46875 152.808594 L 207.582031 142.925781 L 212.691406 132.644531 L 217.804688 122.058594 L 222.917969 111.277344 L 228.027344 100.429688 L 233.140625 89.65625 L 238.25 79.097656 L 243.363281 68.917969 L 248.476563 59.269531 L 253.585938 50.304688 L 258.699219 42.183594 L 263.8125 35.042969 L 268.921875 29.011719 L 274.035156 24.195313 L 279.144531 20.691406 L 284.257813 18.5625 L 289.371094 17.847656 L 294.480469 18.5625 L 299.59375 20.691406 L 304.707031 24.195313 L 309.816406 29.011719 L 314.929688 35.042969 L 320.039063 42.183594 L 325.152344 50.304688 L 330.265625 59.269531 L 335.375 68.917969 L 340.488281 79.097656 L 345.601563 89.65625 L 350.710938 100.429688 L 355.824219 111.277344 L 360.933594 122.058594 L 366.046875 132.644531 L 371.160156 142.925781 L 376.269531 152.808594 L 381.382813 162.207031 L 386.496094 171.0625 L 391.605469 179.328125 L 396.71875 186.976563 L 401.832031 193.984375 L 406.941406 200.359375 L 412.054688 206.109375 L 417.164063 211.246094 L 422.277344 215.804688 L 427.390625 219.816406 L 432.5 223.316406 L 437.613281 226.351563 L 442.726563 228.960938 L 447.835938 231.1875 L 452.949219 233.074219 L 458.058594 234.660156 L 463.171875 235.984375 L 468.285156 237.078125 L 473.394531 237.980469 L 478.507813 238.71875 L 483.621094 239.316406 L 488.730469 239.796875 L 493.84375 240.179688 L 498.953125 240.484375 L 504.066406 240.726563 L 509.179688 240.914063 L 514.289063 241.0625 L 519.402344 241.175781 L 524.515625 241.261719 L 529.625 241.328125 L 534.738281 241.375 L 539.847656 241.414063 L 544.960938 241.441406 "/>
<g clip-path="url(#clip20)" clip-rule="nonzero">
<path style="fill:none;stroke-width:3.200935;stroke-linecap:butt;stroke-linejoin:round;stroke:rgb(0%,0%,0%);stroke-opacity:1;stroke-miterlimit:10;" d="M 8.21875 241.515625 L 570.519531 241.515625 "/>
</g>
<path style="fill:none;stroke-width:2.133957;stroke-linecap:butt;stroke-linejoin:round;stroke:rgb(85.098039%,34.509804%,16.078431%);stroke-opacity:1;stroke-dasharray:8.535827,8.535827;stroke-miterlimit:10;" d="M 289.371094 241.515625 L 289.371094 17.253906 "/>
<path style=" stroke:none;fill-rule:nonzero;fill:rgb(85.098039%,34.509804%,16.078431%);fill-opacity:1;" d="M 292.730469 257.625 L 291.613281 254.761719 L 287.152344 254.761719 L 286.027344 257.625 L 284.652344 257.625 L 288.648438 247.835938 L 290.15625 247.835938 L 294.085938 257.625 Z M 289.960938 250.496094 L 289.9375 250.441406 L 289.917969 250.386719 L 289.894531 250.328125 L 289.871094 250.273438 L 289.851563 250.21875 L 289.828125 250.160156 L 289.808594 250.105469 L 289.785156 250.046875 L 289.765625 249.992188 L 289.746094 249.933594 L 289.6875 249.769531 L 289.671875 249.714844 L 289.652344 249.664063 L 289.636719 249.613281 L 289.617188 249.5625 L 289.601563 249.515625 L 289.585938 249.464844 L 289.570313 249.421875 L 289.554688 249.375 L 289.542969 249.328125 L 289.527344 249.285156 L 289.511719 249.246094 L 289.5 249.203125 L 289.488281 249.167969 L 289.472656 249.128906 L 289.460938 249.09375 L 289.4375 249.03125 L 289.429688 249 L 289.414063 248.945313 L 289.40625 248.921875 L 289.402344 248.902344 L 289.394531 248.882813 L 289.390625 248.867188 L 289.386719 248.855469 L 289.386719 248.84375 L 289.382813 248.835938 L 289.378906 248.84375 L 289.371094 248.867188 L 289.367188 248.882813 L 289.359375 248.902344 L 289.355469 248.921875 L 289.347656 248.945313 L 289.332031 249 L 289.320313 249.03125 L 289.3125 249.0625 L 289.289063 249.132813 L 289.265625 249.210938 L 289.25 249.25 L 289.234375 249.292969 L 289.222656 249.335938 L 289.207031 249.378906 L 289.1875 249.425781 L 289.171875 249.476563 L 289.15625 249.523438 L 289.125 249.625 L 289.085938 249.726563 L 289.070313 249.78125 L 289.050781 249.835938 L 289.027344 249.890625 L 289.007813 249.949219 L 288.988281 250.003906 L 288.96875 250.0625 L 288.949219 250.117188 L 288.929688 250.175781 L 288.910156 250.230469 L 288.890625 250.289063 L 288.867188 250.34375 L 288.847656 250.398438 L 288.828125 250.457031 L 288.808594 250.511719 L 287.558594 253.726563 L 291.21875 253.726563 Z M 289.960938 250.496094 "/>
<path style=" stroke:none;fill-rule:nonzero;fill:rgb(0%,0%,0%);fill-opacity:1;" d="M 260.40625 279.617188 L 258.011719 279.617188 L 256.707031 274.042969 L 256.695313 273.992188 L 256.683594 273.9375 L 256.667969 273.882813 L 256.65625 273.828125 L 256.644531 273.765625 L 256.628906 273.707031 L 256.613281 273.644531 L 256.601563 273.578125 L 256.585938 273.511719 L 256.570313 273.441406 L 256.558594 273.371094 L 256.542969 273.304688 L 256.53125 273.234375 L 256.515625 273.167969 L 256.503906 273.097656 L 256.480469 272.964844 L 256.464844 272.898438 L 256.441406 272.765625 L 256.425781 272.691406 L 256.410156 272.613281 L 256.398438 272.539063 L 256.382813 272.460938 L 256.371094 272.382813 L 256.355469 272.304688 L 256.34375 272.226563 L 256.328125 272.148438 L 256.316406 272.066406 L 256.304688 271.988281 L 256.289063 272.066406 L 256.273438 272.148438 L 256.257813 272.226563 L 256.246094 272.304688 L 256.230469 272.382813 L 256.214844 272.464844 L 256.199219 272.539063 L 256.152344 272.773438 L 256.148438 272.804688 L 256.140625 272.839844 L 256.132813 272.871094 L 256.125 272.90625 L 256.121094 272.941406 L 256.113281 272.972656 L 256.097656 273.042969 L 256.09375 273.078125 L 256.070313 273.183594 L 256.066406 273.21875 L 256.058594 273.25 L 256.035156 273.355469 L 256.027344 273.386719 L 256.011719 273.457031 L 255.996094 273.519531 L 255.988281 273.554688 L 255.984375 273.585938 L 255.960938 273.679688 L 255.957031 273.710938 L 255.949219 273.742188 L 255.941406 273.769531 L 255.9375 273.800781 L 255.929688 273.828125 L 255.925781 273.859375 L 255.917969 273.886719 L 255.914063 273.914063 L 255.90625 273.941406 L 255.902344 273.96875 L 255.894531 273.992188 L 255.886719 274.019531 L 255.878906 274.042969 L 254.582031 279.617188 L 252.1875 279.617188 L 249.707031 269.984375 L 251.75 269.984375 L 252.953125 275.34375 L 252.976563 275.429688 L 252.996094 275.515625 L 253.015625 275.605469 L 253.074219 275.863281 L 253.089844 275.949219 L 253.128906 276.121094 L 253.144531 276.203125 L 253.164063 276.289063 L 253.179688 276.371094 L 253.199219 276.449219 L 253.230469 276.605469 L 253.246094 276.679688 L 253.265625 276.753906 L 253.296875 276.894531 L 253.308594 276.964844 L 253.328125 277.039063 L 253.359375 277.195313 L 253.390625 277.34375 L 253.402344 277.417969 L 253.433594 277.566406 L 253.445313 277.636719 L 253.460938 277.707031 L 253.480469 277.605469 L 253.5 277.507813 L 253.523438 277.40625 L 253.5625 277.210938 L 253.582031 277.109375 L 253.601563 277.011719 L 253.621094 276.917969 L 253.667969 276.683594 L 253.683594 276.597656 L 253.691406 276.558594 L 253.703125 276.515625 L 253.71875 276.429688 L 253.730469 276.386719 L 253.746094 276.300781 L 253.757813 276.257813 L 253.765625 276.210938 L 253.777344 276.167969 L 253.792969 276.082031 L 253.804688 276.039063 L 253.828125 275.910156 L 253.835938 275.871094 L 253.847656 275.828125 L 253.863281 275.742188 L 253.875 275.703125 L 253.882813 275.664063 L 253.890625 275.621094 L 253.898438 275.582031 L 253.910156 275.542969 L 253.933594 275.425781 L 253.945313 275.386719 L 253.953125 275.351563 L 253.960938 275.3125 L 253.984375 275.207031 L 253.992188 275.175781 L 254 275.140625 L 254.007813 275.109375 L 255.195313 269.984375 L 257.453125 269.984375 L 258.667969 275.109375 L 258.679688 275.144531 L 258.6875 275.175781 L 258.695313 275.210938 L 258.703125 275.25 L 258.71875 275.320313 L 258.742188 275.4375 L 258.75 275.480469 L 258.761719 275.519531 L 258.769531 275.558594 L 258.777344 275.601563 L 258.785156 275.640625 L 258.800781 275.726563 L 258.808594 275.765625 L 258.824219 275.851563 L 258.832031 275.898438 L 258.84375 275.9375 L 258.898438 276.238281 L 258.90625 276.285156 L 258.914063 276.328125 L 258.925781 276.371094 L 258.933594 276.410156 L 258.949219 276.496094 L 258.953125 276.539063 L 258.960938 276.578125 L 258.96875 276.621094 L 258.976563 276.660156 L 258.992188 276.746094 L 259.007813 276.839844 L 259.023438 276.9375 L 259.039063 277.03125 L 259.054688 277.128906 L 259.074219 277.222656 L 259.121094 277.515625 L 259.136719 277.609375 L 259.15625 277.707031 L 259.171875 277.632813 L 259.203125 277.476563 L 259.222656 277.398438 L 259.238281 277.320313 L 259.257813 277.238281 L 259.273438 277.160156 L 259.289063 277.078125 L 259.308594 276.996094 L 259.324219 276.914063 L 259.355469 276.773438 L 259.371094 276.699219 L 259.390625 276.625 L 259.40625 276.550781 L 259.421875 276.472656 L 259.441406 276.394531 L 259.460938 276.3125 L 259.476563 276.230469 L 259.59375 275.738281 L 259.613281 275.660156 L 259.628906 275.578125 L 259.6875 275.34375 L 260.851563 269.984375 L 262.894531 269.984375 Z M 260.40625 279.617188 "/>
<path style=" stroke:none;fill-rule:nonzero;fill:rgb(0%,0%,0%);fill-opacity:1;" d="M 270.652344 279.617188 L 269.796875 277.15625 L 266.128906 277.15625 L 265.273438 279.617188 L 263.257813 279.617188 L 266.769531 269.984375 L 269.148438 269.984375 L 272.648438 279.617188 Z M 268.398438 272.867188 L 268.378906 272.820313 L 268.347656 272.726563 L 268.332031 272.675781 L 268.316406 272.628906 L 268.296875 272.582031 L 268.28125 272.535156 L 268.265625 272.484375 L 268.234375 272.390625 L 268.21875 272.339844 L 268.1875 272.246094 L 268.175781 272.199219 L 268.160156 272.15625 L 268.148438 272.113281 L 268.132813 272.070313 L 268.109375 271.984375 L 268.074219 271.867188 L 268.066406 271.828125 L 268.054688 271.792969 L 268.046875 271.757813 L 268.035156 271.726563 L 268.019531 271.664063 L 268.007813 271.636719 L 268 271.609375 L 267.996094 271.585938 L 267.988281 271.5625 L 267.984375 271.542969 L 267.976563 271.523438 L 267.972656 271.507813 L 267.964844 271.484375 L 267.964844 271.476563 L 267.960938 271.472656 L 267.960938 271.46875 L 267.957031 271.472656 L 267.957031 271.480469 L 267.953125 271.488281 L 267.949219 271.5 L 267.941406 271.53125 L 267.9375 271.550781 L 267.929688 271.570313 L 267.925781 271.59375 L 267.917969 271.617188 L 267.902344 271.671875 L 267.894531 271.703125 L 267.886719 271.730469 L 267.878906 271.765625 L 267.867188 271.796875 L 267.859375 271.832031 L 267.847656 271.867188 L 267.8125 271.984375 L 267.789063 272.070313 L 267.773438 272.113281 L 267.761719 272.15625 L 267.746094 272.199219 L 267.734375 272.246094 L 267.703125 272.339844 L 267.6875 272.390625 L 267.65625 272.484375 L 267.640625 272.535156 L 267.59375 272.675781 L 267.578125 272.726563 L 267.546875 272.820313 L 267.527344 272.867188 L 266.578125 275.636719 L 269.347656 275.636719 Z M 268.398438 272.867188 "/>
<path style=" stroke:none;fill-rule:nonzero;fill:rgb(0%,0%,0%);fill-opacity:1;" d="M 273.953125 279.617188 L 273.953125 269.984375 L 275.972656 269.984375 L 275.972656 279.617188 Z M 273.953125 279.617188 "/>
<path style=" stroke:none;fill-rule:nonzero;fill:rgb(0%,0%,0%);fill-opacity:1;" d="M 285.699219 276.839844 L 285.695313 276.96875 L 285.6875 277.097656 L 285.675781 277.222656 L 285.660156 277.347656 L 285.640625 277.46875 L 285.613281 277.585938 L 285.582031 277.703125 L 285.546875 277.816406 L 285.460938 278.035156 L 285.410156 278.140625 L 285.292969 278.34375 L 285.226563 278.4375 L 285.152344 278.53125 L 285.078125 278.621094 L 284.90625 278.792969 L 284.8125 278.875 L 284.714844 278.953125 L 284.613281 279.027344 L 284.503906 279.097656 L 284.390625 279.167969 L 284.269531 279.230469 L 284.144531 279.292969 L 284.011719 279.351563 L 283.875 279.40625 L 283.730469 279.457031 L 283.582031 279.503906 L 283.429688 279.546875 L 283.269531 279.585938 L 283.105469 279.621094 L 282.933594 279.652344 L 282.757813 279.679688 L 282.574219 279.699219 L 282.386719 279.71875 L 282.191406 279.734375 L 281.988281 279.742188 L 281.78125 279.75 L 281.570313 279.753906 L 281.195313 279.746094 L 281.015625 279.738281 L 280.839844 279.726563 L 280.667969 279.710938 L 280.503906 279.691406 L 280.339844 279.667969 L 280.183594 279.644531 L 280.03125 279.613281 L 279.882813 279.582031 L 279.738281 279.546875 L 279.597656 279.507813 L 279.460938 279.464844 L 279.328125 279.417969 L 279.203125 279.371094 L 279.078125 279.316406 L 278.957031 279.261719 L 278.84375 279.203125 L 278.730469 279.140625 L 278.625 279.074219 L 278.523438 279.007813 L 278.421875 278.933594 L 278.328125 278.859375 L 278.238281 278.78125 L 278.152344 278.699219 L 278.070313 278.617188 L 277.988281 278.527344 L 277.914063 278.4375 L 277.84375 278.34375 L 277.777344 278.25 L 277.714844 278.148438 L 277.597656 277.9375 L 277.546875 277.824219 L 277.5 277.714844 L 277.453125 277.597656 L 277.414063 277.480469 L 277.375 277.359375 L 277.339844 277.234375 L 277.3125 277.105469 L 279.257813 276.785156 L 279.335938 277.035156 L 279.359375 277.09375 L 279.386719 277.152344 L 279.410156 277.207031 L 279.4375 277.265625 L 279.5 277.375 L 279.53125 277.425781 L 279.566406 277.476563 L 279.605469 277.527344 L 279.683594 277.621094 L 279.730469 277.667969 L 279.777344 277.710938 L 279.824219 277.757813 L 279.875 277.796875 L 279.929688 277.839844 L 280.046875 277.910156 L 280.109375 277.945313 L 280.242188 278.007813 L 280.3125 278.039063 L 280.386719 278.066406 L 280.460938 278.089844 L 280.539063 278.117188 L 280.621094 278.140625 L 280.703125 278.15625 L 280.792969 278.175781 L 280.886719 278.191406 L 280.980469 278.203125 L 281.078125 278.214844 L 281.183594 278.226563 L 281.289063 278.230469 L 281.394531 278.238281 L 281.507813 278.238281 L 281.625 278.242188 L 281.824219 278.238281 L 282.015625 278.230469 L 282.195313 278.214844 L 282.367188 278.191406 L 282.527344 278.164063 L 282.679688 278.128906 L 282.824219 278.089844 L 282.953125 278.042969 L 283.078125 277.992188 L 283.191406 277.933594 L 283.292969 277.867188 L 283.386719 277.792969 L 283.46875 277.714844 L 283.539063 277.625 L 283.601563 277.53125 L 283.648438 277.429688 L 283.6875 277.324219 L 283.714844 277.207031 L 283.730469 277.085938 L 283.738281 276.957031 L 283.734375 276.878906 L 283.71875 276.730469 L 283.703125 276.660156 L 283.683594 276.59375 L 283.660156 276.53125 L 283.597656 276.414063 L 283.558594 276.359375 L 283.519531 276.308594 L 283.472656 276.257813 L 283.425781 276.210938 L 283.375 276.164063 L 283.320313 276.117188 L 283.261719 276.074219 L 283.203125 276.035156 L 283.078125 275.957031 L 283.007813 275.921875 L 282.9375 275.890625 L 282.789063 275.828125 L 282.710938 275.796875 L 282.628906 275.765625 L 282.464844 275.710938 L 282.375 275.6875 L 282.289063 275.664063 L 282.007813 275.59375 L 281.914063 275.574219 L 281.816406 275.550781 L 281.71875 275.53125 L 281.621094 275.507813 L 281.523438 275.488281 L 281.421875 275.464844 L 281.324219 275.445313 L 281.222656 275.425781 L 281.117188 275.40625 L 280.707031 275.308594 L 280.625 275.285156 L 280.296875 275.207031 L 280.21875 275.183594 L 280.136719 275.164063 L 280.054688 275.140625 L 279.898438 275.09375 L 279.820313 275.066406 L 279.742188 275.042969 L 279.664063 275.015625 L 279.589844 274.988281 L 279.511719 274.960938 L 279.4375 274.929688 L 279.367188 274.902344 L 279.296875 274.867188 L 279.15625 274.804688 L 279.085938 274.769531 L 279.019531 274.730469 L 278.953125 274.695313 L 278.820313 274.617188 L 278.757813 274.578125 L 278.695313 274.535156 L 278.636719 274.492188 L 278.519531 274.398438 L 278.464844 274.347656 L 278.414063 274.296875 L 278.359375 274.246094 L 278.308594 274.1875 L 278.261719 274.132813 L 278.214844 274.074219 L 278.128906 273.949219 L 278.089844 273.882813 L 278.054688 273.816406 L 278.015625 273.746094 L 277.984375 273.675781 L 277.949219 273.601563 L 277.921875 273.527344 L 277.890625 273.449219 L 277.867188 273.371094 L 277.84375 273.289063 L 277.824219 273.203125 L 277.808594 273.117188 L 277.792969 273.027344 L 277.785156 272.933594 L 277.773438 272.835938 L 277.769531 272.738281 L 277.761719 272.535156 L 277.765625 272.390625 L 277.773438 272.253906 L 277.789063 272.121094 L 277.808594 271.992188 L 277.835938 271.867188 L 277.867188 271.746094 L 277.902344 271.628906 L 277.945313 271.515625 L 277.996094 271.40625 L 278.050781 271.304688 L 278.109375 271.203125 L 278.171875 271.105469 L 278.242188 271.011719 L 278.3125 270.921875 L 278.390625 270.839844 L 278.472656 270.757813 L 278.558594 270.679688 L 278.648438 270.605469 L 278.742188 270.535156 L 278.84375 270.46875 L 278.945313 270.40625 L 279.054688 270.34375 L 279.167969 270.289063 L 279.285156 270.234375 L 279.402344 270.183594 L 279.652344 270.097656 L 279.785156 270.058594 L 279.921875 270.023438 L 280.058594 269.992188 L 280.203125 269.960938 L 280.492188 269.914063 L 280.644531 269.894531 L 280.949219 269.863281 L 281.109375 269.851563 L 281.269531 269.847656 L 281.433594 269.839844 L 281.785156 269.839844 L 281.964844 269.847656 L 282.140625 269.851563 L 282.308594 269.863281 L 282.472656 269.878906 L 282.632813 269.894531 L 282.785156 269.914063 L 282.933594 269.9375 L 283.074219 269.960938 L 283.210938 269.992188 L 283.34375 270.019531 L 283.472656 270.054688 L 283.597656 270.089844 L 283.714844 270.128906 L 283.832031 270.171875 L 283.941406 270.21875 L 284.046875 270.269531 L 284.148438 270.320313 L 284.246094 270.375 L 284.339844 270.433594 L 284.429688 270.496094 L 284.515625 270.5625 L 284.59375 270.628906 L 284.671875 270.699219 L 284.746094 270.773438 L 284.816406 270.851563 L 284.882813 270.933594 L 284.945313 271.015625 L 285.003906 271.101563 L 285.054688 271.195313 L 285.109375 271.285156 L 285.15625 271.378906 L 285.203125 271.476563 L 285.246094 271.578125 L 285.285156 271.683594 L 285.324219 271.792969 L 285.359375 271.902344 L 285.390625 272.015625 L 285.421875 272.132813 L 285.445313 272.253906 L 283.492188 272.519531 L 283.457031 272.398438 L 283.417969 272.28125 L 283.371094 272.175781 L 283.320313 272.070313 L 283.261719 271.972656 L 283.199219 271.882813 L 283.125 271.800781 L 283.050781 271.722656 L 282.964844 271.648438 L 282.875 271.582031 L 282.78125 271.523438 L 282.675781 271.46875 L 282.566406 271.421875 L 282.445313 271.382813 L 282.316406 271.347656 L 282.179688 271.320313 L 282.035156 271.296875 L 281.886719 271.28125 L 281.726563 271.273438 L 281.554688 271.269531 L 281.453125 271.269531 L 281.351563 271.273438 L 281.253906 271.277344 L 281.066406 271.292969 L 280.980469 271.304688 L 280.816406 271.328125 L 280.742188 271.347656 L 280.667969 271.363281 L 280.597656 271.382813 L 280.472656 271.421875 L 280.410156 271.445313 L 280.351563 271.46875 L 280.296875 271.496094 L 280.246094 271.523438 L 280.152344 271.578125 L 280.105469 271.609375 L 280.066406 271.640625 L 279.960938 271.746094 L 279.929688 271.78125 L 279.902344 271.820313 L 279.878906 271.855469 L 279.851563 271.898438 L 279.832031 271.9375 L 279.8125 271.980469 L 279.796875 272.019531 L 279.78125 272.0625 L 279.746094 272.191406 L 279.738281 272.234375 L 279.730469 272.28125 L 279.726563 272.324219 L 279.726563 272.371094 L 279.722656 272.417969 L 279.726563 272.488281 L 279.730469 272.554688 L 279.738281 272.621094 L 279.75 272.683594 L 279.765625 272.742188 L 279.785156 272.800781 L 279.808594 272.855469 L 279.832031 272.90625 L 279.863281 272.957031 L 279.894531 273.003906 L 279.929688 273.050781 L 279.96875 273.09375 L 280.011719 273.132813 L 280.054688 273.175781 L 280.101563 273.214844 L 280.148438 273.25 L 280.203125 273.289063 L 280.257813 273.320313 L 280.3125 273.355469 L 280.4375 273.417969 L 280.5 273.445313 L 280.570313 273.472656 L 280.636719 273.5 L 280.785156 273.554688 L 280.941406 273.601563 L 281.105469 273.648438 L 281.191406 273.667969 L 281.28125 273.6875 L 281.371094 273.710938 L 281.460938 273.730469 L 281.554688 273.75 L 281.652344 273.773438 L 281.75 273.792969 L 281.847656 273.816406 L 281.945313 273.835938 L 282.046875 273.859375 L 282.140625 273.878906 L 282.410156 273.9375 L 282.496094 273.957031 L 282.585938 273.980469 L 282.765625 274.019531 L 282.945313 274.066406 L 283.03125 274.085938 L 283.121094 274.105469 L 283.378906 274.175781 L 283.460938 274.203125 L 283.546875 274.226563 L 283.710938 274.28125 L 283.792969 274.3125 L 283.871094 274.339844 L 284.105469 274.433594 L 284.179688 274.46875 L 284.257813 274.503906 L 284.328125 274.542969 L 284.402344 274.578125 L 284.472656 274.617188 L 284.613281 274.703125 L 284.746094 274.789063 L 284.808594 274.839844 L 284.867188 274.886719 L 284.925781 274.941406 L 284.984375 274.992188 L 285.039063 275.046875 L 285.09375 275.105469 L 285.144531 275.164063 L 285.246094 275.289063 L 285.289063 275.351563 L 285.335938 275.417969 L 285.414063 275.558594 L 285.453125 275.632813 L 285.488281 275.710938 L 285.519531 275.789063 L 285.546875 275.871094 L 285.578125 275.953125 L 285.601563 276.039063 L 285.625 276.128906 L 285.644531 276.222656 L 285.660156 276.316406 L 285.675781 276.414063 L 285.683594 276.515625 L 285.691406 276.621094 L 285.699219 276.730469 Z M 285.699219 276.839844 "/>
<path style=" stroke:none;fill-rule:nonzero;fill:rgb(0%,0%,0%);fill-opacity:1;" d="M 298.925781 276.839844 L 298.925781 276.96875 L 298.917969 277.097656 L 298.90625 277.222656 L 298.886719 277.347656 L 298.867188 277.46875 L 298.839844 277.585938 L 298.808594 277.703125 L 298.773438 277.816406 L 298.734375 277.925781 L 298.6875 278.035156 L 298.636719 278.140625 L 298.582031 278.242188 L 298.519531 278.34375 L 298.453125 278.4375 L 298.382813 278.53125 L 298.304688 278.621094 L 298.222656 278.707031 L 298.132813 278.792969 L 298.039063 278.875 L 297.941406 278.953125 L 297.839844 279.027344 L 297.730469 279.097656 L 297.617188 279.167969 L 297.496094 279.230469 L 297.371094 279.292969 L 297.238281 279.351563 L 297.101563 279.40625 L 296.960938 279.457031 L 296.8125 279.503906 L 296.65625 279.546875 L 296.5 279.585938 L 296.332031 279.621094 L 296.164063 279.652344 L 295.984375 279.679688 L 295.800781 279.699219 L 295.613281 279.71875 L 295.417969 279.734375 L 295.21875 279.742188 L 295.011719 279.75 L 294.796875 279.753906 L 294.421875 279.746094 L 294.242188 279.738281 L 294.066406 279.726563 L 293.898438 279.710938 L 293.730469 279.691406 L 293.566406 279.667969 L 293.410156 279.644531 L 293.257813 279.613281 L 293.109375 279.582031 L 292.964844 279.546875 L 292.824219 279.507813 L 292.6875 279.464844 L 292.429688 279.371094 L 292.304688 279.316406 L 292.1875 279.261719 L 292.070313 279.203125 L 291.957031 279.140625 L 291.851563 279.074219 L 291.75 279.007813 L 291.652344 278.933594 L 291.558594 278.859375 L 291.464844 278.78125 L 291.378906 278.699219 L 291.296875 278.617188 L 291.140625 278.4375 L 291.070313 278.34375 L 291.003906 278.25 L 290.941406 278.148438 L 290.882813 278.042969 L 290.828125 277.9375 L 290.773438 277.824219 L 290.726563 277.714844 L 290.640625 277.480469 L 290.601563 277.359375 L 290.570313 277.234375 L 290.539063 277.105469 L 292.488281 276.785156 L 292.503906 276.847656 L 292.542969 276.972656 L 292.566406 277.035156 L 292.585938 277.09375 L 292.613281 277.152344 L 292.640625 277.207031 L 292.667969 277.265625 L 292.695313 277.320313 L 292.726563 277.375 L 292.757813 277.425781 L 292.792969 277.476563 L 292.832031 277.527344 L 292.871094 277.574219 L 292.957031 277.667969 L 293.003906 277.710938 L 293.050781 277.757813 L 293.101563 277.796875 L 293.15625 277.839844 L 293.273438 277.910156 L 293.335938 277.945313 L 293.46875 278.007813 L 293.539063 278.039063 L 293.613281 278.066406 L 293.6875 278.089844 L 293.765625 278.117188 L 293.847656 278.140625 L 293.933594 278.15625 L 294.019531 278.175781 L 294.113281 278.191406 L 294.207031 278.203125 L 294.410156 278.226563 L 294.515625 278.230469 L 294.625 278.238281 L 294.738281 278.238281 L 294.851563 278.242188 L 295.050781 278.238281 L 295.242188 278.230469 L 295.425781 278.214844 L 295.59375 278.191406 L 295.757813 278.164063 L 295.90625 278.128906 L 296.050781 278.089844 L 296.183594 278.042969 L 296.304688 277.992188 L 296.417969 277.933594 L 296.523438 277.867188 L 296.613281 277.792969 L 296.695313 277.714844 L 296.769531 277.625 L 296.828125 277.53125 L 296.878906 277.429688 L 296.914063 277.324219 L 296.941406 277.207031 L 296.960938 277.085938 L 296.964844 276.957031 L 296.960938 276.878906 L 296.957031 276.804688 L 296.945313 276.730469 L 296.929688 276.660156 L 296.910156 276.59375 L 296.886719 276.53125 L 296.824219 276.414063 L 296.789063 276.359375 L 296.746094 276.308594 L 296.699219 276.257813 L 296.652344 276.210938 L 296.601563 276.164063 L 296.546875 276.117188 L 296.492188 276.074219 L 296.433594 276.035156 L 296.371094 275.996094 L 296.304688 275.957031 L 296.234375 275.921875 L 296.164063 275.890625 L 296.015625 275.828125 L 295.859375 275.765625 L 295.773438 275.738281 L 295.691406 275.710938 L 295.605469 275.6875 L 295.425781 275.640625 L 295.332031 275.617188 L 295.234375 275.59375 L 295.140625 275.574219 L 295.042969 275.550781 L 294.945313 275.53125 L 294.847656 275.507813 L 294.75 275.488281 L 294.648438 275.464844 L 294.550781 275.445313 L 294.347656 275.40625 L 293.9375 275.308594 L 293.855469 275.285156 L 293.527344 275.207031 L 293.445313 275.183594 L 293.363281 275.164063 L 293.28125 275.140625 L 293.125 275.09375 L 293.046875 275.066406 L 292.96875 275.042969 L 292.890625 275.015625 L 292.816406 274.988281 L 292.738281 274.960938 L 292.667969 274.929688 L 292.59375 274.902344 L 292.523438 274.867188 L 292.382813 274.804688 L 292.3125 274.769531 L 292.246094 274.730469 L 292.179688 274.695313 L 292.113281 274.65625 L 292.050781 274.617188 L 291.984375 274.578125 L 291.925781 274.535156 L 291.863281 274.492188 L 291.804688 274.445313 L 291.75 274.398438 L 291.640625 274.296875 L 291.589844 274.246094 L 291.539063 274.1875 L 291.488281 274.132813 L 291.445313 274.074219 L 291.398438 274.011719 L 291.359375 273.949219 L 291.28125 273.816406 L 291.210938 273.675781 L 291.148438 273.527344 L 291.09375 273.371094 L 291.074219 273.289063 L 291.035156 273.117188 L 291.023438 273.027344 L 291.011719 272.933594 L 291 272.835938 L 290.996094 272.738281 L 290.988281 272.535156 L 290.992188 272.390625 L 291 272.253906 L 291.015625 272.121094 L 291.035156 271.992188 L 291.0625 271.867188 L 291.09375 271.746094 L 291.128906 271.628906 L 291.171875 271.515625 L 291.222656 271.40625 L 291.277344 271.304688 L 291.335938 271.203125 L 291.402344 271.105469 L 291.46875 271.011719 L 291.542969 270.921875 L 291.617188 270.839844 L 291.699219 270.757813 L 291.785156 270.679688 L 291.875 270.605469 L 291.972656 270.535156 L 292.070313 270.46875 L 292.28125 270.34375 L 292.394531 270.289063 L 292.511719 270.234375 L 292.628906 270.183594 L 292.753906 270.140625 L 292.882813 270.097656 L 293.011719 270.058594 L 293.148438 270.023438 L 293.285156 269.992188 L 293.429688 269.960938 L 293.574219 269.9375 L 293.722656 269.914063 L 293.871094 269.894531 L 294.023438 269.878906 L 294.179688 269.863281 L 294.335938 269.851563 L 294.496094 269.847656 L 294.660156 269.839844 L 295.011719 269.839844 L 295.191406 269.847656 L 295.367188 269.851563 L 295.535156 269.863281 L 295.699219 269.878906 L 295.859375 269.894531 L 296.011719 269.914063 L 296.160156 269.9375 L 296.300781 269.960938 L 296.4375 269.992188 L 296.570313 270.019531 L 296.699219 270.054688 L 296.824219 270.089844 L 296.945313 270.128906 L 297.058594 270.171875 L 297.167969 270.21875 L 297.273438 270.269531 L 297.375 270.320313 L 297.472656 270.375 L 297.566406 270.433594 L 297.65625 270.496094 L 297.742188 270.5625 L 297.824219 270.628906 L 297.902344 270.699219 L 297.972656 270.773438 L 298.042969 270.851563 L 298.109375 270.933594 L 298.171875 271.015625 L 298.230469 271.101563 L 298.285156 271.195313 L 298.335938 271.285156 L 298.386719 271.378906 L 298.429688 271.476563 L 298.472656 271.578125 L 298.515625 271.683594 L 298.585938 271.902344 L 298.617188 272.015625 L 298.648438 272.132813 L 298.671875 272.253906 L 296.71875 272.519531 L 296.683594 272.398438 L 296.644531 272.28125 L 296.601563 272.175781 L 296.546875 272.070313 L 296.488281 271.972656 L 296.425781 271.882813 L 296.355469 271.800781 L 296.277344 271.722656 L 296.191406 271.648438 L 296.101563 271.582031 L 296.007813 271.523438 L 295.902344 271.46875 L 295.792969 271.421875 L 295.671875 271.382813 L 295.542969 271.347656 L 295.410156 271.320313 L 295.265625 271.296875 L 295.113281 271.28125 L 294.953125 271.273438 L 294.785156 271.269531 L 294.679688 271.269531 L 294.578125 271.273438 L 294.480469 271.277344 L 294.386719 271.285156 L 294.296875 271.292969 L 294.207031 271.304688 L 294.042969 271.328125 L 293.96875 271.347656 L 293.894531 271.363281 L 293.761719 271.402344 L 293.699219 271.421875 L 293.636719 271.445313 L 293.582031 271.46875 L 293.472656 271.523438 L 293.378906 271.578125 L 293.292969 271.640625 L 293.1875 271.746094 L 293.160156 271.78125 L 293.128906 271.820313 L 293.105469 271.855469 L 293.082031 271.898438 L 293.058594 271.9375 L 293.039063 271.980469 L 293.023438 272.019531 L 293.007813 272.0625 L 292.972656 272.191406 L 292.964844 272.234375 L 292.960938 272.28125 L 292.957031 272.324219 L 292.953125 272.371094 L 292.953125 272.488281 L 292.957031 272.554688 L 292.96875 272.621094 L 292.980469 272.683594 L 293.011719 272.800781 L 293.035156 272.855469 L 293.089844 272.957031 L 293.121094 273.003906 L 293.160156 273.050781 L 293.195313 273.09375 L 293.238281 273.132813 L 293.28125 273.175781 L 293.328125 273.214844 L 293.378906 273.25 L 293.429688 273.289063 L 293.484375 273.320313 L 293.542969 273.355469 L 293.601563 273.386719 L 293.664063 273.417969 L 293.796875 273.472656 L 293.9375 273.527344 L 294.011719 273.554688 L 294.167969 273.601563 L 294.332031 273.648438 L 294.417969 273.667969 L 294.507813 273.6875 L 294.597656 273.710938 L 294.785156 273.75 L 294.878906 273.773438 L 294.976563 273.792969 L 295.074219 273.816406 L 295.175781 273.835938 L 295.277344 273.859375 L 295.726563 273.957031 L 295.816406 273.980469 L 295.90625 274 L 295.992188 274.019531 L 296.171875 274.066406 L 296.261719 274.085938 L 296.347656 274.105469 L 296.605469 274.175781 L 296.691406 274.203125 L 296.773438 274.226563 L 296.9375 274.28125 L 297.019531 274.3125 L 297.097656 274.339844 L 297.179688 274.371094 L 297.257813 274.402344 L 297.332031 274.433594 L 297.410156 274.46875 L 297.484375 274.503906 L 297.558594 274.542969 L 297.628906 274.578125 L 297.699219 274.617188 L 297.839844 274.703125 L 297.972656 274.789063 L 298.035156 274.839844 L 298.097656 274.886719 L 298.15625 274.941406 L 298.210938 274.992188 L 298.269531 275.046875 L 298.371094 275.164063 L 298.472656 275.289063 L 298.519531 275.351563 L 298.5625 275.417969 L 298.601563 275.488281 L 298.644531 275.558594 L 298.679688 275.632813 L 298.714844 275.710938 L 298.746094 275.789063 L 298.777344 275.871094 L 298.804688 275.953125 L 298.832031 276.039063 L 298.851563 276.128906 L 298.890625 276.316406 L 298.902344 276.414063 L 298.914063 276.515625 L 298.921875 276.621094 L 298.925781 276.730469 Z M 298.925781 276.839844 "/>
<path style=" stroke:none;fill-rule:nonzero;fill:rgb(0%,0%,0%);fill-opacity:1;" d="M 303.535156 279.753906 L 303.359375 279.75 L 303.191406 279.742188 L 303.023438 279.726563 L 302.863281 279.707031 L 302.707031 279.683594 L 302.554688 279.652344 L 302.40625 279.617188 L 302.261719 279.578125 L 302.125 279.53125 L 301.988281 279.480469 L 301.859375 279.421875 L 301.734375 279.359375 L 301.613281 279.292969 L 301.5 279.222656 L 301.386719 279.148438 L 301.28125 279.070313 L 301.175781 278.984375 L 301.078125 278.898438 L 300.984375 278.804688 L 300.894531 278.707031 L 300.808594 278.605469 L 300.730469 278.5 L 300.652344 278.390625 L 300.511719 278.15625 L 300.449219 278.035156 L 300.390625 277.910156 L 300.335938 277.78125 L 300.285156 277.648438 L 300.238281 277.511719 L 300.160156 277.222656 L 300.128906 277.074219 L 300.097656 276.921875 L 300.074219 276.769531 L 300.054688 276.613281 L 300.039063 276.453125 L 300.027344 276.292969 L 300.019531 275.957031 L 300.023438 275.777344 L 300.03125 275.597656 L 300.042969 275.421875 L 300.058594 275.253906 L 300.078125 275.085938 L 300.105469 274.925781 L 300.136719 274.765625 L 300.171875 274.613281 L 300.257813 274.316406 L 300.308594 274.175781 L 300.363281 274.035156 L 300.421875 273.902344 L 300.484375 273.773438 L 300.550781 273.652344 L 300.621094 273.53125 L 300.699219 273.417969 L 300.777344 273.308594 L 300.863281 273.203125 L 300.949219 273.101563 L 301.042969 273.003906 L 301.136719 272.910156 L 301.238281 272.824219 L 301.34375 272.738281 L 301.453125 272.660156 L 301.566406 272.589844 L 301.683594 272.519531 L 301.804688 272.457031 L 301.929688 272.394531 L 302.058594 272.34375 L 302.191406 272.292969 L 302.328125 272.25 L 302.472656 272.210938 L 302.617188 272.175781 L 302.765625 272.148438 L 302.917969 272.125 L 303.074219 272.105469 L 303.230469 272.09375 L 303.394531 272.085938 L 303.5625 272.082031 L 303.84375 272.089844 L 303.976563 272.097656 L 304.109375 272.113281 L 304.238281 272.128906 L 304.363281 272.152344 L 304.484375 272.175781 L 304.605469 272.203125 L 304.832031 272.273438 L 304.941406 272.3125 L 305.050781 272.355469 L 305.15625 272.402344 L 305.257813 272.449219 L 305.355469 272.5 L 305.449219 272.554688 L 305.628906 272.671875 L 305.714844 272.734375 L 305.796875 272.800781 L 305.875 272.867188 L 305.953125 272.9375 L 306.023438 273.007813 L 306.09375 273.082031 L 306.160156 273.160156 L 306.222656 273.238281 L 306.285156 273.320313 L 306.339844 273.402344 L 306.394531 273.488281 L 306.445313 273.578125 L 306.496094 273.671875 L 306.539063 273.761719 L 306.625 273.949219 L 306.660156 274.046875 L 306.691406 274.144531 L 306.722656 274.246094 L 306.75 274.34375 L 306.773438 274.445313 L 306.792969 274.550781 L 304.859375 274.644531 L 304.839844 274.535156 L 304.816406 274.429688 L 304.789063 274.324219 L 304.753906 274.230469 L 304.714844 274.136719 L 304.671875 274.046875 L 304.625 273.964844 L 304.570313 273.886719 L 304.511719 273.8125 L 304.449219 273.742188 L 304.382813 273.679688 L 304.308594 273.621094 L 304.226563 273.570313 L 304.144531 273.523438 L 304.054688 273.488281 L 303.957031 273.457031 L 303.855469 273.433594 L 303.75 273.414063 L 303.636719 273.40625 L 303.519531 273.402344 L 303.371094 273.40625 L 303.226563 273.425781 L 303.09375 273.457031 L 302.96875 273.503906 L 302.851563 273.558594 L 302.742188 273.628906 L 302.644531 273.714844 L 302.550781 273.808594 L 302.46875 273.917969 L 302.390625 274.039063 L 302.324219 274.171875 L 302.265625 274.3125 L 302.210938 274.46875 L 302.164063 274.636719 L 302.125 274.816406 L 302.09375 275.007813 L 302.070313 275.207031 L 302.050781 275.421875 L 302.039063 275.648438 L 302.035156 275.882813 L 302.050781 276.367188 L 302.097656 276.804688 L 302.171875 277.1875 L 302.277344 277.519531 L 302.414063 277.800781 L 302.582031 278.03125 L 302.777344 278.210938 L 303.003906 278.335938 L 303.261719 278.414063 L 303.546875 278.441406 L 303.65625 278.4375 L 303.757813 278.425781 L 303.859375 278.410156 L 303.957031 278.386719 L 304.050781 278.355469 L 304.140625 278.316406 L 304.226563 278.273438 L 304.308594 278.222656 L 304.386719 278.164063 L 304.464844 278.097656 L 304.535156 278.023438 L 304.601563 277.945313 L 304.660156 277.859375 L 304.714844 277.765625 L 304.761719 277.664063 L 304.804688 277.558594 L 304.84375 277.445313 L 304.875 277.324219 L 304.902344 277.199219 L 304.921875 277.066406 L 306.847656 277.15625 L 306.816406 277.359375 L 306.792969 277.457031 L 306.765625 277.558594 L 306.738281 277.65625 L 306.667969 277.851563 L 306.625 277.949219 L 306.582031 278.042969 L 306.535156 278.140625 L 306.433594 278.320313 L 306.375 278.410156 L 306.316406 278.496094 L 306.183594 278.660156 L 306.113281 278.738281 L 306.039063 278.816406 L 305.960938 278.890625 L 305.878906 278.964844 L 305.792969 279.035156 L 305.707031 279.101563 L 305.617188 279.167969 L 305.523438 279.226563 L 305.425781 279.289063 L 305.324219 279.34375 L 305.21875 279.398438 L 305.109375 279.445313 L 304.996094 279.496094 L 304.761719 279.582031 L 304.636719 279.617188 L 304.511719 279.648438 L 304.382813 279.675781 L 304.25 279.699219 L 304.113281 279.71875 L 303.972656 279.734375 L 303.832031 279.742188 L 303.683594 279.75 Z M 303.535156 279.753906 "/>
<path style=" stroke:none;fill-rule:nonzero;fill:rgb(0%,0%,0%);fill-opacity:1;" d="M 315.265625 275.910156 L 315.261719 276.078125 L 315.253906 276.242188 L 315.242188 276.40625 L 315.226563 276.566406 L 315.203125 276.722656 L 315.179688 276.875 L 315.148438 277.027344 L 315.109375 277.175781 L 315.070313 277.320313 L 314.976563 277.601563 L 314.921875 277.734375 L 314.863281 277.867188 L 314.800781 277.996094 L 314.734375 278.117188 L 314.660156 278.238281 L 314.582031 278.355469 L 314.5 278.464844 L 314.414063 278.574219 L 314.320313 278.679688 L 314.222656 278.777344 L 314.125 278.871094 L 314.015625 278.960938 L 313.90625 279.046875 L 313.792969 279.128906 L 313.671875 279.207031 L 313.546875 279.28125 L 313.417969 279.347656 L 313.285156 279.414063 L 313.144531 279.472656 L 313.003906 279.523438 L 312.855469 279.574219 L 312.703125 279.613281 L 312.542969 279.652344 L 312.382813 279.683594 L 312.214844 279.707031 L 312.046875 279.726563 L 311.871094 279.742188 L 311.691406 279.75 L 311.503906 279.753906 L 311.328125 279.75 L 311.152344 279.742188 L 310.980469 279.726563 L 310.816406 279.707031 L 310.65625 279.683594 L 310.5 279.652344 L 310.34375 279.613281 L 310.195313 279.574219 L 310.050781 279.523438 L 309.910156 279.472656 L 309.777344 279.414063 L 309.644531 279.351563 L 309.515625 279.285156 L 309.394531 279.210938 L 309.277344 279.136719 L 309.160156 279.054688 L 309.050781 278.96875 L 308.945313 278.878906 L 308.847656 278.785156 L 308.75 278.6875 L 308.660156 278.582031 L 308.574219 278.476563 L 308.492188 278.363281 L 308.414063 278.25 L 308.339844 278.128906 L 308.273438 278.007813 L 308.148438 277.75 L 308.046875 277.476563 L 308 277.332031 L 307.921875 277.035156 L 307.890625 276.882813 L 307.867188 276.730469 L 307.84375 276.570313 L 307.828125 276.410156 L 307.816406 276.246094 L 307.808594 276.078125 L 307.804688 275.910156 L 307.808594 275.746094 L 307.816406 275.585938 L 307.828125 275.425781 L 307.84375 275.269531 L 307.863281 275.117188 L 307.886719 274.964844 L 307.949219 274.667969 L 307.988281 274.527344 L 308.03125 274.386719 L 308.082031 274.246094 L 308.132813 274.113281 L 308.191406 273.980469 L 308.253906 273.851563 L 308.394531 273.609375 L 308.472656 273.492188 L 308.550781 273.382813 L 308.636719 273.273438 L 308.730469 273.167969 L 308.824219 273.070313 L 308.925781 272.972656 L 309.03125 272.882813 L 309.140625 272.796875 L 309.253906 272.710938 L 309.496094 272.5625 L 309.625 272.492188 L 309.757813 272.429688 L 309.898438 272.371094 L 310.042969 272.316406 L 310.1875 272.265625 L 310.34375 272.222656 L 310.5 272.183594 L 310.660156 272.152344 L 310.828125 272.128906 L 311 272.109375 L 311.179688 272.09375 L 311.359375 272.085938 L 311.546875 272.082031 L 311.742188 272.085938 L 311.933594 272.09375 L 312.117188 272.109375 L 312.296875 272.128906 L 312.46875 272.152344 L 312.636719 272.183594 L 312.800781 272.222656 L 312.953125 272.265625 L 313.105469 272.316406 L 313.246094 272.371094 L 313.386719 272.429688 L 313.519531 272.492188 L 313.648438 272.5625 L 313.769531 272.636719 L 313.886719 272.710938 L 314 272.796875 L 314.105469 272.882813 L 314.207031 272.972656 L 314.304688 273.070313 L 314.394531 273.167969 L 314.484375 273.273438 L 314.566406 273.378906 L 314.644531 273.492188 L 314.71875 273.605469 L 314.785156 273.722656 L 314.847656 273.847656 L 314.90625 273.972656 L 314.960938 274.105469 L 315.007813 274.238281 L 315.09375 274.519531 L 315.128906 274.664063 L 315.160156 274.808594 L 315.1875 274.957031 L 315.210938 275.109375 L 315.230469 275.265625 L 315.246094 275.421875 L 315.257813 275.582031 Z M 313.253906 275.910156 L 313.25 275.652344 L 313.238281 275.410156 L 313.214844 275.183594 L 313.1875 274.96875 L 313.148438 274.773438 L 313.097656 274.585938 L 313.042969 274.417969 L 312.980469 274.261719 L 312.90625 274.121094 L 312.824219 273.996094 L 312.734375 273.882813 L 312.636719 273.78125 L 312.53125 273.691406 L 312.417969 273.617188 L 312.296875 273.550781 L 312.167969 273.496094 L 312.03125 273.453125 L 311.886719 273.425781 L 311.734375 273.40625 L 311.574219 273.402344 L 311.40625 273.40625 L 311.25 273.425781 L 311.101563 273.457031 L 310.957031 273.496094 L 310.824219 273.550781 L 310.699219 273.617188 L 310.582031 273.695313 L 310.46875 273.785156 L 310.367188 273.890625 L 310.273438 274.003906 L 310.1875 274.128906 L 310.113281 274.273438 L 310.042969 274.425781 L 309.984375 274.597656 L 309.9375 274.78125 L 309.894531 274.976563 L 309.863281 275.191406 L 309.839844 275.417969 L 309.828125 275.65625 L 309.824219 275.910156 L 309.824219 276.039063 L 309.828125 276.167969 L 309.832031 276.292969 L 309.839844 276.410156 L 309.851563 276.527344 L 309.863281 276.640625 L 309.878906 276.75 L 309.917969 276.953125 L 309.9375 277.050781 L 309.992188 277.238281 L 310.023438 277.324219 L 310.085938 277.488281 L 310.121094 277.566406 L 310.199219 277.707031 L 310.238281 277.773438 L 310.28125 277.839844 L 310.324219 277.898438 L 310.371094 277.953125 L 310.421875 278.007813 L 310.46875 278.058594 L 310.523438 278.105469 L 310.574219 278.152344 L 310.628906 278.191406 L 310.6875 278.230469 L 310.746094 278.265625 L 310.808594 278.296875 L 310.871094 278.324219 L 310.996094 278.371094 L 311.128906 278.402344 L 311.199219 278.417969 L 311.339844 278.433594 L 311.410156 278.4375 L 311.484375 278.441406 L 311.648438 278.433594 L 311.730469 278.425781 L 311.808594 278.417969 L 312.03125 278.371094 L 312.101563 278.347656 L 312.167969 278.324219 L 312.234375 278.296875 L 312.300781 278.265625 L 312.367188 278.230469 L 312.425781 278.191406 L 312.488281 278.152344 L 312.597656 278.058594 L 312.652344 278.007813 L 312.703125 277.953125 L 312.75 277.898438 L 312.796875 277.839844 L 312.882813 277.707031 L 312.960938 277.566406 L 312.996094 277.488281 L 313.058594 277.324219 L 313.085938 277.238281 L 313.113281 277.144531 L 313.136719 277.050781 L 313.160156 276.953125 L 313.199219 276.75 L 313.210938 276.640625 L 313.226563 276.527344 L 313.234375 276.410156 L 313.246094 276.292969 L 313.25 276.167969 L 313.253906 276.039063 Z M 313.253906 275.910156 "/>
<path style=" stroke:none;fill-rule:nonzero;fill:rgb(0%,0%,0%);fill-opacity:1;" d="M 316.789063 279.617188 L 316.789063 273.757813 L 316.785156 273.710938 L 316.785156 273.503906 L 316.78125 273.449219 L 316.78125 273.242188 L 316.777344 273.191406 L 316.777344 273.140625 L 316.773438 273.089844 L 316.773438 273.039063 L 316.769531 272.992188 L 316.769531 272.945313 L 316.765625 272.894531 L 316.765625 272.800781 L 316.761719 272.753906 L 316.761719 272.667969 L 316.757813 272.625 L 316.757813 272.542969 L 316.753906 272.507813 L 316.753906 272.46875 L 316.75 272.429688 L 316.75 272.363281 L 316.742188 272.308594 L 316.742188 272.28125 L 316.738281 272.257813 L 316.738281 272.238281 L 316.734375 272.21875 L 318.566406 272.21875 L 318.570313 272.238281 L 318.570313 272.257813 L 318.574219 272.277344 L 318.578125 272.304688 L 318.578125 272.332031 L 318.585938 272.394531 L 318.589844 272.429688 L 318.589844 272.464844 L 318.59375 272.507813 L 318.597656 272.546875 L 318.597656 272.585938 L 318.605469 272.671875 L 318.605469 272.714844 L 318.609375 272.757813 L 318.613281 272.804688 L 318.617188 272.847656 L 318.617188 272.894531 L 318.621094 272.945313 L 318.625 272.992188 L 318.625 273.039063 L 318.628906 273.085938 L 318.628906 273.136719 L 318.636719 273.230469 L 318.636719 273.328125 L 318.640625 273.375 L 318.640625 273.421875 L 318.644531 273.46875 L 318.644531 273.511719 L 318.648438 273.554688 L 318.648438 273.59375 L 318.652344 273.632813 L 318.652344 273.703125 L 318.65625 273.738281 L 318.65625 273.796875 L 318.683594 273.796875 L 318.738281 273.640625 L 318.769531 273.5625 L 318.796875 273.488281 L 318.824219 273.417969 L 318.855469 273.347656 L 318.882813 273.277344 L 318.910156 273.210938 L 318.941406 273.144531 L 318.96875 273.082031 L 319 273.015625 L 319.027344 272.957031 L 319.058594 272.898438 L 319.09375 272.839844 L 319.125 272.785156 L 319.160156 272.730469 L 319.195313 272.679688 L 319.265625 272.585938 L 319.304688 272.539063 L 319.34375 272.496094 L 319.386719 272.453125 L 319.429688 272.414063 L 319.476563 272.378906 L 319.519531 272.34375 L 319.570313 272.308594 L 319.617188 272.277344 L 319.667969 272.25 L 319.722656 272.222656 L 319.832031 272.175781 L 319.890625 272.152344 L 320.015625 272.121094 L 320.082031 272.105469 L 320.152344 272.09375 L 320.222656 272.085938 L 320.296875 272.082031 L 320.453125 272.074219 L 320.488281 272.074219 L 320.519531 272.078125 L 320.554688 272.078125 L 320.589844 272.082031 L 320.621094 272.082031 L 320.65625 272.085938 L 320.6875 272.09375 L 320.722656 272.097656 L 320.753906 272.101563 L 320.789063 272.109375 L 320.820313 272.113281 L 320.882813 272.128906 L 320.910156 272.132813 L 320.964844 272.148438 L 320.988281 272.15625 L 321.007813 272.160156 L 321.027344 272.167969 L 321.046875 272.179688 L 321.046875 273.785156 L 321.011719 273.777344 L 320.972656 273.769531 L 320.9375 273.761719 L 320.859375 273.746094 L 320.824219 273.738281 L 320.785156 273.734375 L 320.746094 273.726563 L 320.710938 273.722656 L 320.671875 273.714844 L 320.632813 273.710938 L 320.59375 273.703125 L 320.554688 273.699219 L 320.46875 273.691406 L 320.375 273.683594 L 320.226563 273.683594 L 320.085938 273.6875 L 319.953125 273.703125 L 319.824219 273.734375 L 319.703125 273.773438 L 319.589844 273.828125 L 319.480469 273.890625 L 319.375 273.964844 L 319.28125 274.054688 L 319.191406 274.152344 L 319.105469 274.261719 L 319.03125 274.382813 L 318.964844 274.519531 L 318.902344 274.660156 L 318.851563 274.816406 L 318.808594 274.984375 L 318.773438 275.160156 L 318.746094 275.351563 L 318.726563 275.550781 L 318.714844 275.761719 L 318.710938 275.984375 L 318.710938 279.617188 Z M 316.789063 279.617188 "/>
<path style=" stroke:none;fill-rule:nonzero;fill:rgb(0%,0%,0%);fill-opacity:1;" d="M 325.265625 279.753906 L 325.105469 279.75 L 324.953125 279.742188 L 324.800781 279.730469 L 324.652344 279.714844 L 324.503906 279.695313 L 324.363281 279.667969 L 324.222656 279.636719 L 324.085938 279.601563 L 323.953125 279.5625 L 323.824219 279.519531 L 323.699219 279.46875 L 323.574219 279.414063 L 323.457031 279.355469 L 323.34375 279.289063 L 323.234375 279.21875 L 323.125 279.144531 L 323.023438 279.066406 L 322.925781 278.984375 L 322.828125 278.894531 L 322.734375 278.800781 L 322.648438 278.703125 L 322.5625 278.597656 L 322.484375 278.488281 L 322.410156 278.375 L 322.335938 278.257813 L 322.269531 278.132813 L 322.207031 278.003906 L 322.148438 277.871094 L 322.09375 277.734375 L 322.046875 277.59375 L 322 277.441406 L 321.960938 277.289063 L 321.921875 277.128906 L 321.890625 276.96875 L 321.867188 276.800781 L 321.84375 276.625 L 321.828125 276.445313 L 321.816406 276.265625 L 321.808594 276.074219 L 321.804688 275.882813 L 321.808594 275.675781 L 321.816406 275.472656 L 321.832031 275.277344 L 321.851563 275.089844 L 321.875 274.90625 L 321.90625 274.730469 L 321.945313 274.5625 L 321.984375 274.402344 L 322.035156 274.246094 L 322.085938 274.097656 L 322.144531 273.957031 L 322.210938 273.820313 L 322.277344 273.6875 L 322.347656 273.5625 L 322.421875 273.445313 L 322.5 273.328125 L 322.582031 273.222656 L 322.667969 273.117188 L 322.757813 273.019531 L 322.851563 272.929688 L 322.949219 272.84375 L 323.050781 272.757813 L 323.261719 272.609375 L 323.375 272.542969 L 323.488281 272.480469 L 323.601563 272.421875 L 323.722656 272.371094 L 323.84375 272.324219 L 323.964844 272.28125 L 324.09375 272.242188 L 324.222656 272.207031 L 324.480469 272.152344 L 324.746094 272.113281 L 324.878906 272.101563 L 325.015625 272.089844 L 325.152344 272.085938 L 325.292969 272.082031 L 325.464844 272.085938 L 325.632813 272.09375 L 325.792969 272.109375 L 325.949219 272.132813 L 326.101563 272.160156 L 326.25 272.191406 L 326.390625 272.234375 L 326.527344 272.277344 L 326.65625 272.332031 L 326.78125 272.390625 L 326.90625 272.453125 L 327.023438 272.519531 L 327.136719 272.59375 L 327.246094 272.667969 L 327.449219 272.839844 L 327.542969 272.929688 L 327.632813 273.027344 L 327.71875 273.128906 L 327.800781 273.238281 L 327.878906 273.347656 L 327.953125 273.464844 L 328.019531 273.585938 L 328.085938 273.710938 L 328.144531 273.839844 L 328.199219 273.972656 L 328.253906 274.109375 L 328.300781 274.253906 L 328.34375 274.398438 L 328.382813 274.550781 L 328.417969 274.703125 L 328.449219 274.859375 L 328.476563 275.019531 L 328.5 275.183594 L 328.539063 275.519531 L 328.550781 275.691406 L 328.558594 275.867188 L 328.566406 276.046875 L 328.566406 276.285156 L 323.824219 276.285156 L 323.824219 276.378906 L 323.835938 276.648438 L 323.851563 276.820313 L 323.875 276.992188 L 323.90625 277.15625 L 323.921875 277.234375 L 323.941406 277.308594 L 323.988281 277.457031 L 324.011719 277.523438 L 324.039063 277.59375 L 324.070313 277.660156 L 324.101563 277.722656 L 324.136719 277.785156 L 324.171875 277.84375 L 324.210938 277.902344 L 324.25 277.953125 L 324.292969 278.007813 L 324.335938 278.054688 L 324.382813 278.101563 L 324.433594 278.148438 L 324.484375 278.191406 L 324.535156 278.230469 L 324.59375 278.265625 L 324.648438 278.304688 L 324.710938 278.332031 L 324.773438 278.363281 L 324.835938 278.386719 L 324.976563 278.425781 L 325.046875 278.441406 L 325.121094 278.453125 L 325.199219 278.460938 L 325.277344 278.464844 L 325.359375 278.46875 L 325.460938 278.464844 L 325.648438 278.449219 L 325.734375 278.433594 L 325.820313 278.414063 L 325.902344 278.390625 L 325.980469 278.363281 L 326.050781 278.332031 L 326.121094 278.296875 L 326.1875 278.253906 L 326.25 278.207031 L 326.308594 278.15625 L 326.363281 278.101563 L 326.414063 278.042969 L 326.464844 277.976563 L 326.507813 277.910156 L 326.546875 277.835938 L 326.585938 277.757813 L 326.617188 277.671875 L 326.644531 277.585938 L 328.457031 277.742188 L 328.433594 277.804688 L 328.40625 277.871094 L 328.375 277.933594 L 328.34375 278 L 328.273438 278.132813 L 328.195313 278.273438 L 328.152344 278.339844 L 328.109375 278.414063 L 328.0625 278.484375 L 328.015625 278.550781 L 327.964844 278.621094 L 327.910156 278.6875 L 327.792969 278.820313 L 327.730469 278.882813 L 327.664063 278.945313 L 327.59375 279.007813 L 327.519531 279.070313 L 327.445313 279.125 L 327.367188 279.183594 L 327.28125 279.234375 L 327.195313 279.289063 L 327.105469 279.339844 L 327.011719 279.386719 L 326.914063 279.433594 L 326.8125 279.476563 L 326.707031 279.519531 L 326.597656 279.5625 L 326.488281 279.597656 L 326.371094 279.628906 L 326.25 279.660156 L 326.121094 279.683594 L 325.992188 279.703125 L 325.855469 279.722656 L 325.714844 279.734375 L 325.570313 279.746094 L 325.421875 279.75 Z M 325.265625 273.292969 L 325.207031 273.292969 L 325.148438 273.296875 L 325.09375 273.300781 L 325.035156 273.308594 L 324.980469 273.316406 L 324.925781 273.328125 L 324.816406 273.359375 L 324.765625 273.375 L 324.710938 273.394531 L 324.660156 273.414063 L 324.613281 273.4375 L 324.472656 273.519531 L 324.386719 273.589844 L 324.347656 273.625 L 324.304688 273.667969 L 324.265625 273.710938 L 324.230469 273.753906 L 324.195313 273.800781 L 324.164063 273.847656 L 324.128906 273.898438 L 324.101563 273.953125 L 324.070313 274.011719 L 324.042969 274.070313 L 324.015625 274.132813 L 323.992188 274.195313 L 323.964844 274.261719 L 323.945313 274.332031 L 323.90625 274.480469 L 323.890625 274.558594 L 323.875 274.640625 L 323.863281 274.722656 L 323.855469 274.808594 L 323.839844 274.988281 L 323.835938 275.082031 L 326.707031 275.082031 L 326.695313 274.910156 L 326.671875 274.742188 L 326.644531 274.585938 L 326.613281 274.4375 L 326.574219 274.300781 L 326.527344 274.171875 L 326.472656 274.050781 L 326.414063 273.9375 L 326.347656 273.835938 L 326.277344 273.742188 L 326.199219 273.65625 L 326.117188 273.582031 L 326.027344 273.511719 L 325.933594 273.453125 L 325.835938 273.40625 L 325.730469 273.363281 L 325.625 273.332031 L 325.507813 273.308594 L 325.390625 273.296875 Z M 325.265625 273.292969 "/>
</g>
</svg>
