<?xml version="1.0" encoding="UTF-8"?>
<svg xmlns="http://www.w3.org/2000/svg" xmlns:xlink="http://www.w3.org/1999/xlink" width="504pt" height="252pt" viewBox="0 0 504 252" version="1.1">
<defs>
<clipPath id="clip1">
  <path d="M 8.21875 5.480469 L 498.519531 5.480469 L 498.519531 215.566406 L 8.21875 215.566406 Z M 8.21875 5.480469 "/>
</clipPath>
<clipPath id="clip2">
  <path d="M 8.21875 169 L 498.519531 169 L 498.519531 171 L 8.21875 171 Z M 8.21875 169 "/>
</clipPath>
<clipPath id="clip3">
  <path d="M 8.21875 98 L 498.519531 98 L 498.519531 99 L 8.21875 99 Z M 8.21875 98 "/>
</clipPath>
<clipPath id="clip4">
  <path d="M 8.21875 26 L 498.519531 26 L 498.519531 27 L 8.21875 27 Z M 8.21875 26 "/>
</clipPath>
<clipPath id="clip5">
  <path d="M 20 5.480469 L 22 5.480469 L 22 215.566406 L 20 215.566406 Z M 20 5.480469 "/>
</clipPath>
<clipPath id="clip6">
  <path d="M 113 5.480469 L 115 5.480469 L 115 215.566406 L 113 215.566406 Z M 113 5.480469 "/>
</clipPath>
<clipPath id="clip7">
  <path d="M 206 5.480469 L 208 5.480469 L 208 215.566406 L 206 215.566406 Z M 206 5.480469 "/>
</clipPath>
<clipPath id="clip8">
  <path d="M 299 5.480469 L 301 5.480469 L 301 215.566406 L 299 215.566406 Z M 299 5.480469 "/>
</clipPath>
<clipPath id="clip9">
  <path d="M 392 5.480469 L 393 5.480469 L 393 215.566406 L 392 215.566406 Z M 392 5.480469 "/>
</clipPath>
<clipPath id="clip10">
  <path d="M 485 5.480469 L 486 5.480469 L 486 215.566406 L 485 215.566406 Z M 485 5.480469 "/>
</clipPath>
<clipPath id="clip11">
  <path d="M 8.21875 205 L 498.519531 205 L 498.519531 207 L 8.21875 207 Z M 8.21875 205 "/>
</clipPath>
<clipPath id="clip12">
  <path d="M 8.21875 133 L 498.519531 133 L 498.519531 135 L 8.21875 135 Z M 8.21875 133 "/>
</clipPath>
<clipPath id="clip13">
  <path d="M 8.21875 61 L 498.519531 61 L 498.519531 63 L 8.21875 63 Z M 8.21875 61 "/>
</clipPath>
<clipPath id="clip14">
  <path d="M 67 5.480469 L 69 5.480469 L 69 215.566406 L 67 215.566406 Z M 67 5.480469 "/>
</clipPath>
<clipPath id="clip15">
  <path d="M 159 5.480469 L 162 5.480469 L 162 215.566406 L 159 215.566406 Z M 159 5.480469 "/>
</clipPath>
<clipPath id="clip16">
  <path d="M 252 5.480469 L 254 5.480469 L 254 215.566406 L 252 215.566406 Z M 252 5.480469 "/>
</clipPath>
<clipPath id="clip17">
  <path d="M 345 5.480469 L 347 5.480469 L 347 215.566406 L 345 215.566406 Z M 345 5.480469 "/>
</clipPath>
<clipPath id="clip18">
  <path d="M 438 5.480469 L 440 5.480469 L 440 215.566406 L 438 215.566406 Z M 438 5.480469 "/>
</clipPath>
<clipPath id="clip19">
  <path d="M 8.21875 204 L 498.519531 204 L 498.519531 208 L 8.21875 208 Z M 8.21875 204 "/>
</clipPath>
</defs>
<g id="surface369">
<rect x="0" y="0" width="504" height="252" style="fill:rgb(100%,100%,100%);fill-opacity:1;stroke:none;"/>
<rect x="0" y="0" width="504" height="252" style="fill:rgb(100%,100%,100%);fill-opacity:1;stroke:none;"/>
<path style="fill:none;stroke-width:1.066978;stroke-linecap:round;stroke-linejoin:round;stroke:rgb(100%,100%,100%);stroke-opacity:1;stroke-miterlimit:10;" d="M 0 252 L 504 252 L 504 0 L 0 0 Z M 0 252 "/>
<g clip-path="url(#clip1)" clip-rule="nonzero">
<path style=" stroke:none;fill-rule:nonzero;fill:rgb(92.156863%,92.156863%,92.156863%);fill-opacity:1;" d="M 8.21875 215.566406 L 498.519531 215.566406 L 498.519531 5.480469 L 8.21875 5.480469 Z M 8.21875 215.566406 "/>
</g>
<g clip-path="url(#clip2)" clip-rule="nonzero">
<path style="fill:none;stroke-width:0.533489;stroke-linecap:butt;stroke-linejoin:round;stroke:rgb(100%,100%,100%);stroke-opacity:1;stroke-miterlimit:10;" d="M 8.21875 170.113281 L 498.519531 170.113281 "/>
</g>
<g clip-path="url(#clip3)" clip-rule="nonzero">
<path style="fill:none;stroke-width:0.533489;stroke-linecap:butt;stroke-linejoin:round;stroke:rgb(100%,100%,100%);stroke-opacity:1;stroke-miterlimit:10;" d="M 8.21875 98.300781 L 498.519531 98.300781 "/>
</g>
<g clip-path="url(#clip4)" clip-rule="nonzero">
<path style="fill:none;stroke-width:0.533489;stroke-linecap:butt;stroke-linejoin:round;stroke:rgb(100%,100%,100%);stroke-opacity:1;stroke-miterlimit:10;" d="M 8.21875 26.492188 L 498.519531 26.492188 "/>
</g>
<g clip-path="url(#clip5)" clip-rule="nonzero">
<path style="fill:none;stroke-width:0.533489;stroke-linecap:butt;stroke-linejoin:round;stroke:rgb(100%,100%,100%);stroke-opacity:1;stroke-miterlimit:10;" d="M 21.21875 215.566406 L 21.21875 5.480469 "/>
</g>
<g clip-path="url(#clip6)" clip-rule="nonzero">
<path style="fill:none;stroke-width:0.533489;stroke-linecap:butt;stroke-linejoin:round;stroke:rgb(100%,100%,100%);stroke-opacity:1;stroke-miterlimit:10;" d="M 114.078125 215.566406 L 114.078125 5.480469 "/>
</g>
<g clip-path="url(#clip7)" clip-rule="nonzero">
<path style="fill:none;stroke-width:0.533489;stroke-linecap:butt;stroke-linejoin:round;stroke:rgb(100%,100%,100%);stroke-opacity:1;stroke-miterlimit:10;" d="M 206.941406 215.566406 L 206.941406 5.480469 "/>
</g>
<g clip-path="url(#clip8)" clip-rule="nonzero">
<path style="fill:none;stroke-width:0.533489;stroke-linecap:butt;stroke-linejoin:round;stroke:rgb(100%,100%,100%);stroke-opacity:1;stroke-miterlimit:10;" d="M 299.800781 215.566406 L 299.800781 5.480469 "/>
</g>
<g clip-path="url(#clip9)" clip-rule="nonzero">
<path style="fill:none;stroke-width:0.533489;stroke-linecap:butt;stroke-linejoin:round;stroke:rgb(100%,100%,100%);stroke-opacity:1;stroke-miterlimit:10;" d="M 392.660156 215.566406 L 392.660156 5.480469 "/>
</g>
<g clip-path="url(#clip10)" clip-rule="nonzero">
<path style="fill:none;stroke-width:0.533489;stroke-linecap:butt;stroke-linejoin:round;stroke:rgb(100%,100%,100%);stroke-opacity:1;stroke-miterlimit:10;" d="M 485.519531 215.566406 L 485.519531 5.480469 "/>
</g>
<g clip-path="url(#clip11)" clip-rule="nonzero">
<path style="fill:none;stroke-width:1.066978;stroke-linecap:butt;stroke-linejoin:round;stroke:rgb(100%,100%,100%);stroke-opacity:1;stroke-miterlimit:10;" d="M 8.21875 206.015625 L 498.519531 206.015625 "/>
</g>
<g clip-path="url(#clip12)" clip-rule="nonzero">
<path style="fill:none;stroke-width:1.066978;stroke-linecap:butt;stroke-linejoin:round;stroke:rgb(100%,100%,100%);stroke-opacity:1;stroke-miterlimit:10;" d="M 8.21875 134.207031 L 498.519531 134.207031 "/>
</g>
<g clip-path="url(#clip13)" clip-rule="nonzero">
<path style="fill:none;stroke-width:1.066978;stroke-linecap:butt;stroke-linejoin:round;stroke:rgb(100%,100%,100%);stroke-opacity:1;stroke-miterlimit:10;" d="M 8.21875 62.394531 L 498.519531 62.394531 "/>
</g>
<g clip-path="url(#clip14)" clip-rule="nonzero">
<path style="fill:none;stroke-width:1.066978;stroke-linecap:butt;stroke-linejoin:round;stroke:rgb(100%,100%,100%);stroke-opacity:1;stroke-miterlimit:10;" d="M 67.648438 215.566406 L 67.648438 5.480469 "/>
</g>
<g clip-path="url(#clip15)" clip-rule="nonzero">
<path style="fill:none;stroke-width:1.066978;stroke-linecap:butt;stroke-linejoin:round;stroke:rgb(100%,100%,100%);stroke-opacity:1;stroke-miterlimit:10;" d="M 160.507813 215.566406 L 160.507813 5.480469 "/>
</g>
<g clip-path="url(#clip16)" clip-rule="nonzero">
<path style="fill:none;stroke-width:1.066978;stroke-linecap:butt;stroke-linejoin:round;stroke:rgb(100%,100%,100%);stroke-opacity:1;stroke-miterlimit:10;" d="M 253.371094 215.566406 L 253.371094 5.480469 "/>
</g>
<g clip-path="url(#clip17)" clip-rule="nonzero">
<path style="fill:none;stroke-width:1.066978;stroke-linecap:butt;stroke-linejoin:round;stroke:rgb(100%,100%,100%);stroke-opacity:1;stroke-miterlimit:10;" d="M 346.230469 215.566406 L 346.230469 5.480469 "/>
</g>
<g clip-path="url(#clip18)" clip-rule="nonzero">
<path style="fill:none;stroke-width:1.066978;stroke-linecap:butt;stroke-linejoin:round;stroke:rgb(100%,100%,100%);stroke-opacity:1;stroke-miterlimit:10;" d="M 439.089844 215.566406 L 439.089844 5.480469 "/>
</g>
<path style="fill:none;stroke-width:3.200935;stroke-linecap:butt;stroke-linejoin:round;stroke:rgb(0%,0%,0%);stroke-opacity:1;stroke-miterlimit:10;" d="M 30.503906 205.953125 L 34.960938 205.929688 L 39.421875 205.898438 L 43.878906 205.855469 L 48.335938 205.796875 L 52.792969 205.722656 L 57.25 205.628906 L 61.707031 205.503906 L 66.164063 205.339844 L 70.621094 205.136719 L 75.078125 204.875 L 79.535156 204.546875 L 83.992188 204.136719 L 88.449219 203.625 L 92.90625 202.996094 L 97.363281 202.226563 L 101.820313 201.292969 L 106.28125 200.160156 L 110.738281 198.808594 L 115.195313 197.195313 L 119.652344 195.296875 L 124.109375 193.066406 L 128.566406 190.476563 L 133.023438 187.488281 L 137.480469 184.0625 L 141.9375 180.167969 L 146.394531 175.78125 L 150.851563 170.875 L 155.308594 165.429688 L 159.765625 159.445313 L 164.222656 152.914063 L 168.679688 145.855469 L 173.140625 138.292969 L 177.597656 130.269531 L 182.054688 121.832031 L 186.511719 113.054688 L 190.96875 104.011719 L 195.425781 94.808594 L 199.882813 85.546875 L 204.339844 76.34375 L 208.796875 67.332031 L 213.253906 58.636719 L 217.710938 50.398438 L 222.167969 42.746094 L 226.625 35.8125 L 231.082031 29.710938 L 235.539063 24.5625 L 239.996094 20.449219 L 244.457031 17.457031 L 248.914063 15.640625 L 253.371094 15.027344 L 257.828125 15.640625 L 262.285156 17.457031 L 266.742188 20.449219 L 271.199219 24.5625 L 275.65625 29.710938 L 280.113281 35.8125 L 284.570313 42.746094 L 289.027344 50.398438 L 293.484375 58.636719 L 297.941406 67.332031 L 302.398438 76.34375 L 306.855469 85.546875 L 311.316406 94.808594 L 315.773438 104.011719 L 320.230469 113.054688 L 324.6875 121.832031 L 329.144531 130.269531 L 333.601563 138.292969 L 338.058594 145.855469 L 342.515625 152.914063 L 346.972656 159.445313 L 351.429688 165.429688 L 355.886719 170.875 L 360.34375 175.78125 L 364.800781 180.167969 L 369.257813 184.0625 L 373.714844 187.488281 L 378.175781 190.476563 L 382.632813 193.066406 L 387.089844 195.296875 L 391.546875 197.195313 L 396.003906 198.808594 L 400.460938 200.160156 L 404.917969 201.292969 L 409.375 202.226563 L 413.832031 202.996094 L 418.289063 203.625 L 422.746094 204.136719 L 427.203125 204.546875 L 431.660156 204.875 L 436.117188 205.136719 L 440.574219 205.339844 L 445.03125 205.503906 L 449.492188 205.628906 L 453.949219 205.722656 L 458.40625 205.796875 L 462.863281 205.855469 L 467.320313 205.898438 L 471.777344 205.929688 L 476.234375 205.953125 "/>
<g clip-path="url(#clip19)" clip-rule="nonzero">
<path style="fill:none;stroke-width:3.200935;stroke-linecap:butt;stroke-linejoin:round;stroke:rgb(0%,0%,0%);stroke-opacity:1;stroke-miterlimit:10;" d="M 8.21875 206.015625 L 498.519531 206.015625 "/>
</g>
<path style="fill:none;stroke-width:1.066978;stroke-linecap:butt;stroke-linejoin:round;stroke:rgb(20%,20%,20%);stroke-opacity:1;stroke-miterlimit:10;" d="M 67.648438 218.304688 L 67.648438 215.566406 "/>
<path style="fill:none;stroke-width:1.066978;stroke-linecap:butt;stroke-linejoin:round;stroke:rgb(20%,20%,20%);stroke-opacity:1;stroke-miterlimit:10;" d="M 160.507813 218.304688 L 160.507813 215.566406 "/>
<path style="fill:none;stroke-width:1.066978;stroke-linecap:butt;stroke-linejoin:round;stroke:rgb(20%,20%,20%);stroke-opacity:1;stroke-miterlimit:10;" d="M 253.371094 218.304688 L 253.371094 215.566406 "/>
<path style="fill:none;stroke-width:1.066978;stroke-linecap:butt;stroke-linejoin:round;stroke:rgb(20%,20%,20%);stroke-opacity:1;stroke-miterlimit:10;" d="M 346.230469 218.304688 L 346.230469 215.566406 "/>
<path style="fill:none;stroke-width:1.066978;stroke-linecap:butt;stroke-linejoin:round;stroke:rgb(20%,20%,20%);stroke-opacity:1;stroke-miterlimit:10;" d="M 439.089844 218.304688 L 439.089844 215.566406 "/>
<path style=" stroke:none;fill-rule:nonzero;fill:rgb(30.196078%,30.196078%,30.196078%);fill-opacity:1;" d="M 61.890625 228.753906 L 61.890625 227.855469 L 63.992188 227.855469 L 63.992188 221.503906 L 62.128906 222.835938 L 62.128906 221.839844 L 64.082031 220.496094 L 65.054688 220.496094 L 65.054688 227.855469 L 67.0625 227.855469 L 67.0625 228.753906 Z M 61.890625 228.753906 "/>
<path style=" stroke:none;fill-rule:nonzero;fill:rgb(30.196078%,30.196078%,30.196078%);fill-opacity:1;" d="M 73.855469 224.621094 L 73.851563 224.855469 L 73.84375 225.082031 L 73.835938 225.300781 L 73.816406 225.515625 L 73.796875 225.71875 L 73.773438 225.914063 L 73.742188 226.105469 L 73.707031 226.285156 L 73.667969 226.460938 L 73.625 226.625 L 73.578125 226.785156 L 73.53125 226.9375 L 73.476563 227.085938 L 73.421875 227.226563 L 73.359375 227.359375 L 73.296875 227.488281 L 73.230469 227.609375 L 73.160156 227.726563 L 73.085938 227.835938 L 73.011719 227.9375 L 72.933594 228.035156 L 72.851563 228.128906 L 72.679688 228.292969 L 72.589844 228.367188 L 72.402344 228.5 L 72.199219 228.609375 L 72.097656 228.652344 L 71.992188 228.695313 L 71.773438 228.765625 L 71.664063 228.792969 L 71.550781 228.816406 L 71.4375 228.835938 L 71.324219 228.851563 L 71.207031 228.863281 L 70.972656 228.871094 L 70.851563 228.867188 L 70.734375 228.863281 L 70.617188 228.851563 L 70.503906 228.835938 L 70.390625 228.816406 L 70.277344 228.792969 L 70.167969 228.765625 L 70.058594 228.730469 L 69.953125 228.695313 L 69.742188 228.609375 L 69.546875 228.5 L 69.359375 228.367188 L 69.269531 228.292969 L 69.097656 228.128906 L 69.015625 228.035156 L 68.9375 227.9375 L 68.863281 227.835938 L 68.792969 227.726563 L 68.722656 227.613281 L 68.660156 227.492188 L 68.597656 227.363281 L 68.539063 227.230469 L 68.484375 227.089844 L 68.429688 226.945313 L 68.335938 226.632813 L 68.292969 226.464844 L 68.257813 226.292969 L 68.226563 226.109375 L 68.195313 225.917969 L 68.171875 225.722656 L 68.152344 225.519531 L 68.136719 225.304688 L 68.128906 225.085938 L 68.121094 224.859375 L 68.117188 224.621094 L 68.121094 224.378906 L 68.128906 224.140625 L 68.136719 223.914063 L 68.152344 223.695313 L 68.171875 223.484375 L 68.195313 223.28125 L 68.226563 223.085938 L 68.257813 222.902344 L 68.292969 222.726563 L 68.335938 222.558594 L 68.382813 222.398438 L 68.429688 222.246094 L 68.484375 222.097656 L 68.539063 221.957031 L 68.597656 221.824219 L 68.660156 221.695313 L 68.726563 221.574219 L 68.796875 221.460938 L 68.867188 221.355469 L 68.945313 221.253906 L 69.023438 221.160156 L 69.105469 221.070313 L 69.1875 220.988281 L 69.277344 220.910156 L 69.367188 220.839844 L 69.460938 220.773438 L 69.554688 220.714844 L 69.652344 220.664063 L 69.753906 220.617188 L 69.859375 220.574219 L 69.964844 220.535156 L 70.183594 220.472656 L 70.296875 220.445313 L 70.523438 220.40625 L 70.644531 220.390625 L 70.761719 220.382813 L 70.882813 220.375 L 71.125 220.375 L 71.242188 220.382813 L 71.355469 220.390625 L 71.46875 220.40625 L 71.578125 220.425781 L 71.691406 220.445313 L 71.796875 220.472656 L 71.90625 220.503906 L 72.011719 220.535156 L 72.113281 220.574219 L 72.21875 220.617188 L 72.316406 220.664063 L 72.414063 220.714844 L 72.511719 220.773438 L 72.601563 220.839844 L 72.691406 220.910156 L 72.777344 220.988281 L 72.863281 221.070313 L 72.945313 221.160156 L 73.023438 221.253906 L 73.097656 221.355469 L 73.171875 221.460938 L 73.238281 221.574219 L 73.304688 221.695313 L 73.367188 221.824219 L 73.425781 221.957031 L 73.484375 222.097656 L 73.535156 222.246094 L 73.585938 222.398438 L 73.632813 222.558594 L 73.675781 222.726563 L 73.710938 222.902344 L 73.746094 223.085938 L 73.773438 223.28125 L 73.800781 223.484375 L 73.820313 223.695313 L 73.835938 223.914063 L 73.847656 224.140625 L 73.851563 224.378906 Z M 72.78125 224.621094 L 72.78125 224.429688 L 72.777344 224.242188 L 72.773438 224.0625 L 72.765625 223.886719 L 72.753906 223.722656 L 72.742188 223.5625 L 72.726563 223.40625 L 72.707031 223.261719 L 72.6875 223.121094 L 72.664063 222.988281 L 72.640625 222.859375 L 72.613281 222.734375 L 72.585938 222.617188 L 72.554688 222.507813 L 72.519531 222.398438 L 72.484375 222.296875 L 72.40625 222.109375 L 72.363281 222.023438 L 72.320313 221.945313 L 72.273438 221.867188 L 72.222656 221.796875 L 72.171875 221.730469 L 72.121094 221.667969 L 72.066406 221.609375 L 72.007813 221.558594 L 71.949219 221.511719 L 71.886719 221.464844 L 71.824219 221.429688 L 71.757813 221.394531 L 71.691406 221.363281 L 71.550781 221.308594 L 71.480469 221.289063 L 71.40625 221.269531 L 71.25 221.246094 L 71.171875 221.238281 L 71.089844 221.230469 L 70.917969 221.230469 L 70.832031 221.238281 L 70.75 221.246094 L 70.667969 221.257813 L 70.589844 221.269531 L 70.433594 221.308594 L 70.363281 221.335938 L 70.289063 221.363281 L 70.222656 221.394531 L 70.15625 221.429688 L 70.089844 221.46875 L 70.027344 221.511719 L 69.96875 221.5625 L 69.851563 221.671875 L 69.796875 221.734375 L 69.695313 221.875 L 69.648438 221.949219 L 69.601563 222.03125 L 69.5625 222.117188 L 69.519531 222.207031 L 69.484375 222.304688 L 69.445313 222.40625 L 69.414063 222.511719 L 69.382813 222.625 L 69.351563 222.742188 L 69.328125 222.863281 L 69.300781 222.992188 L 69.261719 223.265625 L 69.242188 223.414063 L 69.226563 223.566406 L 69.214844 223.726563 L 69.203125 223.890625 L 69.195313 224.066406 L 69.191406 224.246094 L 69.1875 224.429688 L 69.183594 224.621094 L 69.1875 224.808594 L 69.191406 224.992188 L 69.195313 225.164063 L 69.203125 225.335938 L 69.214844 225.496094 L 69.226563 225.652344 L 69.242188 225.804688 L 69.261719 225.949219 L 69.28125 226.089844 L 69.300781 226.222656 L 69.328125 226.351563 L 69.355469 226.472656 L 69.386719 226.589844 L 69.417969 226.703125 L 69.453125 226.808594 L 69.488281 226.910156 L 69.527344 227.007813 L 69.566406 227.101563 L 69.609375 227.1875 L 69.652344 227.269531 L 69.703125 227.347656 L 69.75 227.417969 L 69.804688 227.488281 L 69.855469 227.550781 L 69.96875 227.664063 L 70.03125 227.714844 L 70.09375 227.761719 L 70.15625 227.800781 L 70.222656 227.839844 L 70.289063 227.871094 L 70.359375 227.902344 L 70.429688 227.925781 L 70.503906 227.949219 L 70.578125 227.96875 L 70.734375 227.992188 L 70.816406 228.003906 L 70.898438 228.007813 L 71.066406 228.007813 L 71.148438 228.003906 L 71.304688 227.980469 L 71.378906 227.96875 L 71.453125 227.949219 L 71.527344 227.925781 L 71.597656 227.902344 L 71.664063 227.871094 L 71.734375 227.839844 L 71.800781 227.800781 L 71.863281 227.761719 L 71.925781 227.714844 L 71.984375 227.664063 L 72.042969 227.609375 L 72.097656 227.550781 L 72.148438 227.488281 L 72.25 227.347656 L 72.296875 227.269531 L 72.34375 227.1875 L 72.386719 227.101563 L 72.425781 227.007813 L 72.464844 226.910156 L 72.503906 226.808594 L 72.539063 226.703125 L 72.570313 226.589844 L 72.601563 226.472656 L 72.628906 226.351563 L 72.652344 226.222656 L 72.679688 226.089844 L 72.699219 225.949219 L 72.71875 225.804688 L 72.734375 225.652344 L 72.75 225.496094 L 72.761719 225.335938 L 72.777344 224.992188 L 72.78125 224.808594 Z M 72.78125 224.621094 "/>
<path style=" stroke:none;fill-rule:nonzero;fill:rgb(30.196078%,30.196078%,30.196078%);fill-opacity:1;" d="M 154.75 228.753906 L 154.75 227.855469 L 156.851563 227.855469 L 156.851563 221.503906 L 154.988281 222.835938 L 154.988281 221.839844 L 156.941406 220.496094 L 157.914063 220.496094 L 157.914063 227.855469 L 159.921875 227.855469 L 159.921875 228.753906 Z M 154.75 228.753906 "/>
<path style=" stroke:none;fill-rule:nonzero;fill:rgb(30.196078%,30.196078%,30.196078%);fill-opacity:1;" d="M 166.679688 226.0625 L 166.679688 226.1875 L 166.671875 226.308594 L 166.664063 226.425781 L 166.632813 226.660156 L 166.613281 226.769531 L 166.585938 226.882813 L 166.558594 226.992188 L 166.527344 227.097656 L 166.492188 227.199219 L 166.453125 227.300781 L 166.410156 227.402344 L 166.363281 227.496094 L 166.3125 227.589844 L 166.203125 227.769531 L 166.140625 227.855469 L 166.074219 227.9375 L 166.007813 228.015625 L 165.859375 228.164063 L 165.78125 228.234375 L 165.699219 228.296875 L 165.609375 228.359375 L 165.519531 228.417969 L 165.425781 228.476563 L 165.230469 228.578125 L 165.125 228.621094 L 165.015625 228.664063 L 164.90625 228.703125 L 164.789063 228.738281 L 164.671875 228.769531 L 164.550781 228.796875 L 164.425781 228.820313 L 164.167969 228.851563 L 164.03125 228.863281 L 163.75 228.871094 L 163.621094 228.871094 L 163.496094 228.863281 L 163.375 228.855469 L 163.257813 228.847656 L 163.140625 228.832031 L 163.027344 228.816406 L 162.917969 228.796875 L 162.8125 228.773438 L 162.710938 228.746094 L 162.613281 228.71875 L 162.519531 228.6875 L 162.425781 228.652344 L 162.339844 228.617188 L 162.167969 228.539063 L 162.089844 228.496094 L 162.011719 228.449219 L 161.9375 228.402344 L 161.867188 228.355469 L 161.796875 228.300781 L 161.671875 228.191406 L 161.609375 228.132813 L 161.554688 228.074219 L 161.5 228.011719 L 161.445313 227.945313 L 161.398438 227.882813 L 161.351563 227.816406 L 161.265625 227.675781 L 161.226563 227.601563 L 161.191406 227.53125 L 161.128906 227.382813 L 161.074219 227.226563 L 161.027344 227.070313 L 160.988281 226.90625 L 162.054688 226.785156 L 162.101563 226.925781 L 162.117188 226.96875 L 162.132813 227.015625 L 162.152344 227.0625 L 162.171875 227.105469 L 162.195313 227.152344 L 162.214844 227.195313 L 162.238281 227.242188 L 162.261719 227.285156 L 162.289063 227.328125 L 162.316406 227.367188 L 162.34375 227.410156 L 162.375 227.449219 L 162.410156 227.488281 L 162.441406 227.523438 L 162.476563 227.5625 L 162.554688 227.632813 L 162.597656 227.667969 L 162.640625 227.699219 L 162.734375 227.761719 L 162.78125 227.789063 L 162.832031 227.816406 L 162.886719 227.839844 L 162.9375 227.863281 L 162.996094 227.886719 L 163.050781 227.910156 L 163.113281 227.929688 L 163.175781 227.945313 L 163.242188 227.960938 L 163.382813 227.984375 L 163.53125 228 L 163.609375 228.003906 L 163.691406 228.007813 L 163.855469 228.007813 L 164.011719 228 L 164.089844 227.988281 L 164.164063 227.980469 L 164.238281 227.964844 L 164.308594 227.949219 L 164.382813 227.929688 L 164.449219 227.910156 L 164.515625 227.886719 L 164.582031 227.859375 L 164.648438 227.828125 L 164.710938 227.796875 L 164.769531 227.765625 L 164.828125 227.726563 L 164.9375 227.648438 L 164.988281 227.605469 L 165.039063 227.558594 L 165.085938 227.511719 L 165.132813 227.460938 L 165.175781 227.410156 L 165.21875 227.355469 L 165.261719 227.296875 L 165.296875 227.238281 L 165.335938 227.175781 L 165.367188 227.113281 L 165.398438 227.046875 L 165.429688 226.976563 L 165.453125 226.90625 L 165.480469 226.835938 L 165.5 226.761719 L 165.539063 226.605469 L 165.5625 226.441406 L 165.574219 226.355469 L 165.578125 226.269531 L 165.582031 226.179688 L 165.582031 226.011719 L 165.574219 225.863281 L 165.5625 225.792969 L 165.554688 225.722656 L 165.539063 225.652344 L 165.523438 225.585938 L 165.484375 225.453125 L 165.460938 225.390625 L 165.40625 225.265625 L 165.378906 225.207031 L 165.34375 225.148438 L 165.3125 225.089844 L 165.273438 225.039063 L 165.238281 224.984375 L 165.195313 224.933594 L 165.109375 224.839844 L 165.0625 224.792969 L 165.015625 224.75 L 164.960938 224.707031 L 164.910156 224.667969 L 164.855469 224.632813 L 164.738281 224.5625 L 164.675781 224.53125 L 164.613281 224.503906 L 164.546875 224.476563 L 164.480469 224.453125 L 164.410156 224.429688 L 164.339844 224.410156 L 164.269531 224.394531 L 164.195313 224.378906 L 164.121094 224.367188 L 164.042969 224.359375 L 163.960938 224.351563 L 163.878906 224.347656 L 163.691406 224.347656 L 163.640625 224.351563 L 163.59375 224.355469 L 163.542969 224.359375 L 163.496094 224.363281 L 163.308594 224.394531 L 163.265625 224.402344 L 163.09375 224.449219 L 163.054688 224.464844 L 163.011719 224.476563 L 162.855469 224.539063 L 162.820313 224.558594 L 162.785156 224.574219 L 162.644531 224.652344 L 162.613281 224.671875 L 162.582031 224.695313 L 162.546875 224.714844 L 162.519531 224.738281 L 162.488281 224.757813 L 162.460938 224.78125 L 162.429688 224.800781 L 162.402344 224.824219 L 162.371094 224.847656 L 162.316406 224.894531 L 162.289063 224.914063 L 162.261719 224.9375 L 161.230469 224.9375 L 161.503906 220.496094 L 166.199219 220.496094 L 166.199219 221.394531 L 162.464844 221.394531 L 162.308594 224.011719 L 162.367188 223.96875 L 162.425781 223.929688 L 162.488281 223.890625 L 162.554688 223.851563 L 162.625 223.8125 L 162.695313 223.777344 L 162.769531 223.742188 L 162.847656 223.707031 L 163.011719 223.644531 L 163.097656 223.613281 L 163.1875 223.585938 L 163.277344 223.5625 L 163.375 223.542969 L 163.472656 223.527344 L 163.574219 223.511719 L 163.679688 223.5 L 163.789063 223.492188 L 163.898438 223.488281 L 164.011719 223.484375 L 164.136719 223.488281 L 164.253906 223.492188 L 164.371094 223.503906 L 164.484375 223.515625 L 164.597656 223.53125 L 164.816406 223.578125 L 164.917969 223.605469 L 165.019531 223.636719 L 165.121094 223.671875 L 165.21875 223.710938 L 165.3125 223.753906 L 165.492188 223.847656 L 165.578125 223.902344 L 165.660156 223.957031 L 165.738281 224.011719 L 165.816406 224.074219 L 165.957031 224.207031 L 166.027344 224.277344 L 166.089844 224.347656 L 166.152344 224.421875 L 166.210938 224.5 L 166.265625 224.582031 L 166.316406 224.664063 L 166.367188 224.75 L 166.410156 224.835938 L 166.453125 224.925781 L 166.492188 225.019531 L 166.527344 225.117188 L 166.558594 225.214844 L 166.585938 225.3125 L 166.613281 225.414063 L 166.632813 225.519531 L 166.664063 225.730469 L 166.671875 225.839844 L 166.679688 225.953125 Z M 166.679688 226.0625 "/>
<path style=" stroke:none;fill-rule:nonzero;fill:rgb(30.196078%,30.196078%,30.196078%);fill-opacity:1;" d="M 247.300781 228.753906 L 247.300781 228.007813 L 247.359375 227.875 L 247.425781 227.742188 L 247.492188 227.613281 L 247.558594 227.488281 L 247.628906 227.363281 L 247.703125 227.246094 L 247.78125 227.128906 L 247.859375 227.015625 L 247.941406 226.910156 L 248.027344 226.800781 L 248.113281 226.699219 L 248.203125 226.59375 L 248.289063 226.496094 L 248.46875 226.300781 L 248.652344 226.117188 L 248.839844 225.9375 L 248.933594 225.851563 L 249.027344 225.769531 L 249.125 225.683594 L 249.3125 225.519531 L 249.59375 225.285156 L 249.6875 225.210938 L 249.777344 225.136719 L 249.964844 224.988281 L 250.054688 224.917969 L 250.144531 224.84375 L 250.230469 224.769531 L 250.316406 224.699219 L 250.402344 224.625 L 250.480469 224.554688 L 250.5625 224.480469 L 250.640625 224.40625 L 250.714844 224.335938 L 250.789063 224.261719 L 250.859375 224.1875 L 250.992188 224.039063 L 251.054688 223.964844 L 251.113281 223.886719 L 251.222656 223.730469 L 251.273438 223.652344 L 251.320313 223.574219 L 251.363281 223.492188 L 251.402344 223.410156 L 251.4375 223.324219 L 251.46875 223.238281 L 251.496094 223.148438 L 251.515625 223.058594 L 251.53125 222.964844 L 251.542969 222.867188 L 251.550781 222.769531 L 251.554688 222.671875 L 251.550781 222.601563 L 251.550781 222.535156 L 251.535156 222.402344 L 251.527344 222.34375 L 251.515625 222.28125 L 251.484375 222.164063 L 251.46875 222.109375 L 251.449219 222.054688 L 251.402344 221.953125 L 251.375 221.902344 L 251.320313 221.808594 L 251.289063 221.765625 L 251.21875 221.679688 L 251.183594 221.640625 L 251.144531 221.605469 L 251.058594 221.535156 L 251.015625 221.503906 L 250.972656 221.476563 L 250.921875 221.445313 L 250.875 221.421875 L 250.773438 221.375 L 250.664063 221.335938 L 250.605469 221.316406 L 250.550781 221.300781 L 250.433594 221.277344 L 250.371094 221.265625 L 250.246094 221.25 L 250.113281 221.242188 L 249.984375 221.242188 L 249.859375 221.25 L 249.800781 221.253906 L 249.738281 221.265625 L 249.679688 221.273438 L 249.5625 221.296875 L 249.507813 221.3125 L 249.449219 221.328125 L 249.394531 221.347656 L 249.34375 221.367188 L 249.289063 221.390625 L 249.238281 221.414063 L 249.1875 221.441406 L 249.140625 221.464844 L 249 221.558594 L 248.914063 221.628906 L 248.796875 221.746094 L 248.761719 221.792969 L 248.726563 221.835938 L 248.691406 221.882813 L 248.660156 221.929688 L 248.628906 221.980469 L 248.601563 222.03125 L 248.574219 222.085938 L 248.527344 222.195313 L 248.488281 222.3125 L 248.457031 222.4375 L 248.445313 222.5 L 248.433594 222.566406 L 248.425781 222.636719 L 247.347656 222.535156 L 247.359375 222.449219 L 247.375 222.359375 L 247.390625 222.273438 L 247.410156 222.1875 L 247.433594 222.105469 L 247.460938 222.019531 L 247.488281 221.9375 L 247.519531 221.859375 L 247.554688 221.777344 L 247.632813 221.621094 L 247.675781 221.546875 L 247.722656 221.472656 L 247.769531 221.402344 L 247.878906 221.261719 L 247.933594 221.199219 L 247.996094 221.132813 L 248.058594 221.074219 L 248.125 221.011719 L 248.195313 220.953125 L 248.265625 220.898438 L 248.339844 220.84375 L 248.417969 220.792969 L 248.582031 220.699219 L 248.667969 220.65625 L 248.753906 220.617188 L 248.847656 220.578125 L 248.941406 220.542969 L 249.039063 220.511719 L 249.136719 220.484375 L 249.242188 220.457031 L 249.347656 220.4375 L 249.457031 220.417969 L 249.570313 220.402344 L 249.683594 220.390625 L 249.800781 220.382813 L 249.921875 220.375 L 250.167969 220.375 L 250.289063 220.378906 L 250.40625 220.386719 L 250.519531 220.398438 L 250.628906 220.410156 L 250.738281 220.425781 L 250.84375 220.445313 L 251.046875 220.492188 L 251.144531 220.519531 L 251.238281 220.550781 L 251.417969 220.621094 L 251.503906 220.660156 L 251.585938 220.703125 L 251.664063 220.746094 L 251.742188 220.796875 L 251.816406 220.84375 L 251.882813 220.898438 L 251.953125 220.953125 L 252.015625 221.011719 L 252.078125 221.074219 L 252.195313 221.207031 L 252.296875 221.347656 L 252.34375 221.421875 L 252.386719 221.5 L 252.425781 221.582031 L 252.460938 221.664063 L 252.496094 221.75 L 252.523438 221.835938 L 252.550781 221.929688 L 252.574219 222.023438 L 252.59375 222.117188 L 252.609375 222.214844 L 252.621094 222.316406 L 252.636719 222.527344 L 252.636719 222.71875 L 252.632813 222.800781 L 252.625 222.882813 L 252.613281 222.960938 L 252.597656 223.042969 L 252.582031 223.121094 L 252.5625 223.199219 L 252.539063 223.277344 L 252.515625 223.351563 L 252.484375 223.425781 L 252.453125 223.503906 L 252.421875 223.574219 L 252.351563 223.722656 L 252.3125 223.792969 L 252.183594 224.003906 L 252.136719 224.074219 L 252.085938 224.140625 L 252.035156 224.210938 L 251.984375 224.277344 L 251.820313 224.476563 L 251.761719 224.542969 L 251.703125 224.605469 L 251.640625 224.671875 L 251.578125 224.734375 L 251.511719 224.796875 L 251.445313 224.863281 L 251.246094 225.050781 L 251.175781 225.113281 L 251.109375 225.175781 L 251.039063 225.234375 L 250.898438 225.359375 L 250.828125 225.417969 L 250.753906 225.480469 L 250.613281 225.597656 L 250.539063 225.660156 L 250.46875 225.71875 L 250.394531 225.777344 L 250.324219 225.835938 L 250.25 225.898438 L 250.179688 225.957031 L 250.105469 226.015625 L 250.035156 226.074219 L 249.960938 226.132813 L 249.890625 226.195313 L 249.820313 226.253906 L 249.753906 226.3125 L 249.683594 226.371094 L 249.550781 226.488281 L 249.484375 226.550781 L 249.359375 226.667969 L 249.238281 226.789063 L 249.179688 226.851563 L 249.121094 226.910156 L 249.0625 226.972656 L 249.007813 227.03125 L 248.957031 227.09375 L 248.902344 227.15625 L 248.851563 227.21875 L 248.804688 227.28125 L 248.757813 227.339844 L 248.710938 227.402344 L 248.667969 227.464844 L 248.628906 227.53125 L 248.589844 227.59375 L 248.554688 227.660156 L 248.519531 227.722656 L 248.488281 227.789063 L 248.460938 227.855469 L 252.765625 227.855469 L 252.765625 228.753906 Z M 247.300781 228.753906 "/>
<path style=" stroke:none;fill-rule:nonzero;fill:rgb(30.196078%,30.196078%,30.196078%);fill-opacity:1;" d="M 259.574219 224.621094 L 259.574219 224.855469 L 259.566406 225.082031 L 259.554688 225.300781 L 259.539063 225.515625 L 259.519531 225.71875 L 259.492188 225.914063 L 259.464844 226.105469 L 259.429688 226.285156 L 259.390625 226.460938 L 259.347656 226.625 L 259.300781 226.785156 L 259.25 226.9375 L 259.199219 227.085938 L 259.140625 227.226563 L 259.082031 227.359375 L 259.019531 227.488281 L 258.953125 227.609375 L 258.882813 227.726563 L 258.808594 227.835938 L 258.730469 227.9375 L 258.652344 228.035156 L 258.570313 228.128906 L 258.488281 228.210938 L 258.398438 228.292969 L 258.308594 228.367188 L 258.121094 228.5 L 258.023438 228.554688 L 257.921875 228.609375 L 257.710938 228.695313 L 257.601563 228.730469 L 257.496094 228.765625 L 257.382813 228.792969 L 257.273438 228.816406 L 257.160156 228.835938 L 257.042969 228.851563 L 256.929688 228.863281 L 256.8125 228.867188 L 256.691406 228.871094 L 256.570313 228.867188 L 256.453125 228.863281 L 256.335938 228.851563 L 256.222656 228.835938 L 256.109375 228.816406 L 255.996094 228.792969 L 255.886719 228.765625 L 255.777344 228.730469 L 255.671875 228.695313 L 255.566406 228.652344 L 255.464844 228.609375 L 255.363281 228.554688 L 255.265625 228.5 L 255.078125 228.367188 L 254.988281 228.292969 L 254.902344 228.210938 L 254.820313 228.128906 L 254.738281 228.035156 L 254.660156 227.9375 L 254.585938 227.835938 L 254.511719 227.726563 L 254.445313 227.613281 L 254.378906 227.492188 L 254.316406 227.363281 L 254.257813 227.230469 L 254.203125 227.089844 L 254.152344 226.945313 L 254.101563 226.789063 L 254.054688 226.632813 L 254.015625 226.464844 L 253.976563 226.292969 L 253.945313 226.109375 L 253.917969 225.917969 L 253.894531 225.722656 L 253.875 225.519531 L 253.859375 225.304688 L 253.847656 225.085938 L 253.839844 224.859375 L 253.839844 224.378906 L 253.847656 224.140625 L 253.859375 223.914063 L 253.875 223.695313 L 253.894531 223.484375 L 253.917969 223.28125 L 253.945313 223.085938 L 253.976563 222.902344 L 254.015625 222.726563 L 254.054688 222.558594 L 254.101563 222.398438 L 254.152344 222.246094 L 254.203125 222.097656 L 254.261719 221.957031 L 254.320313 221.824219 L 254.382813 221.695313 L 254.449219 221.574219 L 254.515625 221.460938 L 254.589844 221.355469 L 254.664063 221.253906 L 254.742188 221.160156 L 254.824219 221.070313 L 254.910156 220.988281 L 254.996094 220.910156 L 255.085938 220.839844 L 255.179688 220.773438 L 255.273438 220.714844 L 255.375 220.664063 L 255.476563 220.617188 L 255.578125 220.574219 L 255.683594 220.535156 L 255.902344 220.472656 L 256.015625 220.445313 L 256.128906 220.425781 L 256.246094 220.40625 L 256.363281 220.390625 L 256.605469 220.375 L 256.84375 220.375 L 256.960938 220.382813 L 257.074219 220.390625 L 257.1875 220.40625 L 257.300781 220.425781 L 257.410156 220.445313 L 257.519531 220.472656 L 257.730469 220.535156 L 257.835938 220.574219 L 257.9375 220.617188 L 258.039063 220.664063 L 258.136719 220.714844 L 258.230469 220.773438 L 258.324219 220.839844 L 258.410156 220.910156 L 258.5 220.988281 L 258.582031 221.070313 L 258.664063 221.160156 L 258.742188 221.253906 L 258.820313 221.355469 L 258.890625 221.460938 L 258.960938 221.574219 L 259.027344 221.695313 L 259.089844 221.824219 L 259.148438 221.957031 L 259.203125 222.097656 L 259.257813 222.246094 L 259.304688 222.398438 L 259.351563 222.558594 L 259.394531 222.726563 L 259.433594 222.902344 L 259.464844 223.085938 L 259.496094 223.28125 L 259.519531 223.484375 L 259.539063 223.695313 L 259.554688 223.914063 L 259.566406 224.140625 L 259.574219 224.378906 Z M 258.503906 224.621094 L 258.5 224.429688 L 258.496094 224.242188 L 258.492188 224.0625 L 258.484375 223.886719 L 258.472656 223.722656 L 258.460938 223.5625 L 258.445313 223.40625 L 258.425781 223.261719 L 258.40625 223.121094 L 258.386719 222.988281 L 258.359375 222.859375 L 258.335938 222.734375 L 258.304688 222.617188 L 258.242188 222.398438 L 258.203125 222.296875 L 258.167969 222.203125 L 258.125 222.109375 L 258.085938 222.023438 L 257.992188 221.867188 L 257.945313 221.796875 L 257.894531 221.730469 L 257.839844 221.667969 L 257.785156 221.609375 L 257.726563 221.558594 L 257.667969 221.511719 L 257.605469 221.464844 L 257.542969 221.429688 L 257.476563 221.394531 L 257.410156 221.363281 L 257.34375 221.335938 L 257.273438 221.308594 L 257.125 221.269531 L 257.050781 221.257813 L 256.972656 221.246094 L 256.890625 221.238281 L 256.8125 221.230469 L 256.640625 221.230469 L 256.46875 221.246094 L 256.386719 221.257813 L 256.308594 221.269531 L 256.230469 221.289063 L 256.15625 221.308594 L 256.082031 221.335938 L 256.011719 221.363281 L 255.941406 221.394531 L 255.875 221.429688 L 255.808594 221.46875 L 255.746094 221.511719 L 255.6875 221.5625 L 255.628906 221.617188 L 255.574219 221.671875 L 255.519531 221.734375 L 255.464844 221.804688 L 255.414063 221.875 L 255.367188 221.949219 L 255.324219 222.03125 L 255.28125 222.117188 L 255.242188 222.207031 L 255.203125 222.304688 L 255.167969 222.40625 L 255.132813 222.511719 L 255.101563 222.625 L 255.074219 222.742188 L 255.046875 222.863281 L 255.023438 222.992188 L 255 223.128906 L 254.980469 223.265625 L 254.960938 223.414063 L 254.945313 223.566406 L 254.933594 223.726563 L 254.921875 223.890625 L 254.914063 224.066406 L 254.910156 224.246094 L 254.90625 224.429688 L 254.90625 224.808594 L 254.910156 224.992188 L 254.914063 225.164063 L 254.921875 225.335938 L 254.933594 225.496094 L 254.945313 225.652344 L 254.960938 225.804688 L 254.980469 225.949219 L 255 226.089844 L 255.023438 226.222656 L 255.046875 226.351563 L 255.074219 226.472656 L 255.105469 226.589844 L 255.136719 226.703125 L 255.171875 226.808594 L 255.207031 226.910156 L 255.246094 227.007813 L 255.285156 227.101563 L 255.328125 227.1875 L 255.375 227.269531 L 255.421875 227.347656 L 255.523438 227.488281 L 255.578125 227.550781 L 255.632813 227.609375 L 255.691406 227.664063 L 255.75 227.714844 L 255.8125 227.761719 L 255.875 227.800781 L 255.941406 227.839844 L 256.011719 227.871094 L 256.078125 227.902344 L 256.152344 227.925781 L 256.222656 227.949219 L 256.300781 227.96875 L 256.375 227.980469 L 256.457031 227.992188 L 256.535156 228.003906 L 256.621094 228.007813 L 256.785156 228.007813 L 256.867188 228.003906 L 257.023438 227.980469 L 257.097656 227.96875 L 257.171875 227.949219 L 257.246094 227.925781 L 257.316406 227.902344 L 257.386719 227.871094 L 257.453125 227.839844 L 257.519531 227.800781 L 257.582031 227.761719 L 257.644531 227.714844 L 257.703125 227.664063 L 257.761719 227.609375 L 257.816406 227.550781 L 257.871094 227.488281 L 257.921875 227.417969 L 257.96875 227.347656 L 258.015625 227.269531 L 258.0625 227.1875 L 258.105469 227.101563 L 258.148438 227.007813 L 258.1875 226.910156 L 258.222656 226.808594 L 258.257813 226.703125 L 258.289063 226.589844 L 258.320313 226.472656 L 258.347656 226.351563 L 258.375 226.222656 L 258.398438 226.089844 L 258.421875 225.949219 L 258.441406 225.804688 L 258.457031 225.652344 L 258.46875 225.496094 L 258.480469 225.335938 L 258.492188 225.164063 L 258.496094 224.992188 L 258.5 224.808594 Z M 258.503906 224.621094 "/>
<path style=" stroke:none;fill-rule:nonzero;fill:rgb(30.196078%,30.196078%,30.196078%);fill-opacity:1;" d="M 340.160156 228.753906 L 340.160156 228.007813 L 340.285156 227.742188 L 340.351563 227.613281 L 340.417969 227.488281 L 340.492188 227.363281 L 340.640625 227.128906 L 340.71875 227.015625 L 340.800781 226.910156 L 340.886719 226.800781 L 340.972656 226.699219 L 341.0625 226.59375 L 341.148438 226.496094 L 341.328125 226.300781 L 341.511719 226.117188 L 341.699219 225.9375 L 341.792969 225.851563 L 341.890625 225.769531 L 341.984375 225.683594 L 342.171875 225.519531 L 342.453125 225.285156 L 342.640625 225.136719 L 342.730469 225.0625 L 342.824219 224.988281 L 342.914063 224.917969 L 343.09375 224.769531 L 343.175781 224.699219 L 343.261719 224.625 L 343.34375 224.554688 L 343.5 224.40625 L 343.574219 224.335938 L 343.648438 224.261719 L 343.789063 224.113281 L 343.914063 223.964844 L 343.972656 223.886719 L 344.082031 223.730469 L 344.132813 223.652344 L 344.179688 223.574219 L 344.222656 223.492188 L 344.261719 223.410156 L 344.296875 223.324219 L 344.328125 223.238281 L 344.355469 223.148438 L 344.375 223.058594 L 344.390625 222.964844 L 344.402344 222.867188 L 344.410156 222.769531 L 344.414063 222.671875 L 344.414063 222.601563 L 344.410156 222.535156 L 344.402344 222.46875 L 344.398438 222.402344 L 344.386719 222.34375 L 344.375 222.28125 L 344.363281 222.222656 L 344.347656 222.164063 L 344.308594 222.054688 L 344.238281 221.902344 L 344.207031 221.855469 L 344.179688 221.808594 L 344.148438 221.765625 L 344.078125 221.679688 L 344.042969 221.640625 L 344.003906 221.605469 L 343.960938 221.570313 L 343.921875 221.535156 L 343.875 221.503906 L 343.832031 221.476563 L 343.785156 221.445313 L 343.632813 221.375 L 343.46875 221.316406 L 343.410156 221.300781 L 343.292969 221.277344 L 343.230469 221.265625 L 343.105469 221.25 L 343.042969 221.246094 L 342.976563 221.242188 L 342.84375 221.242188 L 342.78125 221.246094 L 342.722656 221.25 L 342.660156 221.253906 L 342.601563 221.265625 L 342.539063 221.273438 L 342.480469 221.285156 L 342.425781 221.296875 L 342.308594 221.328125 L 342.253906 221.347656 L 342.203125 221.367188 L 342.148438 221.390625 L 342.097656 221.414063 L 342.050781 221.441406 L 342 221.464844 L 341.90625 221.527344 L 341.863281 221.558594 L 341.816406 221.59375 L 341.773438 221.628906 L 341.65625 221.746094 L 341.621094 221.792969 L 341.585938 221.835938 L 341.550781 221.882813 L 341.519531 221.929688 L 341.488281 221.980469 L 341.460938 222.03125 L 341.433594 222.085938 L 341.386719 222.195313 L 341.347656 222.3125 L 341.316406 222.4375 L 341.304688 222.5 L 341.292969 222.566406 L 341.285156 222.636719 L 340.207031 222.535156 L 340.21875 222.449219 L 340.234375 222.359375 L 340.25 222.273438 L 340.269531 222.1875 L 340.292969 222.105469 L 340.320313 222.019531 L 340.347656 221.9375 L 340.382813 221.859375 L 340.414063 221.777344 L 340.492188 221.621094 L 340.535156 221.546875 L 340.582031 221.472656 L 340.628906 221.402344 L 340.738281 221.261719 L 340.796875 221.199219 L 340.855469 221.132813 L 340.917969 221.074219 L 340.984375 221.011719 L 341.054688 220.953125 L 341.203125 220.84375 L 341.277344 220.792969 L 341.441406 220.699219 L 341.527344 220.65625 L 341.707031 220.578125 L 341.800781 220.542969 L 341.898438 220.511719 L 342.101563 220.457031 L 342.207031 220.4375 L 342.316406 220.417969 L 342.429688 220.402344 L 342.542969 220.390625 L 342.785156 220.375 L 343.03125 220.375 L 343.148438 220.378906 L 343.265625 220.386719 L 343.378906 220.398438 L 343.488281 220.410156 L 343.597656 220.425781 L 343.703125 220.445313 L 343.90625 220.492188 L 344.003906 220.519531 L 344.097656 220.550781 L 344.191406 220.585938 L 344.277344 220.621094 L 344.363281 220.660156 L 344.445313 220.703125 L 344.523438 220.746094 L 344.601563 220.796875 L 344.675781 220.84375 L 344.746094 220.898438 L 344.8125 220.953125 L 344.878906 221.011719 L 344.9375 221.074219 L 345 221.140625 L 345.054688 221.207031 L 345.15625 221.347656 L 345.203125 221.421875 L 345.246094 221.5 L 345.285156 221.582031 L 345.320313 221.664063 L 345.355469 221.75 L 345.386719 221.835938 L 345.433594 222.023438 L 345.453125 222.117188 L 345.46875 222.214844 L 345.480469 222.316406 L 345.492188 222.421875 L 345.496094 222.527344 L 345.496094 222.71875 L 345.492188 222.800781 L 345.484375 222.882813 L 345.472656 222.960938 L 345.460938 223.042969 L 345.421875 223.199219 L 345.398438 223.277344 L 345.375 223.351563 L 345.34375 223.425781 L 345.316406 223.503906 L 345.28125 223.574219 L 345.210938 223.722656 L 345.132813 223.863281 L 345.089844 223.933594 L 344.996094 224.074219 L 344.945313 224.140625 L 344.898438 224.210938 L 344.84375 224.277344 L 344.792969 224.34375 L 344.738281 224.410156 L 344.621094 224.542969 L 344.5625 224.605469 L 344.5 224.671875 L 344.4375 224.734375 L 344.371094 224.796875 L 344.304688 224.863281 L 344.105469 225.050781 L 344.035156 225.113281 L 343.96875 225.175781 L 343.898438 225.234375 L 343.757813 225.359375 L 343.6875 225.417969 L 343.617188 225.480469 L 343.542969 225.539063 L 343.472656 225.597656 L 343.398438 225.660156 L 343.257813 225.777344 L 343.183594 225.835938 L 343.113281 225.898438 L 342.964844 226.015625 L 342.824219 226.132813 L 342.753906 226.195313 L 342.613281 226.3125 L 342.546875 226.371094 L 342.476563 226.429688 L 342.410156 226.488281 L 342.34375 226.550781 L 342.21875 226.667969 L 342.097656 226.789063 L 342.039063 226.851563 L 341.980469 226.910156 L 341.925781 226.972656 L 341.871094 227.03125 L 341.761719 227.15625 L 341.710938 227.21875 L 341.664063 227.28125 L 341.617188 227.339844 L 341.570313 227.402344 L 341.527344 227.464844 L 341.488281 227.53125 L 341.449219 227.59375 L 341.414063 227.660156 L 341.378906 227.722656 L 341.347656 227.789063 L 341.320313 227.855469 L 345.625 227.855469 L 345.625 228.753906 Z M 340.160156 228.753906 "/>
<path style=" stroke:none;fill-rule:nonzero;fill:rgb(30.196078%,30.196078%,30.196078%);fill-opacity:1;" d="M 352.398438 226.0625 L 352.398438 226.1875 L 352.390625 226.308594 L 352.382813 226.425781 L 352.371094 226.542969 L 352.351563 226.660156 L 352.332031 226.769531 L 352.308594 226.882813 L 352.28125 226.992188 L 352.246094 227.097656 L 352.210938 227.199219 L 352.171875 227.300781 L 352.128906 227.402344 L 352.035156 227.589844 L 351.980469 227.679688 L 351.921875 227.769531 L 351.859375 227.855469 L 351.796875 227.9375 L 351.726563 228.015625 L 351.65625 228.089844 L 351.582031 228.164063 L 351.5 228.234375 L 351.417969 228.296875 L 351.332031 228.359375 L 351.242188 228.417969 L 351.148438 228.476563 L 351.050781 228.527344 L 350.949219 228.578125 L 350.84375 228.621094 L 350.734375 228.664063 L 350.625 228.703125 L 350.511719 228.738281 L 350.394531 228.769531 L 350.273438 228.796875 L 350.148438 228.820313 L 350.019531 228.835938 L 349.886719 228.851563 L 349.75 228.863281 L 349.613281 228.867188 L 349.46875 228.871094 L 349.339844 228.871094 L 349.214844 228.863281 L 349.09375 228.855469 L 348.976563 228.847656 L 348.859375 228.832031 L 348.75 228.816406 L 348.640625 228.796875 L 348.535156 228.773438 L 348.332031 228.71875 L 348.238281 228.6875 L 348.058594 228.617188 L 347.972656 228.578125 L 347.890625 228.539063 L 347.808594 228.496094 L 347.585938 228.355469 L 347.453125 228.246094 L 347.390625 228.191406 L 347.273438 228.074219 L 347.21875 228.011719 L 347.167969 227.945313 L 347.117188 227.882813 L 347.070313 227.816406 L 346.984375 227.675781 L 346.949219 227.601563 L 346.914063 227.53125 L 346.878906 227.457031 L 346.847656 227.382813 L 346.792969 227.226563 L 346.746094 227.070313 L 346.726563 226.988281 L 346.710938 226.90625 L 347.777344 226.785156 L 347.789063 226.832031 L 347.820313 226.925781 L 347.835938 226.96875 L 347.875 227.0625 L 347.894531 227.105469 L 347.914063 227.152344 L 347.9375 227.195313 L 347.957031 227.242188 L 347.984375 227.285156 L 348.007813 227.328125 L 348.035156 227.367188 L 348.066406 227.410156 L 348.128906 227.488281 L 348.164063 227.523438 L 348.199219 227.5625 L 348.234375 227.597656 L 348.273438 227.632813 L 348.316406 227.667969 L 348.359375 227.699219 L 348.453125 227.761719 L 348.5 227.789063 L 348.550781 227.816406 L 348.714844 227.886719 L 348.773438 227.910156 L 348.832031 227.929688 L 348.964844 227.960938 L 349.03125 227.972656 L 349.101563 227.984375 L 349.25 228 L 349.328125 228.003906 L 349.410156 228.007813 L 349.574219 228.007813 L 349.65625 228.003906 L 349.734375 228 L 349.808594 227.988281 L 349.882813 227.980469 L 350.03125 227.949219 L 350.171875 227.910156 L 350.238281 227.886719 L 350.304688 227.859375 L 350.429688 227.796875 L 350.488281 227.765625 L 350.546875 227.726563 L 350.65625 227.648438 L 350.707031 227.605469 L 350.757813 227.558594 L 350.804688 227.511719 L 350.898438 227.410156 L 350.941406 227.355469 L 351.019531 227.238281 L 351.089844 227.113281 L 351.121094 227.046875 L 351.175781 226.90625 L 351.199219 226.835938 L 351.222656 226.761719 L 351.242188 226.683594 L 351.257813 226.605469 L 351.273438 226.523438 L 351.285156 226.441406 L 351.300781 226.269531 L 351.304688 226.179688 L 351.304688 226.011719 L 351.300781 225.9375 L 351.292969 225.863281 L 351.285156 225.792969 L 351.261719 225.652344 L 351.242188 225.585938 L 351.226563 225.519531 L 351.203125 225.453125 L 351.15625 225.328125 L 351.128906 225.265625 L 351.066406 225.148438 L 351.03125 225.089844 L 350.996094 225.039063 L 350.957031 224.984375 L 350.917969 224.933594 L 350.875 224.886719 L 350.78125 224.792969 L 350.734375 224.75 L 350.683594 224.707031 L 350.628906 224.667969 L 350.574219 224.632813 L 350.457031 224.5625 L 350.394531 224.53125 L 350.332031 224.503906 L 350.265625 224.476563 L 350.132813 224.429688 L 350.0625 224.410156 L 349.914063 224.378906 L 349.839844 224.367188 L 349.683594 224.351563 L 349.601563 224.347656 L 349.414063 224.347656 L 349.261719 224.359375 L 349.214844 224.363281 L 349.074219 224.386719 L 348.988281 224.402344 L 348.941406 224.414063 L 348.855469 224.4375 L 348.816406 224.449219 L 348.773438 224.464844 L 348.734375 224.476563 L 348.691406 224.492188 L 348.613281 224.523438 L 348.578125 224.539063 L 348.539063 224.558594 L 348.503906 224.574219 L 348.398438 224.632813 L 348.367188 224.652344 L 348.332031 224.671875 L 348.300781 224.695313 L 348.269531 224.714844 L 348.238281 224.738281 L 348.207031 224.757813 L 348.179688 224.78125 L 348.148438 224.800781 L 348.09375 224.847656 L 348.0625 224.871094 L 348.035156 224.894531 L 348.007813 224.914063 L 347.980469 224.9375 L 346.949219 224.9375 L 347.226563 220.496094 L 351.917969 220.496094 L 351.917969 221.394531 L 348.1875 221.394531 L 348.027344 224.011719 L 348.085938 223.96875 L 348.210938 223.890625 L 348.34375 223.8125 L 348.492188 223.742188 L 348.570313 223.707031 L 348.648438 223.675781 L 348.730469 223.644531 L 348.816406 223.613281 L 348.90625 223.585938 L 349 223.5625 L 349.09375 223.542969 L 349.191406 223.527344 L 349.296875 223.511719 L 349.398438 223.5 L 349.507813 223.492188 L 349.734375 223.484375 L 349.976563 223.492188 L 350.09375 223.503906 L 350.207031 223.515625 L 350.316406 223.53125 L 350.429688 223.554688 L 350.535156 223.578125 L 350.640625 223.605469 L 350.742188 223.636719 L 350.839844 223.671875 L 350.9375 223.710938 L 351.03125 223.753906 L 351.125 223.800781 L 351.210938 223.847656 L 351.296875 223.902344 L 351.378906 223.957031 L 351.457031 224.011719 L 351.535156 224.074219 L 351.609375 224.140625 L 351.679688 224.207031 L 351.8125 224.347656 L 351.871094 224.421875 L 351.929688 224.5 L 351.984375 224.582031 L 352.035156 224.664063 L 352.085938 224.75 L 352.132813 224.835938 L 352.171875 224.925781 L 352.210938 225.019531 L 352.28125 225.214844 L 352.308594 225.3125 L 352.332031 225.414063 L 352.371094 225.625 L 352.382813 225.730469 L 352.390625 225.839844 L 352.398438 225.953125 Z M 352.398438 226.0625 "/>
<path style=" stroke:none;fill-rule:nonzero;fill:rgb(30.196078%,30.196078%,30.196078%);fill-opacity:1;" d="M 438.5625 226.472656 L 438.5625 226.585938 L 438.546875 226.804688 L 438.53125 226.910156 L 438.515625 227.011719 L 438.496094 227.113281 L 438.472656 227.210938 L 438.410156 227.398438 L 438.375 227.488281 L 438.296875 227.660156 L 438.203125 227.824219 L 438.09375 227.972656 L 438.035156 228.046875 L 437.972656 228.113281 L 437.90625 228.179688 L 437.765625 228.304688 L 437.609375 228.414063 L 437.527344 228.464844 L 437.441406 228.511719 L 437.351563 228.558594 L 437.257813 228.601563 L 437.0625 228.679688 L 436.851563 228.742188 L 436.742188 228.769531 L 436.628906 228.792969 L 436.515625 228.8125 L 436.398438 228.832031 L 436.277344 228.84375 L 436.152344 228.855469 L 436.027344 228.863281 L 435.761719 228.871094 L 435.609375 228.867188 L 435.464844 228.863281 L 435.324219 228.855469 L 435.1875 228.839844 L 435.054688 228.824219 L 434.925781 228.804688 L 434.804688 228.777344 L 434.6875 228.75 L 434.574219 228.71875 L 434.46875 228.683594 L 434.363281 228.644531 L 434.265625 228.601563 L 434.078125 228.507813 L 433.992188 228.460938 L 433.90625 228.410156 L 433.824219 228.355469 L 433.675781 228.238281 L 433.605469 228.179688 L 433.476563 228.050781 L 433.417969 227.980469 L 433.359375 227.914063 L 433.308594 227.84375 L 433.257813 227.769531 L 433.171875 227.621094 L 433.132813 227.542969 L 433.097656 227.464844 L 433.0625 227.382813 L 433.03125 227.300781 L 433.003906 227.21875 L 432.933594 226.972656 L 432.914063 226.886719 L 432.898438 226.800781 L 432.886719 226.71875 L 432.875 226.632813 L 433.964844 226.53125 L 433.972656 226.597656 L 433.984375 226.660156 L 434 226.722656 L 434.011719 226.785156 L 434.027344 226.847656 L 434.066406 226.964844 L 434.085938 227.019531 L 434.132813 227.128906 L 434.160156 227.183594 L 434.1875 227.234375 L 434.21875 227.285156 L 434.25 227.332031 L 434.285156 227.382813 L 434.355469 227.46875 L 434.394531 227.511719 L 434.4375 227.554688 L 434.523438 227.632813 L 434.617188 227.703125 L 434.71875 227.765625 L 434.773438 227.792969 L 434.890625 227.847656 L 434.949219 227.871094 L 435.011719 227.890625 L 435.078125 227.914063 L 435.210938 227.945313 L 435.285156 227.960938 L 435.359375 227.972656 L 435.433594 227.980469 L 435.511719 227.988281 L 435.675781 227.996094 L 435.761719 227.996094 L 435.917969 227.992188 L 436.066406 227.980469 L 436.207031 227.960938 L 436.34375 227.933594 L 436.472656 227.898438 L 436.59375 227.855469 L 436.707031 227.804688 L 436.816406 227.746094 L 436.917969 227.679688 L 437.011719 227.605469 L 437.097656 227.523438 L 437.175781 227.433594 L 437.242188 227.335938 L 437.300781 227.230469 L 437.351563 227.117188 L 437.394531 226.996094 L 437.425781 226.867188 L 437.449219 226.734375 L 437.460938 226.589844 L 437.46875 226.4375 L 437.464844 226.347656 L 437.457031 226.261719 L 437.449219 226.179688 L 437.433594 226.101563 L 437.414063 226.027344 L 437.394531 225.957031 L 437.367188 225.886719 L 437.335938 225.824219 L 437.300781 225.761719 L 437.222656 225.652344 L 437.179688 225.597656 L 437.085938 225.503906 L 437.035156 225.457031 L 436.984375 225.414063 L 436.929688 225.375 L 436.875 225.339844 L 436.816406 225.304688 L 436.699219 225.242188 L 436.574219 225.1875 L 436.507813 225.164063 L 436.445313 225.140625 L 436.3125 225.101563 L 436.242188 225.085938 L 436.03125 225.050781 L 435.964844 225.042969 L 435.894531 225.035156 L 435.828125 225.027344 L 435.761719 225.023438 L 435.574219 225.011719 L 435.511719 225.011719 L 435.453125 225.007813 L 434.855469 225.007813 L 434.855469 224.09375 L 435.546875 224.09375 L 435.734375 224.082031 L 435.921875 224.058594 L 435.984375 224.046875 L 436.050781 224.035156 L 436.113281 224.023438 L 436.175781 224.007813 L 436.238281 223.988281 L 436.355469 223.949219 L 436.472656 223.902344 L 436.527344 223.875 L 436.636719 223.8125 L 436.6875 223.78125 L 436.738281 223.742188 L 436.789063 223.707031 L 436.835938 223.664063 L 436.921875 223.578125 L 436.964844 223.53125 L 437.003906 223.480469 L 437.039063 223.429688 L 437.074219 223.375 L 437.109375 223.316406 L 437.136719 223.257813 L 437.164063 223.195313 L 437.1875 223.128906 L 437.207031 223.0625 L 437.222656 222.988281 L 437.234375 222.914063 L 437.242188 222.835938 L 437.25 222.753906 L 437.25 222.671875 L 437.246094 222.542969 L 437.234375 222.417969 L 437.214844 222.300781 L 437.1875 222.1875 L 437.152344 222.078125 L 437.109375 221.976563 L 437.058594 221.882813 L 437 221.792969 L 436.933594 221.707031 L 436.859375 221.628906 L 436.777344 221.554688 L 436.6875 221.488281 L 436.589844 221.429688 L 436.488281 221.382813 L 436.375 221.339844 L 436.257813 221.304688 L 436.128906 221.277344 L 435.996094 221.257813 L 435.851563 221.246094 L 435.703125 221.242188 L 435.566406 221.246094 L 435.433594 221.257813 L 435.308594 221.273438 L 435.1875 221.300781 L 435.070313 221.332031 L 434.960938 221.371094 L 434.855469 221.417969 L 434.757813 221.46875 L 434.660156 221.53125 L 434.574219 221.597656 L 434.492188 221.671875 L 434.414063 221.753906 L 434.347656 221.839844 L 434.289063 221.933594 L 434.234375 222.03125 L 434.1875 222.132813 L 434.148438 222.242188 L 434.117188 222.359375 L 434.09375 222.480469 L 434.074219 222.605469 L 433.015625 222.523438 L 433.027344 222.417969 L 433.046875 222.3125 L 433.066406 222.210938 L 433.121094 222.015625 L 433.152344 221.921875 L 433.1875 221.832031 L 433.226563 221.742188 L 433.265625 221.65625 L 433.3125 221.574219 L 433.359375 221.496094 L 433.410156 221.417969 L 433.464844 221.347656 L 433.519531 221.273438 L 433.636719 221.140625 L 433.699219 221.078125 L 433.765625 221.019531 L 433.835938 220.960938 L 433.90625 220.90625 L 433.976563 220.855469 L 434.054688 220.804688 L 434.132813 220.757813 L 434.210938 220.714844 L 434.292969 220.671875 L 434.375 220.636719 L 434.460938 220.597656 L 434.640625 220.535156 L 434.730469 220.507813 L 434.917969 220.460938 L 435.015625 220.441406 L 435.109375 220.421875 L 435.207031 220.410156 L 435.308594 220.394531 L 435.40625 220.386719 L 435.507813 220.378906 L 435.613281 220.375 L 435.851563 220.375 L 435.984375 220.382813 L 436.113281 220.390625 L 436.238281 220.402344 L 436.359375 220.417969 L 436.476563 220.4375 L 436.589844 220.460938 L 436.699219 220.488281 L 436.804688 220.515625 L 436.90625 220.550781 L 437.003906 220.585938 L 437.097656 220.625 L 437.1875 220.664063 L 437.273438 220.707031 L 437.4375 220.800781 L 437.511719 220.851563 L 437.585938 220.90625 L 437.652344 220.960938 L 437.71875 221.019531 L 437.78125 221.078125 L 437.839844 221.140625 L 437.894531 221.203125 L 437.945313 221.269531 L 438.039063 221.410156 L 438.078125 221.480469 L 438.117188 221.554688 L 438.152344 221.632813 L 438.183594 221.710938 L 438.210938 221.789063 L 438.238281 221.871094 L 438.257813 221.953125 L 438.28125 222.039063 L 438.296875 222.121094 L 438.320313 222.292969 L 438.328125 222.382813 L 438.332031 222.46875 L 438.335938 222.558594 L 438.332031 222.632813 L 438.332031 222.703125 L 438.316406 222.84375 L 438.308594 222.910156 L 438.296875 222.980469 L 438.285156 223.046875 L 438.269531 223.113281 L 438.253906 223.175781 L 438.214844 223.300781 L 438.191406 223.363281 L 438.164063 223.425781 L 438.136719 223.484375 L 438.105469 223.539063 L 438.074219 223.597656 L 438.039063 223.652344 L 438.003906 223.703125 L 437.964844 223.757813 L 437.925781 223.808594 L 437.878906 223.859375 L 437.835938 223.90625 L 437.785156 223.953125 L 437.738281 224 L 437.628906 224.085938 L 437.570313 224.125 L 437.511719 224.167969 L 437.449219 224.203125 L 437.386719 224.242188 L 437.320313 224.277344 L 437.25 224.3125 L 437.179688 224.34375 L 437.105469 224.371094 L 437.027344 224.402344 L 436.949219 224.429688 L 436.867188 224.453125 L 436.78125 224.476563 L 436.695313 224.496094 L 436.605469 224.515625 L 436.605469 224.539063 L 436.703125 224.550781 L 436.800781 224.566406 L 436.894531 224.582031 L 436.984375 224.601563 L 437.15625 224.648438 L 437.320313 224.703125 L 437.398438 224.734375 L 437.546875 224.804688 L 437.617188 224.839844 L 437.683594 224.878906 L 437.746094 224.917969 L 437.871094 225.003906 L 437.980469 225.097656 L 438.03125 225.144531 L 438.082031 225.195313 L 438.128906 225.25 L 438.214844 225.359375 L 438.253906 225.414063 L 438.292969 225.472656 L 438.328125 225.53125 L 438.359375 225.59375 L 438.441406 225.78125 L 438.464844 225.847656 L 438.484375 225.914063 L 438.503906 225.984375 L 438.519531 226.050781 L 438.53125 226.121094 L 438.542969 226.1875 L 438.550781 226.257813 L 438.558594 226.332031 L 438.5625 226.402344 Z M 438.5625 226.472656 "/>
<path style=" stroke:none;fill-rule:nonzero;fill:rgb(30.196078%,30.196078%,30.196078%);fill-opacity:1;" d="M 445.296875 224.621094 L 445.292969 224.855469 L 445.285156 225.082031 L 445.273438 225.300781 L 445.257813 225.515625 L 445.238281 225.71875 L 445.214844 225.914063 L 445.183594 226.105469 L 445.148438 226.285156 L 445.109375 226.460938 L 445.066406 226.625 L 445.019531 226.785156 L 444.972656 226.9375 L 444.917969 227.085938 L 444.863281 227.226563 L 444.800781 227.359375 L 444.738281 227.488281 L 444.671875 227.609375 L 444.601563 227.726563 L 444.527344 227.835938 L 444.453125 227.9375 L 444.371094 228.035156 L 444.292969 228.128906 L 444.121094 228.292969 L 444.03125 228.367188 L 443.9375 228.433594 L 443.839844 228.5 L 443.742188 228.554688 L 443.640625 228.609375 L 443.539063 228.652344 L 443.429688 228.695313 L 443.324219 228.730469 L 443.214844 228.765625 L 443.105469 228.792969 L 442.992188 228.816406 L 442.878906 228.835938 L 442.765625 228.851563 L 442.648438 228.863281 L 442.414063 228.871094 L 442.292969 228.867188 L 442.175781 228.863281 L 442.058594 228.851563 L 441.941406 228.835938 L 441.828125 228.816406 L 441.71875 228.792969 L 441.609375 228.765625 L 441.390625 228.695313 L 441.289063 228.652344 L 441.183594 228.609375 L 440.988281 228.5 L 440.890625 228.433594 L 440.800781 228.367188 L 440.710938 228.292969 L 440.539063 228.128906 L 440.457031 228.035156 L 440.378906 227.9375 L 440.304688 227.835938 L 440.234375 227.726563 L 440.164063 227.613281 L 440.101563 227.492188 L 440.039063 227.363281 L 439.980469 227.230469 L 439.921875 227.089844 L 439.871094 226.945313 L 439.820313 226.789063 L 439.777344 226.632813 L 439.734375 226.464844 L 439.699219 226.292969 L 439.664063 226.109375 L 439.636719 225.917969 L 439.613281 225.722656 L 439.59375 225.519531 L 439.578125 225.304688 L 439.566406 225.085938 L 439.5625 224.859375 L 439.558594 224.621094 L 439.5625 224.378906 L 439.566406 224.140625 L 439.578125 223.914063 L 439.59375 223.695313 L 439.613281 223.484375 L 439.636719 223.28125 L 439.664063 223.085938 L 439.699219 222.902344 L 439.734375 222.726563 L 439.777344 222.558594 L 439.820313 222.398438 L 439.871094 222.246094 L 439.925781 222.097656 L 439.980469 221.957031 L 440.039063 221.824219 L 440.101563 221.695313 L 440.167969 221.574219 L 440.238281 221.460938 L 440.308594 221.355469 L 440.386719 221.253906 L 440.464844 221.160156 L 440.546875 221.070313 L 440.628906 220.988281 L 440.71875 220.910156 L 440.808594 220.839844 L 440.898438 220.773438 L 440.996094 220.714844 L 441.09375 220.664063 L 441.195313 220.617188 L 441.300781 220.574219 L 441.40625 220.535156 L 441.625 220.472656 L 441.734375 220.445313 L 441.851563 220.425781 L 441.964844 220.40625 L 442.082031 220.390625 L 442.324219 220.375 L 442.566406 220.375 L 442.679688 220.382813 L 442.796875 220.390625 L 442.910156 220.40625 L 443.128906 220.445313 L 443.238281 220.472656 L 443.449219 220.535156 L 443.554688 220.574219 L 443.65625 220.617188 L 443.757813 220.664063 L 443.855469 220.714844 L 443.949219 220.773438 L 444.042969 220.839844 L 444.132813 220.910156 L 444.21875 220.988281 L 444.304688 221.070313 L 444.382813 221.160156 L 444.464844 221.253906 L 444.539063 221.355469 L 444.609375 221.460938 L 444.679688 221.574219 L 444.746094 221.695313 L 444.808594 221.824219 L 444.867188 221.957031 L 444.925781 222.097656 L 444.976563 222.246094 L 445.027344 222.398438 L 445.074219 222.558594 L 445.113281 222.726563 L 445.152344 222.902344 L 445.1875 223.085938 L 445.214844 223.28125 L 445.238281 223.484375 L 445.257813 223.695313 L 445.273438 223.914063 L 445.285156 224.140625 L 445.292969 224.378906 Z M 444.222656 224.621094 L 444.222656 224.429688 L 444.21875 224.242188 L 444.210938 224.0625 L 444.203125 223.886719 L 444.195313 223.722656 L 444.179688 223.5625 L 444.164063 223.40625 L 444.148438 223.261719 L 444.128906 223.121094 L 444.105469 222.988281 L 444.082031 222.859375 L 444.054688 222.734375 L 444.023438 222.617188 L 443.996094 222.507813 L 443.960938 222.398438 L 443.925781 222.296875 L 443.847656 222.109375 L 443.804688 222.023438 L 443.761719 221.945313 L 443.714844 221.867188 L 443.664063 221.796875 L 443.613281 221.730469 L 443.558594 221.667969 L 443.503906 221.609375 L 443.449219 221.558594 L 443.386719 221.511719 L 443.328125 221.464844 L 443.261719 221.429688 L 443.199219 221.394531 L 443.132813 221.363281 L 442.992188 221.308594 L 442.921875 221.289063 L 442.847656 221.269531 L 442.691406 221.246094 L 442.613281 221.238281 L 442.53125 221.230469 L 442.359375 221.230469 L 442.273438 221.238281 L 442.191406 221.246094 L 442.027344 221.269531 L 441.949219 221.289063 L 441.875 221.308594 L 441.800781 221.335938 L 441.730469 221.363281 L 441.664063 221.394531 L 441.59375 221.429688 L 441.53125 221.46875 L 441.46875 221.511719 L 441.40625 221.5625 L 441.347656 221.617188 L 441.292969 221.671875 L 441.238281 221.734375 L 441.136719 221.875 L 441.089844 221.949219 L 441.042969 222.03125 L 441 222.117188 L 440.960938 222.207031 L 440.921875 222.304688 L 440.886719 222.40625 L 440.855469 222.511719 L 440.824219 222.625 L 440.792969 222.742188 L 440.765625 222.863281 L 440.742188 222.992188 L 440.71875 223.128906 L 440.699219 223.265625 L 440.683594 223.414063 L 440.667969 223.566406 L 440.65625 223.726563 L 440.644531 223.890625 L 440.636719 224.066406 L 440.628906 224.246094 L 440.625 224.429688 L 440.625 224.808594 L 440.628906 224.992188 L 440.644531 225.335938 L 440.65625 225.496094 L 440.667969 225.652344 L 440.683594 225.804688 L 440.699219 225.949219 L 440.71875 226.089844 L 440.742188 226.222656 L 440.769531 226.351563 L 440.796875 226.472656 L 440.824219 226.589844 L 440.859375 226.703125 L 440.890625 226.808594 L 440.929688 226.910156 L 440.964844 227.007813 L 441.007813 227.101563 L 441.050781 227.1875 L 441.09375 227.269531 L 441.140625 227.347656 L 441.242188 227.488281 L 441.296875 227.550781 L 441.351563 227.609375 L 441.410156 227.664063 L 441.472656 227.714844 L 441.53125 227.761719 L 441.664063 227.839844 L 441.730469 227.871094 L 441.800781 227.902344 L 441.871094 227.925781 L 441.945313 227.949219 L 442.019531 227.96875 L 442.175781 227.992188 L 442.257813 228.003906 L 442.339844 228.007813 L 442.507813 228.007813 L 442.585938 228.003906 L 442.667969 227.992188 L 442.742188 227.980469 L 442.820313 227.96875 L 442.894531 227.949219 L 442.964844 227.925781 L 443.039063 227.902344 L 443.105469 227.871094 L 443.175781 227.839844 L 443.238281 227.800781 L 443.304688 227.761719 L 443.363281 227.714844 L 443.425781 227.664063 L 443.480469 227.609375 L 443.535156 227.550781 L 443.589844 227.488281 L 443.691406 227.347656 L 443.738281 227.269531 L 443.78125 227.1875 L 443.824219 227.101563 L 443.867188 227.007813 L 443.90625 226.910156 L 443.941406 226.808594 L 443.976563 226.703125 L 444.011719 226.589844 L 444.039063 226.472656 L 444.066406 226.351563 L 444.09375 226.222656 L 444.117188 226.089844 L 444.140625 225.949219 L 444.160156 225.804688 L 444.175781 225.652344 L 444.191406 225.496094 L 444.203125 225.335938 L 444.21875 224.992188 L 444.222656 224.808594 Z M 444.222656 224.621094 "/>
<path style=" stroke:none;fill-rule:nonzero;fill:rgb(0%,0%,0%);fill-opacity:1;" d="M 255.074219 243.617188 L 253.351563 240.9375 L 251.617188 243.617188 L 249.574219 243.617188 L 252.28125 239.792969 L 249.703125 236.21875 L 251.773438 236.21875 L 253.351563 238.640625 L 254.925781 236.21875 L 257.011719 236.21875 L 254.433594 239.773438 L 257.160156 243.617188 Z M 255.074219 243.617188 "/>
</g>
</svg>
