<?xml version="1.0" encoding="UTF-8"?>
<svg xmlns="http://www.w3.org/2000/svg" xmlns:xlink="http://www.w3.org/1999/xlink" width="504pt" height="252pt" viewBox="0 0 504 252" version="1.1">
<defs>
<clipPath id="clip1">
  <path d="M 8.21875 5.480469 L 498.519531 5.480469 L 498.519531 215.566406 L 8.21875 215.566406 Z M 8.21875 5.480469 "/>
</clipPath>
<clipPath id="clip2">
  <path d="M 8.21875 181 L 498.519531 181 L 498.519531 183 L 8.21875 183 Z M 8.21875 181 "/>
</clipPath>
<clipPath id="clip3">
  <path d="M 8.21875 133 L 498.519531 133 L 498.519531 135 L 8.21875 135 Z M 8.21875 133 "/>
</clipPath>
<clipPath id="clip4">
  <path d="M 8.21875 86 L 498.519531 86 L 498.519531 87 L 8.21875 87 Z M 8.21875 86 "/>
</clipPath>
<clipPath id="clip5">
  <path d="M 8.21875 38 L 498.519531 38 L 498.519531 39 L 8.21875 39 Z M 8.21875 38 "/>
</clipPath>
<clipPath id="clip6">
  <path d="M 85 5.480469 L 87 5.480469 L 87 215.566406 L 85 215.566406 Z M 85 5.480469 "/>
</clipPath>
<clipPath id="clip7">
  <path d="M 197 5.480469 L 198 5.480469 L 198 215.566406 L 197 215.566406 Z M 197 5.480469 "/>
</clipPath>
<clipPath id="clip8">
  <path d="M 308 5.480469 L 310 5.480469 L 310 215.566406 L 308 215.566406 Z M 308 5.480469 "/>
</clipPath>
<clipPath id="clip9">
  <path d="M 420 5.480469 L 421 5.480469 L 421 215.566406 L 420 215.566406 Z M 420 5.480469 "/>
</clipPath>
<clipPath id="clip10">
  <path d="M 8.21875 205 L 498.519531 205 L 498.519531 207 L 8.21875 207 Z M 8.21875 205 "/>
</clipPath>
<clipPath id="clip11">
  <path d="M 8.21875 157 L 498.519531 157 L 498.519531 159 L 8.21875 159 Z M 8.21875 157 "/>
</clipPath>
<clipPath id="clip12">
  <path d="M 8.21875 109 L 498.519531 109 L 498.519531 111 L 8.21875 111 Z M 8.21875 109 "/>
</clipPath>
<clipPath id="clip13">
  <path d="M 8.21875 61 L 498.519531 61 L 498.519531 63 L 8.21875 63 Z M 8.21875 61 "/>
</clipPath>
<clipPath id="clip14">
  <path d="M 8.21875 13 L 498.519531 13 L 498.519531 16 L 8.21875 16 Z M 8.21875 13 "/>
</clipPath>
<clipPath id="clip15">
  <path d="M 29 5.480469 L 32 5.480469 L 32 215.566406 L 29 215.566406 Z M 29 5.480469 "/>
</clipPath>
<clipPath id="clip16">
  <path d="M 141 5.480469 L 143 5.480469 L 143 215.566406 L 141 215.566406 Z M 141 5.480469 "/>
</clipPath>
<clipPath id="clip17">
  <path d="M 252 5.480469 L 254 5.480469 L 254 215.566406 L 252 215.566406 Z M 252 5.480469 "/>
</clipPath>
<clipPath id="clip18">
  <path d="M 364 5.480469 L 366 5.480469 L 366 215.566406 L 364 215.566406 Z M 364 5.480469 "/>
</clipPath>
<clipPath id="clip19">
  <path d="M 475 5.480469 L 477 5.480469 L 477 215.566406 L 475 215.566406 Z M 475 5.480469 "/>
</clipPath>
<clipPath id="clip20">
  <path d="M 8.21875 204 L 498.519531 204 L 498.519531 208 L 8.21875 208 Z M 8.21875 204 "/>
</clipPath>
</defs>
<g id="surface4">
<rect x="0" y="0" width="504" height="252" style="fill:rgb(100%,100%,100%);fill-opacity:1;stroke:none;"/>
<rect x="0" y="0" width="504" height="252" style="fill:rgb(100%,100%,100%);fill-opacity:1;stroke:none;"/>
<path style="fill:none;stroke-width:1.066978;stroke-linecap:round;stroke-linejoin:round;stroke:rgb(100%,100%,100%);stroke-opacity:1;stroke-miterlimit:10;" d="M 0 252 L 504 252 L 504 0 L 0 0 Z M 0 252 "/>
<g clip-path="url(#clip1)" clip-rule="nonzero">
<path style=" stroke:none;fill-rule:nonzero;fill:rgb(92.156863%,92.156863%,92.156863%);fill-opacity:1;" d="M 8.21875 215.566406 L 498.519531 215.566406 L 498.519531 5.480469 L 8.21875 5.480469 Z M 8.21875 215.566406 "/>
</g>
<g clip-path="url(#clip2)" clip-rule="nonzero">
<path style="fill:none;stroke-width:0.533489;stroke-linecap:butt;stroke-linejoin:round;stroke:rgb(100%,100%,100%);stroke-opacity:1;stroke-miterlimit:10;" d="M 8.21875 182.078125 L 498.519531 182.078125 "/>
</g>
<g clip-path="url(#clip3)" clip-rule="nonzero">
<path style="fill:none;stroke-width:0.533489;stroke-linecap:butt;stroke-linejoin:round;stroke:rgb(100%,100%,100%);stroke-opacity:1;stroke-miterlimit:10;" d="M 8.21875 134.207031 L 498.519531 134.207031 "/>
</g>
<g clip-path="url(#clip4)" clip-rule="nonzero">
<path style="fill:none;stroke-width:0.533489;stroke-linecap:butt;stroke-linejoin:round;stroke:rgb(100%,100%,100%);stroke-opacity:1;stroke-miterlimit:10;" d="M 8.21875 86.332031 L 498.519531 86.332031 "/>
</g>
<g clip-path="url(#clip5)" clip-rule="nonzero">
<path style="fill:none;stroke-width:0.533489;stroke-linecap:butt;stroke-linejoin:round;stroke:rgb(100%,100%,100%);stroke-opacity:1;stroke-miterlimit:10;" d="M 8.21875 38.460938 L 498.519531 38.460938 "/>
</g>
<g clip-path="url(#clip6)" clip-rule="nonzero">
<path style="fill:none;stroke-width:0.533489;stroke-linecap:butt;stroke-linejoin:round;stroke:rgb(100%,100%,100%);stroke-opacity:1;stroke-miterlimit:10;" d="M 86.222656 215.566406 L 86.222656 5.480469 "/>
</g>
<g clip-path="url(#clip7)" clip-rule="nonzero">
<path style="fill:none;stroke-width:0.533489;stroke-linecap:butt;stroke-linejoin:round;stroke:rgb(100%,100%,100%);stroke-opacity:1;stroke-miterlimit:10;" d="M 197.652344 215.566406 L 197.652344 5.480469 "/>
</g>
<g clip-path="url(#clip8)" clip-rule="nonzero">
<path style="fill:none;stroke-width:0.533489;stroke-linecap:butt;stroke-linejoin:round;stroke:rgb(100%,100%,100%);stroke-opacity:1;stroke-miterlimit:10;" d="M 309.085938 215.566406 L 309.085938 5.480469 "/>
</g>
<g clip-path="url(#clip9)" clip-rule="nonzero">
<path style="fill:none;stroke-width:0.533489;stroke-linecap:butt;stroke-linejoin:round;stroke:rgb(100%,100%,100%);stroke-opacity:1;stroke-miterlimit:10;" d="M 420.519531 215.566406 L 420.519531 5.480469 "/>
</g>
<g clip-path="url(#clip10)" clip-rule="nonzero">
<path style="fill:none;stroke-width:1.066978;stroke-linecap:butt;stroke-linejoin:round;stroke:rgb(100%,100%,100%);stroke-opacity:1;stroke-miterlimit:10;" d="M 8.21875 206.015625 L 498.519531 206.015625 "/>
</g>
<g clip-path="url(#clip11)" clip-rule="nonzero">
<path style="fill:none;stroke-width:1.066978;stroke-linecap:butt;stroke-linejoin:round;stroke:rgb(100%,100%,100%);stroke-opacity:1;stroke-miterlimit:10;" d="M 8.21875 158.144531 L 498.519531 158.144531 "/>
</g>
<g clip-path="url(#clip12)" clip-rule="nonzero">
<path style="fill:none;stroke-width:1.066978;stroke-linecap:butt;stroke-linejoin:round;stroke:rgb(100%,100%,100%);stroke-opacity:1;stroke-miterlimit:10;" d="M 8.21875 110.269531 L 498.519531 110.269531 "/>
</g>
<g clip-path="url(#clip13)" clip-rule="nonzero">
<path style="fill:none;stroke-width:1.066978;stroke-linecap:butt;stroke-linejoin:round;stroke:rgb(100%,100%,100%);stroke-opacity:1;stroke-miterlimit:10;" d="M 8.21875 62.394531 L 498.519531 62.394531 "/>
</g>
<g clip-path="url(#clip14)" clip-rule="nonzero">
<path style="fill:none;stroke-width:1.066978;stroke-linecap:butt;stroke-linejoin:round;stroke:rgb(100%,100%,100%);stroke-opacity:1;stroke-miterlimit:10;" d="M 8.21875 14.523438 L 498.519531 14.523438 "/>
</g>
<g clip-path="url(#clip15)" clip-rule="nonzero">
<path style="fill:none;stroke-width:1.066978;stroke-linecap:butt;stroke-linejoin:round;stroke:rgb(100%,100%,100%);stroke-opacity:1;stroke-miterlimit:10;" d="M 30.503906 215.566406 L 30.503906 5.480469 "/>
</g>
<g clip-path="url(#clip16)" clip-rule="nonzero">
<path style="fill:none;stroke-width:1.066978;stroke-linecap:butt;stroke-linejoin:round;stroke:rgb(100%,100%,100%);stroke-opacity:1;stroke-miterlimit:10;" d="M 141.9375 215.566406 L 141.9375 5.480469 "/>
</g>
<g clip-path="url(#clip17)" clip-rule="nonzero">
<path style="fill:none;stroke-width:1.066978;stroke-linecap:butt;stroke-linejoin:round;stroke:rgb(100%,100%,100%);stroke-opacity:1;stroke-miterlimit:10;" d="M 253.371094 215.566406 L 253.371094 5.480469 "/>
</g>
<g clip-path="url(#clip18)" clip-rule="nonzero">
<path style="fill:none;stroke-width:1.066978;stroke-linecap:butt;stroke-linejoin:round;stroke:rgb(100%,100%,100%);stroke-opacity:1;stroke-miterlimit:10;" d="M 364.800781 215.566406 L 364.800781 5.480469 "/>
</g>
<g clip-path="url(#clip19)" clip-rule="nonzero">
<path style="fill:none;stroke-width:1.066978;stroke-linecap:butt;stroke-linejoin:round;stroke:rgb(100%,100%,100%);stroke-opacity:1;stroke-miterlimit:10;" d="M 476.234375 215.566406 L 476.234375 5.480469 "/>
</g>
<path style="fill:none;stroke-width:3.200935;stroke-linecap:butt;stroke-linejoin:round;stroke:rgb(0%,0%,0%);stroke-opacity:1;stroke-miterlimit:10;" d="M 30.503906 205.953125 L 34.960938 205.929688 L 39.421875 205.898438 L 43.878906 205.855469 L 48.335938 205.796875 L 52.792969 205.722656 L 57.25 205.628906 L 61.707031 205.503906 L 66.164063 205.339844 L 70.621094 205.136719 L 75.078125 204.875 L 79.535156 204.546875 L 83.992188 204.136719 L 88.449219 203.625 L 92.90625 202.996094 L 97.363281 202.226563 L 101.820313 201.292969 L 106.28125 200.160156 L 110.738281 198.808594 L 115.195313 197.195313 L 119.652344 195.296875 L 124.109375 193.066406 L 128.566406 190.476563 L 133.023438 187.488281 L 137.480469 184.0625 L 141.9375 180.167969 L 146.394531 175.78125 L 150.851563 170.875 L 155.308594 165.429688 L 159.765625 159.445313 L 164.222656 152.914063 L 168.679688 145.855469 L 173.140625 138.292969 L 177.597656 130.269531 L 182.054688 121.832031 L 186.511719 113.054688 L 190.96875 104.011719 L 195.425781 94.808594 L 199.882813 85.546875 L 204.339844 76.34375 L 208.796875 67.332031 L 213.253906 58.636719 L 217.710938 50.398438 L 222.167969 42.746094 L 226.625 35.8125 L 231.082031 29.710938 L 235.539063 24.5625 L 239.996094 20.449219 L 244.457031 17.457031 L 248.914063 15.640625 L 253.371094 15.027344 L 257.828125 15.640625 L 262.285156 17.457031 L 266.742188 20.449219 L 271.199219 24.5625 L 275.65625 29.710938 L 280.113281 35.8125 L 284.570313 42.746094 L 289.027344 50.398438 L 293.484375 58.636719 L 297.941406 67.332031 L 302.398438 76.34375 L 306.855469 85.546875 L 311.316406 94.808594 L 315.773438 104.011719 L 320.230469 113.054688 L 324.6875 121.832031 L 329.144531 130.269531 L 333.601563 138.292969 L 338.058594 145.855469 L 342.515625 152.914063 L 346.972656 159.445313 L 351.429688 165.429688 L 355.886719 170.875 L 360.34375 175.78125 L 364.800781 180.167969 L 369.257813 184.0625 L 373.714844 187.488281 L 378.175781 190.476563 L 382.632813 193.066406 L 387.089844 195.296875 L 391.546875 197.195313 L 396.003906 198.808594 L 400.460938 200.160156 L 404.917969 201.292969 L 409.375 202.226563 L 413.832031 202.996094 L 418.289063 203.625 L 422.746094 204.136719 L 427.203125 204.546875 L 431.660156 204.875 L 436.117188 205.136719 L 440.574219 205.339844 L 445.03125 205.503906 L 449.492188 205.628906 L 453.949219 205.722656 L 458.40625 205.796875 L 462.863281 205.855469 L 467.320313 205.898438 L 471.777344 205.929688 L 476.234375 205.953125 "/>
<g clip-path="url(#clip20)" clip-rule="nonzero">
<path style="fill:none;stroke-width:3.200935;stroke-linecap:butt;stroke-linejoin:round;stroke:rgb(0%,0%,0%);stroke-opacity:1;stroke-miterlimit:10;" d="M 8.21875 206.015625 L 498.519531 206.015625 "/>
</g>
<path style="fill:none;stroke-width:1.066978;stroke-linecap:butt;stroke-linejoin:round;stroke:rgb(20%,20%,20%);stroke-opacity:1;stroke-miterlimit:10;" d="M 30.503906 218.304688 L 30.503906 215.566406 "/>
<path style="fill:none;stroke-width:1.066978;stroke-linecap:butt;stroke-linejoin:round;stroke:rgb(20%,20%,20%);stroke-opacity:1;stroke-miterlimit:10;" d="M 141.9375 218.304688 L 141.9375 215.566406 "/>
<path style="fill:none;stroke-width:1.066978;stroke-linecap:butt;stroke-linejoin:round;stroke:rgb(20%,20%,20%);stroke-opacity:1;stroke-miterlimit:10;" d="M 253.371094 218.304688 L 253.371094 215.566406 "/>
<path style="fill:none;stroke-width:1.066978;stroke-linecap:butt;stroke-linejoin:round;stroke:rgb(20%,20%,20%);stroke-opacity:1;stroke-miterlimit:10;" d="M 364.800781 218.304688 L 364.800781 215.566406 "/>
<path style="fill:none;stroke-width:1.066978;stroke-linecap:butt;stroke-linejoin:round;stroke:rgb(20%,20%,20%);stroke-opacity:1;stroke-miterlimit:10;" d="M 476.234375 218.304688 L 476.234375 215.566406 "/>
<path style=" stroke:none;fill-rule:nonzero;fill:rgb(30.196078%,30.196078%,30.196078%);fill-opacity:1;" d="M 25.703125 226.035156 L 25.703125 225.097656 L 28.632813 225.097656 L 28.632813 226.035156 Z M 25.703125 226.035156 "/>
<path style=" stroke:none;fill-rule:nonzero;fill:rgb(30.196078%,30.196078%,30.196078%);fill-opacity:1;" d="M 34.328125 226.882813 L 34.328125 228.753906 L 33.332031 228.753906 L 33.332031 226.882813 L 29.441406 226.882813 L 29.441406 226.0625 L 33.222656 220.496094 L 34.328125 220.496094 L 34.328125 226.050781 L 35.488281 226.050781 L 35.488281 226.882813 Z M 33.332031 221.6875 L 33.328125 221.695313 L 33.328125 221.699219 L 33.324219 221.710938 L 33.316406 221.71875 L 33.3125 221.730469 L 33.304688 221.742188 L 33.300781 221.757813 L 33.292969 221.769531 L 33.28125 221.789063 L 33.265625 221.820313 L 33.253906 221.839844 L 33.246094 221.855469 L 33.234375 221.875 L 33.222656 221.890625 L 33.214844 221.910156 L 33.191406 221.949219 L 33.179688 221.972656 L 33.15625 222.011719 L 33.144531 222.035156 L 33.132813 222.054688 L 33.121094 222.078125 L 33.109375 222.097656 L 33.097656 222.121094 L 33.082031 222.140625 L 33.058594 222.1875 L 33.046875 222.207031 L 33.035156 222.230469 L 33 222.289063 L 32.988281 222.304688 L 32.980469 222.324219 L 32.96875 222.339844 L 32.960938 222.355469 L 32.949219 222.371094 L 32.941406 222.382813 L 30.824219 225.5 L 30.820313 225.511719 L 30.8125 225.519531 L 30.789063 225.554688 L 30.777344 225.566406 L 30.769531 225.582031 L 30.757813 225.59375 L 30.75 225.609375 L 30.703125 225.671875 L 30.695313 225.6875 L 30.53125 225.90625 L 30.519531 225.917969 L 30.484375 225.964844 L 30.476563 225.976563 L 30.464844 225.992188 L 30.457031 226.003906 L 30.4375 226.023438 L 30.429688 226.035156 L 30.414063 226.050781 L 33.332031 226.050781 Z M 33.332031 221.6875 "/>
<path style=" stroke:none;fill-rule:nonzero;fill:rgb(30.196078%,30.196078%,30.196078%);fill-opacity:1;" d="M 137.136719 226.035156 L 137.136719 225.097656 L 140.066406 225.097656 L 140.066406 226.035156 Z M 137.136719 226.035156 "/>
<path style=" stroke:none;fill-rule:nonzero;fill:rgb(30.196078%,30.196078%,30.196078%);fill-opacity:1;" d="M 141.203125 228.753906 L 141.203125 228.007813 L 141.261719 227.875 L 141.328125 227.742188 L 141.394531 227.613281 L 141.460938 227.488281 L 141.535156 227.363281 L 141.605469 227.246094 L 141.683594 227.128906 L 141.761719 227.015625 L 141.84375 226.910156 L 141.929688 226.800781 L 142.015625 226.699219 L 142.105469 226.59375 L 142.191406 226.496094 L 142.371094 226.300781 L 142.554688 226.117188 L 142.742188 225.9375 L 142.835938 225.851563 L 142.933594 225.769531 L 143.027344 225.683594 L 143.214844 225.519531 L 143.496094 225.285156 L 143.683594 225.136719 L 143.773438 225.0625 L 143.867188 224.988281 L 143.957031 224.917969 L 144.046875 224.84375 L 144.132813 224.769531 L 144.21875 224.699219 L 144.304688 224.625 L 144.386719 224.554688 L 144.542969 224.40625 L 144.617188 224.335938 L 144.691406 224.261719 L 144.832031 224.113281 L 144.957031 223.964844 L 145.015625 223.886719 L 145.125 223.730469 L 145.175781 223.652344 L 145.222656 223.574219 L 145.265625 223.492188 L 145.304688 223.410156 L 145.339844 223.324219 L 145.371094 223.238281 L 145.398438 223.148438 L 145.417969 223.058594 L 145.433594 222.964844 L 145.445313 222.867188 L 145.453125 222.769531 L 145.457031 222.671875 L 145.457031 222.601563 L 145.453125 222.535156 L 145.4375 222.402344 L 145.429688 222.34375 L 145.417969 222.28125 L 145.40625 222.222656 L 145.390625 222.164063 L 145.351563 222.054688 L 145.304688 221.953125 L 145.277344 221.902344 L 145.222656 221.808594 L 145.191406 221.765625 L 145.121094 221.679688 L 145.085938 221.640625 L 145.046875 221.605469 L 145.003906 221.570313 L 144.964844 221.535156 L 144.917969 221.503906 L 144.875 221.476563 L 144.828125 221.445313 L 144.675781 221.375 L 144.511719 221.316406 L 144.453125 221.300781 L 144.335938 221.277344 L 144.273438 221.265625 L 144.148438 221.25 L 144.082031 221.246094 L 144.019531 221.242188 L 143.886719 221.242188 L 143.824219 221.246094 L 143.765625 221.25 L 143.703125 221.253906 L 143.644531 221.265625 L 143.582031 221.273438 L 143.464844 221.296875 L 143.410156 221.3125 L 143.351563 221.328125 L 143.296875 221.347656 L 143.246094 221.367188 L 143.191406 221.390625 L 143.140625 221.414063 L 143.09375 221.441406 L 143.042969 221.464844 L 142.949219 221.527344 L 142.90625 221.558594 L 142.859375 221.59375 L 142.816406 221.628906 L 142.699219 221.746094 L 142.664063 221.792969 L 142.628906 221.835938 L 142.59375 221.882813 L 142.5625 221.929688 L 142.53125 221.980469 L 142.503906 222.03125 L 142.476563 222.085938 L 142.429688 222.195313 L 142.390625 222.3125 L 142.359375 222.4375 L 142.347656 222.5 L 142.335938 222.566406 L 142.328125 222.636719 L 141.25 222.535156 L 141.261719 222.449219 L 141.277344 222.359375 L 141.292969 222.273438 L 141.3125 222.1875 L 141.335938 222.105469 L 141.363281 222.019531 L 141.390625 221.9375 L 141.421875 221.859375 L 141.457031 221.777344 L 141.535156 221.621094 L 141.578125 221.546875 L 141.625 221.472656 L 141.671875 221.402344 L 141.78125 221.261719 L 141.835938 221.199219 L 141.898438 221.132813 L 141.960938 221.074219 L 142.027344 221.011719 L 142.097656 220.953125 L 142.167969 220.898438 L 142.246094 220.84375 L 142.320313 220.792969 L 142.484375 220.699219 L 142.570313 220.65625 L 142.75 220.578125 L 142.84375 220.542969 L 142.941406 220.511719 L 143.144531 220.457031 L 143.25 220.4375 L 143.359375 220.417969 L 143.472656 220.402344 L 143.585938 220.390625 L 143.828125 220.375 L 144.070313 220.375 L 144.191406 220.378906 L 144.308594 220.386719 L 144.421875 220.398438 L 144.53125 220.410156 L 144.640625 220.425781 L 144.746094 220.445313 L 144.949219 220.492188 L 145.046875 220.519531 L 145.140625 220.550781 L 145.320313 220.621094 L 145.40625 220.660156 L 145.488281 220.703125 L 145.566406 220.746094 L 145.644531 220.796875 L 145.71875 220.84375 L 145.789063 220.898438 L 145.855469 220.953125 L 145.921875 221.011719 L 145.980469 221.074219 L 146.097656 221.207031 L 146.199219 221.347656 L 146.246094 221.421875 L 146.289063 221.5 L 146.328125 221.582031 L 146.363281 221.664063 L 146.398438 221.75 L 146.429688 221.835938 L 146.476563 222.023438 L 146.496094 222.117188 L 146.511719 222.214844 L 146.523438 222.316406 L 146.535156 222.421875 L 146.539063 222.527344 L 146.539063 222.71875 L 146.535156 222.800781 L 146.527344 222.882813 L 146.515625 222.960938 L 146.503906 223.042969 L 146.464844 223.199219 L 146.441406 223.277344 L 146.417969 223.351563 L 146.386719 223.425781 L 146.359375 223.503906 L 146.324219 223.574219 L 146.253906 223.722656 L 146.175781 223.863281 L 146.132813 223.933594 L 146.039063 224.074219 L 145.988281 224.140625 L 145.9375 224.210938 L 145.835938 224.34375 L 145.78125 224.410156 L 145.664063 224.542969 L 145.605469 224.605469 L 145.542969 224.671875 L 145.480469 224.734375 L 145.414063 224.796875 L 145.347656 224.863281 L 145.148438 225.050781 L 145.078125 225.113281 L 145.011719 225.175781 L 144.941406 225.234375 L 144.800781 225.359375 L 144.730469 225.417969 L 144.65625 225.480469 L 144.515625 225.597656 L 144.441406 225.660156 L 144.371094 225.71875 L 144.296875 225.777344 L 144.226563 225.835938 L 144.152344 225.898438 L 144.082031 225.957031 L 144.007813 226.015625 L 143.867188 226.132813 L 143.792969 226.195313 L 143.726563 226.253906 L 143.585938 226.371094 L 143.453125 226.488281 L 143.386719 226.550781 L 143.261719 226.667969 L 143.140625 226.789063 L 143.082031 226.851563 L 143.023438 226.910156 L 142.96875 226.972656 L 142.910156 227.03125 L 142.859375 227.09375 L 142.804688 227.15625 L 142.753906 227.21875 L 142.707031 227.28125 L 142.660156 227.339844 L 142.613281 227.402344 L 142.570313 227.464844 L 142.53125 227.53125 L 142.492188 227.59375 L 142.457031 227.660156 L 142.421875 227.722656 L 142.390625 227.789063 L 142.363281 227.855469 L 146.667969 227.855469 L 146.667969 228.753906 Z M 141.203125 228.753906 "/>
<path style=" stroke:none;fill-rule:nonzero;fill:rgb(30.196078%,30.196078%,30.196078%);fill-opacity:1;" d="M 256.238281 224.621094 L 256.234375 224.855469 L 256.230469 225.082031 L 256.21875 225.300781 L 256.203125 225.515625 L 256.179688 225.71875 L 256.15625 225.914063 L 256.125 226.105469 L 256.089844 226.285156 L 256.054688 226.460938 L 256.007813 226.625 L 255.964844 226.785156 L 255.914063 226.9375 L 255.859375 227.085938 L 255.804688 227.226563 L 255.746094 227.359375 L 255.679688 227.488281 L 255.613281 227.609375 L 255.542969 227.726563 L 255.472656 227.835938 L 255.394531 227.9375 L 255.316406 228.035156 L 255.234375 228.128906 L 255.0625 228.292969 L 254.972656 228.367188 L 254.785156 228.5 L 254.683594 228.554688 L 254.585938 228.609375 L 254.375 228.695313 L 254.15625 228.765625 L 254.046875 228.792969 L 253.933594 228.816406 L 253.820313 228.835938 L 253.707031 228.851563 L 253.589844 228.863281 L 253.355469 228.871094 L 253.234375 228.867188 L 253.117188 228.863281 L 253 228.851563 L 252.886719 228.835938 L 252.773438 228.816406 L 252.660156 228.792969 L 252.550781 228.765625 L 252.441406 228.730469 L 252.335938 228.695313 L 252.230469 228.652344 L 252.128906 228.609375 L 252.027344 228.554688 L 251.929688 228.5 L 251.742188 228.367188 L 251.652344 228.292969 L 251.480469 228.128906 L 251.402344 228.035156 L 251.320313 227.9375 L 251.246094 227.835938 L 251.175781 227.726563 L 251.109375 227.613281 L 251.042969 227.492188 L 250.980469 227.363281 L 250.921875 227.230469 L 250.867188 227.089844 L 250.8125 226.945313 L 250.71875 226.632813 L 250.675781 226.464844 L 250.640625 226.292969 L 250.609375 226.109375 L 250.578125 225.917969 L 250.554688 225.722656 L 250.535156 225.519531 L 250.519531 225.304688 L 250.511719 225.085938 L 250.503906 224.859375 L 250.5 224.621094 L 250.503906 224.378906 L 250.511719 224.140625 L 250.519531 223.914063 L 250.535156 223.695313 L 250.554688 223.484375 L 250.578125 223.28125 L 250.609375 223.085938 L 250.640625 222.902344 L 250.675781 222.726563 L 250.71875 222.558594 L 250.765625 222.398438 L 250.8125 222.246094 L 250.867188 222.097656 L 250.921875 221.957031 L 250.980469 221.824219 L 251.042969 221.695313 L 251.109375 221.574219 L 251.179688 221.460938 L 251.253906 221.355469 L 251.328125 221.253906 L 251.40625 221.160156 L 251.488281 221.070313 L 251.574219 220.988281 L 251.660156 220.910156 L 251.75 220.839844 L 251.84375 220.773438 L 251.9375 220.714844 L 252.035156 220.664063 L 252.136719 220.617188 L 252.242188 220.574219 L 252.347656 220.535156 L 252.566406 220.472656 L 252.679688 220.445313 L 252.792969 220.425781 L 252.910156 220.40625 L 253.027344 220.390625 L 253.144531 220.382813 L 253.265625 220.375 L 253.507813 220.375 L 253.625 220.382813 L 253.738281 220.390625 L 253.851563 220.40625 L 253.964844 220.425781 L 254.074219 220.445313 L 254.179688 220.472656 L 254.289063 220.503906 L 254.394531 220.535156 L 254.496094 220.574219 L 254.601563 220.617188 L 254.699219 220.664063 L 254.796875 220.714844 L 254.894531 220.773438 L 254.984375 220.839844 L 255.074219 220.910156 L 255.160156 220.988281 L 255.246094 221.070313 L 255.328125 221.160156 L 255.40625 221.253906 L 255.480469 221.355469 L 255.554688 221.460938 L 255.625 221.574219 L 255.6875 221.695313 L 255.75 221.824219 L 255.8125 221.957031 L 255.867188 222.097656 L 255.917969 222.246094 L 255.96875 222.398438 L 256.015625 222.558594 L 256.058594 222.726563 L 256.09375 222.902344 L 256.128906 223.085938 L 256.15625 223.28125 L 256.183594 223.484375 L 256.203125 223.695313 L 256.21875 223.914063 L 256.230469 224.140625 L 256.234375 224.378906 Z M 255.164063 224.621094 L 255.164063 224.429688 L 255.160156 224.242188 L 255.15625 224.0625 L 255.148438 223.886719 L 255.136719 223.722656 L 255.125 223.5625 L 255.109375 223.40625 L 255.089844 223.261719 L 255.070313 223.121094 L 255.046875 222.988281 L 255.023438 222.859375 L 254.996094 222.734375 L 254.96875 222.617188 L 254.9375 222.507813 L 254.902344 222.398438 L 254.867188 222.296875 L 254.789063 222.109375 L 254.746094 222.023438 L 254.703125 221.945313 L 254.65625 221.867188 L 254.605469 221.796875 L 254.554688 221.730469 L 254.503906 221.667969 L 254.449219 221.609375 L 254.390625 221.558594 L 254.332031 221.511719 L 254.269531 221.464844 L 254.207031 221.429688 L 254.140625 221.394531 L 254.074219 221.363281 L 253.933594 221.308594 L 253.863281 221.289063 L 253.789063 221.269531 L 253.710938 221.257813 L 253.636719 221.246094 L 253.472656 221.230469 L 253.300781 221.230469 L 253.214844 221.238281 L 253.132813 221.246094 L 253.050781 221.257813 L 252.972656 221.269531 L 252.894531 221.289063 L 252.820313 221.308594 L 252.746094 221.335938 L 252.675781 221.363281 L 252.605469 221.394531 L 252.539063 221.429688 L 252.472656 221.46875 L 252.410156 221.511719 L 252.351563 221.5625 L 252.234375 221.671875 L 252.179688 221.734375 L 252.078125 221.875 L 252.03125 221.949219 L 251.988281 222.03125 L 251.945313 222.117188 L 251.902344 222.207031 L 251.867188 222.304688 L 251.832031 222.40625 L 251.796875 222.511719 L 251.765625 222.625 L 251.738281 222.742188 L 251.710938 222.863281 L 251.683594 222.992188 L 251.644531 223.265625 L 251.625 223.414063 L 251.609375 223.566406 L 251.597656 223.726563 L 251.585938 223.890625 L 251.578125 224.066406 L 251.574219 224.246094 L 251.570313 224.429688 L 251.566406 224.621094 L 251.570313 224.808594 L 251.574219 224.992188 L 251.578125 225.164063 L 251.585938 225.335938 L 251.597656 225.496094 L 251.609375 225.652344 L 251.625 225.804688 L 251.644531 225.949219 L 251.664063 226.089844 L 251.683594 226.222656 L 251.710938 226.351563 L 251.738281 226.472656 L 251.769531 226.589844 L 251.800781 226.703125 L 251.835938 226.808594 L 251.871094 226.910156 L 251.910156 227.007813 L 251.949219 227.101563 L 251.992188 227.1875 L 252.035156 227.269531 L 252.085938 227.347656 L 252.132813 227.417969 L 252.1875 227.488281 L 252.242188 227.550781 L 252.296875 227.609375 L 252.355469 227.664063 L 252.414063 227.714844 L 252.476563 227.761719 L 252.539063 227.800781 L 252.605469 227.839844 L 252.671875 227.871094 L 252.742188 227.902344 L 252.8125 227.925781 L 252.886719 227.949219 L 252.960938 227.96875 L 253.117188 227.992188 L 253.199219 228.003906 L 253.28125 228.007813 L 253.449219 228.007813 L 253.53125 228.003906 L 253.6875 227.980469 L 253.761719 227.96875 L 253.835938 227.949219 L 253.910156 227.925781 L 253.980469 227.902344 L 254.050781 227.871094 L 254.117188 227.839844 L 254.183594 227.800781 L 254.246094 227.761719 L 254.308594 227.714844 L 254.367188 227.664063 L 254.425781 227.609375 L 254.480469 227.550781 L 254.53125 227.488281 L 254.632813 227.347656 L 254.679688 227.269531 L 254.726563 227.1875 L 254.769531 227.101563 L 254.808594 227.007813 L 254.847656 226.910156 L 254.886719 226.808594 L 254.921875 226.703125 L 254.953125 226.589844 L 254.984375 226.472656 L 255.011719 226.351563 L 255.035156 226.222656 L 255.0625 226.089844 L 255.082031 225.949219 L 255.101563 225.804688 L 255.121094 225.652344 L 255.132813 225.496094 L 255.144531 225.335938 L 255.160156 224.992188 L 255.164063 224.808594 Z M 255.164063 224.621094 "/>
<path style=" stroke:none;fill-rule:nonzero;fill:rgb(30.196078%,30.196078%,30.196078%);fill-opacity:1;" d="M 362.070313 228.753906 L 362.070313 228.007813 L 362.128906 227.875 L 362.191406 227.742188 L 362.257813 227.613281 L 362.398438 227.363281 L 362.472656 227.246094 L 362.550781 227.128906 L 362.628906 227.015625 L 362.710938 226.910156 L 362.796875 226.800781 L 362.882813 226.699219 L 362.96875 226.59375 L 363.238281 226.300781 L 363.421875 226.117188 L 363.609375 225.9375 L 363.703125 225.851563 L 363.796875 225.769531 L 363.894531 225.683594 L 364.082031 225.519531 L 364.363281 225.285156 L 364.457031 225.210938 L 364.546875 225.136719 L 364.734375 224.988281 L 364.824219 224.917969 L 364.914063 224.84375 L 365 224.769531 L 365.085938 224.699219 L 365.167969 224.625 L 365.25 224.554688 L 365.332031 224.480469 L 365.410156 224.40625 L 365.484375 224.335938 L 365.558594 224.261719 L 365.628906 224.1875 L 365.761719 224.039063 L 365.824219 223.964844 L 365.882813 223.886719 L 365.992188 223.730469 L 366.039063 223.652344 L 366.089844 223.574219 L 366.132813 223.492188 L 366.171875 223.410156 L 366.207031 223.324219 L 366.238281 223.238281 L 366.265625 223.148438 L 366.285156 223.058594 L 366.300781 222.964844 L 366.3125 222.867188 L 366.320313 222.769531 L 366.324219 222.671875 L 366.320313 222.601563 L 366.3125 222.46875 L 366.304688 222.402344 L 366.296875 222.34375 L 366.285156 222.28125 L 366.253906 222.164063 L 366.238281 222.109375 L 366.21875 222.054688 L 366.171875 221.953125 L 366.144531 221.902344 L 366.089844 221.808594 L 366.058594 221.765625 L 365.988281 221.679688 L 365.953125 221.640625 L 365.914063 221.605469 L 365.828125 221.535156 L 365.785156 221.503906 L 365.738281 221.476563 L 365.691406 221.445313 L 365.644531 221.421875 L 365.542969 221.375 L 365.433594 221.335938 L 365.375 221.316406 L 365.320313 221.300781 L 365.203125 221.277344 L 365.140625 221.265625 L 365.015625 221.25 L 364.882813 221.242188 L 364.753906 221.242188 L 364.628906 221.25 L 364.570313 221.253906 L 364.507813 221.265625 L 364.449219 221.273438 L 364.332031 221.296875 L 364.277344 221.3125 L 364.21875 221.328125 L 364.109375 221.367188 L 364.007813 221.414063 L 363.957031 221.441406 L 363.910156 221.464844 L 363.769531 221.558594 L 363.683594 221.628906 L 363.566406 221.746094 L 363.527344 221.792969 L 363.492188 221.835938 L 363.429688 221.929688 L 363.398438 221.980469 L 363.371094 222.03125 L 363.34375 222.085938 L 363.296875 222.195313 L 363.257813 222.3125 L 363.226563 222.4375 L 363.214844 222.5 L 363.203125 222.566406 L 363.195313 222.636719 L 362.117188 222.535156 L 362.128906 222.449219 L 362.140625 222.359375 L 362.179688 222.1875 L 362.203125 222.105469 L 362.230469 222.019531 L 362.257813 221.9375 L 362.289063 221.859375 L 362.324219 221.777344 L 362.402344 221.621094 L 362.445313 221.546875 L 362.492188 221.472656 L 362.539063 221.402344 L 362.589844 221.332031 L 362.644531 221.261719 L 362.703125 221.199219 L 362.765625 221.132813 L 362.828125 221.074219 L 362.894531 221.011719 L 362.964844 220.953125 L 363.035156 220.898438 L 363.109375 220.84375 L 363.1875 220.792969 L 363.351563 220.699219 L 363.4375 220.65625 L 363.523438 220.617188 L 363.617188 220.578125 L 363.710938 220.542969 L 363.808594 220.511719 L 363.90625 220.484375 L 364.011719 220.457031 L 364.117188 220.4375 L 364.226563 220.417969 L 364.339844 220.402344 L 364.453125 220.390625 L 364.570313 220.382813 L 364.691406 220.375 L 364.9375 220.375 L 365.058594 220.378906 L 365.171875 220.386719 L 365.289063 220.398438 L 365.398438 220.410156 L 365.507813 220.425781 L 365.613281 220.445313 L 365.816406 220.492188 L 365.914063 220.519531 L 366.007813 220.550781 L 366.1875 220.621094 L 366.273438 220.660156 L 366.355469 220.703125 L 366.433594 220.746094 L 366.511719 220.796875 L 366.582031 220.84375 L 366.722656 220.953125 L 366.785156 221.011719 L 366.847656 221.074219 L 366.90625 221.140625 L 366.960938 221.207031 L 367.015625 221.277344 L 367.066406 221.347656 L 367.109375 221.421875 L 367.152344 221.5 L 367.195313 221.582031 L 367.230469 221.664063 L 367.265625 221.75 L 367.292969 221.835938 L 367.320313 221.929688 L 367.34375 222.023438 L 367.363281 222.117188 L 367.378906 222.214844 L 367.390625 222.316406 L 367.40625 222.527344 L 367.40625 222.71875 L 367.402344 222.800781 L 367.394531 222.882813 L 367.382813 222.960938 L 367.367188 223.042969 L 367.351563 223.121094 L 367.332031 223.199219 L 367.308594 223.277344 L 367.253906 223.425781 L 367.222656 223.503906 L 367.191406 223.574219 L 367.121094 223.722656 L 367.082031 223.792969 L 366.953125 224.003906 L 366.90625 224.074219 L 366.855469 224.140625 L 366.804688 224.210938 L 366.753906 224.277344 L 366.589844 224.476563 L 366.53125 224.542969 L 366.472656 224.605469 L 366.410156 224.671875 L 366.347656 224.734375 L 366.28125 224.796875 L 366.214844 224.863281 L 366.015625 225.050781 L 365.945313 225.113281 L 365.878906 225.175781 L 365.808594 225.234375 L 365.667969 225.359375 L 365.597656 225.417969 L 365.523438 225.480469 L 365.382813 225.597656 L 365.308594 225.660156 L 365.238281 225.71875 L 365.164063 225.777344 L 365.09375 225.835938 L 365.019531 225.898438 L 364.949219 225.957031 L 364.875 226.015625 L 364.804688 226.074219 L 364.730469 226.132813 L 364.660156 226.195313 L 364.589844 226.253906 L 364.523438 226.3125 L 364.453125 226.371094 L 364.320313 226.488281 L 364.253906 226.550781 L 364.128906 226.667969 L 364.066406 226.730469 L 364.003906 226.789063 L 363.945313 226.851563 L 363.890625 226.910156 L 363.832031 226.972656 L 363.777344 227.03125 L 363.726563 227.09375 L 363.671875 227.15625 L 363.570313 227.28125 L 363.523438 227.339844 L 363.4375 227.464844 L 363.398438 227.53125 L 363.359375 227.59375 L 363.324219 227.660156 L 363.289063 227.722656 L 363.257813 227.789063 L 363.230469 227.855469 L 367.535156 227.855469 L 367.535156 228.753906 Z M 362.070313 228.753906 "/>
<path style=" stroke:none;fill-rule:nonzero;fill:rgb(30.196078%,30.196078%,30.196078%);fill-opacity:1;" d="M 478.058594 226.882813 L 478.058594 228.753906 L 477.0625 228.753906 L 477.0625 226.882813 L 473.171875 226.882813 L 473.171875 226.0625 L 476.953125 220.496094 L 478.058594 220.496094 L 478.058594 226.050781 L 479.21875 226.050781 L 479.21875 226.882813 Z M 477.0625 221.6875 L 477.058594 221.695313 L 477.058594 221.699219 L 477.054688 221.710938 L 477.046875 221.71875 L 477.042969 221.730469 L 477.035156 221.742188 L 477.03125 221.757813 L 477.023438 221.769531 L 477.011719 221.789063 L 476.996094 221.820313 L 476.984375 221.839844 L 476.976563 221.855469 L 476.964844 221.875 L 476.953125 221.890625 L 476.945313 221.910156 L 476.921875 221.949219 L 476.910156 221.972656 L 476.886719 222.011719 L 476.875 222.035156 L 476.863281 222.054688 L 476.851563 222.078125 L 476.839844 222.097656 L 476.828125 222.121094 L 476.8125 222.140625 L 476.789063 222.1875 L 476.777344 222.207031 L 476.765625 222.230469 L 476.730469 222.289063 L 476.71875 222.304688 L 476.710938 222.324219 L 476.699219 222.339844 L 476.691406 222.355469 L 476.679688 222.371094 L 476.671875 222.382813 L 474.554688 225.5 L 474.550781 225.511719 L 474.542969 225.519531 L 474.519531 225.554688 L 474.507813 225.566406 L 474.5 225.582031 L 474.488281 225.59375 L 474.480469 225.609375 L 474.433594 225.671875 L 474.425781 225.6875 L 474.261719 225.90625 L 474.25 225.917969 L 474.214844 225.964844 L 474.207031 225.976563 L 474.195313 225.992188 L 474.1875 226.003906 L 474.167969 226.023438 L 474.160156 226.035156 L 474.144531 226.050781 L 477.0625 226.050781 Z M 477.0625 221.6875 "/>
<path style=" stroke:none;fill-rule:nonzero;fill:rgb(0%,0%,0%);fill-opacity:1;" d="M 255.074219 243.617188 L 253.351563 240.9375 L 251.617188 243.617188 L 249.574219 243.617188 L 252.28125 239.792969 L 249.703125 236.21875 L 251.773438 236.21875 L 253.351563 238.640625 L 254.925781 236.21875 L 257.011719 236.21875 L 254.433594 239.773438 L 257.160156 243.617188 Z M 255.074219 243.617188 "/>
</g>
</svg>
