<?xml version="1.0" encoding="UTF-8"?>
<svg xmlns="http://www.w3.org/2000/svg" xmlns:xlink="http://www.w3.org/1999/xlink" width="432" height="288" viewBox="0 0 432 288">
<defs>
<clipPath id="clip-0">
<path clip-rule="nonzero" d="M 8.21875 5.480469 L 426.519531 5.480469 L 426.519531 279.78125 L 8.21875 279.78125 Z M 8.21875 5.480469 "/>
</clipPath>
<clipPath id="clip-1">
<path clip-rule="nonzero" d="M 8.21875 242 L 426.519531 242 L 426.519531 243 L 8.21875 243 Z M 8.21875 242 "/>
</clipPath>
<clipPath id="clip-2">
<path clip-rule="nonzero" d="M 8.21875 192 L 426.519531 192 L 426.519531 193 L 8.21875 193 Z M 8.21875 192 "/>
</clipPath>
<clipPath id="clip-3">
<path clip-rule="nonzero" d="M 8.21875 142 L 426.519531 142 L 426.519531 143 L 8.21875 143 Z M 8.21875 142 "/>
</clipPath>
<clipPath id="clip-4">
<path clip-rule="nonzero" d="M 8.21875 92 L 426.519531 92 L 426.519531 94 L 8.21875 94 Z M 8.21875 92 "/>
</clipPath>
<clipPath id="clip-5">
<path clip-rule="nonzero" d="M 8.21875 42 L 426.519531 42 L 426.519531 44 L 8.21875 44 Z M 8.21875 42 "/>
</clipPath>
<clipPath id="clip-6">
<path clip-rule="nonzero" d="M 94 5.480469 L 96 5.480469 L 96 279.78125 L 94 279.78125 Z M 94 5.480469 "/>
</clipPath>
<clipPath id="clip-7">
<path clip-rule="nonzero" d="M 230 5.480469 L 232 5.480469 L 232 279.78125 L 230 279.78125 Z M 230 5.480469 "/>
</clipPath>
<clipPath id="clip-8">
<path clip-rule="nonzero" d="M 366 5.480469 L 368 5.480469 L 368 279.78125 L 366 279.78125 Z M 366 5.480469 "/>
</clipPath>
<clipPath id="clip-9">
<path clip-rule="nonzero" d="M 8.21875 266 L 426.519531 266 L 426.519531 268 L 8.21875 268 Z M 8.21875 266 "/>
</clipPath>
<clipPath id="clip-10">
<path clip-rule="nonzero" d="M 8.21875 216 L 426.519531 216 L 426.519531 218 L 8.21875 218 Z M 8.21875 216 "/>
</clipPath>
<clipPath id="clip-11">
<path clip-rule="nonzero" d="M 8.21875 167 L 426.519531 167 L 426.519531 169 L 8.21875 169 Z M 8.21875 167 "/>
</clipPath>
<clipPath id="clip-12">
<path clip-rule="nonzero" d="M 8.21875 117 L 426.519531 117 L 426.519531 119 L 8.21875 119 Z M 8.21875 117 "/>
</clipPath>
<clipPath id="clip-13">
<path clip-rule="nonzero" d="M 8.21875 67 L 426.519531 67 L 426.519531 69 L 8.21875 69 Z M 8.21875 67 "/>
</clipPath>
<clipPath id="clip-14">
<path clip-rule="nonzero" d="M 8.21875 17 L 426.519531 17 L 426.519531 19 L 8.21875 19 Z M 8.21875 17 "/>
</clipPath>
<clipPath id="clip-15">
<path clip-rule="nonzero" d="M 26 5.480469 L 28 5.480469 L 28 279.78125 L 26 279.78125 Z M 26 5.480469 "/>
</clipPath>
<clipPath id="clip-16">
<path clip-rule="nonzero" d="M 162 5.480469 L 164 5.480469 L 164 279.78125 L 162 279.78125 Z M 162 5.480469 "/>
</clipPath>
<clipPath id="clip-17">
<path clip-rule="nonzero" d="M 298 5.480469 L 300 5.480469 L 300 279.78125 L 298 279.78125 Z M 298 5.480469 "/>
</clipPath>
<clipPath id="clip-18">
<path clip-rule="nonzero" d="M 216 5.480469 L 221 5.480469 L 221 279.78125 L 216 279.78125 Z M 216 5.480469 "/>
</clipPath>
</defs>
<rect x="-43.2" y="-28.8" width="518.4" height="345.6" fill="rgb(100%, 100%, 100%)" fill-opacity="1"/>
<rect x="-43.2" y="-28.8" width="518.4" height="345.6" fill="rgb(100%, 100%, 100%)" fill-opacity="1"/>
<path fill="none" stroke-width="1.066978" stroke-linecap="round" stroke-linejoin="round" stroke="rgb(100%, 100%, 100%)" stroke-opacity="1" stroke-miterlimit="10" d="M 0 288 L 432 288 L 432 0 L 0 0 Z M 0 288 "/>
<g clip-path="url(#clip-0)">
<path fill-rule="nonzero" fill="rgb(92.156863%, 92.156863%, 92.156863%)" fill-opacity="1" d="M 8.21875 279.78125 L 426.519531 279.78125 L 426.519531 5.480469 L 8.21875 5.480469 Z M 8.21875 279.78125 "/>
</g>
<g clip-path="url(#clip-1)">
<path fill="none" stroke-width="0.533489" stroke-linecap="butt" stroke-linejoin="round" stroke="rgb(100%, 100%, 100%)" stroke-opacity="1" stroke-miterlimit="10" d="M 8.21875 242.375 L 426.519531 242.375 "/>
</g>
<g clip-path="url(#clip-2)">
<path fill="none" stroke-width="0.533489" stroke-linecap="butt" stroke-linejoin="round" stroke="rgb(100%, 100%, 100%)" stroke-opacity="1" stroke-miterlimit="10" d="M 8.21875 192.503906 L 426.519531 192.503906 "/>
</g>
<g clip-path="url(#clip-3)">
<path fill="none" stroke-width="0.533489" stroke-linecap="butt" stroke-linejoin="round" stroke="rgb(100%, 100%, 100%)" stroke-opacity="1" stroke-miterlimit="10" d="M 8.21875 142.628906 L 426.519531 142.628906 "/>
</g>
<g clip-path="url(#clip-4)">
<path fill="none" stroke-width="0.533489" stroke-linecap="butt" stroke-linejoin="round" stroke="rgb(100%, 100%, 100%)" stroke-opacity="1" stroke-miterlimit="10" d="M 8.21875 92.757812 L 426.519531 92.757812 "/>
</g>
<g clip-path="url(#clip-5)">
<path fill="none" stroke-width="0.533489" stroke-linecap="butt" stroke-linejoin="round" stroke="rgb(100%, 100%, 100%)" stroke-opacity="1" stroke-miterlimit="10" d="M 8.21875 42.882812 L 426.519531 42.882812 "/>
</g>
<g clip-path="url(#clip-6)">
<path fill="none" stroke-width="0.533489" stroke-linecap="butt" stroke-linejoin="round" stroke="rgb(100%, 100%, 100%)" stroke-opacity="1" stroke-miterlimit="10" d="M 95.140625 279.78125 L 95.140625 5.480469 "/>
</g>
<g clip-path="url(#clip-7)">
<path fill="none" stroke-width="0.533489" stroke-linecap="butt" stroke-linejoin="round" stroke="rgb(100%, 100%, 100%)" stroke-opacity="1" stroke-miterlimit="10" d="M 230.949219 279.78125 L 230.949219 5.480469 "/>
</g>
<g clip-path="url(#clip-8)">
<path fill="none" stroke-width="0.533489" stroke-linecap="butt" stroke-linejoin="round" stroke="rgb(100%, 100%, 100%)" stroke-opacity="1" stroke-miterlimit="10" d="M 366.761719 279.78125 L 366.761719 5.480469 "/>
</g>
<g clip-path="url(#clip-9)">
<path fill="none" stroke-width="1.066978" stroke-linecap="butt" stroke-linejoin="round" stroke="rgb(100%, 100%, 100%)" stroke-opacity="1" stroke-miterlimit="10" d="M 8.21875 267.3125 L 426.519531 267.3125 "/>
</g>
<g clip-path="url(#clip-10)">
<path fill="none" stroke-width="1.066978" stroke-linecap="butt" stroke-linejoin="round" stroke="rgb(100%, 100%, 100%)" stroke-opacity="1" stroke-miterlimit="10" d="M 8.21875 217.441406 L 426.519531 217.441406 "/>
</g>
<g clip-path="url(#clip-11)">
<path fill="none" stroke-width="1.066978" stroke-linecap="butt" stroke-linejoin="round" stroke="rgb(100%, 100%, 100%)" stroke-opacity="1" stroke-miterlimit="10" d="M 8.21875 167.566406 L 426.519531 167.566406 "/>
</g>
<g clip-path="url(#clip-12)">
<path fill="none" stroke-width="1.066978" stroke-linecap="butt" stroke-linejoin="round" stroke="rgb(100%, 100%, 100%)" stroke-opacity="1" stroke-miterlimit="10" d="M 8.21875 117.695312 L 426.519531 117.695312 "/>
</g>
<g clip-path="url(#clip-13)">
<path fill="none" stroke-width="1.066978" stroke-linecap="butt" stroke-linejoin="round" stroke="rgb(100%, 100%, 100%)" stroke-opacity="1" stroke-miterlimit="10" d="M 8.21875 67.820312 L 426.519531 67.820312 "/>
</g>
<g clip-path="url(#clip-14)">
<path fill="none" stroke-width="1.066978" stroke-linecap="butt" stroke-linejoin="round" stroke="rgb(100%, 100%, 100%)" stroke-opacity="1" stroke-miterlimit="10" d="M 8.21875 17.949219 L 426.519531 17.949219 "/>
</g>
<g clip-path="url(#clip-15)">
<path fill="none" stroke-width="1.066978" stroke-linecap="butt" stroke-linejoin="round" stroke="rgb(100%, 100%, 100%)" stroke-opacity="1" stroke-miterlimit="10" d="M 27.234375 279.78125 L 27.234375 5.480469 "/>
</g>
<g clip-path="url(#clip-16)">
<path fill="none" stroke-width="1.066978" stroke-linecap="butt" stroke-linejoin="round" stroke="rgb(100%, 100%, 100%)" stroke-opacity="1" stroke-miterlimit="10" d="M 163.046875 279.78125 L 163.046875 5.480469 "/>
</g>
<g clip-path="url(#clip-17)">
<path fill="none" stroke-width="1.066978" stroke-linecap="butt" stroke-linejoin="round" stroke="rgb(100%, 100%, 100%)" stroke-opacity="1" stroke-miterlimit="10" d="M 298.855469 279.78125 L 298.855469 5.480469 "/>
</g>
<path fill="none" stroke-width="1.066978" stroke-linecap="butt" stroke-linejoin="miter" stroke="rgb(9.803922%, 25.882353%, 29.803922%)" stroke-opacity="1" stroke-miterlimit="10" d="M 29.949219 267.3125 L 35.382812 267.3125 Z M 29.949219 267.3125 "/>
<path fill="none" stroke-width="1.066978" stroke-linecap="butt" stroke-linejoin="miter" stroke="rgb(9.803922%, 25.882353%, 29.803922%)" stroke-opacity="1" stroke-miterlimit="10" d="M 35.382812 267.3125 L 40.816406 267.3125 Z M 35.382812 267.3125 "/>
<path fill="none" stroke-width="1.066978" stroke-linecap="butt" stroke-linejoin="miter" stroke="rgb(9.803922%, 25.882353%, 29.803922%)" stroke-opacity="1" stroke-miterlimit="10" d="M 40.8125 267.3125 L 46.246094 267.3125 Z M 40.8125 267.3125 "/>
<path fill="none" stroke-width="1.066978" stroke-linecap="butt" stroke-linejoin="miter" stroke="rgb(9.803922%, 25.882353%, 29.803922%)" stroke-opacity="1" stroke-miterlimit="10" d="M 46.246094 267.3125 L 51.679688 267.3125 Z M 46.246094 267.3125 "/>
<path fill="none" stroke-width="1.066978" stroke-linecap="butt" stroke-linejoin="miter" stroke="rgb(9.803922%, 25.882353%, 29.803922%)" stroke-opacity="1" stroke-miterlimit="10" d="M 51.679688 267.3125 L 57.113281 267.3125 Z M 51.679688 267.3125 "/>
<path fill="none" stroke-width="1.066978" stroke-linecap="butt" stroke-linejoin="miter" stroke="rgb(9.803922%, 25.882353%, 29.803922%)" stroke-opacity="1" stroke-miterlimit="10" d="M 57.113281 267.3125 L 62.546875 267.3125 Z M 57.113281 267.3125 "/>
<path fill="none" stroke-width="1.066978" stroke-linecap="butt" stroke-linejoin="miter" stroke="rgb(9.803922%, 25.882353%, 29.803922%)" stroke-opacity="1" stroke-miterlimit="10" d="M 62.542969 267.3125 L 67.976562 267.3125 Z M 62.542969 267.3125 "/>
<path fill="none" stroke-width="1.066978" stroke-linecap="butt" stroke-linejoin="miter" stroke="rgb(9.803922%, 25.882353%, 29.803922%)" stroke-opacity="1" stroke-miterlimit="10" d="M 67.976562 267.3125 L 73.410156 267.3125 Z M 67.976562 267.3125 "/>
<path fill="none" stroke-width="1.066978" stroke-linecap="butt" stroke-linejoin="miter" stroke="rgb(9.803922%, 25.882353%, 29.803922%)" stroke-opacity="1" stroke-miterlimit="10" d="M 73.410156 267.3125 L 78.84375 267.3125 Z M 73.410156 267.3125 "/>
<path fill="none" stroke-width="1.066978" stroke-linecap="butt" stroke-linejoin="miter" stroke="rgb(9.803922%, 25.882353%, 29.803922%)" stroke-opacity="1" stroke-miterlimit="10" d="M 78.839844 267.3125 L 84.273438 267.3125 Z M 78.839844 267.3125 "/>
<path fill-rule="nonzero" fill="rgb(29.803922%, 63.921569%, 51.764706%)" fill-opacity="1" stroke-width="1.066978" stroke-linecap="butt" stroke-linejoin="miter" stroke="rgb(9.803922%, 25.882353%, 29.803922%)" stroke-opacity="1" stroke-miterlimit="10" d="M 84.273438 267.3125 L 89.707031 267.3125 L 89.707031 247.363281 L 84.273438 247.363281 Z M 84.273438 267.3125 "/>
<path fill="none" stroke-width="1.066978" stroke-linecap="butt" stroke-linejoin="miter" stroke="rgb(9.803922%, 25.882353%, 29.803922%)" stroke-opacity="1" stroke-miterlimit="10" d="M 89.707031 267.3125 L 95.140625 267.3125 Z M 89.707031 267.3125 "/>
<path fill="none" stroke-width="1.066978" stroke-linecap="butt" stroke-linejoin="miter" stroke="rgb(9.803922%, 25.882353%, 29.803922%)" stroke-opacity="1" stroke-miterlimit="10" d="M 95.140625 267.3125 L 100.574219 267.3125 Z M 95.140625 267.3125 "/>
<path fill="none" stroke-width="1.066978" stroke-linecap="butt" stroke-linejoin="miter" stroke="rgb(9.803922%, 25.882353%, 29.803922%)" stroke-opacity="1" stroke-miterlimit="10" d="M 100.570312 267.3125 L 106.003906 267.3125 Z M 100.570312 267.3125 "/>
<path fill="none" stroke-width="1.066978" stroke-linecap="butt" stroke-linejoin="miter" stroke="rgb(9.803922%, 25.882353%, 29.803922%)" stroke-opacity="1" stroke-miterlimit="10" d="M 106.003906 267.3125 L 111.4375 267.3125 Z M 106.003906 267.3125 "/>
<path fill-rule="nonzero" fill="rgb(29.803922%, 63.921569%, 51.764706%)" fill-opacity="1" stroke-width="1.066978" stroke-linecap="butt" stroke-linejoin="miter" stroke="rgb(9.803922%, 25.882353%, 29.803922%)" stroke-opacity="1" stroke-miterlimit="10" d="M 111.4375 267.3125 L 116.871094 267.3125 L 116.871094 247.363281 L 111.4375 247.363281 Z M 111.4375 267.3125 "/>
<path fill-rule="nonzero" fill="rgb(29.803922%, 63.921569%, 51.764706%)" fill-opacity="1" stroke-width="1.066978" stroke-linecap="butt" stroke-linejoin="miter" stroke="rgb(9.803922%, 25.882353%, 29.803922%)" stroke-opacity="1" stroke-miterlimit="10" d="M 116.867188 267.3125 L 122.300781 267.3125 L 122.300781 257.339844 L 116.867188 257.339844 Z M 116.867188 267.3125 "/>
<path fill-rule="nonzero" fill="rgb(29.803922%, 63.921569%, 51.764706%)" fill-opacity="1" stroke-width="1.066978" stroke-linecap="butt" stroke-linejoin="miter" stroke="rgb(9.803922%, 25.882353%, 29.803922%)" stroke-opacity="1" stroke-miterlimit="10" d="M 122.300781 267.3125 L 127.734375 267.3125 L 127.734375 237.390625 L 122.300781 237.390625 Z M 122.300781 267.3125 "/>
<path fill-rule="nonzero" fill="rgb(29.803922%, 63.921569%, 51.764706%)" fill-opacity="1" stroke-width="1.066978" stroke-linecap="butt" stroke-linejoin="miter" stroke="rgb(9.803922%, 25.882353%, 29.803922%)" stroke-opacity="1" stroke-miterlimit="10" d="M 127.734375 267.3125 L 133.167969 267.3125 L 133.167969 207.464844 L 127.734375 207.464844 Z M 127.734375 267.3125 "/>
<path fill-rule="nonzero" fill="rgb(29.803922%, 63.921569%, 51.764706%)" fill-opacity="1" stroke-width="1.066978" stroke-linecap="butt" stroke-linejoin="miter" stroke="rgb(9.803922%, 25.882353%, 29.803922%)" stroke-opacity="1" stroke-miterlimit="10" d="M 133.167969 267.3125 L 138.601562 267.3125 L 138.601562 247.363281 L 133.167969 247.363281 Z M 133.167969 267.3125 "/>
<path fill-rule="nonzero" fill="rgb(29.803922%, 63.921569%, 51.764706%)" fill-opacity="1" stroke-width="1.066978" stroke-linecap="butt" stroke-linejoin="miter" stroke="rgb(9.803922%, 25.882353%, 29.803922%)" stroke-opacity="1" stroke-miterlimit="10" d="M 138.597656 267.3125 L 144.03125 267.3125 L 144.03125 207.464844 L 138.597656 207.464844 Z M 138.597656 267.3125 "/>
<path fill-rule="nonzero" fill="rgb(29.803922%, 63.921569%, 51.764706%)" fill-opacity="1" stroke-width="1.066978" stroke-linecap="butt" stroke-linejoin="miter" stroke="rgb(9.803922%, 25.882353%, 29.803922%)" stroke-opacity="1" stroke-miterlimit="10" d="M 144.03125 267.3125 L 149.464844 267.3125 L 149.464844 227.414062 L 144.03125 227.414062 Z M 144.03125 267.3125 "/>
<path fill-rule="nonzero" fill="rgb(29.803922%, 63.921569%, 51.764706%)" fill-opacity="1" stroke-width="1.066978" stroke-linecap="butt" stroke-linejoin="miter" stroke="rgb(9.803922%, 25.882353%, 29.803922%)" stroke-opacity="1" stroke-miterlimit="10" d="M 149.464844 267.3125 L 154.898438 267.3125 L 154.898438 227.414062 L 149.464844 227.414062 Z M 149.464844 267.3125 "/>
<path fill-rule="nonzero" fill="rgb(29.803922%, 63.921569%, 51.764706%)" fill-opacity="1" stroke-width="1.066978" stroke-linecap="butt" stroke-linejoin="miter" stroke="rgb(9.803922%, 25.882353%, 29.803922%)" stroke-opacity="1" stroke-miterlimit="10" d="M 154.894531 267.3125 L 160.328125 267.3125 L 160.328125 257.339844 L 154.894531 257.339844 Z M 154.894531 267.3125 "/>
<path fill-rule="nonzero" fill="rgb(29.803922%, 63.921569%, 51.764706%)" fill-opacity="1" stroke-width="1.066978" stroke-linecap="butt" stroke-linejoin="miter" stroke="rgb(9.803922%, 25.882353%, 29.803922%)" stroke-opacity="1" stroke-miterlimit="10" d="M 160.328125 267.3125 L 165.761719 267.3125 L 165.761719 197.492188 L 160.328125 197.492188 Z M 160.328125 267.3125 "/>
<path fill-rule="nonzero" fill="rgb(29.803922%, 63.921569%, 51.764706%)" fill-opacity="1" stroke-width="1.066978" stroke-linecap="butt" stroke-linejoin="miter" stroke="rgb(9.803922%, 25.882353%, 29.803922%)" stroke-opacity="1" stroke-miterlimit="10" d="M 165.761719 267.3125 L 171.195312 267.3125 L 171.195312 237.390625 L 165.761719 237.390625 Z M 165.761719 267.3125 "/>
<path fill-rule="nonzero" fill="rgb(29.803922%, 63.921569%, 51.764706%)" fill-opacity="1" stroke-width="1.066978" stroke-linecap="butt" stroke-linejoin="miter" stroke="rgb(9.803922%, 25.882353%, 29.803922%)" stroke-opacity="1" stroke-miterlimit="10" d="M 171.195312 267.3125 L 176.628906 267.3125 L 176.628906 217.441406 L 171.195312 217.441406 Z M 171.195312 267.3125 "/>
<path fill-rule="nonzero" fill="rgb(29.803922%, 63.921569%, 51.764706%)" fill-opacity="1" stroke-width="1.066978" stroke-linecap="butt" stroke-linejoin="miter" stroke="rgb(9.803922%, 25.882353%, 29.803922%)" stroke-opacity="1" stroke-miterlimit="10" d="M 176.625 267.3125 L 182.058594 267.3125 L 182.058594 237.390625 L 176.625 237.390625 Z M 176.625 267.3125 "/>
<path fill-rule="nonzero" fill="rgb(29.803922%, 63.921569%, 51.764706%)" fill-opacity="1" stroke-width="1.066978" stroke-linecap="butt" stroke-linejoin="miter" stroke="rgb(9.803922%, 25.882353%, 29.803922%)" stroke-opacity="1" stroke-miterlimit="10" d="M 182.058594 267.3125 L 187.492188 267.3125 L 187.492188 217.441406 L 182.058594 217.441406 Z M 182.058594 267.3125 "/>
<path fill-rule="nonzero" fill="rgb(29.803922%, 63.921569%, 51.764706%)" fill-opacity="1" stroke-width="1.066978" stroke-linecap="butt" stroke-linejoin="miter" stroke="rgb(9.803922%, 25.882353%, 29.803922%)" stroke-opacity="1" stroke-miterlimit="10" d="M 187.492188 267.3125 L 192.925781 267.3125 L 192.925781 157.59375 L 187.492188 157.59375 Z M 187.492188 267.3125 "/>
<path fill-rule="nonzero" fill="rgb(29.803922%, 63.921569%, 51.764706%)" fill-opacity="1" stroke-width="1.066978" stroke-linecap="butt" stroke-linejoin="miter" stroke="rgb(9.803922%, 25.882353%, 29.803922%)" stroke-opacity="1" stroke-miterlimit="10" d="M 192.921875 267.3125 L 198.355469 267.3125 L 198.355469 197.492188 L 192.921875 197.492188 Z M 192.921875 267.3125 "/>
<path fill-rule="nonzero" fill="rgb(29.803922%, 63.921569%, 51.764706%)" fill-opacity="1" stroke-width="1.066978" stroke-linecap="butt" stroke-linejoin="miter" stroke="rgb(9.803922%, 25.882353%, 29.803922%)" stroke-opacity="1" stroke-miterlimit="10" d="M 198.355469 267.3125 L 203.789062 267.3125 L 203.789062 167.566406 L 198.355469 167.566406 Z M 198.355469 267.3125 "/>
<path fill-rule="nonzero" fill="rgb(29.803922%, 63.921569%, 51.764706%)" fill-opacity="1" stroke-width="1.066978" stroke-linecap="butt" stroke-linejoin="miter" stroke="rgb(9.803922%, 25.882353%, 29.803922%)" stroke-opacity="1" stroke-miterlimit="10" d="M 203.789062 267.3125 L 209.222656 267.3125 L 209.222656 227.414062 L 203.789062 227.414062 Z M 203.789062 267.3125 "/>
<path fill-rule="nonzero" fill="rgb(29.803922%, 63.921569%, 51.764706%)" fill-opacity="1" stroke-width="1.066978" stroke-linecap="butt" stroke-linejoin="miter" stroke="rgb(9.803922%, 25.882353%, 29.803922%)" stroke-opacity="1" stroke-miterlimit="10" d="M 209.222656 267.3125 L 214.65625 267.3125 L 214.65625 167.566406 L 209.222656 167.566406 Z M 209.222656 267.3125 "/>
<path fill-rule="nonzero" fill="rgb(29.803922%, 63.921569%, 51.764706%)" fill-opacity="1" stroke-width="1.066978" stroke-linecap="butt" stroke-linejoin="miter" stroke="rgb(9.803922%, 25.882353%, 29.803922%)" stroke-opacity="1" stroke-miterlimit="10" d="M 214.652344 267.3125 L 220.085938 267.3125 L 220.085938 197.492188 L 214.652344 197.492188 Z M 214.652344 267.3125 "/>
<path fill-rule="nonzero" fill="rgb(29.803922%, 63.921569%, 51.764706%)" fill-opacity="1" stroke-width="1.066978" stroke-linecap="butt" stroke-linejoin="miter" stroke="rgb(9.803922%, 25.882353%, 29.803922%)" stroke-opacity="1" stroke-miterlimit="10" d="M 220.085938 267.3125 L 225.519531 267.3125 L 225.519531 167.566406 L 220.085938 167.566406 Z M 220.085938 267.3125 "/>
<path fill-rule="nonzero" fill="rgb(29.803922%, 63.921569%, 51.764706%)" fill-opacity="1" stroke-width="1.066978" stroke-linecap="butt" stroke-linejoin="miter" stroke="rgb(9.803922%, 25.882353%, 29.803922%)" stroke-opacity="1" stroke-miterlimit="10" d="M 225.519531 267.3125 L 230.953125 267.3125 L 230.953125 157.59375 L 225.519531 157.59375 Z M 225.519531 267.3125 "/>
<path fill-rule="nonzero" fill="rgb(29.803922%, 63.921569%, 51.764706%)" fill-opacity="1" stroke-width="1.066978" stroke-linecap="butt" stroke-linejoin="miter" stroke="rgb(9.803922%, 25.882353%, 29.803922%)" stroke-opacity="1" stroke-miterlimit="10" d="M 230.949219 267.3125 L 236.382812 267.3125 L 236.382812 197.492188 L 230.949219 197.492188 Z M 230.949219 267.3125 "/>
<path fill-rule="nonzero" fill="rgb(29.803922%, 63.921569%, 51.764706%)" fill-opacity="1" stroke-width="1.066978" stroke-linecap="butt" stroke-linejoin="miter" stroke="rgb(9.803922%, 25.882353%, 29.803922%)" stroke-opacity="1" stroke-miterlimit="10" d="M 236.382812 267.3125 L 241.816406 267.3125 L 241.816406 177.542969 L 236.382812 177.542969 Z M 236.382812 267.3125 "/>
<path fill-rule="nonzero" fill="rgb(29.803922%, 63.921569%, 51.764706%)" fill-opacity="1" stroke-width="1.066978" stroke-linecap="butt" stroke-linejoin="miter" stroke="rgb(9.803922%, 25.882353%, 29.803922%)" stroke-opacity="1" stroke-miterlimit="10" d="M 241.816406 267.3125 L 247.25 267.3125 L 247.25 217.441406 L 241.816406 217.441406 Z M 241.816406 267.3125 "/>
<path fill-rule="nonzero" fill="rgb(29.803922%, 63.921569%, 51.764706%)" fill-opacity="1" stroke-width="1.066978" stroke-linecap="butt" stroke-linejoin="miter" stroke="rgb(9.803922%, 25.882353%, 29.803922%)" stroke-opacity="1" stroke-miterlimit="10" d="M 247.25 267.3125 L 252.683594 267.3125 L 252.683594 217.441406 L 247.25 217.441406 Z M 247.25 267.3125 "/>
<path fill-rule="nonzero" fill="rgb(29.803922%, 63.921569%, 51.764706%)" fill-opacity="1" stroke-width="1.066978" stroke-linecap="butt" stroke-linejoin="miter" stroke="rgb(9.803922%, 25.882353%, 29.803922%)" stroke-opacity="1" stroke-miterlimit="10" d="M 252.679688 267.3125 L 258.113281 267.3125 L 258.113281 197.492188 L 252.679688 197.492188 Z M 252.679688 267.3125 "/>
<path fill-rule="nonzero" fill="rgb(29.803922%, 63.921569%, 51.764706%)" fill-opacity="1" stroke-width="1.066978" stroke-linecap="butt" stroke-linejoin="miter" stroke="rgb(9.803922%, 25.882353%, 29.803922%)" stroke-opacity="1" stroke-miterlimit="10" d="M 258.113281 267.3125 L 263.546875 267.3125 L 263.546875 247.363281 L 258.113281 247.363281 Z M 258.113281 267.3125 "/>
<path fill-rule="nonzero" fill="rgb(29.803922%, 63.921569%, 51.764706%)" fill-opacity="1" stroke-width="1.066978" stroke-linecap="butt" stroke-linejoin="miter" stroke="rgb(9.803922%, 25.882353%, 29.803922%)" stroke-opacity="1" stroke-miterlimit="10" d="M 263.546875 267.3125 L 268.980469 267.3125 L 268.980469 227.414062 L 263.546875 227.414062 Z M 263.546875 267.3125 "/>
<path fill-rule="nonzero" fill="rgb(29.803922%, 63.921569%, 51.764706%)" fill-opacity="1" stroke-width="1.066978" stroke-linecap="butt" stroke-linejoin="miter" stroke="rgb(9.803922%, 25.882353%, 29.803922%)" stroke-opacity="1" stroke-miterlimit="10" d="M 268.976562 267.3125 L 274.410156 267.3125 L 274.410156 217.441406 L 268.976562 217.441406 Z M 268.976562 267.3125 "/>
<path fill-rule="nonzero" fill="rgb(29.803922%, 63.921569%, 51.764706%)" fill-opacity="1" stroke-width="1.066978" stroke-linecap="butt" stroke-linejoin="miter" stroke="rgb(9.803922%, 25.882353%, 29.803922%)" stroke-opacity="1" stroke-miterlimit="10" d="M 274.410156 267.3125 L 279.84375 267.3125 L 279.84375 257.339844 L 274.410156 257.339844 Z M 274.410156 267.3125 "/>
<path fill-rule="nonzero" fill="rgb(29.803922%, 63.921569%, 51.764706%)" fill-opacity="1" stroke-width="1.066978" stroke-linecap="butt" stroke-linejoin="miter" stroke="rgb(9.803922%, 25.882353%, 29.803922%)" stroke-opacity="1" stroke-miterlimit="10" d="M 279.84375 267.3125 L 285.277344 267.3125 L 285.277344 217.441406 L 279.84375 217.441406 Z M 279.84375 267.3125 "/>
<path fill-rule="nonzero" fill="rgb(29.803922%, 63.921569%, 51.764706%)" fill-opacity="1" stroke-width="1.066978" stroke-linecap="butt" stroke-linejoin="miter" stroke="rgb(9.803922%, 25.882353%, 29.803922%)" stroke-opacity="1" stroke-miterlimit="10" d="M 285.277344 267.3125 L 290.710938 267.3125 L 290.710938 237.390625 L 285.277344 237.390625 Z M 285.277344 267.3125 "/>
<path fill-rule="nonzero" fill="rgb(29.803922%, 63.921569%, 51.764706%)" fill-opacity="1" stroke-width="1.066978" stroke-linecap="butt" stroke-linejoin="miter" stroke="rgb(9.803922%, 25.882353%, 29.803922%)" stroke-opacity="1" stroke-miterlimit="10" d="M 290.707031 267.3125 L 296.140625 267.3125 L 296.140625 217.441406 L 290.707031 217.441406 Z M 290.707031 267.3125 "/>
<path fill-rule="nonzero" fill="rgb(29.803922%, 63.921569%, 51.764706%)" fill-opacity="1" stroke-width="1.066978" stroke-linecap="butt" stroke-linejoin="miter" stroke="rgb(9.803922%, 25.882353%, 29.803922%)" stroke-opacity="1" stroke-miterlimit="10" d="M 296.140625 267.3125 L 301.574219 267.3125 L 301.574219 247.363281 L 296.140625 247.363281 Z M 296.140625 267.3125 "/>
<path fill="none" stroke-width="1.066978" stroke-linecap="butt" stroke-linejoin="miter" stroke="rgb(9.803922%, 25.882353%, 29.803922%)" stroke-opacity="1" stroke-miterlimit="10" d="M 301.574219 267.3125 L 307.007812 267.3125 Z M 301.574219 267.3125 "/>
<path fill-rule="nonzero" fill="rgb(29.803922%, 63.921569%, 51.764706%)" fill-opacity="1" stroke-width="1.066978" stroke-linecap="butt" stroke-linejoin="miter" stroke="rgb(9.803922%, 25.882353%, 29.803922%)" stroke-opacity="1" stroke-miterlimit="10" d="M 307.007812 267.3125 L 312.441406 267.3125 L 312.441406 227.414062 L 307.007812 227.414062 Z M 307.007812 267.3125 "/>
<path fill-rule="nonzero" fill="rgb(29.803922%, 63.921569%, 51.764706%)" fill-opacity="1" stroke-width="1.066978" stroke-linecap="butt" stroke-linejoin="miter" stroke="rgb(9.803922%, 25.882353%, 29.803922%)" stroke-opacity="1" stroke-miterlimit="10" d="M 312.4375 267.3125 L 317.871094 267.3125 L 317.871094 237.390625 L 312.4375 237.390625 Z M 312.4375 267.3125 "/>
<path fill-rule="nonzero" fill="rgb(29.803922%, 63.921569%, 51.764706%)" fill-opacity="1" stroke-width="1.066978" stroke-linecap="butt" stroke-linejoin="miter" stroke="rgb(9.803922%, 25.882353%, 29.803922%)" stroke-opacity="1" stroke-miterlimit="10" d="M 317.871094 267.3125 L 323.304688 267.3125 L 323.304688 247.363281 L 317.871094 247.363281 Z M 317.871094 267.3125 "/>
<path fill-rule="nonzero" fill="rgb(29.803922%, 63.921569%, 51.764706%)" fill-opacity="1" stroke-width="1.066978" stroke-linecap="butt" stroke-linejoin="miter" stroke="rgb(9.803922%, 25.882353%, 29.803922%)" stroke-opacity="1" stroke-miterlimit="10" d="M 323.304688 267.3125 L 328.738281 267.3125 L 328.738281 257.339844 L 323.304688 257.339844 Z M 323.304688 267.3125 "/>
<path fill-rule="nonzero" fill="rgb(29.803922%, 63.921569%, 51.764706%)" fill-opacity="1" stroke-width="1.066978" stroke-linecap="butt" stroke-linejoin="miter" stroke="rgb(9.803922%, 25.882353%, 29.803922%)" stroke-opacity="1" stroke-miterlimit="10" d="M 328.734375 267.3125 L 334.167969 267.3125 L 334.167969 257.339844 L 328.734375 257.339844 Z M 328.734375 267.3125 "/>
<path fill-rule="nonzero" fill="rgb(29.803922%, 63.921569%, 51.764706%)" fill-opacity="1" stroke-width="1.066978" stroke-linecap="butt" stroke-linejoin="miter" stroke="rgb(9.803922%, 25.882353%, 29.803922%)" stroke-opacity="1" stroke-miterlimit="10" d="M 334.167969 267.3125 L 339.601562 267.3125 L 339.601562 257.339844 L 334.167969 257.339844 Z M 334.167969 267.3125 "/>
<path fill-rule="nonzero" fill="rgb(29.803922%, 63.921569%, 51.764706%)" fill-opacity="1" stroke-width="1.066978" stroke-linecap="butt" stroke-linejoin="miter" stroke="rgb(9.803922%, 25.882353%, 29.803922%)" stroke-opacity="1" stroke-miterlimit="10" d="M 339.601562 267.3125 L 345.035156 267.3125 L 345.035156 257.339844 L 339.601562 257.339844 Z M 339.601562 267.3125 "/>
<path fill-rule="nonzero" fill="rgb(29.803922%, 63.921569%, 51.764706%)" fill-opacity="1" stroke-width="1.066978" stroke-linecap="butt" stroke-linejoin="miter" stroke="rgb(9.803922%, 25.882353%, 29.803922%)" stroke-opacity="1" stroke-miterlimit="10" d="M 345.035156 267.3125 L 350.46875 267.3125 L 350.46875 257.339844 L 345.035156 257.339844 Z M 345.035156 267.3125 "/>
<path fill-rule="nonzero" fill="rgb(29.803922%, 63.921569%, 51.764706%)" fill-opacity="1" stroke-width="1.066978" stroke-linecap="butt" stroke-linejoin="miter" stroke="rgb(9.803922%, 25.882353%, 29.803922%)" stroke-opacity="1" stroke-miterlimit="10" d="M 350.464844 267.3125 L 355.898438 267.3125 L 355.898438 257.339844 L 350.464844 257.339844 Z M 350.464844 267.3125 "/>
<path fill="none" stroke-width="1.066978" stroke-linecap="butt" stroke-linejoin="miter" stroke="rgb(9.803922%, 25.882353%, 29.803922%)" stroke-opacity="1" stroke-miterlimit="10" d="M 355.898438 267.3125 L 361.332031 267.3125 Z M 355.898438 267.3125 "/>
<path fill="none" stroke-width="1.066978" stroke-linecap="butt" stroke-linejoin="miter" stroke="rgb(9.803922%, 25.882353%, 29.803922%)" stroke-opacity="1" stroke-miterlimit="10" d="M 361.332031 267.3125 L 366.765625 267.3125 Z M 361.332031 267.3125 "/>
<path fill="none" stroke-width="1.066978" stroke-linecap="butt" stroke-linejoin="miter" stroke="rgb(9.803922%, 25.882353%, 29.803922%)" stroke-opacity="1" stroke-miterlimit="10" d="M 366.761719 267.3125 L 372.195312 267.3125 Z M 366.761719 267.3125 "/>
<path fill="none" stroke-width="1.066978" stroke-linecap="butt" stroke-linejoin="miter" stroke="rgb(9.803922%, 25.882353%, 29.803922%)" stroke-opacity="1" stroke-miterlimit="10" d="M 372.195312 267.3125 L 377.628906 267.3125 Z M 372.195312 267.3125 "/>
<path fill="none" stroke-width="1.066978" stroke-linecap="butt" stroke-linejoin="miter" stroke="rgb(9.803922%, 25.882353%, 29.803922%)" stroke-opacity="1" stroke-miterlimit="10" d="M 377.628906 267.3125 L 383.0625 267.3125 Z M 377.628906 267.3125 "/>
<path fill="none" stroke-width="1.066978" stroke-linecap="butt" stroke-linejoin="miter" stroke="rgb(9.803922%, 25.882353%, 29.803922%)" stroke-opacity="1" stroke-miterlimit="10" d="M 383.0625 267.3125 L 388.496094 267.3125 Z M 383.0625 267.3125 "/>
<path fill="none" stroke-width="1.066978" stroke-linecap="butt" stroke-linejoin="miter" stroke="rgb(9.803922%, 25.882353%, 29.803922%)" stroke-opacity="1" stroke-miterlimit="10" d="M 388.492188 267.3125 L 393.925781 267.3125 Z M 388.492188 267.3125 "/>
<path fill="none" stroke-width="1.066978" stroke-linecap="butt" stroke-linejoin="miter" stroke="rgb(9.803922%, 25.882353%, 29.803922%)" stroke-opacity="1" stroke-miterlimit="10" d="M 393.925781 267.3125 L 399.359375 267.3125 Z M 393.925781 267.3125 "/>
<path fill="none" stroke-width="1.066978" stroke-linecap="butt" stroke-linejoin="miter" stroke="rgb(9.803922%, 25.882353%, 29.803922%)" stroke-opacity="1" stroke-miterlimit="10" d="M 399.359375 267.3125 L 404.792969 267.3125 Z M 399.359375 267.3125 "/>
<g clip-path="url(#clip-18)">
<path fill="none" stroke-width="3.200935" stroke-linecap="butt" stroke-linejoin="round" stroke="rgb(60.392157%, 81.568627%, 47.45098%)" stroke-opacity="1" stroke-miterlimit="10" d="M 218.511719 279.78125 L 218.511719 5.480469 "/>
</g>
</svg>
