<?xml version="1.0" encoding="UTF-8"?>
<svg xmlns="http://www.w3.org/2000/svg" xmlns:xlink="http://www.w3.org/1999/xlink" width="504pt" height="288pt" viewBox="0 0 504 288" version="1.1">
<defs>
<clipPath id="clip1">
  <path d="M 8.21875 5.480469 L 498.519531 5.480469 L 498.519531 264.503906 L 8.21875 264.503906 Z M 8.21875 5.480469 "/>
</clipPath>
<clipPath id="clip2">
  <path d="M 8.21875 223 L 498.519531 223 L 498.519531 224 L 8.21875 224 Z M 8.21875 223 "/>
</clipPath>
<clipPath id="clip3">
  <path d="M 8.21875 164 L 498.519531 164 L 498.519531 165 L 8.21875 165 Z M 8.21875 164 "/>
</clipPath>
<clipPath id="clip4">
  <path d="M 8.21875 105 L 498.519531 105 L 498.519531 106 L 8.21875 106 Z M 8.21875 105 "/>
</clipPath>
<clipPath id="clip5">
  <path d="M 8.21875 46 L 498.519531 46 L 498.519531 47 L 8.21875 47 Z M 8.21875 46 "/>
</clipPath>
<clipPath id="clip6">
  <path d="M 60 5.480469 L 62 5.480469 L 62 264.503906 L 60 264.503906 Z M 60 5.480469 "/>
</clipPath>
<clipPath id="clip7">
  <path d="M 161 5.480469 L 163 5.480469 L 163 264.503906 L 161 264.503906 Z M 161 5.480469 "/>
</clipPath>
<clipPath id="clip8">
  <path d="M 263 5.480469 L 264 5.480469 L 264 264.503906 L 263 264.503906 Z M 263 5.480469 "/>
</clipPath>
<clipPath id="clip9">
  <path d="M 364 5.480469 L 366 5.480469 L 366 264.503906 L 364 264.503906 Z M 364 5.480469 "/>
</clipPath>
<clipPath id="clip10">
  <path d="M 465 5.480469 L 467 5.480469 L 467 264.503906 L 465 264.503906 Z M 465 5.480469 "/>
</clipPath>
<clipPath id="clip11">
  <path d="M 8.21875 252 L 498.519531 252 L 498.519531 254 L 8.21875 254 Z M 8.21875 252 "/>
</clipPath>
<clipPath id="clip12">
  <path d="M 8.21875 193 L 498.519531 193 L 498.519531 195 L 8.21875 195 Z M 8.21875 193 "/>
</clipPath>
<clipPath id="clip13">
  <path d="M 8.21875 134 L 498.519531 134 L 498.519531 136 L 8.21875 136 Z M 8.21875 134 "/>
</clipPath>
<clipPath id="clip14">
  <path d="M 8.21875 75 L 498.519531 75 L 498.519531 77 L 8.21875 77 Z M 8.21875 75 "/>
</clipPath>
<clipPath id="clip15">
  <path d="M 8.21875 16 L 498.519531 16 L 498.519531 18 L 8.21875 18 Z M 8.21875 16 "/>
</clipPath>
<clipPath id="clip16">
  <path d="M 9 5.480469 L 11 5.480469 L 11 264.503906 L 9 264.503906 Z M 9 5.480469 "/>
</clipPath>
<clipPath id="clip17">
  <path d="M 111 5.480469 L 113 5.480469 L 113 264.503906 L 111 264.503906 Z M 111 5.480469 "/>
</clipPath>
<clipPath id="clip18">
  <path d="M 212 5.480469 L 214 5.480469 L 214 264.503906 L 212 264.503906 Z M 212 5.480469 "/>
</clipPath>
<clipPath id="clip19">
  <path d="M 313 5.480469 L 315 5.480469 L 315 264.503906 L 313 264.503906 Z M 313 5.480469 "/>
</clipPath>
<clipPath id="clip20">
  <path d="M 414 5.480469 L 416 5.480469 L 416 264.503906 L 414 264.503906 Z M 414 5.480469 "/>
</clipPath>
</defs>
<g id="surface409">
<rect x="0" y="0" width="504" height="288" style="fill:rgb(100%,100%,100%);fill-opacity:1;stroke:none;"/>
<rect x="0" y="0" width="504" height="288" style="fill:rgb(100%,100%,100%);fill-opacity:1;stroke:none;"/>
<path style="fill:none;stroke-width:1.066978;stroke-linecap:round;stroke-linejoin:round;stroke:rgb(100%,100%,100%);stroke-opacity:1;stroke-miterlimit:10;" d="M 0 288 L 504 288 L 504 0 L 0 0 Z M 0 288 "/>
<g clip-path="url(#clip1)" clip-rule="nonzero">
<path style=" stroke:none;fill-rule:nonzero;fill:rgb(92.156863%,92.156863%,92.156863%);fill-opacity:1;" d="M 8.21875 264.503906 L 498.519531 264.503906 L 498.519531 5.480469 L 8.21875 5.480469 Z M 8.21875 264.503906 "/>
</g>
<g clip-path="url(#clip2)" clip-rule="nonzero">
<path style="fill:none;stroke-width:0.533489;stroke-linecap:butt;stroke-linejoin:round;stroke:rgb(100%,100%,100%);stroke-opacity:1;stroke-miterlimit:10;" d="M 8.21875 223.296875 L 498.519531 223.296875 "/>
</g>
<g clip-path="url(#clip3)" clip-rule="nonzero">
<path style="fill:none;stroke-width:0.533489;stroke-linecap:butt;stroke-linejoin:round;stroke:rgb(100%,100%,100%);stroke-opacity:1;stroke-miterlimit:10;" d="M 8.21875 164.425781 L 498.519531 164.425781 "/>
</g>
<g clip-path="url(#clip4)" clip-rule="nonzero">
<path style="fill:none;stroke-width:0.533489;stroke-linecap:butt;stroke-linejoin:round;stroke:rgb(100%,100%,100%);stroke-opacity:1;stroke-miterlimit:10;" d="M 8.21875 105.558594 L 498.519531 105.558594 "/>
</g>
<g clip-path="url(#clip5)" clip-rule="nonzero">
<path style="fill:none;stroke-width:0.533489;stroke-linecap:butt;stroke-linejoin:round;stroke:rgb(100%,100%,100%);stroke-opacity:1;stroke-miterlimit:10;" d="M 8.21875 46.6875 L 498.519531 46.6875 "/>
</g>
<g clip-path="url(#clip6)" clip-rule="nonzero">
<path style="fill:none;stroke-width:0.533489;stroke-linecap:butt;stroke-linejoin:round;stroke:rgb(100%,100%,100%);stroke-opacity:1;stroke-miterlimit:10;" d="M 60.894531 264.503906 L 60.894531 5.480469 "/>
</g>
<g clip-path="url(#clip7)" clip-rule="nonzero">
<path style="fill:none;stroke-width:0.533489;stroke-linecap:butt;stroke-linejoin:round;stroke:rgb(100%,100%,100%);stroke-opacity:1;stroke-miterlimit:10;" d="M 162.199219 264.503906 L 162.199219 5.480469 "/>
</g>
<g clip-path="url(#clip8)" clip-rule="nonzero">
<path style="fill:none;stroke-width:0.533489;stroke-linecap:butt;stroke-linejoin:round;stroke:rgb(100%,100%,100%);stroke-opacity:1;stroke-miterlimit:10;" d="M 263.5 264.503906 L 263.5 5.480469 "/>
</g>
<g clip-path="url(#clip9)" clip-rule="nonzero">
<path style="fill:none;stroke-width:0.533489;stroke-linecap:butt;stroke-linejoin:round;stroke:rgb(100%,100%,100%);stroke-opacity:1;stroke-miterlimit:10;" d="M 364.800781 264.503906 L 364.800781 5.480469 "/>
</g>
<g clip-path="url(#clip10)" clip-rule="nonzero">
<path style="fill:none;stroke-width:0.533489;stroke-linecap:butt;stroke-linejoin:round;stroke:rgb(100%,100%,100%);stroke-opacity:1;stroke-miterlimit:10;" d="M 466.105469 264.503906 L 466.105469 5.480469 "/>
</g>
<g clip-path="url(#clip11)" clip-rule="nonzero">
<path style="fill:none;stroke-width:1.066978;stroke-linecap:butt;stroke-linejoin:round;stroke:rgb(100%,100%,100%);stroke-opacity:1;stroke-miterlimit:10;" d="M 8.21875 252.730469 L 498.519531 252.730469 "/>
</g>
<g clip-path="url(#clip12)" clip-rule="nonzero">
<path style="fill:none;stroke-width:1.066978;stroke-linecap:butt;stroke-linejoin:round;stroke:rgb(100%,100%,100%);stroke-opacity:1;stroke-miterlimit:10;" d="M 8.21875 193.859375 L 498.519531 193.859375 "/>
</g>
<g clip-path="url(#clip13)" clip-rule="nonzero">
<path style="fill:none;stroke-width:1.066978;stroke-linecap:butt;stroke-linejoin:round;stroke:rgb(100%,100%,100%);stroke-opacity:1;stroke-miterlimit:10;" d="M 8.21875 134.992188 L 498.519531 134.992188 "/>
</g>
<g clip-path="url(#clip14)" clip-rule="nonzero">
<path style="fill:none;stroke-width:1.066978;stroke-linecap:butt;stroke-linejoin:round;stroke:rgb(100%,100%,100%);stroke-opacity:1;stroke-miterlimit:10;" d="M 8.21875 76.121094 L 498.519531 76.121094 "/>
</g>
<g clip-path="url(#clip15)" clip-rule="nonzero">
<path style="fill:none;stroke-width:1.066978;stroke-linecap:butt;stroke-linejoin:round;stroke:rgb(100%,100%,100%);stroke-opacity:1;stroke-miterlimit:10;" d="M 8.21875 17.253906 L 498.519531 17.253906 "/>
</g>
<g clip-path="url(#clip16)" clip-rule="nonzero">
<path style="fill:none;stroke-width:1.066978;stroke-linecap:butt;stroke-linejoin:round;stroke:rgb(100%,100%,100%);stroke-opacity:1;stroke-miterlimit:10;" d="M 10.246094 264.503906 L 10.246094 5.480469 "/>
</g>
<g clip-path="url(#clip17)" clip-rule="nonzero">
<path style="fill:none;stroke-width:1.066978;stroke-linecap:butt;stroke-linejoin:round;stroke:rgb(100%,100%,100%);stroke-opacity:1;stroke-miterlimit:10;" d="M 111.546875 264.503906 L 111.546875 5.480469 "/>
</g>
<g clip-path="url(#clip18)" clip-rule="nonzero">
<path style="fill:none;stroke-width:1.066978;stroke-linecap:butt;stroke-linejoin:round;stroke:rgb(100%,100%,100%);stroke-opacity:1;stroke-miterlimit:10;" d="M 212.847656 264.503906 L 212.847656 5.480469 "/>
</g>
<g clip-path="url(#clip19)" clip-rule="nonzero">
<path style="fill:none;stroke-width:1.066978;stroke-linecap:butt;stroke-linejoin:round;stroke:rgb(100%,100%,100%);stroke-opacity:1;stroke-miterlimit:10;" d="M 314.152344 264.503906 L 314.152344 5.480469 "/>
</g>
<g clip-path="url(#clip20)" clip-rule="nonzero">
<path style="fill:none;stroke-width:1.066978;stroke-linecap:butt;stroke-linejoin:round;stroke:rgb(100%,100%,100%);stroke-opacity:1;stroke-miterlimit:10;" d="M 415.453125 264.503906 L 415.453125 5.480469 "/>
</g>
<path style="fill-rule:nonzero;fill:rgb(29.803922%,63.921569%,51.764706%);fill-opacity:1;stroke-width:1.066978;stroke-linecap:butt;stroke-linejoin:miter;stroke:rgb(9.803922%,25.882353%,29.803922%);stroke-opacity:1;stroke-miterlimit:10;" d="M 30.503906 252.730469 L 71.023438 252.730469 L 71.023438 151.8125 L 30.503906 151.8125 Z M 30.503906 252.730469 "/>
<path style="fill-rule:nonzero;fill:rgb(29.803922%,63.921569%,51.764706%);fill-opacity:1;stroke-width:1.066978;stroke-linecap:butt;stroke-linejoin:miter;stroke:rgb(9.803922%,25.882353%,29.803922%);stroke-opacity:1;stroke-miterlimit:10;" d="M 71.027344 252.730469 L 111.546875 252.730469 L 111.546875 118.171875 L 71.027344 118.171875 Z M 71.027344 252.730469 "/>
<path style="fill-rule:nonzero;fill:rgb(29.803922%,63.921569%,51.764706%);fill-opacity:1;stroke-width:1.066978;stroke-linecap:butt;stroke-linejoin:miter;stroke:rgb(9.803922%,25.882353%,29.803922%);stroke-opacity:1;stroke-miterlimit:10;" d="M 111.546875 252.730469 L 152.066406 252.730469 L 152.066406 185.453125 L 111.546875 185.453125 Z M 111.546875 252.730469 "/>
<path style="fill-rule:nonzero;fill:rgb(29.803922%,63.921569%,51.764706%);fill-opacity:1;stroke-width:1.066978;stroke-linecap:butt;stroke-linejoin:miter;stroke:rgb(9.803922%,25.882353%,29.803922%);stroke-opacity:1;stroke-miterlimit:10;" d="M 152.066406 252.730469 L 192.585938 252.730469 L 192.585938 151.8125 L 152.066406 151.8125 Z M 152.066406 252.730469 "/>
<path style="fill-rule:nonzero;fill:rgb(29.803922%,63.921569%,51.764706%);fill-opacity:1;stroke-width:1.066978;stroke-linecap:butt;stroke-linejoin:miter;stroke:rgb(9.803922%,25.882353%,29.803922%);stroke-opacity:1;stroke-miterlimit:10;" d="M 192.589844 252.730469 L 233.109375 252.730469 L 233.109375 17.253906 L 192.589844 17.253906 Z M 192.589844 252.730469 "/>
<path style="fill-rule:nonzero;fill:rgb(29.803922%,63.921569%,51.764706%);fill-opacity:1;stroke-width:1.066978;stroke-linecap:butt;stroke-linejoin:miter;stroke:rgb(9.803922%,25.882353%,29.803922%);stroke-opacity:1;stroke-miterlimit:10;" d="M 233.109375 252.730469 L 273.628906 252.730469 L 273.628906 118.171875 L 233.109375 118.171875 Z M 233.109375 252.730469 "/>
<path style="fill-rule:nonzero;fill:rgb(29.803922%,63.921569%,51.764706%);fill-opacity:1;stroke-width:1.066978;stroke-linecap:butt;stroke-linejoin:miter;stroke:rgb(9.803922%,25.882353%,29.803922%);stroke-opacity:1;stroke-miterlimit:10;" d="M 273.628906 252.730469 L 314.148438 252.730469 L 314.148438 185.453125 L 273.628906 185.453125 Z M 273.628906 252.730469 "/>
<path style="fill-rule:nonzero;fill:rgb(29.803922%,63.921569%,51.764706%);fill-opacity:1;stroke-width:1.066978;stroke-linecap:butt;stroke-linejoin:miter;stroke:rgb(9.803922%,25.882353%,29.803922%);stroke-opacity:1;stroke-miterlimit:10;" d="M 314.152344 252.730469 L 354.671875 252.730469 L 354.671875 151.8125 L 314.152344 151.8125 Z M 314.152344 252.730469 "/>
<path style="fill-rule:nonzero;fill:rgb(29.803922%,63.921569%,51.764706%);fill-opacity:1;stroke-width:1.066978;stroke-linecap:butt;stroke-linejoin:miter;stroke:rgb(9.803922%,25.882353%,29.803922%);stroke-opacity:1;stroke-miterlimit:10;" d="M 354.671875 252.730469 L 395.191406 252.730469 L 395.191406 185.453125 L 354.671875 185.453125 Z M 354.671875 252.730469 "/>
<path style="fill-rule:nonzero;fill:rgb(29.803922%,63.921569%,51.764706%);fill-opacity:1;stroke-width:1.066978;stroke-linecap:butt;stroke-linejoin:miter;stroke:rgb(9.803922%,25.882353%,29.803922%);stroke-opacity:1;stroke-miterlimit:10;" d="M 395.191406 252.730469 L 435.710938 252.730469 L 435.710938 118.171875 L 395.191406 118.171875 Z M 395.191406 252.730469 "/>
<path style="fill-rule:nonzero;fill:rgb(29.803922%,63.921569%,51.764706%);fill-opacity:1;stroke-width:1.066978;stroke-linecap:butt;stroke-linejoin:miter;stroke:rgb(9.803922%,25.882353%,29.803922%);stroke-opacity:1;stroke-miterlimit:10;" d="M 435.714844 252.730469 L 476.234375 252.730469 L 476.234375 219.089844 L 435.714844 219.089844 Z M 435.714844 252.730469 "/>
<path style="fill:none;stroke-width:2.133957;stroke-linecap:butt;stroke-linejoin:round;stroke:rgb(0%,0%,0%);stroke-opacity:1;stroke-miterlimit:10;" d="M 50.765625 193.484375 L 52.351563 192.53125 L 53.144531 192.050781 L 54.730469 191.097656 L 55.523438 190.617188 L 57.902344 189.1875 L 58.695313 188.707031 L 64.246094 185.371094 L 65.039063 184.898438 L 65.832031 184.421875 L 66.625 183.949219 L 67.417969 183.472656 L 69.796875 182.054688 L 70.589844 181.585938 L 71.382813 181.113281 L 74.554688 179.238281 L 75.347656 178.773438 L 76.140625 178.304688 L 77.726563 177.375 L 78.519531 176.914063 L 79.3125 176.449219 L 80.898438 175.527344 L 81.691406 175.070313 L 82.484375 174.609375 L 84.070313 173.695313 L 87.242188 171.882813 L 89.621094 170.535156 L 92 169.199219 L 94.378906 167.875 L 95.964844 167 L 98.34375 165.699219 L 100.722656 164.410156 L 102.308594 163.558594 L 104.6875 162.292969 L 106.273438 161.457031 L 108.652344 160.214844 L 110.238281 159.394531 L 111.03125 158.992188 L 112.617188 158.179688 L 113.410156 157.78125 L 114.203125 157.378906 L 114.996094 156.980469 L 115.789063 156.585938 L 116.582031 156.1875 L 117.375 155.796875 L 118.167969 155.402344 L 120.546875 154.242188 L 122.132813 153.476563 L 124.511719 152.339844 L 125.304688 151.964844 L 126.890625 151.222656 L 129.269531 150.121094 L 130.0625 149.757813 L 132.441406 148.679688 L 133.234375 148.328125 L 134.027344 147.972656 L 134.820313 147.621094 L 136.40625 146.925781 L 137.992188 146.238281 L 139.578125 145.558594 L 141.164063 144.886719 L 141.957031 144.554688 L 144.335938 143.570313 L 145.128906 143.25 L 145.921875 142.925781 L 146.714844 142.605469 L 148.300781 141.972656 L 149.09375 141.664063 L 149.886719 141.351563 L 150.679688 141.042969 L 152.265625 140.433594 L 153.058594 140.132813 L 154.644531 139.539063 L 155.4375 139.246094 L 156.230469 138.949219 L 157.023438 138.664063 L 157.816406 138.375 L 158.609375 138.089844 L 160.195313 137.527344 L 160.988281 137.253906 L 161.78125 136.976563 L 164.160156 136.167969 L 166.539063 135.382813 L 168.125 134.875 L 169.710938 134.375 L 170.503906 134.128906 L 172.089844 133.644531 L 174.46875 132.941406 L 176.054688 132.488281 L 176.847656 132.265625 L 178.433594 131.828125 L 179.226563 131.613281 L 180.019531 131.402344 L 181.605469 130.988281 L 182.398438 130.785156 L 183.191406 130.589844 L 183.984375 130.390625 L 185.570313 130.007813 L 186.363281 129.820313 L 187.15625 129.640625 L 187.949219 129.457031 L 188.742188 129.28125 L 189.535156 129.109375 L 190.328125 128.933594 L 191.914063 128.605469 L 192.707031 128.445313 L 194.292969 128.132813 L 195.878906 127.835938 L 196.671875 127.691406 L 197.464844 127.554688 L 198.257813 127.414063 L 199.050781 127.285156 L 199.84375 127.152344 L 200.636719 127.027344 L 202.222656 126.785156 L 203.808594 126.558594 L 204.601563 126.449219 L 205.394531 126.34375 L 206.1875 126.242188 L 206.980469 126.144531 L 207.773438 126.050781 L 208.566406 125.960938 L 210.152344 125.789063 L 210.945313 125.714844 L 211.738281 125.636719 L 212.53125 125.566406 L 214.117188 125.433594 L 215.703125 125.316406 L 216.496094 125.261719 L 218.082031 125.167969 L 219.667969 125.089844 L 220.460938 125.054688 L 221.253906 125.027344 L 222.046875 124.996094 L 223.632813 124.957031 L 224.425781 124.941406 L 225.21875 124.929688 L 226.011719 124.921875 L 226.804688 124.917969 L 227.597656 124.917969 L 228.390625 124.921875 L 229.183594 124.929688 L 229.976563 124.941406 L 230.769531 124.957031 L 232.355469 124.996094 L 233.148438 125.027344 L 233.941406 125.054688 L 235.527344 125.125 L 236.320313 125.164063 L 237.113281 125.210938 L 238.699219 125.3125 L 239.492188 125.371094 L 240.285156 125.425781 L 241.871094 125.558594 L 242.664063 125.628906 L 244.25 125.777344 L 245.042969 125.859375 L 246.628906 126.03125 L 247.421875 126.125 L 248.214844 126.214844 L 250.59375 126.519531 L 252.179688 126.738281 L 253.765625 126.972656 L 254.558594 127.09375 L 256.144531 127.34375 L 258.523438 127.742188 L 260.109375 128.023438 L 262.488281 128.46875 L 264.074219 128.78125 L 265.660156 129.101563 L 266.453125 129.265625 L 268.039063 129.601563 L 270.417969 130.128906 L 271.210938 130.308594 L 272.796875 130.675781 L 274.382813 131.050781 L 275.175781 131.242188 L 276.761719 131.632813 L 277.554688 131.832031 L 278.347656 132.027344 L 279.140625 132.234375 L 280.726563 132.640625 L 281.519531 132.851563 L 282.3125 133.058594 L 283.105469 133.273438 L 283.898438 133.484375 L 284.691406 133.699219 L 285.484375 133.917969 L 286.277344 134.132813 L 289.449219 135.023438 L 291.035156 135.476563 L 293.414063 136.167969 L 296.585938 137.105469 L 298.171875 137.582031 L 298.964844 137.824219 L 299.757813 138.0625 L 301.34375 138.546875 L 302.136719 138.792969 L 302.929688 139.035156 L 305.308594 139.773438 L 306.101563 140.023438 L 306.894531 140.269531 L 310.859375 141.519531 L 313.238281 142.28125 L 314.03125 142.53125 L 314.824219 142.785156 L 315.617188 143.042969 L 317.203125 143.550781 L 317.996094 143.808594 L 318.789063 144.0625 L 321.960938 145.09375 L 322.753906 145.347656 L 323.546875 145.609375 L 326.71875 146.640625 L 327.511719 146.902344 L 328.304688 147.160156 L 329.097656 147.421875 L 329.890625 147.679688 L 331.476563 148.203125 L 332.269531 148.460938 L 340.199219 151.078125 L 340.992188 151.34375 L 342.578125 151.867188 L 343.371094 152.132813 L 344.164063 152.394531 L 344.957031 152.660156 L 345.75 152.921875 L 352.09375 155.046875 L 352.886719 155.316406 L 353.679688 155.582031 L 355.265625 156.121094 L 356.058594 156.386719 L 358.4375 157.195313 L 359.230469 157.46875 L 360.023438 157.738281 L 361.609375 158.285156 L 362.402344 158.554688 L 363.195313 158.832031 L 364.78125 159.378906 L 365.574219 159.65625 L 366.367188 159.929688 L 367.953125 160.484375 L 368.746094 160.765625 L 369.539063 161.042969 L 372.710938 162.167969 L 375.882813 163.308594 L 379.054688 164.464844 L 379.847656 164.757813 L 380.640625 165.046875 L 381.433594 165.34375 L 382.226563 165.636719 L 384.605469 166.527344 L 386.191406 167.128906 L 386.984375 167.433594 L 387.777344 167.734375 L 388.570313 168.039063 L 389.363281 168.347656 L 390.15625 168.652344 L 390.949219 168.960938 L 391.742188 169.273438 L 392.535156 169.582031 L 393.328125 169.898438 L 394.121094 170.210938 L 396.5 171.160156 L 397.292969 171.480469 L 398.085938 171.804688 L 398.878906 172.125 L 400.464844 172.773438 L 401.257813 173.105469 L 402.84375 173.761719 L 404.429688 174.425781 L 405.222656 174.761719 L 406.015625 175.101563 L 406.808594 175.4375 L 408.394531 176.117188 L 409.1875 176.460938 L 409.980469 176.808594 L 410.773438 177.152344 L 412.359375 177.847656 L 413.945313 178.550781 L 416.324219 179.617188 L 417.910156 180.335938 L 420.289063 181.425781 L 422.667969 182.527344 L 423.460938 182.902344 L 425.046875 183.644531 L 425.839844 184.019531 L 426.632813 184.398438 L 427.425781 184.773438 L 428.21875 185.152344 L 431.390625 186.683594 L 432.976563 187.457031 L 433.769531 187.847656 L 434.5625 188.234375 L 435.355469 188.625 L 436.148438 189.019531 L 436.941406 189.410156 L 438.527344 190.199219 L 442.492188 192.191406 L 444.871094 193.398438 L 445.664063 193.804688 L 446.457031 194.207031 L 448.835938 195.425781 L 449.628906 195.835938 L 450.421875 196.242188 L 455.972656 199.113281 "/>
<path style=" stroke:none;fill-rule:nonzero;fill:rgb(0%,0%,0%);fill-opacity:1;" d="M 255.074219 279.617188 L 253.351563 276.9375 L 251.617188 279.617188 L 249.574219 279.617188 L 252.28125 275.792969 L 249.703125 272.21875 L 251.773438 272.21875 L 253.351563 274.640625 L 254.925781 272.21875 L 257.011719 272.21875 L 254.433594 275.773438 L 257.160156 279.617188 Z M 255.074219 279.617188 "/>
</g>
</svg>
