<?xml version="1.0" encoding="UTF-8"?>
<svg xmlns="http://www.w3.org/2000/svg" xmlns:xlink="http://www.w3.org/1999/xlink" width="360pt" height="252pt" viewBox="0 0 360 252" version="1.1">
<defs>
<clipPath id="clip1">
  <path d="M 8.21875 5.480469 L 354.519531 5.480469 L 354.519531 228.503906 L 8.21875 228.503906 Z M 8.21875 5.480469 "/>
</clipPath>
<clipPath id="clip2">
  <path d="M 8.21875 192 L 354.519531 192 L 354.519531 194 L 8.21875 194 Z M 8.21875 192 "/>
</clipPath>
<clipPath id="clip3">
  <path d="M 8.21875 141 L 354.519531 141 L 354.519531 143 L 8.21875 143 Z M 8.21875 141 "/>
</clipPath>
<clipPath id="clip4">
  <path d="M 8.21875 91 L 354.519531 91 L 354.519531 92 L 8.21875 92 Z M 8.21875 91 "/>
</clipPath>
<clipPath id="clip5">
  <path d="M 8.21875 40 L 354.519531 40 L 354.519531 41 L 8.21875 41 Z M 8.21875 40 "/>
</clipPath>
<clipPath id="clip6">
  <path d="M 63 5.480469 L 64 5.480469 L 64 228.503906 L 63 228.503906 Z M 63 5.480469 "/>
</clipPath>
<clipPath id="clip7">
  <path d="M 141 5.480469 L 143 5.480469 L 143 228.503906 L 141 228.503906 Z M 141 5.480469 "/>
</clipPath>
<clipPath id="clip8">
  <path d="M 220 5.480469 L 221 5.480469 L 221 228.503906 L 220 228.503906 Z M 220 5.480469 "/>
</clipPath>
<clipPath id="clip9">
  <path d="M 299 5.480469 L 300 5.480469 L 300 228.503906 L 299 228.503906 Z M 299 5.480469 "/>
</clipPath>
<clipPath id="clip10">
  <path d="M 8.21875 217 L 354.519531 217 L 354.519531 219 L 8.21875 219 Z M 8.21875 217 "/>
</clipPath>
<clipPath id="clip11">
  <path d="M 8.21875 167 L 354.519531 167 L 354.519531 169 L 8.21875 169 Z M 8.21875 167 "/>
</clipPath>
<clipPath id="clip12">
  <path d="M 8.21875 116 L 354.519531 116 L 354.519531 118 L 8.21875 118 Z M 8.21875 116 "/>
</clipPath>
<clipPath id="clip13">
  <path d="M 8.21875 65 L 354.519531 65 L 354.519531 67 L 8.21875 67 Z M 8.21875 65 "/>
</clipPath>
<clipPath id="clip14">
  <path d="M 8.21875 14 L 354.519531 14 L 354.519531 16 L 8.21875 16 Z M 8.21875 14 "/>
</clipPath>
<clipPath id="clip15">
  <path d="M 23 5.480469 L 25 5.480469 L 25 228.503906 L 23 228.503906 Z M 23 5.480469 "/>
</clipPath>
<clipPath id="clip16">
  <path d="M 102 5.480469 L 104 5.480469 L 104 228.503906 L 102 228.503906 Z M 102 5.480469 "/>
</clipPath>
<clipPath id="clip17">
  <path d="M 180 5.480469 L 182 5.480469 L 182 228.503906 L 180 228.503906 Z M 180 5.480469 "/>
</clipPath>
<clipPath id="clip18">
  <path d="M 259 5.480469 L 261 5.480469 L 261 228.503906 L 259 228.503906 Z M 259 5.480469 "/>
</clipPath>
<clipPath id="clip19">
  <path d="M 338 5.480469 L 340 5.480469 L 340 228.503906 L 338 228.503906 Z M 338 5.480469 "/>
</clipPath>
<clipPath id="clip20">
  <path d="M 179 5.480469 L 183 5.480469 L 183 228.503906 L 179 228.503906 Z M 179 5.480469 "/>
</clipPath>
</defs>
<g id="surface299">
<rect x="0" y="0" width="360" height="252" style="fill:rgb(100%,100%,100%);fill-opacity:1;stroke:none;"/>
<rect x="0" y="0" width="360" height="252" style="fill:rgb(100%,100%,100%);fill-opacity:1;stroke:none;"/>
<path style="fill:none;stroke-width:1.066978;stroke-linecap:round;stroke-linejoin:round;stroke:rgb(100%,100%,100%);stroke-opacity:1;stroke-miterlimit:10;" d="M 0 252 L 360 252 L 360 0 L 0 0 Z M 0 252 "/>
<g clip-path="url(#clip1)" clip-rule="nonzero">
<path style=" stroke:none;fill-rule:nonzero;fill:rgb(92.156863%,92.156863%,92.156863%);fill-opacity:1;" d="M 8.21875 228.503906 L 354.519531 228.503906 L 354.519531 5.480469 L 8.21875 5.480469 Z M 8.21875 228.503906 "/>
</g>
<g clip-path="url(#clip2)" clip-rule="nonzero">
<path style="fill:none;stroke-width:0.533489;stroke-linecap:butt;stroke-linejoin:round;stroke:rgb(100%,100%,100%);stroke-opacity:1;stroke-miterlimit:10;" d="M 8.21875 192.957031 L 354.519531 192.957031 "/>
</g>
<g clip-path="url(#clip3)" clip-rule="nonzero">
<path style="fill:none;stroke-width:0.533489;stroke-linecap:butt;stroke-linejoin:round;stroke:rgb(100%,100%,100%);stroke-opacity:1;stroke-miterlimit:10;" d="M 8.21875 142.132813 L 354.519531 142.132813 "/>
</g>
<g clip-path="url(#clip4)" clip-rule="nonzero">
<path style="fill:none;stroke-width:0.533489;stroke-linecap:butt;stroke-linejoin:round;stroke:rgb(100%,100%,100%);stroke-opacity:1;stroke-miterlimit:10;" d="M 8.21875 91.3125 L 354.519531 91.3125 "/>
</g>
<g clip-path="url(#clip5)" clip-rule="nonzero">
<path style="fill:none;stroke-width:0.533489;stroke-linecap:butt;stroke-linejoin:round;stroke:rgb(100%,100%,100%);stroke-opacity:1;stroke-miterlimit:10;" d="M 8.21875 40.492188 L 354.519531 40.492188 "/>
</g>
<g clip-path="url(#clip6)" clip-rule="nonzero">
<path style="fill:none;stroke-width:0.533489;stroke-linecap:butt;stroke-linejoin:round;stroke:rgb(100%,100%,100%);stroke-opacity:1;stroke-miterlimit:10;" d="M 63.3125 228.503906 L 63.3125 5.480469 "/>
</g>
<g clip-path="url(#clip7)" clip-rule="nonzero">
<path style="fill:none;stroke-width:0.533489;stroke-linecap:butt;stroke-linejoin:round;stroke:rgb(100%,100%,100%);stroke-opacity:1;stroke-miterlimit:10;" d="M 142.015625 228.503906 L 142.015625 5.480469 "/>
</g>
<g clip-path="url(#clip8)" clip-rule="nonzero">
<path style="fill:none;stroke-width:0.533489;stroke-linecap:butt;stroke-linejoin:round;stroke:rgb(100%,100%,100%);stroke-opacity:1;stroke-miterlimit:10;" d="M 220.722656 228.503906 L 220.722656 5.480469 "/>
</g>
<g clip-path="url(#clip9)" clip-rule="nonzero">
<path style="fill:none;stroke-width:0.533489;stroke-linecap:butt;stroke-linejoin:round;stroke:rgb(100%,100%,100%);stroke-opacity:1;stroke-miterlimit:10;" d="M 299.425781 228.503906 L 299.425781 5.480469 "/>
</g>
<g clip-path="url(#clip10)" clip-rule="nonzero">
<path style="fill:none;stroke-width:1.066978;stroke-linecap:butt;stroke-linejoin:round;stroke:rgb(100%,100%,100%);stroke-opacity:1;stroke-miterlimit:10;" d="M 8.21875 218.367188 L 354.519531 218.367188 "/>
</g>
<g clip-path="url(#clip11)" clip-rule="nonzero">
<path style="fill:none;stroke-width:1.066978;stroke-linecap:butt;stroke-linejoin:round;stroke:rgb(100%,100%,100%);stroke-opacity:1;stroke-miterlimit:10;" d="M 8.21875 167.542969 L 354.519531 167.542969 "/>
</g>
<g clip-path="url(#clip12)" clip-rule="nonzero">
<path style="fill:none;stroke-width:1.066978;stroke-linecap:butt;stroke-linejoin:round;stroke:rgb(100%,100%,100%);stroke-opacity:1;stroke-miterlimit:10;" d="M 8.21875 116.722656 L 354.519531 116.722656 "/>
</g>
<g clip-path="url(#clip13)" clip-rule="nonzero">
<path style="fill:none;stroke-width:1.066978;stroke-linecap:butt;stroke-linejoin:round;stroke:rgb(100%,100%,100%);stroke-opacity:1;stroke-miterlimit:10;" d="M 8.21875 65.902344 L 354.519531 65.902344 "/>
</g>
<g clip-path="url(#clip14)" clip-rule="nonzero">
<path style="fill:none;stroke-width:1.066978;stroke-linecap:butt;stroke-linejoin:round;stroke:rgb(100%,100%,100%);stroke-opacity:1;stroke-miterlimit:10;" d="M 8.21875 15.078125 L 354.519531 15.078125 "/>
</g>
<g clip-path="url(#clip15)" clip-rule="nonzero">
<path style="fill:none;stroke-width:1.066978;stroke-linecap:butt;stroke-linejoin:round;stroke:rgb(100%,100%,100%);stroke-opacity:1;stroke-miterlimit:10;" d="M 23.960938 228.503906 L 23.960938 5.480469 "/>
</g>
<g clip-path="url(#clip16)" clip-rule="nonzero">
<path style="fill:none;stroke-width:1.066978;stroke-linecap:butt;stroke-linejoin:round;stroke:rgb(100%,100%,100%);stroke-opacity:1;stroke-miterlimit:10;" d="M 102.664063 228.503906 L 102.664063 5.480469 "/>
</g>
<g clip-path="url(#clip17)" clip-rule="nonzero">
<path style="fill:none;stroke-width:1.066978;stroke-linecap:butt;stroke-linejoin:round;stroke:rgb(100%,100%,100%);stroke-opacity:1;stroke-miterlimit:10;" d="M 181.371094 228.503906 L 181.371094 5.480469 "/>
</g>
<g clip-path="url(#clip18)" clip-rule="nonzero">
<path style="fill:none;stroke-width:1.066978;stroke-linecap:butt;stroke-linejoin:round;stroke:rgb(100%,100%,100%);stroke-opacity:1;stroke-miterlimit:10;" d="M 260.074219 228.503906 L 260.074219 5.480469 "/>
</g>
<g clip-path="url(#clip19)" clip-rule="nonzero">
<path style="fill:none;stroke-width:1.066978;stroke-linecap:butt;stroke-linejoin:round;stroke:rgb(100%,100%,100%);stroke-opacity:1;stroke-miterlimit:10;" d="M 338.78125 228.503906 L 338.78125 5.480469 "/>
</g>
<path style="fill:none;stroke-width:3.200935;stroke-linecap:butt;stroke-linejoin:round;stroke:rgb(0%,0%,0%);stroke-opacity:1;stroke-miterlimit:10;" d="M 23.960938 218.367188 L 55.441406 218.367188 L 58.589844 218.363281 L 61.738281 218.363281 L 64.886719 218.359375 L 68.035156 218.359375 L 74.332031 218.34375 L 77.480469 218.328125 L 80.628906 218.304688 L 83.777344 218.265625 L 86.925781 218.210938 L 90.070313 218.128906 L 93.21875 218.007813 L 96.367188 217.832031 L 99.515625 217.585938 L 102.664063 217.242188 L 105.8125 216.765625 L 108.960938 216.117188 L 112.109375 215.257813 L 115.257813 214.128906 L 118.40625 212.675781 L 121.554688 210.832031 L 124.703125 208.53125 L 127.851563 205.710938 L 131 202.316406 L 134.148438 198.304688 L 137.296875 193.644531 L 140.441406 188.339844 L 143.589844 182.421875 L 146.738281 175.945313 L 149.886719 169.023438 L 153.035156 161.789063 L 156.183594 154.421875 L 159.332031 147.128906 L 162.480469 140.140625 L 165.628906 133.691406 L 168.777344 128.023438 L 171.925781 123.351563 L 175.074219 119.871094 L 178.222656 117.71875 L 181.371094 116.992188 L 184.519531 117.71875 L 187.667969 119.871094 L 190.8125 123.351563 L 193.960938 128.023438 L 197.109375 133.691406 L 200.257813 140.140625 L 203.40625 147.128906 L 206.554688 154.421875 L 209.703125 161.789063 L 212.851563 169.023438 L 216 175.945313 L 219.148438 182.421875 L 222.296875 188.339844 L 225.445313 193.644531 L 228.59375 198.304688 L 231.742188 202.316406 L 234.890625 205.710938 L 238.039063 208.53125 L 241.1875 210.832031 L 244.332031 212.675781 L 247.480469 214.128906 L 250.628906 215.257813 L 253.777344 216.117188 L 256.925781 216.765625 L 260.074219 217.242188 L 263.222656 217.585938 L 266.371094 217.832031 L 269.519531 218.007813 L 272.667969 218.128906 L 275.816406 218.210938 L 278.964844 218.265625 L 282.113281 218.304688 L 285.261719 218.328125 L 288.410156 218.34375 L 291.558594 218.351563 L 294.703125 218.359375 L 297.851563 218.359375 L 301 218.363281 L 304.148438 218.363281 L 307.296875 218.367188 L 338.78125 218.367188 "/>
<g clip-path="url(#clip20)" clip-rule="nonzero">
<path style="fill:none;stroke-width:3.200935;stroke-linecap:butt;stroke-linejoin:round;stroke:rgb(9.411765%,46.666667%,54.901961%);stroke-opacity:1;stroke-miterlimit:10;" d="M 181.371094 228.503906 L 181.371094 5.480469 "/>
</g>
<path style="fill:none;stroke-width:3.200935;stroke-linecap:butt;stroke-linejoin:round;stroke:rgb(29.803922%,63.921569%,51.764706%);stroke-opacity:1;stroke-miterlimit:10;" d="M 23.960938 218.367188 L 115.257813 218.367188 L 121.554688 218.359375 L 124.703125 218.347656 L 127.851563 218.316406 L 131 218.238281 L 134.148438 218.054688 L 137.296875 217.648438 L 140.441406 216.804688 L 143.589844 215.160156 L 146.738281 212.148438 L 149.886719 206.984375 L 153.035156 198.695313 L 156.183594 186.269531 L 159.332031 168.925781 L 162.480469 146.472656 L 165.628906 119.675781 L 168.777344 90.476563 L 171.925781 61.910156 L 175.074219 37.679688 L 178.222656 21.371094 L 181.371094 15.617188 L 184.519531 21.371094 L 187.667969 37.679688 L 190.8125 61.910156 L 193.960938 90.476563 L 197.109375 119.675781 L 200.257813 146.472656 L 203.40625 168.925781 L 206.554688 186.269531 L 209.703125 198.695313 L 212.851563 206.984375 L 216 212.148438 L 219.148438 215.160156 L 222.296875 216.804688 L 225.445313 217.648438 L 228.59375 218.054688 L 231.742188 218.238281 L 234.890625 218.316406 L 238.039063 218.347656 L 241.1875 218.359375 L 244.332031 218.363281 L 247.480469 218.367188 L 338.78125 218.367188 "/>
<path style="fill:none;stroke-width:3.200935;stroke-linecap:butt;stroke-linejoin:round;stroke:rgb(60.392157%,81.568627%,47.45098%);stroke-opacity:1;stroke-miterlimit:10;" d="M 23.960938 218.34375 L 27.109375 218.335938 L 30.257813 218.324219 L 33.40625 218.308594 L 36.554688 218.289063 L 39.699219 218.261719 L 42.847656 218.230469 L 45.996094 218.183594 L 49.144531 218.128906 L 52.292969 218.054688 L 55.441406 217.960938 L 58.589844 217.847656 L 61.738281 217.699219 L 64.886719 217.519531 L 68.035156 217.296875 L 71.183594 217.027344 L 74.332031 216.695313 L 77.480469 216.292969 L 80.628906 215.816406 L 83.777344 215.246094 L 86.925781 214.574219 L 90.070313 213.785156 L 93.21875 212.867188 L 96.367188 211.808594 L 99.515625 210.597656 L 102.664063 209.21875 L 105.8125 207.667969 L 108.960938 205.929688 L 112.109375 204.003906 L 115.257813 201.886719 L 118.40625 199.574219 L 121.554688 197.078125 L 124.703125 194.402344 L 127.851563 191.5625 L 131 188.578125 L 134.148438 185.46875 L 137.296875 182.269531 L 140.441406 179.015625 L 143.589844 175.738281 L 146.738281 172.480469 L 149.886719 169.292969 L 153.035156 166.214844 L 156.183594 163.300781 L 159.332031 160.589844 L 162.480469 158.136719 L 165.628906 155.980469 L 168.777344 154.15625 L 171.925781 152.703125 L 175.074219 151.644531 L 178.222656 151 L 181.371094 150.785156 L 184.519531 151 L 187.667969 151.644531 L 190.8125 152.703125 L 193.960938 154.15625 L 197.109375 155.980469 L 200.257813 158.136719 L 203.40625 160.589844 L 206.554688 163.300781 L 209.703125 166.214844 L 212.851563 169.292969 L 216 172.480469 L 219.148438 175.738281 L 222.296875 179.015625 L 225.445313 182.269531 L 228.59375 185.46875 L 231.742188 188.578125 L 234.890625 191.5625 L 238.039063 194.402344 L 241.1875 197.078125 L 244.332031 199.574219 L 247.480469 201.886719 L 250.628906 204.003906 L 253.777344 205.929688 L 256.925781 207.667969 L 260.074219 209.21875 L 263.222656 210.597656 L 266.371094 211.808594 L 269.519531 212.867188 L 272.667969 213.785156 L 275.816406 214.574219 L 278.964844 215.246094 L 282.113281 215.816406 L 285.261719 216.292969 L 288.410156 216.695313 L 291.558594 217.027344 L 294.703125 217.296875 L 297.851563 217.519531 L 301 217.699219 L 304.148438 217.847656 L 307.296875 217.960938 L 310.445313 218.054688 L 313.59375 218.128906 L 316.742188 218.183594 L 319.890625 218.230469 L 323.039063 218.261719 L 326.1875 218.289063 L 329.335938 218.308594 L 332.484375 218.324219 L 335.632813 218.335938 L 338.78125 218.34375 "/>
<path style=" stroke:none;fill-rule:nonzero;fill:rgb(60.392157%,81.568627%,47.45098%);fill-opacity:1;" d="M 52.203125 59.660156 L 53.570313 59.660156 L 52.769531 64.292969 L 52.765625 64.320313 L 52.761719 64.351563 L 52.753906 64.378906 L 52.75 64.414063 L 52.742188 64.445313 L 52.726563 64.515625 L 52.710938 64.59375 L 52.703125 64.636719 L 52.699219 64.675781 L 52.675781 64.804688 L 52.671875 64.847656 L 52.664063 64.886719 L 52.65625 64.929688 L 52.652344 64.972656 L 52.644531 65.015625 L 52.636719 65.0625 L 52.632813 65.105469 L 52.628906 65.144531 L 52.621094 65.1875 L 52.617188 65.230469 L 52.613281 65.269531 L 52.609375 65.3125 L 52.601563 65.351563 L 52.59375 65.429688 L 52.585938 65.46875 L 52.578125 65.539063 L 52.570313 65.601563 L 52.570313 65.628906 L 52.566406 65.65625 L 52.566406 65.679688 L 52.5625 65.703125 L 52.5625 65.78125 L 52.566406 65.820313 L 52.570313 65.855469 L 52.574219 65.894531 L 52.578125 65.929688 L 52.59375 66 L 52.617188 66.070313 L 52.628906 66.101563 L 52.644531 66.136719 L 52.65625 66.167969 L 52.675781 66.199219 L 52.691406 66.230469 L 52.710938 66.261719 L 52.730469 66.289063 L 52.75 66.320313 L 52.820313 66.402344 L 52.847656 66.429688 L 52.929688 66.5 L 52.960938 66.519531 L 52.992188 66.542969 L 53.023438 66.5625 L 53.128906 66.609375 L 53.167969 66.625 L 53.203125 66.636719 L 53.28125 66.660156 L 53.324219 66.667969 L 53.363281 66.675781 L 53.449219 66.683594 L 53.492188 66.683594 L 53.539063 66.6875 L 53.640625 66.683594 L 53.851563 66.667969 L 53.960938 66.652344 L 54.070313 66.632813 L 54.179688 66.609375 L 54.289063 66.578125 L 54.402344 66.546875 L 54.515625 66.511719 L 54.628906 66.46875 L 54.746094 66.425781 L 54.859375 66.378906 L 54.972656 66.328125 L 55.085938 66.273438 L 55.195313 66.21875 L 55.304688 66.160156 L 55.410156 66.101563 L 55.515625 66.039063 L 55.621094 65.972656 L 55.722656 65.902344 L 56.8125 59.660156 L 58.199219 59.660156 L 56.921875 66.910156 L 57.90625 67.121094 L 57.839844 67.496094 L 55.523438 67.496094 L 55.671875 66.378906 L 55.609375 66.4375 L 55.546875 66.5 L 55.484375 66.558594 L 55.367188 66.667969 L 55.304688 66.722656 L 55.25 66.777344 L 55.191406 66.828125 L 55.136719 66.878906 L 55.078125 66.929688 L 55.023438 66.972656 L 54.96875 67.019531 L 54.859375 67.105469 L 54.695313 67.222656 L 54.53125 67.328125 L 54.476563 67.359375 L 54.421875 67.386719 L 54.367188 67.417969 L 54.3125 67.441406 L 54.257813 67.46875 L 54.199219 67.492188 L 54.144531 67.511719 L 54.085938 67.535156 L 54.03125 67.550781 L 53.972656 67.570313 L 53.914063 67.585938 L 53.851563 67.601563 L 53.789063 67.613281 L 53.726563 67.621094 L 53.664063 67.632813 L 53.601563 67.640625 L 53.46875 67.648438 L 53.398438 67.652344 L 53.261719 67.652344 L 53.195313 67.648438 L 53.132813 67.644531 L 53.066406 67.636719 L 53.007813 67.628906 L 52.945313 67.617188 L 52.886719 67.605469 L 52.832031 67.589844 L 52.773438 67.570313 L 52.722656 67.554688 L 52.667969 67.535156 L 52.617188 67.511719 L 52.566406 67.492188 L 52.515625 67.46875 L 52.464844 67.441406 L 52.324219 67.359375 L 52.28125 67.328125 L 52.238281 67.292969 L 51.5625 71.144531 L 50.179688 71.144531 Z M 52.203125 59.660156 "/>
<path style=" stroke:none;fill-rule:nonzero;fill:rgb(60.392157%,81.568627%,47.45098%);fill-opacity:1;" d="M 72.601563 63.109375 L 72.601563 63.960938 L 64.65625 63.960938 L 64.65625 63.109375 Z M 72.601563 59.691406 L 72.601563 60.542969 L 64.65625 60.542969 L 64.65625 59.691406 Z M 72.601563 59.691406 "/>
<path style=" stroke:none;fill-rule:nonzero;fill:rgb(60.392157%,81.568627%,47.45098%);fill-opacity:1;" d="M 79.035156 62.101563 L 79.035156 60.851563 L 86.738281 60.851563 L 86.738281 62.101563 Z M 79.035156 62.101563 "/>
<path style=" stroke:none;fill-rule:nonzero;fill:rgb(60.392157%,81.568627%,47.45098%);fill-opacity:1;" d="M 90.816406 67.496094 L 90.816406 66.4375 L 90.902344 66.242188 L 90.992188 66.054688 L 91.085938 65.871094 L 91.1875 65.691406 L 91.289063 65.519531 L 91.390625 65.351563 L 91.5 65.183594 L 91.613281 65.023438 L 91.730469 64.871094 L 91.851563 64.71875 L 91.972656 64.570313 L 92.097656 64.425781 L 92.226563 64.28125 L 92.351563 64.144531 L 92.609375 63.871094 L 92.875 63.613281 L 93.007813 63.488281 L 93.140625 63.367188 L 93.277344 63.246094 L 93.410156 63.128906 L 93.546875 63.011719 L 93.679688 62.894531 L 93.8125 62.78125 L 94.210938 62.453125 L 94.476563 62.242188 L 94.609375 62.140625 L 94.738281 62.035156 L 94.863281 61.933594 L 94.988281 61.828125 L 95.109375 61.726563 L 95.226563 61.621094 L 95.34375 61.519531 L 95.457031 61.417969 L 95.566406 61.3125 L 95.675781 61.210938 L 95.78125 61.105469 L 95.882813 61 L 96.070313 60.789063 L 96.242188 60.570313 L 96.320313 60.460938 L 96.394531 60.351563 L 96.46875 60.238281 L 96.535156 60.125 L 96.597656 60.011719 L 96.65625 59.894531 L 96.703125 59.773438 L 96.746094 59.648438 L 96.785156 59.519531 L 96.816406 59.390625 L 96.839844 59.257813 L 96.855469 59.121094 L 96.863281 58.984375 L 96.867188 58.84375 L 96.867188 58.742188 L 96.863281 58.648438 L 96.855469 58.554688 L 96.84375 58.460938 L 96.832031 58.375 L 96.8125 58.285156 L 96.773438 58.121094 L 96.746094 58.042969 L 96.71875 57.96875 L 96.6875 57.890625 L 96.652344 57.820313 L 96.617188 57.746094 L 96.578125 57.679688 L 96.535156 57.613281 L 96.488281 57.550781 L 96.441406 57.492188 L 96.390625 57.433594 L 96.339844 57.378906 L 96.285156 57.324219 L 96.226563 57.273438 L 96.167969 57.226563 L 96.105469 57.183594 L 96.039063 57.140625 L 95.972656 57.101563 L 95.902344 57.0625 L 95.832031 57.027344 L 95.757813 56.996094 L 95.601563 56.941406 L 95.523438 56.917969 L 95.441406 56.894531 L 95.359375 56.875 L 95.273438 56.855469 L 95.1875 56.839844 L 95.097656 56.828125 L 95.007813 56.820313 L 94.914063 56.8125 L 94.820313 56.808594 L 94.636719 56.808594 L 94.546875 56.8125 L 94.375 56.828125 L 94.203125 56.851563 L 94.121094 56.871094 L 94.039063 56.886719 L 93.875 56.933594 L 93.796875 56.960938 L 93.722656 56.988281 L 93.648438 57.019531 L 93.574219 57.054688 L 93.503906 57.089844 L 93.433594 57.128906 L 93.367188 57.167969 L 93.300781 57.214844 L 93.238281 57.257813 L 93.113281 57.359375 L 93.054688 57.414063 L 93 57.46875 L 92.945313 57.527344 L 92.84375 57.652344 L 92.796875 57.71875 L 92.75 57.789063 L 92.707031 57.859375 L 92.628906 58.007813 L 92.59375 58.085938 L 92.5625 58.164063 L 92.535156 58.246094 L 92.507813 58.332031 L 92.484375 58.417969 L 92.464844 58.507813 L 92.445313 58.601563 L 92.429688 58.695313 L 92.417969 58.792969 L 90.882813 58.648438 L 90.898438 58.523438 L 90.921875 58.398438 L 90.945313 58.277344 L 91.007813 58.035156 L 91.085938 57.800781 L 91.132813 57.683594 L 91.179688 57.570313 L 91.234375 57.457031 L 91.289063 57.347656 L 91.351563 57.242188 L 91.417969 57.136719 L 91.558594 56.933594 L 91.636719 56.839844 L 91.71875 56.746094 L 91.804688 56.65625 L 91.898438 56.566406 L 91.992188 56.484375 L 92.089844 56.398438 L 92.191406 56.320313 L 92.410156 56.171875 L 92.523438 56.105469 L 92.640625 56.039063 L 92.761719 55.976563 L 92.886719 55.921875 L 93.015625 55.867188 L 93.148438 55.816406 L 93.289063 55.769531 L 93.578125 55.691406 L 93.730469 55.660156 L 93.886719 55.636719 L 94.046875 55.613281 L 94.210938 55.597656 L 94.378906 55.585938 L 94.550781 55.578125 L 94.726563 55.574219 L 94.898438 55.578125 L 95.066406 55.582031 L 95.234375 55.59375 L 95.554688 55.625 L 95.707031 55.648438 L 95.855469 55.675781 L 96.003906 55.707031 L 96.144531 55.742188 L 96.285156 55.78125 L 96.550781 55.875 L 96.675781 55.925781 L 96.796875 55.980469 L 96.914063 56.042969 L 97.027344 56.105469 L 97.136719 56.171875 L 97.339844 56.320313 L 97.433594 56.398438 L 97.527344 56.484375 L 97.617188 56.570313 L 97.699219 56.660156 L 97.855469 56.855469 L 97.925781 56.957031 L 98.050781 57.175781 L 98.109375 57.289063 L 98.160156 57.410156 L 98.207031 57.53125 L 98.25 57.65625 L 98.289063 57.785156 L 98.320313 57.917969 L 98.347656 58.054688 L 98.371094 58.195313 L 98.386719 58.339844 L 98.398438 58.484375 L 98.40625 58.636719 L 98.410156 58.792969 L 98.402344 59.027344 L 98.390625 59.140625 L 98.375 59.257813 L 98.355469 59.371094 L 98.332031 59.480469 L 98.304688 59.59375 L 98.269531 59.703125 L 98.234375 59.808594 L 98.195313 59.917969 L 98.148438 60.023438 L 98.105469 60.128906 L 98.054688 60.234375 L 98.003906 60.335938 L 97.949219 60.4375 L 97.890625 60.539063 L 97.828125 60.640625 L 97.765625 60.738281 L 97.554688 61.03125 L 97.480469 61.125 L 97.40625 61.222656 L 97.328125 61.316406 L 97.164063 61.503906 L 97.078125 61.59375 L 96.992188 61.6875 L 96.902344 61.777344 L 96.527344 62.136719 L 96.429688 62.226563 L 96.332031 62.3125 L 96.234375 62.402344 L 96.136719 62.488281 L 96.035156 62.578125 L 95.9375 62.664063 L 95.734375 62.835938 L 95.628906 62.921875 L 95.527344 63.007813 L 95.425781 63.089844 L 95.222656 63.261719 L 95.117188 63.347656 L 95.015625 63.433594 L 94.914063 63.515625 L 94.808594 63.601563 L 94.707031 63.683594 L 94.605469 63.769531 L 94.503906 63.851563 L 94.40625 63.9375 L 94.308594 64.019531 L 94.210938 64.105469 L 94.113281 64.1875 L 93.832031 64.445313 L 93.746094 64.527344 L 93.65625 64.613281 L 93.570313 64.699219 L 93.40625 64.871094 L 93.328125 64.960938 L 93.171875 65.132813 L 93.023438 65.3125 L 92.957031 65.398438 L 92.886719 65.484375 L 92.824219 65.574219 L 92.707031 65.753906 L 92.652344 65.847656 L 92.601563 65.9375 L 92.507813 66.125 L 92.464844 66.21875 L 98.59375 66.21875 L 98.59375 67.496094 Z M 90.816406 67.496094 "/>
<path style=" stroke:none;fill-rule:nonzero;fill:rgb(0%,0%,0%);fill-opacity:1;" d="M 52.203125 41.871094 L 53.570313 41.871094 L 52.769531 46.507813 L 52.761719 46.5625 L 52.753906 46.59375 L 52.75 46.625 L 52.742188 46.65625 L 52.734375 46.691406 L 52.726563 46.730469 L 52.71875 46.765625 L 52.710938 46.808594 L 52.703125 46.847656 L 52.699219 46.890625 L 52.691406 46.929688 L 52.675781 47.015625 L 52.671875 47.058594 L 52.65625 47.144531 L 52.652344 47.1875 L 52.636719 47.273438 L 52.628906 47.359375 L 52.621094 47.402344 L 52.617188 47.441406 L 52.613281 47.484375 L 52.609375 47.523438 L 52.601563 47.5625 L 52.597656 47.605469 L 52.59375 47.644531 L 52.585938 47.679688 L 52.582031 47.71875 L 52.570313 47.8125 L 52.570313 47.84375 L 52.566406 47.867188 L 52.566406 47.894531 L 52.5625 47.917969 L 52.5625 47.996094 L 52.566406 48.03125 L 52.570313 48.070313 L 52.578125 48.140625 L 52.59375 48.210938 L 52.628906 48.316406 L 52.644531 48.347656 L 52.65625 48.378906 L 52.675781 48.410156 L 52.691406 48.441406 L 52.730469 48.503906 L 52.75 48.53125 L 52.773438 48.558594 L 52.796875 48.589844 L 52.875 48.667969 L 52.902344 48.691406 L 52.929688 48.710938 L 52.960938 48.734375 L 53.023438 48.773438 L 53.058594 48.792969 L 53.128906 48.824219 L 53.167969 48.835938 L 53.203125 48.851563 L 53.242188 48.863281 L 53.28125 48.871094 L 53.324219 48.878906 L 53.363281 48.886719 L 53.492188 48.898438 L 53.539063 48.898438 L 53.640625 48.894531 L 53.746094 48.890625 L 53.851563 48.878906 L 53.960938 48.863281 L 54.070313 48.84375 L 54.179688 48.820313 L 54.289063 48.792969 L 54.515625 48.722656 L 54.628906 48.683594 L 54.746094 48.636719 L 54.859375 48.589844 L 55.085938 48.488281 L 55.195313 48.429688 L 55.304688 48.375 L 55.515625 48.25 L 55.621094 48.183594 L 55.722656 48.113281 L 56.8125 41.871094 L 58.199219 41.871094 L 56.921875 49.125 L 57.90625 49.332031 L 57.839844 49.707031 L 55.523438 49.707031 L 55.671875 48.589844 L 55.609375 48.652344 L 55.484375 48.769531 L 55.425781 48.824219 L 55.367188 48.882813 L 55.304688 48.9375 L 55.25 48.988281 L 55.191406 49.039063 L 55.136719 49.089844 L 55.078125 49.140625 L 55.023438 49.1875 L 54.859375 49.316406 L 54.640625 49.472656 L 54.585938 49.507813 L 54.421875 49.601563 L 54.3125 49.65625 L 54.257813 49.679688 L 54.199219 49.703125 L 54.144531 49.726563 L 54.085938 49.746094 L 54.03125 49.765625 L 53.914063 49.796875 L 53.851563 49.8125 L 53.726563 49.835938 L 53.601563 49.851563 L 53.535156 49.859375 L 53.46875 49.863281 L 53.398438 49.863281 L 53.328125 49.867188 L 53.261719 49.863281 L 53.195313 49.863281 L 53.132813 49.855469 L 53.066406 49.847656 L 53.007813 49.839844 L 52.945313 49.828125 L 52.886719 49.816406 L 52.832031 49.800781 L 52.773438 49.785156 L 52.722656 49.765625 L 52.667969 49.746094 L 52.617188 49.726563 L 52.464844 49.65625 L 52.371094 49.601563 L 52.324219 49.570313 L 52.238281 49.507813 L 51.5625 53.359375 L 50.179688 53.359375 Z M 52.203125 41.871094 "/>
<path style=" stroke:none;fill-rule:nonzero;fill:rgb(0%,0%,0%);fill-opacity:1;" d="M 72.601563 45.324219 L 72.601563 46.171875 L 64.65625 46.171875 L 64.65625 45.324219 Z M 72.601563 41.90625 L 72.601563 42.753906 L 64.65625 42.753906 L 64.65625 41.90625 Z M 72.601563 41.90625 "/>
<path style=" stroke:none;fill-rule:nonzero;fill:rgb(0%,0%,0%);fill-opacity:1;" d="M 87.011719 43.832031 L 87.007813 44.164063 L 87 44.484375 L 86.984375 44.796875 L 86.960938 45.097656 L 86.929688 45.390625 L 86.894531 45.667969 L 86.851563 45.9375 L 86.804688 46.195313 L 86.75 46.445313 L 86.6875 46.679688 L 86.621094 46.90625 L 86.550781 47.125 L 86.476563 47.332031 L 86.394531 47.53125 L 86.308594 47.722656 L 86.21875 47.90625 L 86.125 48.078125 L 86.027344 48.246094 L 85.921875 48.402344 L 85.8125 48.546875 L 85.699219 48.6875 L 85.582031 48.816406 L 85.464844 48.9375 L 85.339844 49.050781 L 85.210938 49.15625 L 85.078125 49.253906 L 84.945313 49.34375 L 84.804688 49.425781 L 84.660156 49.5 L 84.511719 49.566406 L 84.359375 49.625 L 84.207031 49.675781 L 84.050781 49.722656 L 83.894531 49.761719 L 83.738281 49.796875 L 83.574219 49.824219 L 83.414063 49.847656 L 83.246094 49.863281 L 83.082031 49.871094 L 82.910156 49.875 L 82.742188 49.871094 L 82.574219 49.863281 L 82.40625 49.847656 L 82.242188 49.824219 L 82.082031 49.796875 L 81.921875 49.761719 L 81.765625 49.722656 L 81.613281 49.675781 L 81.460938 49.625 L 81.3125 49.566406 L 81.164063 49.5 L 81.023438 49.425781 L 80.882813 49.34375 L 80.746094 49.253906 L 80.617188 49.15625 L 80.488281 49.050781 L 80.367188 48.9375 L 80.246094 48.816406 L 80.128906 48.6875 L 80.019531 48.546875 L 79.914063 48.402344 L 79.8125 48.246094 L 79.714844 48.082031 L 79.621094 47.910156 L 79.53125 47.730469 L 79.449219 47.539063 L 79.371094 47.339844 L 79.296875 47.132813 L 79.226563 46.914063 L 79.160156 46.6875 L 79.101563 46.453125 L 79.050781 46.203125 L 79.003906 45.945313 L 78.960938 45.675781 L 78.929688 45.394531 L 78.902344 45.105469 L 78.878906 44.800781 L 78.863281 44.488281 L 78.855469 44.164063 L 78.851563 43.832031 L 78.855469 43.480469 L 78.863281 43.144531 L 78.878906 42.820313 L 78.902344 42.507813 L 78.929688 42.207031 L 78.960938 41.921875 L 79.003906 41.648438 L 79.050781 41.382813 L 79.101563 41.132813 L 79.160156 40.894531 L 79.226563 40.667969 L 79.296875 40.449219 L 79.371094 40.238281 L 79.449219 40.039063 L 79.535156 39.847656 L 79.625 39.667969 L 79.71875 39.496094 L 79.816406 39.332031 L 79.917969 39.179688 L 80.027344 39.039063 L 80.140625 38.902344 L 80.253906 38.777344 L 80.375 38.660156 L 80.5 38.550781 L 80.628906 38.449219 L 80.757813 38.355469 L 80.894531 38.273438 L 81.035156 38.195313 L 81.179688 38.128906 L 81.328125 38.070313 L 81.480469 38.015625 L 81.632813 37.96875 L 81.789063 37.925781 L 81.949219 37.890625 L 82.109375 37.859375 L 82.277344 37.832031 L 82.441406 37.8125 L 82.613281 37.796875 L 82.785156 37.789063 L 82.960938 37.785156 L 83.128906 37.789063 L 83.292969 37.796875 L 83.457031 37.8125 L 83.617188 37.832031 L 83.777344 37.859375 L 83.933594 37.890625 L 84.085938 37.925781 L 84.238281 37.96875 L 84.390625 38.015625 L 84.535156 38.070313 L 84.683594 38.128906 L 84.824219 38.195313 L 84.964844 38.273438 L 85.097656 38.355469 L 85.230469 38.449219 L 85.359375 38.550781 L 85.480469 38.660156 L 85.601563 38.777344 L 85.714844 38.902344 L 85.828125 39.039063 L 85.9375 39.179688 L 86.039063 39.332031 L 86.136719 39.496094 L 86.230469 39.667969 L 86.320313 39.847656 L 86.40625 40.039063 L 86.484375 40.238281 L 86.558594 40.449219 L 86.628906 40.667969 L 86.695313 40.894531 L 86.753906 41.132813 L 86.808594 41.382813 L 86.855469 41.648438 L 86.898438 41.921875 L 86.933594 42.207031 L 86.960938 42.507813 L 86.984375 42.820313 L 87 43.144531 L 87.007813 43.480469 Z M 85.488281 43.832031 L 85.484375 43.554688 L 85.480469 43.289063 L 85.472656 43.03125 L 85.460938 42.785156 L 85.445313 42.546875 L 85.425781 42.320313 L 85.40625 42.101563 L 85.378906 41.894531 L 85.351563 41.695313 L 85.320313 41.503906 L 85.285156 41.320313 L 85.246094 41.148438 L 85.207031 40.980469 L 85.160156 40.820313 L 85.113281 40.667969 L 85.0625 40.523438 L 85.007813 40.386719 L 84.953125 40.257813 L 84.890625 40.132813 L 84.828125 40.019531 L 84.761719 39.914063 L 84.691406 39.8125 L 84.621094 39.714844 L 84.542969 39.628906 L 84.464844 39.546875 L 84.382813 39.46875 L 84.300781 39.402344 L 84.210938 39.339844 L 84.121094 39.285156 L 83.933594 39.191406 L 83.835938 39.152344 L 83.734375 39.117188 L 83.632813 39.085938 L 83.527344 39.0625 L 83.421875 39.042969 L 83.308594 39.023438 L 83.195313 39.011719 L 82.960938 39.003906 L 82.835938 39.007813 L 82.714844 39.011719 L 82.59375 39.023438 L 82.476563 39.042969 L 82.363281 39.0625 L 82.253906 39.085938 L 82.148438 39.117188 L 82.042969 39.152344 L 81.941406 39.191406 L 81.84375 39.238281 L 81.75 39.289063 L 81.65625 39.34375 L 81.566406 39.40625 L 81.480469 39.476563 L 81.398438 39.550781 L 81.316406 39.632813 L 81.242188 39.722656 L 81.167969 39.820313 L 81.09375 39.921875 L 81.027344 40.027344 L 80.964844 40.144531 L 80.902344 40.265625 L 80.847656 40.394531 L 80.792969 40.53125 L 80.742188 40.675781 L 80.695313 40.828125 L 80.648438 40.988281 L 80.609375 41.15625 L 80.570313 41.328125 L 80.535156 41.511719 L 80.503906 41.703125 L 80.476563 41.902344 L 80.449219 42.109375 L 80.429688 42.328125 L 80.410156 42.554688 L 80.394531 42.792969 L 80.382813 43.035156 L 80.375 43.292969 L 80.371094 43.554688 L 80.367188 43.832031 L 80.371094 44.097656 L 80.375 44.351563 L 80.382813 44.601563 L 80.394531 44.84375 L 80.410156 45.074219 L 80.429688 45.296875 L 80.449219 45.511719 L 80.476563 45.71875 L 80.503906 45.917969 L 80.535156 46.105469 L 80.570313 46.289063 L 80.613281 46.460938 L 80.652344 46.628906 L 80.699219 46.789063 L 80.746094 46.941406 L 80.800781 47.085938 L 80.855469 47.226563 L 80.910156 47.355469 L 80.972656 47.480469 L 81.035156 47.597656 L 81.105469 47.707031 L 81.175781 47.808594 L 81.25 47.90625 L 81.324219 47.996094 L 81.40625 48.078125 L 81.488281 48.15625 L 81.570313 48.230469 L 81.660156 48.292969 L 81.75 48.351563 L 81.84375 48.40625 L 81.941406 48.453125 L 82.039063 48.492188 L 82.140625 48.53125 L 82.246094 48.5625 L 82.351563 48.589844 L 82.460938 48.609375 L 82.574219 48.625 L 82.691406 48.640625 L 82.808594 48.644531 L 82.929688 48.648438 L 83.046875 48.644531 L 83.160156 48.640625 L 83.273438 48.625 L 83.382813 48.609375 L 83.492188 48.589844 L 83.597656 48.5625 L 83.699219 48.53125 L 83.800781 48.492188 L 83.898438 48.453125 L 83.996094 48.40625 L 84.089844 48.351563 L 84.179688 48.292969 L 84.265625 48.230469 L 84.351563 48.15625 L 84.433594 48.078125 L 84.511719 47.996094 L 84.585938 47.90625 L 84.660156 47.808594 L 84.726563 47.707031 L 84.796875 47.597656 L 84.859375 47.480469 L 84.921875 47.355469 L 84.980469 47.226563 L 85.035156 47.085938 L 85.089844 46.941406 L 85.136719 46.789063 L 85.183594 46.628906 L 85.226563 46.460938 L 85.265625 46.289063 L 85.304688 46.105469 L 85.339844 45.917969 L 85.371094 45.71875 L 85.398438 45.511719 L 85.421875 45.296875 L 85.441406 45.074219 L 85.457031 44.84375 L 85.46875 44.601563 L 85.480469 44.351563 L 85.484375 44.097656 Z M 85.488281 43.832031 "/>
<path style=" stroke:none;fill-rule:nonzero;fill:rgb(29.803922%,63.921569%,51.764706%);fill-opacity:1;" d="M 52.203125 24.082031 L 53.570313 24.082031 L 52.769531 28.71875 L 52.761719 28.773438 L 52.753906 28.804688 L 52.75 28.835938 L 52.726563 28.941406 L 52.703125 29.058594 L 52.699219 29.101563 L 52.683594 29.1875 L 52.675781 29.226563 L 52.671875 29.269531 L 52.65625 29.355469 L 52.652344 29.398438 L 52.636719 29.484375 L 52.628906 29.570313 L 52.621094 29.613281 L 52.617188 29.65625 L 52.613281 29.695313 L 52.609375 29.738281 L 52.601563 29.777344 L 52.59375 29.855469 L 52.585938 29.894531 L 52.578125 29.964844 L 52.570313 30.027344 L 52.570313 30.054688 L 52.566406 30.082031 L 52.566406 30.105469 L 52.5625 30.128906 L 52.5625 30.207031 L 52.566406 30.246094 L 52.574219 30.316406 L 52.578125 30.355469 L 52.59375 30.425781 L 52.605469 30.460938 L 52.617188 30.492188 L 52.628906 30.527344 L 52.644531 30.558594 L 52.65625 30.59375 L 52.675781 30.625 L 52.691406 30.65625 L 52.710938 30.6875 L 52.730469 30.714844 L 52.75 30.746094 L 52.820313 30.828125 L 52.847656 30.851563 L 52.875 30.878906 L 52.929688 30.925781 L 53.023438 30.984375 L 53.058594 31.003906 L 53.128906 31.035156 L 53.167969 31.050781 L 53.203125 31.0625 L 53.242188 31.074219 L 53.28125 31.082031 L 53.324219 31.09375 L 53.363281 31.097656 L 53.40625 31.105469 L 53.449219 31.109375 L 53.640625 31.109375 L 53.746094 31.101563 L 53.851563 31.089844 L 53.960938 31.074219 L 54.070313 31.054688 L 54.179688 31.03125 L 54.289063 31.003906 L 54.402344 30.972656 L 54.628906 30.894531 L 54.746094 30.847656 L 54.972656 30.753906 L 55.085938 30.699219 L 55.195313 30.644531 L 55.304688 30.585938 L 55.515625 30.460938 L 55.621094 30.394531 L 55.722656 30.328125 L 56.8125 24.082031 L 58.199219 24.082031 L 56.921875 31.335938 L 57.90625 31.542969 L 57.839844 31.917969 L 55.523438 31.917969 L 55.671875 30.800781 L 55.609375 30.863281 L 55.484375 30.980469 L 55.425781 31.039063 L 55.367188 31.09375 L 55.304688 31.148438 L 55.25 31.203125 L 55.191406 31.253906 L 55.136719 31.304688 L 55.078125 31.351563 L 55.023438 31.398438 L 54.96875 31.441406 L 54.914063 31.488281 L 54.859375 31.527344 L 54.804688 31.570313 L 54.695313 31.648438 L 54.53125 31.753906 L 54.476563 31.785156 L 54.3125 31.867188 L 54.257813 31.890625 L 54.199219 31.914063 L 54.144531 31.9375 L 54.085938 31.957031 L 54.03125 31.976563 L 53.972656 31.996094 L 53.914063 32.011719 L 53.664063 32.058594 L 53.601563 32.0625 L 53.535156 32.070313 L 53.46875 32.074219 L 53.398438 32.078125 L 53.261719 32.078125 L 53.195313 32.074219 L 53.132813 32.070313 L 53.066406 32.0625 L 53.007813 32.054688 L 52.945313 32.042969 L 52.886719 32.027344 L 52.832031 32.015625 L 52.773438 31.996094 L 52.722656 31.976563 L 52.667969 31.957031 L 52.617188 31.9375 L 52.464844 31.867188 L 52.371094 31.8125 L 52.324219 31.78125 L 52.238281 31.71875 L 51.5625 35.570313 L 50.179688 35.570313 Z M 52.203125 24.082031 "/>
<path style=" stroke:none;fill-rule:nonzero;fill:rgb(29.803922%,63.921569%,51.764706%);fill-opacity:1;" d="M 72.601563 27.535156 L 72.601563 28.386719 L 64.65625 28.386719 L 64.65625 27.535156 Z M 72.601563 24.117188 L 72.601563 24.96875 L 64.65625 24.96875 L 64.65625 24.117188 Z M 72.601563 24.117188 "/>
<path style=" stroke:none;fill-rule:nonzero;fill:rgb(29.803922%,63.921569%,51.764706%);fill-opacity:1;" d="M 87.011719 26.042969 L 87.007813 26.375 L 87 26.699219 L 86.984375 27.011719 L 86.960938 27.3125 L 86.929688 27.601563 L 86.894531 27.882813 L 86.851563 28.148438 L 86.804688 28.410156 L 86.75 28.65625 L 86.6875 28.894531 L 86.621094 29.121094 L 86.550781 29.335938 L 86.476563 29.542969 L 86.394531 29.746094 L 86.308594 29.933594 L 86.21875 30.117188 L 86.125 30.292969 L 86.027344 30.457031 L 85.921875 30.613281 L 85.8125 30.761719 L 85.699219 30.898438 L 85.582031 31.027344 L 85.464844 31.148438 L 85.339844 31.261719 L 85.210938 31.371094 L 85.078125 31.46875 L 84.945313 31.554688 L 84.804688 31.636719 L 84.660156 31.710938 L 84.511719 31.777344 L 84.359375 31.835938 L 84.207031 31.890625 L 83.894531 31.976563 L 83.738281 32.007813 L 83.574219 32.035156 L 83.414063 32.058594 L 83.246094 32.074219 L 83.082031 32.082031 L 82.910156 32.085938 L 82.742188 32.082031 L 82.574219 32.074219 L 82.40625 32.058594 L 82.242188 32.035156 L 82.082031 32.007813 L 81.921875 31.976563 L 81.765625 31.933594 L 81.613281 31.890625 L 81.460938 31.835938 L 81.3125 31.777344 L 81.164063 31.710938 L 81.023438 31.636719 L 80.882813 31.554688 L 80.746094 31.46875 L 80.617188 31.371094 L 80.488281 31.261719 L 80.367188 31.148438 L 80.246094 31.027344 L 80.128906 30.898438 L 80.019531 30.761719 L 79.914063 30.613281 L 79.8125 30.460938 L 79.714844 30.296875 L 79.621094 30.125 L 79.53125 29.941406 L 79.449219 29.75 L 79.371094 29.550781 L 79.296875 29.34375 L 79.226563 29.128906 L 79.160156 28.902344 L 79.101563 28.664063 L 79.050781 28.417969 L 79.003906 28.15625 L 78.960938 27.886719 L 78.929688 27.609375 L 78.902344 27.316406 L 78.878906 27.015625 L 78.863281 26.703125 L 78.855469 26.378906 L 78.851563 26.042969 L 78.855469 25.695313 L 78.863281 25.355469 L 78.878906 25.03125 L 78.902344 24.722656 L 78.929688 24.421875 L 78.960938 24.132813 L 79.003906 23.859375 L 79.050781 23.597656 L 79.101563 23.347656 L 79.160156 23.109375 L 79.226563 22.878906 L 79.296875 22.660156 L 79.371094 22.449219 L 79.449219 22.25 L 79.535156 22.058594 L 79.625 21.878906 L 79.71875 21.707031 L 79.816406 21.546875 L 79.917969 21.394531 L 80.027344 21.25 L 80.140625 21.117188 L 80.253906 20.988281 L 80.375 20.871094 L 80.5 20.761719 L 80.628906 20.660156 L 80.757813 20.570313 L 80.894531 20.484375 L 81.035156 20.410156 L 81.179688 20.34375 L 81.328125 20.28125 L 81.632813 20.179688 L 81.789063 20.136719 L 81.949219 20.101563 L 82.109375 20.070313 L 82.277344 20.042969 L 82.441406 20.023438 L 82.613281 20.011719 L 82.785156 20.003906 L 82.960938 20 L 83.128906 20.003906 L 83.292969 20.011719 L 83.457031 20.023438 L 83.617188 20.042969 L 83.777344 20.070313 L 83.933594 20.101563 L 84.085938 20.136719 L 84.238281 20.179688 L 84.390625 20.230469 L 84.535156 20.28125 L 84.683594 20.34375 L 84.824219 20.410156 L 84.964844 20.484375 L 85.097656 20.570313 L 85.230469 20.660156 L 85.359375 20.761719 L 85.480469 20.871094 L 85.601563 20.988281 L 85.714844 21.117188 L 85.828125 21.25 L 85.9375 21.394531 L 86.039063 21.546875 L 86.136719 21.707031 L 86.230469 21.878906 L 86.320313 22.058594 L 86.40625 22.25 L 86.484375 22.449219 L 86.558594 22.660156 L 86.628906 22.878906 L 86.695313 23.109375 L 86.753906 23.347656 L 86.808594 23.597656 L 86.855469 23.859375 L 86.898438 24.132813 L 86.933594 24.421875 L 86.960938 24.722656 L 86.984375 25.03125 L 87 25.355469 L 87.007813 25.695313 Z M 85.488281 26.042969 L 85.484375 25.765625 L 85.480469 25.5 L 85.472656 25.246094 L 85.460938 25 L 85.445313 24.761719 L 85.425781 24.535156 L 85.40625 24.316406 L 85.378906 24.105469 L 85.351563 23.90625 L 85.320313 23.71875 L 85.285156 23.535156 L 85.246094 23.359375 L 85.207031 23.191406 L 85.160156 23.03125 L 85.113281 22.878906 L 85.0625 22.734375 L 85.007813 22.597656 L 84.953125 22.46875 L 84.890625 22.347656 L 84.828125 22.234375 L 84.761719 22.125 L 84.691406 22.023438 L 84.621094 21.929688 L 84.542969 21.839844 L 84.464844 21.757813 L 84.382813 21.683594 L 84.300781 21.613281 L 84.121094 21.496094 L 84.027344 21.449219 L 83.933594 21.40625 L 83.835938 21.367188 L 83.734375 21.332031 L 83.632813 21.300781 L 83.527344 21.273438 L 83.421875 21.253906 L 83.308594 21.238281 L 83.195313 21.226563 L 83.078125 21.21875 L 82.960938 21.214844 L 82.835938 21.21875 L 82.714844 21.226563 L 82.59375 21.238281 L 82.476563 21.253906 L 82.363281 21.273438 L 82.253906 21.300781 L 82.148438 21.332031 L 82.042969 21.367188 L 81.941406 21.40625 L 81.84375 21.449219 L 81.75 21.5 L 81.65625 21.554688 L 81.566406 21.617188 L 81.480469 21.6875 L 81.398438 21.765625 L 81.316406 21.847656 L 81.242188 21.9375 L 81.167969 22.03125 L 81.09375 22.132813 L 81.027344 22.242188 L 80.964844 22.355469 L 80.902344 22.476563 L 80.847656 22.605469 L 80.792969 22.742188 L 80.742188 22.886719 L 80.695313 23.039063 L 80.648438 23.199219 L 80.609375 23.367188 L 80.570313 23.542969 L 80.535156 23.726563 L 80.503906 23.914063 L 80.476563 24.113281 L 80.449219 24.324219 L 80.429688 24.539063 L 80.410156 24.765625 L 80.394531 25.003906 L 80.382813 25.25 L 80.375 25.503906 L 80.371094 25.769531 L 80.367188 26.042969 L 80.371094 26.308594 L 80.375 26.566406 L 80.382813 26.816406 L 80.394531 27.054688 L 80.410156 27.285156 L 80.429688 27.511719 L 80.449219 27.726563 L 80.476563 27.929688 L 80.503906 28.128906 L 80.535156 28.316406 L 80.570313 28.5 L 80.613281 28.675781 L 80.652344 28.839844 L 80.699219 29 L 80.746094 29.152344 L 80.800781 29.300781 L 80.855469 29.4375 L 80.910156 29.570313 L 80.972656 29.695313 L 81.035156 29.808594 L 81.105469 29.917969 L 81.175781 30.019531 L 81.25 30.117188 L 81.324219 30.207031 L 81.40625 30.292969 L 81.488281 30.371094 L 81.570313 30.441406 L 81.660156 30.507813 L 81.75 30.566406 L 81.84375 30.617188 L 81.941406 30.664063 L 82.039063 30.707031 L 82.140625 30.742188 L 82.246094 30.773438 L 82.351563 30.800781 L 82.460938 30.820313 L 82.574219 30.839844 L 82.691406 30.851563 L 82.808594 30.859375 L 83.046875 30.859375 L 83.160156 30.851563 L 83.273438 30.839844 L 83.492188 30.800781 L 83.597656 30.773438 L 83.699219 30.742188 L 83.800781 30.707031 L 83.898438 30.664063 L 83.996094 30.617188 L 84.089844 30.566406 L 84.179688 30.507813 L 84.265625 30.441406 L 84.351563 30.371094 L 84.433594 30.292969 L 84.511719 30.207031 L 84.585938 30.117188 L 84.660156 30.019531 L 84.726563 29.917969 L 84.796875 29.808594 L 84.859375 29.695313 L 84.921875 29.570313 L 84.980469 29.4375 L 85.035156 29.300781 L 85.089844 29.152344 L 85.136719 29 L 85.183594 28.839844 L 85.226563 28.675781 L 85.265625 28.5 L 85.304688 28.316406 L 85.339844 28.128906 L 85.371094 27.929688 L 85.398438 27.726563 L 85.421875 27.511719 L 85.441406 27.285156 L 85.457031 27.054688 L 85.46875 26.816406 L 85.480469 26.566406 L 85.484375 26.308594 Z M 85.488281 26.042969 "/>
<path style=" stroke:none;fill-rule:nonzero;fill:rgb(29.803922%,63.921569%,51.764706%);fill-opacity:1;" d="M 89.238281 31.917969 L 89.238281 30.09375 L 90.863281 30.09375 L 90.863281 31.917969 Z M 89.238281 31.917969 "/>
<path style=" stroke:none;fill-rule:nonzero;fill:rgb(29.803922%,63.921569%,51.764706%);fill-opacity:1;" d="M 101.199219 28.09375 L 101.195313 28.269531 L 101.1875 28.441406 L 101.175781 28.609375 L 101.15625 28.777344 L 101.132813 28.9375 L 101.105469 29.097656 L 101.070313 29.257813 L 100.984375 29.5625 L 100.933594 29.710938 L 100.878906 29.855469 L 100.816406 29.996094 L 100.75 30.132813 L 100.679688 30.265625 L 100.601563 30.394531 L 100.519531 30.519531 L 100.433594 30.640625 L 100.339844 30.757813 L 100.242188 30.867188 L 100.140625 30.976563 L 100.035156 31.082031 L 99.921875 31.179688 L 99.804688 31.273438 L 99.679688 31.359375 L 99.550781 31.445313 L 99.417969 31.523438 L 99.28125 31.597656 L 99.136719 31.667969 L 98.988281 31.734375 L 98.675781 31.851563 L 98.511719 31.898438 L 98.34375 31.941406 L 98.171875 31.980469 L 97.996094 32.011719 L 97.8125 32.039063 L 97.625 32.058594 L 97.433594 32.074219 L 97.234375 32.082031 L 97.03125 32.085938 L 96.847656 32.082031 L 96.671875 32.078125 L 96.496094 32.066406 L 96.328125 32.050781 L 96.164063 32.03125 L 96.003906 32.007813 L 95.851563 31.980469 L 95.699219 31.949219 L 95.554688 31.910156 L 95.414063 31.871094 L 95.148438 31.777344 L 95.023438 31.726563 L 94.902344 31.671875 L 94.785156 31.613281 L 94.667969 31.550781 L 94.558594 31.488281 L 94.453125 31.421875 L 94.351563 31.351563 L 94.257813 31.277344 L 94.164063 31.199219 L 94.074219 31.117188 L 93.988281 31.035156 L 93.90625 30.949219 L 93.828125 30.863281 L 93.753906 30.773438 L 93.683594 30.679688 L 93.617188 30.582031 L 93.554688 30.484375 L 93.496094 30.386719 L 93.445313 30.28125 L 93.394531 30.179688 L 93.347656 30.074219 L 93.304688 29.964844 L 93.261719 29.859375 L 93.222656 29.75 L 93.128906 29.410156 L 93.105469 29.292969 L 94.621094 29.117188 L 94.640625 29.183594 L 94.664063 29.25 L 94.683594 29.316406 L 94.707031 29.382813 L 94.734375 29.449219 L 94.761719 29.511719 L 94.789063 29.578125 L 94.816406 29.640625 L 94.847656 29.707031 L 94.882813 29.769531 L 94.914063 29.828125 L 94.953125 29.890625 L 94.992188 29.949219 L 95.035156 30.007813 L 95.078125 30.0625 L 95.171875 30.171875 L 95.222656 30.226563 L 95.332031 30.328125 L 95.390625 30.375 L 95.453125 30.421875 L 95.585938 30.507813 L 95.726563 30.585938 L 95.800781 30.621094 L 95.878906 30.65625 L 95.957031 30.6875 L 96.039063 30.71875 L 96.125 30.746094 L 96.3125 30.792969 L 96.40625 30.808594 L 96.507813 30.824219 L 96.613281 30.839844 L 96.832031 30.855469 L 96.945313 30.859375 L 97.179688 30.859375 L 97.292969 30.855469 L 97.40625 30.84375 L 97.515625 30.832031 L 97.621094 30.816406 L 97.726563 30.796875 L 97.929688 30.75 L 98.125 30.6875 L 98.21875 30.648438 L 98.308594 30.605469 L 98.394531 30.5625 L 98.480469 30.511719 L 98.5625 30.460938 L 98.644531 30.40625 L 98.71875 30.347656 L 98.792969 30.285156 L 98.933594 30.152344 L 99 30.082031 L 99.0625 30.003906 L 99.125 29.929688 L 99.179688 29.847656 L 99.234375 29.761719 L 99.285156 29.675781 L 99.332031 29.585938 L 99.378906 29.492188 L 99.417969 29.394531 L 99.457031 29.292969 L 99.492188 29.191406 L 99.523438 29.085938 L 99.550781 28.976563 L 99.574219 28.863281 L 99.613281 28.628906 L 99.625 28.507813 L 99.640625 28.257813 L 99.640625 28.019531 L 99.625 27.808594 L 99.613281 27.707031 L 99.597656 27.609375 L 99.578125 27.507813 L 99.554688 27.414063 L 99.527344 27.316406 L 99.5 27.226563 L 99.464844 27.132813 L 99.429688 27.042969 L 99.390625 26.957031 L 99.347656 26.871094 L 99.300781 26.789063 L 99.253906 26.710938 L 99.203125 26.632813 L 99.148438 26.558594 L 99.03125 26.417969 L 98.898438 26.285156 L 98.828125 26.222656 L 98.757813 26.164063 L 98.683594 26.109375 L 98.601563 26.054688 L 98.523438 26.003906 L 98.4375 25.957031 L 98.351563 25.914063 L 98.257813 25.871094 L 98.070313 25.800781 L 97.972656 25.769531 L 97.875 25.742188 L 97.664063 25.695313 L 97.558594 25.679688 L 97.445313 25.667969 L 97.21875 25.652344 L 96.949219 25.652344 L 96.808594 25.660156 L 96.667969 25.675781 L 96.601563 25.683594 L 96.535156 25.695313 L 96.46875 25.703125 L 96.40625 25.71875 L 96.34375 25.730469 L 96.21875 25.761719 L 96.160156 25.777344 L 95.925781 25.855469 L 95.761719 25.925781 L 95.710938 25.949219 L 95.660156 25.976563 L 95.609375 26 L 95.558594 26.027344 L 95.511719 26.054688 L 95.460938 26.085938 L 95.414063 26.113281 L 95.367188 26.144531 L 95.238281 26.238281 L 95.195313 26.265625 L 95.152344 26.296875 L 95.113281 26.332031 L 95.070313 26.363281 L 94.992188 26.425781 L 94.953125 26.460938 L 94.914063 26.492188 L 93.449219 26.492188 L 93.839844 20.175781 L 100.515625 20.175781 L 100.515625 21.449219 L 95.207031 21.449219 L 94.980469 25.175781 L 95.0625 25.113281 L 95.148438 25.054688 L 95.238281 25 L 95.332031 24.945313 L 95.429688 24.890625 L 95.640625 24.789063 L 95.75 24.742188 L 95.863281 24.695313 L 95.980469 24.652344 L 96.105469 24.609375 L 96.230469 24.570313 L 96.363281 24.535156 L 96.496094 24.507813 L 96.636719 24.480469 L 96.78125 24.460938 L 96.933594 24.445313 L 97.085938 24.433594 L 97.40625 24.425781 L 97.582031 24.429688 L 97.75 24.4375 L 97.917969 24.449219 L 98.078125 24.46875 L 98.238281 24.492188 L 98.394531 24.523438 L 98.546875 24.554688 L 98.695313 24.597656 L 98.839844 24.640625 L 98.984375 24.691406 L 99.121094 24.746094 L 99.253906 24.808594 L 99.382813 24.871094 L 99.507813 24.941406 L 99.628906 25.015625 L 99.746094 25.09375 L 99.859375 25.175781 L 99.96875 25.261719 L 100.074219 25.355469 L 100.175781 25.449219 L 100.363281 25.652344 L 100.449219 25.757813 L 100.53125 25.867188 L 100.609375 25.980469 L 100.683594 26.101563 L 100.753906 26.222656 L 100.816406 26.347656 L 100.878906 26.476563 L 100.933594 26.609375 L 100.984375 26.746094 L 101.070313 27.027344 L 101.105469 27.171875 L 101.132813 27.316406 L 101.15625 27.46875 L 101.175781 27.621094 L 101.1875 27.773438 L 101.195313 27.933594 Z M 101.199219 28.09375 "/>
<path style=" stroke:none;fill-rule:nonzero;fill:rgb(0%,0%,0%);fill-opacity:1;" d="M 183.796875 243.617188 L 181.375 239.78125 L 178.957031 243.617188 L 176.824219 243.617188 L 180.160156 238.550781 L 177.105469 233.984375 L 179.238281 233.984375 L 181.375 237.386719 L 183.515625 233.984375 L 185.636719 233.984375 L 182.710938 238.550781 L 185.914063 243.617188 Z M 183.796875 243.617188 "/>
</g>
</svg>
