<?xml version="1.0" encoding="UTF-8"?>
<svg xmlns="http://www.w3.org/2000/svg" xmlns:xlink="http://www.w3.org/1999/xlink" width="288" height="144" viewBox="0 0 288 144">
<defs>
<g>
<g id="glyph-0-0">
<path d="M 0.546875 0 L 0.546875 -12.25 L 10.28125 -12.25 L 10.28125 0 Z M 8.734375 -1.53125 L 8.734375 -10.71875 L 2.078125 -10.71875 L 2.078125 -1.53125 Z M 8.734375 -1.53125 "/>
</g>
<g id="glyph-0-1">
<path d="M 0.25 -8.9375 L 2.1875 -8.9375 L 4.25 -5.78125 L 6.328125 -8.9375 L 8.140625 -8.890625 L 5.140625 -4.578125 L 8.28125 0 L 6.359375 0 L 4.140625 -3.359375 L 2 0 L 0.09375 0 L 3.234375 -4.578125 Z M 0.25 -8.9375 "/>
</g>
<g id="glyph-1-0">
<path d="M 0.84375 3.015625 L 0.84375 -12.046875 L 9.390625 -12.046875 L 9.390625 3.015625 Z M 1.8125 2.0625 L 8.4375 2.0625 L 8.4375 -11.078125 L 1.8125 -11.078125 Z M 1.8125 2.0625 "/>
</g>
<g id="glyph-1-1">
<path d="M 1.8125 -8.40625 L 1.8125 -9.921875 L 12.5 -6.046875 L 12.5 -4.65625 L 1.8125 -0.78125 L 1.8125 -2.296875 L 10.40625 -5.34375 Z M 1.8125 -8.40625 "/>
</g>
<g id="glyph-2-0">
<path d="M 2.140625 0 L 2.140625 -12.8125 L 14.9375 -12.8125 L 14.9375 0 Z M 3.203125 -1.0625 L 13.875 -1.0625 L 13.875 -11.734375 L 3.203125 -11.734375 Z M 3.203125 -1.0625 "/>
</g>
<g id="glyph-2-1">
<path d="M 9.375 0 L 7.828125 0 L 7.828125 -0.984375 C 7.421875 -0.546875 7.03125 -0.242188 6.65625 -0.078125 C 6.28125 0.0859375 5.875 0.171875 5.4375 0.171875 C 5.019531 0.171875 4.644531 0.0976562 4.3125 -0.046875 C 3.976562 -0.203125 3.578125 -0.5 3.109375 -0.9375 L 3.109375 3.4375 L 1.546875 3.4375 L 1.546875 -9.3125 L 3.109375 -9.3125 L 3.109375 -2.328125 C 3.285156 -2.109375 3.59375 -1.882812 4.03125 -1.65625 C 4.46875 -1.425781 4.941406 -1.3125 5.453125 -1.3125 C 5.972656 -1.3125 6.421875 -1.40625 6.796875 -1.59375 C 7.171875 -1.78125 7.507812 -2.039062 7.8125 -2.375 L 7.8125 -9.3125 L 9.375 -9.3125 Z M 9.375 0 "/>
</g>
<g id="glyph-3-0">
<path d="M 1.421875 0 L 1.421875 -8.53125 L 9.953125 -8.53125 L 9.953125 0 Z M 2.140625 -0.71875 L 9.25 -0.71875 L 9.25 -7.828125 L 2.140625 -7.828125 Z M 2.140625 -0.71875 "/>
</g>
<g id="glyph-3-1">
<path d="M 6.0625 0 L 5.015625 0 L 5.015625 -0.65625 C 4.710938 -0.394531 4.398438 -0.191406 4.078125 -0.046875 C 3.753906 0.0976562 3.398438 0.171875 3.015625 0.171875 C 2.273438 0.171875 1.6875 -0.109375 1.25 -0.671875 C 0.8125 -1.242188 0.59375 -2.039062 0.59375 -3.0625 C 0.59375 -3.582031 0.664062 -4.046875 0.8125 -4.453125 C 0.96875 -4.867188 1.175781 -5.222656 1.4375 -5.515625 C 1.6875 -5.796875 1.976562 -6.007812 2.3125 -6.15625 C 2.644531 -6.300781 2.992188 -6.375 3.359375 -6.375 C 3.679688 -6.375 3.96875 -6.332031 4.21875 -6.25 C 4.46875 -6.164062 4.734375 -6.054688 5.015625 -5.921875 L 5.015625 -6.203125 L 6.0625 -6.203125 Z M 5.015625 -1.53125 L 5.015625 -5.0625 C 4.734375 -5.1875 4.476562 -5.273438 4.25 -5.328125 C 4.03125 -5.390625 3.789062 -5.421875 3.53125 -5.421875 C 2.945312 -5.421875 2.488281 -5.21875 2.15625 -4.8125 C 1.832031 -4.40625 1.671875 -3.828125 1.671875 -3.078125 C 1.671875 -2.335938 1.796875 -1.773438 2.046875 -1.390625 C 2.304688 -1.015625 2.710938 -0.828125 3.265625 -0.828125 C 3.554688 -0.828125 3.851562 -0.890625 4.15625 -1.015625 C 4.46875 -1.148438 4.753906 -1.320312 5.015625 -1.53125 Z M 5.015625 -1.53125 "/>
</g>
<g id="glyph-4-0">
<path d="M 0.5625 2.015625 L 0.5625 -8.015625 L 6.25 -8.015625 L 6.25 2.015625 Z M 1.203125 1.375 L 5.625 1.375 L 5.625 -7.375 L 1.203125 -7.375 Z M 1.203125 1.375 "/>
</g>
<g id="glyph-4-1">
<path d="M 1.203125 -5.171875 L 8.328125 -5.171875 L 8.328125 -4.234375 L 1.203125 -4.234375 Z M 1.203125 -2.90625 L 8.328125 -2.90625 L 8.328125 -1.953125 L 1.203125 -1.953125 Z M 1.203125 -2.90625 "/>
</g>
<g id="glyph-5-0">
<path d="M 0.359375 0 L 0.359375 -8.15625 L 6.84375 -8.15625 L 6.84375 0 Z M 5.828125 -1.015625 L 5.828125 -7.140625 L 1.390625 -7.140625 L 1.390625 -1.015625 Z M 5.828125 -1.015625 "/>
</g>
<g id="glyph-5-1">
<path d="M 3.078125 -7.953125 C 4.109375 -7.953125 4.851562 -7.53125 5.3125 -6.6875 C 5.664062 -6.03125 5.84375 -5.128906 5.84375 -3.984375 C 5.84375 -2.898438 5.679688 -2.007812 5.359375 -1.3125 C 4.890625 -0.289062 4.128906 0.21875 3.078125 0.21875 C 2.117188 0.21875 1.40625 -0.195312 0.9375 -1.03125 C 0.550781 -1.71875 0.359375 -2.644531 0.359375 -3.8125 C 0.359375 -4.71875 0.472656 -5.492188 0.703125 -6.140625 C 1.140625 -7.347656 1.929688 -7.953125 3.078125 -7.953125 Z M 3.0625 -0.6875 C 3.582031 -0.6875 3.992188 -0.914062 4.296875 -1.375 C 4.609375 -1.84375 4.765625 -2.703125 4.765625 -3.953125 C 4.765625 -4.847656 4.648438 -5.585938 4.421875 -6.171875 C 4.203125 -6.753906 3.773438 -7.046875 3.140625 -7.046875 C 2.546875 -7.046875 2.113281 -6.769531 1.84375 -6.21875 C 1.570312 -5.664062 1.4375 -4.851562 1.4375 -3.78125 C 1.4375 -2.96875 1.523438 -2.316406 1.703125 -1.828125 C 1.960938 -1.066406 2.414062 -0.6875 3.0625 -0.6875 Z M 3.0625 -0.6875 "/>
</g>
<g id="glyph-5-2">
<path d="M 0.96875 -1.203125 L 2.140625 -1.203125 L 2.140625 0 L 0.96875 0 Z M 0.96875 -1.203125 "/>
</g>
<g id="glyph-5-3">
<path d="M 1.40625 -2.03125 C 1.46875 -1.457031 1.734375 -1.0625 2.203125 -0.84375 C 2.441406 -0.726562 2.710938 -0.671875 3.015625 -0.671875 C 3.609375 -0.671875 4.046875 -0.859375 4.328125 -1.234375 C 4.617188 -1.617188 4.765625 -2.039062 4.765625 -2.5 C 4.765625 -3.050781 4.59375 -3.476562 4.25 -3.78125 C 3.914062 -4.09375 3.507812 -4.25 3.03125 -4.25 C 2.6875 -4.25 2.390625 -4.179688 2.140625 -4.046875 C 1.898438 -3.910156 1.691406 -3.722656 1.515625 -3.484375 L 0.65625 -3.53125 L 1.265625 -7.828125 L 5.390625 -7.828125 L 5.390625 -6.859375 L 2.015625 -6.859375 L 1.671875 -4.640625 C 1.859375 -4.785156 2.035156 -4.890625 2.203125 -4.953125 C 2.492188 -5.078125 2.835938 -5.140625 3.234375 -5.140625 C 3.960938 -5.140625 4.578125 -4.90625 5.078125 -4.4375 C 5.585938 -3.96875 5.84375 -3.375 5.84375 -2.65625 C 5.84375 -1.894531 5.609375 -1.226562 5.140625 -0.65625 C 4.679688 -0.0820312 3.941406 0.203125 2.921875 0.203125 C 2.273438 0.203125 1.703125 0.0195312 1.203125 -0.34375 C 0.703125 -0.707031 0.421875 -1.269531 0.359375 -2.03125 Z M 1.40625 -2.03125 "/>
</g>
<g id="glyph-6-0">
<path d="M 0.328125 0 L 0.328125 -7.171875 L 6.015625 -7.171875 L 6.015625 0 Z M 5.125 -0.90625 L 5.125 -6.28125 L 1.21875 -6.28125 L 1.21875 -0.90625 Z M 5.125 -0.90625 "/>
</g>
<g id="glyph-6-1">
<path d="M 0.421875 -3.234375 L 2.859375 -3.234375 L 2.859375 -2.328125 L 0.421875 -2.328125 Z M 0.421875 -3.234375 "/>
</g>
<g id="glyph-6-2">
<path d="M 1.234375 -1.78125 C 1.296875 -1.28125 1.53125 -0.9375 1.9375 -0.75 C 2.144531 -0.644531 2.382812 -0.59375 2.65625 -0.59375 C 3.175781 -0.59375 3.5625 -0.757812 3.8125 -1.09375 C 4.0625 -1.425781 4.1875 -1.796875 4.1875 -2.203125 C 4.1875 -2.691406 4.035156 -3.066406 3.734375 -3.328125 C 3.441406 -3.597656 3.085938 -3.734375 2.671875 -3.734375 C 2.367188 -3.734375 2.109375 -3.671875 1.890625 -3.546875 C 1.671875 -3.429688 1.488281 -3.269531 1.34375 -3.0625 L 0.578125 -3.109375 L 1.109375 -6.875 L 4.734375 -6.875 L 4.734375 -6.03125 L 1.765625 -6.03125 L 1.46875 -4.078125 C 1.632812 -4.203125 1.789062 -4.296875 1.9375 -4.359375 C 2.195312 -4.460938 2.5 -4.515625 2.84375 -4.515625 C 3.476562 -4.515625 4.019531 -4.304688 4.46875 -3.890625 C 4.914062 -3.484375 5.140625 -2.960938 5.140625 -2.328125 C 5.140625 -1.671875 4.929688 -1.085938 4.515625 -0.578125 C 4.109375 -0.078125 3.457031 0.171875 2.5625 0.171875 C 2 0.171875 1.5 0.015625 1.0625 -0.296875 C 0.625 -0.617188 0.378906 -1.113281 0.328125 -1.78125 Z M 1.234375 -1.78125 "/>
</g>
<g id="glyph-6-3">
<path d="M 0.859375 -1.0625 L 1.875 -1.0625 L 1.875 0 L 0.859375 0 Z M 0.859375 -1.0625 "/>
</g>
<g id="glyph-6-4">
<path d="M 2.703125 -7 C 3.609375 -7 4.265625 -6.625 4.671875 -5.875 C 4.984375 -5.300781 5.140625 -4.507812 5.140625 -3.5 C 5.140625 -2.550781 5 -1.765625 4.71875 -1.140625 C 4.300781 -0.253906 3.628906 0.1875 2.703125 0.1875 C 1.859375 0.1875 1.234375 -0.175781 0.828125 -0.90625 C 0.484375 -1.507812 0.3125 -2.328125 0.3125 -3.359375 C 0.3125 -4.148438 0.414062 -4.832031 0.625 -5.40625 C 1.007812 -6.46875 1.703125 -7 2.703125 -7 Z M 2.703125 -0.609375 C 3.148438 -0.609375 3.507812 -0.8125 3.78125 -1.21875 C 4.050781 -1.625 4.1875 -2.375 4.1875 -3.46875 C 4.1875 -4.257812 4.085938 -4.910156 3.890625 -5.421875 C 3.703125 -5.941406 3.328125 -6.203125 2.765625 -6.203125 C 2.242188 -6.203125 1.863281 -5.957031 1.625 -5.46875 C 1.382812 -4.976562 1.265625 -4.265625 1.265625 -3.328125 C 1.265625 -2.609375 1.34375 -2.035156 1.5 -1.609375 C 1.726562 -0.941406 2.128906 -0.609375 2.703125 -0.609375 Z M 2.703125 -0.609375 "/>
</g>
<g id="glyph-6-5">
<path d="M 0.3125 0 C 0.34375 -0.601562 0.46875 -1.125 0.6875 -1.5625 C 0.90625 -2.007812 1.328125 -2.414062 1.953125 -2.78125 L 2.890625 -3.328125 C 3.304688 -3.578125 3.601562 -3.785156 3.78125 -3.953125 C 4.039062 -4.222656 4.171875 -4.535156 4.171875 -4.890625 C 4.171875 -5.296875 4.046875 -5.617188 3.796875 -5.859375 C 3.554688 -6.097656 3.234375 -6.21875 2.828125 -6.21875 C 2.222656 -6.21875 1.804688 -5.988281 1.578125 -5.53125 C 1.453125 -5.28125 1.382812 -4.941406 1.375 -4.515625 L 0.484375 -4.515625 C 0.492188 -5.117188 0.609375 -5.613281 0.828125 -6 C 1.203125 -6.675781 1.875 -7.015625 2.84375 -7.015625 C 3.632812 -7.015625 4.210938 -6.796875 4.578125 -6.359375 C 4.953125 -5.929688 5.140625 -5.453125 5.140625 -4.921875 C 5.140625 -4.359375 4.945312 -3.878906 4.5625 -3.484375 C 4.332031 -3.253906 3.921875 -2.972656 3.328125 -2.640625 L 2.65625 -2.28125 C 2.34375 -2.101562 2.09375 -1.929688 1.90625 -1.765625 C 1.582031 -1.484375 1.378906 -1.171875 1.296875 -0.828125 L 5.109375 -0.828125 L 5.109375 0 Z M 0.3125 0 "/>
</g>
<g id="glyph-7-0">
<path d="M 0.90625 -8.640625 L 7.859375 -8.640625 L 7.859375 0 L 0.90625 0 Z M 6.78125 -1.078125 L 6.78125 -7.5625 L 1.984375 -7.5625 L 1.984375 -1.078125 Z M 6.78125 -1.078125 "/>
</g>
<g id="glyph-7-1">
<path d="M 3.703125 -1.1875 L 3.703125 0.0625 L 2.90625 0.09375 C 2.125 0.113281 1.585938 -0.0234375 1.296875 -0.328125 C 1.109375 -0.515625 1.015625 -0.804688 1.015625 -1.203125 L 1.015625 -5.140625 L 0.125 -5.140625 L 0.125 -6.328125 L 1.015625 -6.328125 L 1.015625 -8.109375 L 2.671875 -8.109375 L 2.671875 -6.328125 L 3.703125 -6.328125 L 3.703125 -5.140625 L 2.671875 -5.140625 L 2.671875 -1.765625 C 2.671875 -1.503906 2.703125 -1.335938 2.765625 -1.265625 C 2.828125 -1.203125 3.03125 -1.171875 3.375 -1.171875 C 3.425781 -1.171875 3.476562 -1.171875 3.53125 -1.171875 C 3.59375 -1.179688 3.648438 -1.1875 3.703125 -1.1875 Z M 3.703125 -1.1875 "/>
</g>
</g>
<clipPath id="clip-0">
<path clip-rule="nonzero" d="M 5.480469 5.480469 L 282.523438 5.480469 L 282.523438 107.851562 L 5.480469 107.851562 Z M 5.480469 5.480469 "/>
</clipPath>
<clipPath id="clip-1">
<path clip-rule="nonzero" d="M 5.480469 91 L 282.523438 91 L 282.523438 92 L 5.480469 92 Z M 5.480469 91 "/>
</clipPath>
<clipPath id="clip-2">
<path clip-rule="nonzero" d="M 5.480469 67 L 282.523438 67 L 282.523438 69 L 5.480469 69 Z M 5.480469 67 "/>
</clipPath>
<clipPath id="clip-3">
<path clip-rule="nonzero" d="M 5.480469 44 L 282.523438 44 L 282.523438 45 L 5.480469 45 Z M 5.480469 44 "/>
</clipPath>
<clipPath id="clip-4">
<path clip-rule="nonzero" d="M 5.480469 20 L 282.523438 20 L 282.523438 22 L 5.480469 22 Z M 5.480469 20 "/>
</clipPath>
<clipPath id="clip-5">
<path clip-rule="nonzero" d="M 49 5.480469 L 50 5.480469 L 50 107.851562 L 49 107.851562 Z M 49 5.480469 "/>
</clipPath>
<clipPath id="clip-6">
<path clip-rule="nonzero" d="M 112 5.480469 L 113 5.480469 L 113 107.851562 L 112 107.851562 Z M 112 5.480469 "/>
</clipPath>
<clipPath id="clip-7">
<path clip-rule="nonzero" d="M 175 5.480469 L 176 5.480469 L 176 107.851562 L 175 107.851562 Z M 175 5.480469 "/>
</clipPath>
<clipPath id="clip-8">
<path clip-rule="nonzero" d="M 238 5.480469 L 239 5.480469 L 239 107.851562 L 238 107.851562 Z M 238 5.480469 "/>
</clipPath>
<clipPath id="clip-9">
<path clip-rule="nonzero" d="M 5.480469 102 L 282.523438 102 L 282.523438 104 L 5.480469 104 Z M 5.480469 102 "/>
</clipPath>
<clipPath id="clip-10">
<path clip-rule="nonzero" d="M 5.480469 79 L 282.523438 79 L 282.523438 81 L 5.480469 81 Z M 5.480469 79 "/>
</clipPath>
<clipPath id="clip-11">
<path clip-rule="nonzero" d="M 5.480469 55 L 282.523438 55 L 282.523438 57 L 5.480469 57 Z M 5.480469 55 "/>
</clipPath>
<clipPath id="clip-12">
<path clip-rule="nonzero" d="M 5.480469 32 L 282.523438 32 L 282.523438 34 L 5.480469 34 Z M 5.480469 32 "/>
</clipPath>
<clipPath id="clip-13">
<path clip-rule="nonzero" d="M 5.480469 8 L 282.523438 8 L 282.523438 10 L 5.480469 10 Z M 5.480469 8 "/>
</clipPath>
<clipPath id="clip-14">
<path clip-rule="nonzero" d="M 17 5.480469 L 19 5.480469 L 19 107.851562 L 17 107.851562 Z M 17 5.480469 "/>
</clipPath>
<clipPath id="clip-15">
<path clip-rule="nonzero" d="M 80 5.480469 L 82 5.480469 L 82 107.851562 L 80 107.851562 Z M 80 5.480469 "/>
</clipPath>
<clipPath id="clip-16">
<path clip-rule="nonzero" d="M 143 5.480469 L 145 5.480469 L 145 107.851562 L 143 107.851562 Z M 143 5.480469 "/>
</clipPath>
<clipPath id="clip-17">
<path clip-rule="nonzero" d="M 206 5.480469 L 208 5.480469 L 208 107.851562 L 206 107.851562 Z M 206 5.480469 "/>
</clipPath>
<clipPath id="clip-18">
<path clip-rule="nonzero" d="M 269 5.480469 L 271 5.480469 L 271 107.851562 L 269 107.851562 Z M 269 5.480469 "/>
</clipPath>
</defs>
<rect x="-28.8" y="-14.4" width="345.6" height="172.8" fill="rgb(100%, 100%, 100%)" fill-opacity="1"/>
<rect x="-28.8" y="-14.4" width="345.6" height="172.8" fill="rgb(100%, 100%, 100%)" fill-opacity="1"/>
<path fill="none" stroke-width="1.066978" stroke-linecap="round" stroke-linejoin="round" stroke="rgb(100%, 100%, 100%)" stroke-opacity="1" stroke-miterlimit="10" d="M 0 144 L 288 144 L 288 0 L 0 0 Z M 0 144 "/>
<g clip-path="url(#clip-0)">
<path fill-rule="nonzero" fill="rgb(92.156863%, 92.156863%, 92.156863%)" fill-opacity="1" d="M 5.480469 107.847656 L 282.523438 107.847656 L 282.523438 5.476562 L 5.480469 5.476562 Z M 5.480469 107.847656 "/>
</g>
<g clip-path="url(#clip-1)">
<path fill="none" stroke-width="0.533489" stroke-linecap="butt" stroke-linejoin="round" stroke="rgb(100%, 100%, 100%)" stroke-opacity="1" stroke-miterlimit="10" d="M 5.480469 91.429688 L 282.519531 91.429688 "/>
</g>
<g clip-path="url(#clip-2)">
<path fill="none" stroke-width="0.533489" stroke-linecap="butt" stroke-linejoin="round" stroke="rgb(100%, 100%, 100%)" stroke-opacity="1" stroke-miterlimit="10" d="M 5.480469 67.902344 L 282.519531 67.902344 "/>
</g>
<g clip-path="url(#clip-3)">
<path fill="none" stroke-width="0.533489" stroke-linecap="butt" stroke-linejoin="round" stroke="rgb(100%, 100%, 100%)" stroke-opacity="1" stroke-miterlimit="10" d="M 5.480469 44.371094 L 282.519531 44.371094 "/>
</g>
<g clip-path="url(#clip-4)">
<path fill="none" stroke-width="0.533489" stroke-linecap="butt" stroke-linejoin="round" stroke="rgb(100%, 100%, 100%)" stroke-opacity="1" stroke-miterlimit="10" d="M 5.480469 20.84375 L 282.519531 20.84375 "/>
</g>
<g clip-path="url(#clip-5)">
<path fill="none" stroke-width="0.533489" stroke-linecap="butt" stroke-linejoin="round" stroke="rgb(100%, 100%, 100%)" stroke-opacity="1" stroke-miterlimit="10" d="M 49.554688 107.847656 L 49.554688 5.480469 "/>
</g>
<g clip-path="url(#clip-6)">
<path fill="none" stroke-width="0.533489" stroke-linecap="butt" stroke-linejoin="round" stroke="rgb(100%, 100%, 100%)" stroke-opacity="1" stroke-miterlimit="10" d="M 112.519531 107.847656 L 112.519531 5.480469 "/>
</g>
<g clip-path="url(#clip-7)">
<path fill="none" stroke-width="0.533489" stroke-linecap="butt" stroke-linejoin="round" stroke="rgb(100%, 100%, 100%)" stroke-opacity="1" stroke-miterlimit="10" d="M 175.480469 107.847656 L 175.480469 5.480469 "/>
</g>
<g clip-path="url(#clip-8)">
<path fill="none" stroke-width="0.533489" stroke-linecap="butt" stroke-linejoin="round" stroke="rgb(100%, 100%, 100%)" stroke-opacity="1" stroke-miterlimit="10" d="M 238.445312 107.847656 L 238.445312 5.480469 "/>
</g>
<g clip-path="url(#clip-9)">
<path fill="none" stroke-width="1.066978" stroke-linecap="butt" stroke-linejoin="round" stroke="rgb(100%, 100%, 100%)" stroke-opacity="1" stroke-miterlimit="10" d="M 5.480469 103.195312 L 282.519531 103.195312 "/>
</g>
<g clip-path="url(#clip-10)">
<path fill="none" stroke-width="1.066978" stroke-linecap="butt" stroke-linejoin="round" stroke="rgb(100%, 100%, 100%)" stroke-opacity="1" stroke-miterlimit="10" d="M 5.480469 79.667969 L 282.519531 79.667969 "/>
</g>
<g clip-path="url(#clip-11)">
<path fill="none" stroke-width="1.066978" stroke-linecap="butt" stroke-linejoin="round" stroke="rgb(100%, 100%, 100%)" stroke-opacity="1" stroke-miterlimit="10" d="M 5.480469 56.136719 L 282.519531 56.136719 "/>
</g>
<g clip-path="url(#clip-12)">
<path fill="none" stroke-width="1.066978" stroke-linecap="butt" stroke-linejoin="round" stroke="rgb(100%, 100%, 100%)" stroke-opacity="1" stroke-miterlimit="10" d="M 5.480469 32.609375 L 282.519531 32.609375 "/>
</g>
<g clip-path="url(#clip-13)">
<path fill="none" stroke-width="1.066978" stroke-linecap="butt" stroke-linejoin="round" stroke="rgb(100%, 100%, 100%)" stroke-opacity="1" stroke-miterlimit="10" d="M 5.480469 9.078125 L 282.519531 9.078125 "/>
</g>
<g clip-path="url(#clip-14)">
<path fill="none" stroke-width="1.066978" stroke-linecap="butt" stroke-linejoin="round" stroke="rgb(100%, 100%, 100%)" stroke-opacity="1" stroke-miterlimit="10" d="M 18.070312 107.847656 L 18.070312 5.480469 "/>
</g>
<g clip-path="url(#clip-15)">
<path fill="none" stroke-width="1.066978" stroke-linecap="butt" stroke-linejoin="round" stroke="rgb(100%, 100%, 100%)" stroke-opacity="1" stroke-miterlimit="10" d="M 81.035156 107.847656 L 81.035156 5.480469 "/>
</g>
<g clip-path="url(#clip-16)">
<path fill="none" stroke-width="1.066978" stroke-linecap="butt" stroke-linejoin="round" stroke="rgb(100%, 100%, 100%)" stroke-opacity="1" stroke-miterlimit="10" d="M 144 107.847656 L 144 5.480469 "/>
</g>
<g clip-path="url(#clip-17)">
<path fill="none" stroke-width="1.066978" stroke-linecap="butt" stroke-linejoin="round" stroke="rgb(100%, 100%, 100%)" stroke-opacity="1" stroke-miterlimit="10" d="M 206.964844 107.847656 L 206.964844 5.480469 "/>
</g>
<g clip-path="url(#clip-18)">
<path fill="none" stroke-width="1.066978" stroke-linecap="butt" stroke-linejoin="round" stroke="rgb(100%, 100%, 100%)" stroke-opacity="1" stroke-miterlimit="10" d="M 269.929688 107.847656 L 269.929688 5.480469 "/>
</g>
<path fill="none" stroke-width="3.200935" stroke-linecap="butt" stroke-linejoin="round" stroke="rgb(29.803922%, 63.921569%, 51.764706%)" stroke-opacity="1" stroke-miterlimit="10" d="M 18.070312 103.1875 L 20.589844 103.183594 L 23.109375 103.183594 L 25.628906 103.175781 L 28.144531 103.171875 L 30.664062 103.164062 L 35.703125 103.140625 L 38.21875 103.121094 L 40.738281 103.097656 L 43.257812 103.066406 L 45.777344 103.03125 L 48.292969 102.980469 L 50.8125 102.914062 L 53.332031 102.832031 L 55.851562 102.726562 L 58.367188 102.589844 L 60.886719 102.417969 L 63.40625 102.199219 L 65.925781 101.925781 L 68.441406 101.582031 L 70.960938 101.15625 L 73.480469 100.625 L 76 99.976562 L 78.515625 99.179688 L 81.035156 98.214844 L 83.554688 97.050781 L 86.074219 95.660156 L 88.589844 94.007812 L 91.109375 92.0625 L 93.628906 89.796875 L 96.148438 87.183594 L 98.664062 84.191406 L 101.183594 80.8125 L 103.703125 77.03125 L 106.222656 72.855469 L 108.738281 68.304688 L 111.257812 63.402344 L 113.777344 58.210938 L 116.296875 52.789062 L 118.8125 47.230469 L 121.332031 41.632812 L 123.851562 36.117188 L 126.371094 30.816406 L 128.886719 25.855469 L 131.40625 21.375 L 133.925781 17.503906 L 136.445312 14.359375 L 138.960938 12.035156 L 141.480469 10.613281 L 144 10.132812 L 146.519531 10.613281 L 149.039062 12.035156 L 151.554688 14.359375 L 154.074219 17.503906 L 156.59375 21.375 L 159.113281 25.855469 L 161.628906 30.816406 L 164.148438 36.117188 L 166.667969 41.632812 L 169.1875 47.230469 L 171.703125 52.789062 L 174.222656 58.210938 L 176.742188 63.402344 L 179.261719 68.304688 L 181.777344 72.855469 L 184.296875 77.03125 L 186.816406 80.8125 L 189.335938 84.191406 L 191.851562 87.183594 L 194.371094 89.796875 L 196.890625 92.0625 L 199.410156 94.007812 L 201.925781 95.660156 L 204.445312 97.050781 L 206.964844 98.214844 L 209.484375 99.179688 L 212 99.976562 L 214.519531 100.625 L 217.039062 101.15625 L 219.558594 101.582031 L 222.074219 101.925781 L 224.59375 102.199219 L 227.113281 102.417969 L 229.632812 102.589844 L 232.148438 102.726562 L 234.667969 102.832031 L 237.1875 102.914062 L 239.707031 102.980469 L 242.222656 103.03125 L 244.742188 103.066406 L 247.261719 103.097656 L 249.78125 103.121094 L 252.296875 103.140625 L 257.335938 103.164062 L 259.855469 103.171875 L 262.371094 103.175781 L 264.890625 103.183594 L 267.410156 103.183594 L 269.929688 103.1875 "/>
<path fill-rule="nonzero" fill="rgb(9.411765%, 46.666667%, 54.901961%)" fill-opacity="0.8" d="M 186.792969 80.78125 L 187.625 81.941406 L 188.457031 83.058594 L 189.289062 84.132812 L 190.117188 85.164062 L 190.949219 86.15625 L 191.78125 87.101562 L 192.613281 88.011719 L 193.445312 88.878906 L 194.277344 89.707031 L 195.105469 90.496094 L 195.9375 91.246094 L 196.769531 91.964844 L 197.601562 92.644531 L 198.433594 93.289062 L 199.261719 93.902344 L 200.09375 94.484375 L 200.925781 95.035156 L 201.757812 95.554688 L 202.589844 96.046875 L 203.421875 96.511719 L 204.25 96.953125 L 205.082031 97.367188 L 205.914062 97.753906 L 206.746094 98.121094 L 207.578125 98.46875 L 208.410156 98.789062 L 209.238281 99.09375 L 210.070312 99.378906 L 210.902344 99.648438 L 211.734375 99.898438 L 212.566406 100.132812 L 213.394531 100.351562 L 214.226562 100.558594 L 215.058594 100.75 L 215.890625 100.925781 L 216.722656 101.09375 L 217.554688 101.25 L 218.382812 101.394531 L 219.214844 101.527344 L 220.046875 101.65625 L 220.878906 101.769531 L 221.710938 101.878906 L 222.542969 101.980469 L 223.371094 102.074219 L 224.203125 102.160156 L 225.035156 102.242188 L 225.867188 102.316406 L 226.699219 102.382812 L 227.527344 102.449219 L 228.359375 102.507812 L 229.191406 102.5625 L 230.023438 102.613281 L 230.855469 102.660156 L 231.6875 102.703125 L 232.515625 102.742188 L 234.179688 102.8125 L 235.011719 102.84375 L 236.675781 102.898438 L 237.503906 102.921875 L 238.335938 102.945312 L 240.832031 103.003906 L 241.660156 103.019531 L 242.492188 103.035156 L 245.820312 103.082031 L 246.648438 103.089844 L 247.480469 103.101562 L 249.144531 103.117188 L 249.976562 103.121094 L 250.808594 103.128906 L 251.636719 103.136719 L 255.796875 103.15625 L 256.625 103.160156 L 258.289062 103.167969 L 259.121094 103.167969 L 259.953125 103.171875 L 260.78125 103.171875 L 261.613281 103.175781 L 262.445312 103.175781 L 263.277344 103.179688 L 264.109375 103.179688 L 264.941406 103.183594 L 267.433594 103.183594 L 268.265625 103.1875 L 269.929688 103.1875 L 269.929688 103.195312 L 186.792969 103.195312 Z M 186.792969 80.78125 "/>
<g fill="rgb(29.803922%, 63.921569%, 51.764706%)" fill-opacity="1">
<use xlink:href="#glyph-0-1" x="198.667969" y="35.551758"/>
</g>
<path fill="none" stroke-width="0.75" stroke-linecap="round" stroke-linejoin="round" stroke="rgb(29.803922%, 63.921569%, 51.764706%)" stroke-opacity="1" stroke-miterlimit="10" d="M 198.667969 24.808594 L 207.667969 24.808594 "/>
<g fill="rgb(29.803922%, 63.921569%, 51.764706%)" fill-opacity="1">
<use xlink:href="#glyph-1-1" x="211.558594" y="36.251953"/>
</g>
<g fill="rgb(29.803922%, 63.921569%, 51.764706%)" fill-opacity="1">
<use xlink:href="#glyph-2-1" x="229.445312" y="35.569336"/>
</g>
<g fill="rgb(9.411765%, 46.666667%, 54.901961%)" fill-opacity="1">
<use xlink:href="#glyph-3-1" x="204.351562" y="94.371094"/>
</g>
<g fill="rgb(9.411765%, 46.666667%, 54.901961%)" fill-opacity="1">
<use xlink:href="#glyph-4-1" x="213.851562" y="94.493164"/>
</g>
<g fill="rgb(9.411765%, 46.666667%, 54.901961%)" fill-opacity="1">
<use xlink:href="#glyph-5-1" x="226.351562" y="94.692383"/>
<use xlink:href="#glyph-5-2" x="232.351562" y="94.692383"/>
<use xlink:href="#glyph-5-1" x="235.351562" y="94.692383"/>
<use xlink:href="#glyph-5-3" x="241.351562" y="94.692383"/>
</g>
<path fill="none" stroke-width="1.066978" stroke-linecap="butt" stroke-linejoin="round" stroke="rgb(20%, 20%, 20%)" stroke-opacity="1" stroke-miterlimit="10" d="M 18.070312 110.589844 L 18.070312 107.847656 "/>
<path fill="none" stroke-width="1.066978" stroke-linecap="butt" stroke-linejoin="round" stroke="rgb(20%, 20%, 20%)" stroke-opacity="1" stroke-miterlimit="10" d="M 81.035156 110.589844 L 81.035156 107.847656 "/>
<path fill="none" stroke-width="1.066978" stroke-linecap="butt" stroke-linejoin="round" stroke="rgb(20%, 20%, 20%)" stroke-opacity="1" stroke-miterlimit="10" d="M 144 110.589844 L 144 107.847656 "/>
<path fill="none" stroke-width="1.066978" stroke-linecap="butt" stroke-linejoin="round" stroke="rgb(20%, 20%, 20%)" stroke-opacity="1" stroke-miterlimit="10" d="M 206.964844 110.589844 L 206.964844 107.847656 "/>
<path fill="none" stroke-width="1.066978" stroke-linecap="butt" stroke-linejoin="round" stroke="rgb(20%, 20%, 20%)" stroke-opacity="1" stroke-miterlimit="10" d="M 269.929688 110.589844 L 269.929688 107.847656 "/>
<g fill="rgb(30.196078%, 30.196078%, 30.196078%)" fill-opacity="1">
<use xlink:href="#glyph-6-1" x="9.070312" y="120.481445"/>
<use xlink:href="#glyph-6-2" x="12.070312" y="120.481445"/>
<use xlink:href="#glyph-6-3" x="18.070312" y="120.481445"/>
<use xlink:href="#glyph-6-4" x="21.070312" y="120.481445"/>
</g>
<g fill="rgb(30.196078%, 30.196078%, 30.196078%)" fill-opacity="1">
<use xlink:href="#glyph-6-1" x="72.035156" y="120.481445"/>
<use xlink:href="#glyph-6-5" x="75.035156" y="120.481445"/>
<use xlink:href="#glyph-6-3" x="81.035156" y="120.481445"/>
<use xlink:href="#glyph-6-2" x="84.035156" y="120.481445"/>
</g>
<g fill="rgb(30.196078%, 30.196078%, 30.196078%)" fill-opacity="1">
<use xlink:href="#glyph-6-4" x="136.5" y="120.481445"/>
<use xlink:href="#glyph-6-3" x="142.5" y="120.481445"/>
<use xlink:href="#glyph-6-4" x="145.5" y="120.481445"/>
</g>
<g fill="rgb(30.196078%, 30.196078%, 30.196078%)" fill-opacity="1">
<use xlink:href="#glyph-6-5" x="199.464844" y="120.481445"/>
<use xlink:href="#glyph-6-3" x="205.464844" y="120.481445"/>
<use xlink:href="#glyph-6-2" x="208.464844" y="120.481445"/>
</g>
<g fill="rgb(30.196078%, 30.196078%, 30.196078%)" fill-opacity="1">
<use xlink:href="#glyph-6-2" x="262.429688" y="120.481445"/>
<use xlink:href="#glyph-6-3" x="268.429688" y="120.481445"/>
<use xlink:href="#glyph-6-4" x="271.429688" y="120.481445"/>
</g>
<g fill="rgb(0%, 0%, 0%)" fill-opacity="1">
<use xlink:href="#glyph-7-1" x="142" y="134.759766"/>
</g>
</svg>
