<?xml version="1.0" encoding="UTF-8"?>
<svg xmlns="http://www.w3.org/2000/svg" xmlns:xlink="http://www.w3.org/1999/xlink" width="576" height="324" viewBox="0 0 576 324">
<defs>
<g>
<g id="glyph-0-0">
<path d="M 0.390625 0 L 0.390625 -8.609375 L 7.21875 -8.609375 L 7.21875 0 Z M 6.140625 -1.078125 L 6.140625 -7.53125 L 1.46875 -7.53125 L 1.46875 -1.078125 Z M 6.140625 -1.078125 "/>
</g>
<g id="glyph-0-1">
<path d="M 0.375 0 C 0.414062 -0.71875 0.566406 -1.34375 0.828125 -1.875 C 1.085938 -2.414062 1.59375 -2.90625 2.34375 -3.34375 L 3.46875 -4 C 3.96875 -4.289062 4.320312 -4.539062 4.53125 -4.75 C 4.851562 -5.070312 5.015625 -5.441406 5.015625 -5.859375 C 5.015625 -6.347656 4.863281 -6.734375 4.5625 -7.015625 C 4.269531 -7.304688 3.882812 -7.453125 3.40625 -7.453125 C 2.675781 -7.453125 2.175781 -7.179688 1.90625 -6.640625 C 1.75 -6.335938 1.664062 -5.929688 1.65625 -5.421875 L 0.578125 -5.421875 C 0.585938 -6.148438 0.722656 -6.742188 0.984375 -7.203125 C 1.441406 -8.015625 2.25 -8.421875 3.40625 -8.421875 C 4.363281 -8.421875 5.0625 -8.160156 5.5 -7.640625 C 5.945312 -7.117188 6.171875 -6.539062 6.171875 -5.90625 C 6.171875 -5.238281 5.9375 -4.664062 5.46875 -4.1875 C 5.195312 -3.90625 4.707031 -3.566406 4 -3.171875 L 3.1875 -2.734375 C 2.8125 -2.523438 2.515625 -2.320312 2.296875 -2.125 C 1.898438 -1.789062 1.648438 -1.414062 1.546875 -1 L 6.140625 -1 L 6.140625 0 Z M 0.375 0 "/>
</g>
<g id="glyph-0-2">
<path d="M 1.03125 -1.28125 L 2.25 -1.28125 L 2.25 0 L 1.03125 0 Z M 1.03125 -1.28125 "/>
</g>
<g id="glyph-0-3">
<path d="M 3.25 -8.390625 C 4.332031 -8.390625 5.117188 -7.941406 5.609375 -7.046875 C 5.984375 -6.359375 6.171875 -5.410156 6.171875 -4.203125 C 6.171875 -3.066406 6 -2.125 5.65625 -1.375 C 5.164062 -0.300781 4.359375 0.234375 3.234375 0.234375 C 2.234375 0.234375 1.484375 -0.203125 0.984375 -1.078125 C 0.578125 -1.816406 0.375 -2.800781 0.375 -4.03125 C 0.375 -4.976562 0.5 -5.796875 0.75 -6.484375 C 1.207031 -7.753906 2.039062 -8.390625 3.25 -8.390625 Z M 3.234375 -0.734375 C 3.785156 -0.734375 4.222656 -0.972656 4.546875 -1.453125 C 4.867188 -1.941406 5.03125 -2.847656 5.03125 -4.171875 C 5.03125 -5.117188 4.910156 -5.898438 4.671875 -6.515625 C 4.441406 -7.128906 3.988281 -7.4375 3.3125 -7.4375 C 2.6875 -7.4375 2.226562 -7.144531 1.9375 -6.5625 C 1.65625 -5.976562 1.515625 -5.117188 1.515625 -3.984375 C 1.515625 -3.128906 1.609375 -2.441406 1.796875 -1.921875 C 2.078125 -1.128906 2.554688 -0.734375 3.234375 -0.734375 Z M 3.234375 -0.734375 "/>
</g>
<g id="glyph-0-4">
<path d="M 1.484375 -2.140625 C 1.554688 -1.535156 1.835938 -1.117188 2.328125 -0.890625 C 2.578125 -0.773438 2.863281 -0.71875 3.1875 -0.71875 C 3.8125 -0.71875 4.273438 -0.914062 4.578125 -1.3125 C 4.878906 -1.707031 5.03125 -2.148438 5.03125 -2.640625 C 5.03125 -3.222656 4.847656 -3.675781 4.484375 -4 C 4.128906 -4.320312 3.703125 -4.484375 3.203125 -4.484375 C 2.835938 -4.484375 2.523438 -4.410156 2.265625 -4.265625 C 2.003906 -4.128906 1.785156 -3.9375 1.609375 -3.6875 L 0.6875 -3.734375 L 1.328125 -8.25 L 5.6875 -8.25 L 5.6875 -7.234375 L 2.125 -7.234375 L 1.765625 -4.90625 C 1.960938 -5.050781 2.148438 -5.160156 2.328125 -5.234375 C 2.640625 -5.359375 3 -5.421875 3.40625 -5.421875 C 4.175781 -5.421875 4.828125 -5.171875 5.359375 -4.671875 C 5.898438 -4.179688 6.171875 -3.554688 6.171875 -2.796875 C 6.171875 -2.003906 5.921875 -1.300781 5.421875 -0.6875 C 4.929688 -0.0820312 4.148438 0.21875 3.078125 0.21875 C 2.398438 0.21875 1.796875 0.0234375 1.265625 -0.359375 C 0.742188 -0.742188 0.453125 -1.335938 0.390625 -2.140625 Z M 1.484375 -2.140625 "/>
</g>
<g id="glyph-0-5">
<path d="M 6.28125 -8.25 L 6.28125 -7.328125 C 6.007812 -7.066406 5.648438 -6.613281 5.203125 -5.96875 C 4.753906 -5.320312 4.359375 -4.625 4.015625 -3.875 C 3.671875 -3.132812 3.410156 -2.46875 3.234375 -1.875 C 3.128906 -1.488281 2.984375 -0.863281 2.796875 0 L 1.640625 0 C 1.898438 -1.601562 2.484375 -3.195312 3.390625 -4.78125 C 3.929688 -5.707031 4.492188 -6.507812 5.078125 -7.1875 L 0.4375 -7.1875 L 0.4375 -8.25 Z M 6.28125 -8.25 "/>
</g>
<g id="glyph-0-6">
<path d="M 3.125 0.234375 C 2.125 0.234375 1.398438 -0.0351562 0.953125 -0.578125 C 0.503906 -1.128906 0.28125 -1.796875 0.28125 -2.578125 L 1.390625 -2.578125 C 1.429688 -2.035156 1.53125 -1.640625 1.6875 -1.390625 C 1.96875 -0.953125 2.460938 -0.734375 3.171875 -0.734375 C 3.734375 -0.734375 4.179688 -0.878906 4.515625 -1.171875 C 4.847656 -1.472656 5.015625 -1.859375 5.015625 -2.328125 C 5.015625 -2.898438 4.835938 -3.300781 4.484375 -3.53125 C 4.128906 -3.769531 3.640625 -3.890625 3.015625 -3.890625 C 2.941406 -3.890625 2.867188 -3.882812 2.796875 -3.875 C 2.722656 -3.875 2.648438 -3.875 2.578125 -3.875 L 2.578125 -4.8125 C 2.691406 -4.789062 2.785156 -4.78125 2.859375 -4.78125 C 2.929688 -4.78125 3.007812 -4.78125 3.09375 -4.78125 C 3.488281 -4.78125 3.8125 -4.84375 4.0625 -4.96875 C 4.507812 -5.1875 4.734375 -5.578125 4.734375 -6.140625 C 4.734375 -6.554688 4.582031 -6.875 4.28125 -7.09375 C 3.988281 -7.320312 3.644531 -7.4375 3.25 -7.4375 C 2.550781 -7.4375 2.066406 -7.203125 1.796875 -6.734375 C 1.648438 -6.484375 1.566406 -6.117188 1.546875 -5.640625 L 0.5 -5.640625 C 0.5 -6.265625 0.625 -6.796875 0.875 -7.234375 C 1.300781 -8.015625 2.054688 -8.40625 3.140625 -8.40625 C 3.992188 -8.40625 4.65625 -8.210938 5.125 -7.828125 C 5.59375 -7.453125 5.828125 -6.898438 5.828125 -6.171875 C 5.828125 -5.660156 5.691406 -5.242188 5.421875 -4.921875 C 5.242188 -4.722656 5.019531 -4.566406 4.75 -4.453125 C 5.1875 -4.328125 5.53125 -4.09375 5.78125 -3.75 C 6.03125 -3.40625 6.15625 -2.984375 6.15625 -2.484375 C 6.15625 -1.679688 5.890625 -1.023438 5.359375 -0.515625 C 4.835938 -0.015625 4.09375 0.234375 3.125 0.234375 Z M 3.125 0.234375 "/>
</g>
<g id="glyph-1-0">
<path d="M 1.046875 -10.078125 L 9.171875 -10.078125 L 9.171875 0 L 1.046875 0 Z M 7.90625 -1.265625 L 7.90625 -8.8125 L 2.3125 -8.8125 L 2.3125 -1.265625 Z M 7.90625 -1.265625 "/>
</g>
<g id="glyph-1-1">
<path d="M 7.546875 0 L 5.125 0 L 3.828125 -2.234375 L 2.546875 0 L 0.171875 0 L 2.71875 -3.78125 L 0.28125 -7.4375 L 2.671875 -7.4375 L 3.921875 -5.28125 L 5.140625 -7.4375 L 7.453125 -7.4375 L 5 -3.8125 Z M 7.546875 0 "/>
</g>
</g>
<clipPath id="clip-0">
<path clip-rule="nonzero" d="M 5.480469 5.480469 L 570.523438 5.480469 L 570.523438 283.851562 L 5.480469 283.851562 Z M 5.480469 5.480469 "/>
</clipPath>
<clipPath id="clip-1">
<path clip-rule="nonzero" d="M 5.480469 239 L 570.523438 239 L 570.523438 240 L 5.480469 240 Z M 5.480469 239 "/>
</clipPath>
<clipPath id="clip-2">
<path clip-rule="nonzero" d="M 5.480469 175 L 570.523438 175 L 570.523438 177 L 5.480469 177 Z M 5.480469 175 "/>
</clipPath>
<clipPath id="clip-3">
<path clip-rule="nonzero" d="M 5.480469 112 L 570.523438 112 L 570.523438 113 L 5.480469 113 Z M 5.480469 112 "/>
</clipPath>
<clipPath id="clip-4">
<path clip-rule="nonzero" d="M 5.480469 48 L 570.523438 48 L 570.523438 50 L 5.480469 50 Z M 5.480469 48 "/>
</clipPath>
<clipPath id="clip-5">
<path clip-rule="nonzero" d="M 95 5.480469 L 96 5.480469 L 96 283.851562 L 95 283.851562 Z M 95 5.480469 "/>
</clipPath>
<clipPath id="clip-6">
<path clip-rule="nonzero" d="M 223 5.480469 L 225 5.480469 L 225 283.851562 L 223 283.851562 Z M 223 5.480469 "/>
</clipPath>
<clipPath id="clip-7">
<path clip-rule="nonzero" d="M 351 5.480469 L 353 5.480469 L 353 283.851562 L 351 283.851562 Z M 351 5.480469 "/>
</clipPath>
<clipPath id="clip-8">
<path clip-rule="nonzero" d="M 480 5.480469 L 481 5.480469 L 481 283.851562 L 480 283.851562 Z M 480 5.480469 "/>
</clipPath>
<clipPath id="clip-9">
<path clip-rule="nonzero" d="M 5.480469 270 L 570.523438 270 L 570.523438 272 L 5.480469 272 Z M 5.480469 270 "/>
</clipPath>
<clipPath id="clip-10">
<path clip-rule="nonzero" d="M 5.480469 207 L 570.523438 207 L 570.523438 209 L 5.480469 209 Z M 5.480469 207 "/>
</clipPath>
<clipPath id="clip-11">
<path clip-rule="nonzero" d="M 5.480469 143 L 570.523438 143 L 570.523438 145 L 5.480469 145 Z M 5.480469 143 "/>
</clipPath>
<clipPath id="clip-12">
<path clip-rule="nonzero" d="M 5.480469 80 L 570.523438 80 L 570.523438 82 L 5.480469 82 Z M 5.480469 80 "/>
</clipPath>
<clipPath id="clip-13">
<path clip-rule="nonzero" d="M 5.480469 16 L 570.523438 16 L 570.523438 18 L 5.480469 18 Z M 5.480469 16 "/>
</clipPath>
<clipPath id="clip-14">
<path clip-rule="nonzero" d="M 30 5.480469 L 32 5.480469 L 32 283.851562 L 30 283.851562 Z M 30 5.480469 "/>
</clipPath>
<clipPath id="clip-15">
<path clip-rule="nonzero" d="M 159 5.480469 L 161 5.480469 L 161 283.851562 L 159 283.851562 Z M 159 5.480469 "/>
</clipPath>
<clipPath id="clip-16">
<path clip-rule="nonzero" d="M 287 5.480469 L 289 5.480469 L 289 283.851562 L 287 283.851562 Z M 287 5.480469 "/>
</clipPath>
<clipPath id="clip-17">
<path clip-rule="nonzero" d="M 415 5.480469 L 417 5.480469 L 417 283.851562 L 415 283.851562 Z M 415 5.480469 "/>
</clipPath>
<clipPath id="clip-18">
<path clip-rule="nonzero" d="M 544 5.480469 L 546 5.480469 L 546 283.851562 L 544 283.851562 Z M 544 5.480469 "/>
</clipPath>
<clipPath id="clip-19">
<path clip-rule="nonzero" d="M 5.480469 16 L 570.523438 16 L 570.523438 273 L 5.480469 273 Z M 5.480469 16 "/>
</clipPath>
<clipPath id="clip-20">
<path clip-rule="nonzero" d="M 5.480469 269 L 570.523438 269 L 570.523438 273 L 5.480469 273 Z M 5.480469 269 "/>
</clipPath>
<clipPath id="clip-21">
<path clip-rule="nonzero" d="M 277 5.480469 L 281 5.480469 L 281 283.851562 L 277 283.851562 Z M 277 5.480469 "/>
</clipPath>
</defs>
<rect x="-57.6" y="-32.4" width="691.2" height="388.8" fill="rgb(100%, 100%, 100%)" fill-opacity="1"/>
<rect x="-57.6" y="-32.4" width="691.2" height="388.8" fill="rgb(100%, 100%, 100%)" fill-opacity="1"/>
<path fill="none" stroke-width="1.066978" stroke-linecap="round" stroke-linejoin="round" stroke="rgb(100%, 100%, 100%)" stroke-opacity="1" stroke-miterlimit="10" d="M 0 324 L 576 324 L 576 0 L 0 0 Z M 0 324 "/>
<g clip-path="url(#clip-0)">
<path fill-rule="nonzero" fill="rgb(92.156863%, 92.156863%, 92.156863%)" fill-opacity="1" d="M 5.480469 283.847656 L 570.523438 283.847656 L 570.523438 5.476562 L 5.480469 5.476562 Z M 5.480469 283.847656 "/>
</g>
<g clip-path="url(#clip-1)">
<path fill="none" stroke-width="0.533489" stroke-linecap="butt" stroke-linejoin="round" stroke="rgb(100%, 100%, 100%)" stroke-opacity="1" stroke-miterlimit="10" d="M 5.480469 239.480469 L 570.519531 239.480469 "/>
</g>
<g clip-path="url(#clip-2)">
<path fill="none" stroke-width="0.533489" stroke-linecap="butt" stroke-linejoin="round" stroke="rgb(100%, 100%, 100%)" stroke-opacity="1" stroke-miterlimit="10" d="M 5.480469 176.046875 L 570.519531 176.046875 "/>
</g>
<g clip-path="url(#clip-3)">
<path fill="none" stroke-width="0.533489" stroke-linecap="butt" stroke-linejoin="round" stroke="rgb(100%, 100%, 100%)" stroke-opacity="1" stroke-miterlimit="10" d="M 5.480469 112.613281 L 570.519531 112.613281 "/>
</g>
<g clip-path="url(#clip-4)">
<path fill="none" stroke-width="0.533489" stroke-linecap="butt" stroke-linejoin="round" stroke="rgb(100%, 100%, 100%)" stroke-opacity="1" stroke-miterlimit="10" d="M 5.480469 49.179688 L 570.519531 49.179688 "/>
</g>
<g clip-path="url(#clip-5)">
<path fill="none" stroke-width="0.533489" stroke-linecap="butt" stroke-linejoin="round" stroke="rgb(100%, 100%, 100%)" stroke-opacity="1" stroke-miterlimit="10" d="M 95.371094 283.847656 L 95.371094 5.480469 "/>
</g>
<g clip-path="url(#clip-6)">
<path fill="none" stroke-width="0.533489" stroke-linecap="butt" stroke-linejoin="round" stroke="rgb(100%, 100%, 100%)" stroke-opacity="1" stroke-miterlimit="10" d="M 223.789062 283.847656 L 223.789062 5.480469 "/>
</g>
<g clip-path="url(#clip-7)">
<path fill="none" stroke-width="0.533489" stroke-linecap="butt" stroke-linejoin="round" stroke="rgb(100%, 100%, 100%)" stroke-opacity="1" stroke-miterlimit="10" d="M 352.210938 283.847656 L 352.210938 5.480469 "/>
</g>
<g clip-path="url(#clip-8)">
<path fill="none" stroke-width="0.533489" stroke-linecap="butt" stroke-linejoin="round" stroke="rgb(100%, 100%, 100%)" stroke-opacity="1" stroke-miterlimit="10" d="M 480.628906 283.847656 L 480.628906 5.480469 "/>
</g>
<g clip-path="url(#clip-9)">
<path fill="none" stroke-width="1.066978" stroke-linecap="butt" stroke-linejoin="round" stroke="rgb(100%, 100%, 100%)" stroke-opacity="1" stroke-miterlimit="10" d="M 5.480469 271.195312 L 570.519531 271.195312 "/>
</g>
<g clip-path="url(#clip-10)">
<path fill="none" stroke-width="1.066978" stroke-linecap="butt" stroke-linejoin="round" stroke="rgb(100%, 100%, 100%)" stroke-opacity="1" stroke-miterlimit="10" d="M 5.480469 207.761719 L 570.519531 207.761719 "/>
</g>
<g clip-path="url(#clip-11)">
<path fill="none" stroke-width="1.066978" stroke-linecap="butt" stroke-linejoin="round" stroke="rgb(100%, 100%, 100%)" stroke-opacity="1" stroke-miterlimit="10" d="M 5.480469 144.328125 L 570.519531 144.328125 "/>
</g>
<g clip-path="url(#clip-12)">
<path fill="none" stroke-width="1.066978" stroke-linecap="butt" stroke-linejoin="round" stroke="rgb(100%, 100%, 100%)" stroke-opacity="1" stroke-miterlimit="10" d="M 5.480469 80.894531 L 570.519531 80.894531 "/>
</g>
<g clip-path="url(#clip-13)">
<path fill="none" stroke-width="1.066978" stroke-linecap="butt" stroke-linejoin="round" stroke="rgb(100%, 100%, 100%)" stroke-opacity="1" stroke-miterlimit="10" d="M 5.480469 17.460938 L 570.519531 17.460938 "/>
</g>
<g clip-path="url(#clip-14)">
<path fill="none" stroke-width="1.066978" stroke-linecap="butt" stroke-linejoin="round" stroke="rgb(100%, 100%, 100%)" stroke-opacity="1" stroke-miterlimit="10" d="M 31.164062 283.847656 L 31.164062 5.480469 "/>
</g>
<g clip-path="url(#clip-15)">
<path fill="none" stroke-width="1.066978" stroke-linecap="butt" stroke-linejoin="round" stroke="rgb(100%, 100%, 100%)" stroke-opacity="1" stroke-miterlimit="10" d="M 159.582031 283.847656 L 159.582031 5.480469 "/>
</g>
<g clip-path="url(#clip-16)">
<path fill="none" stroke-width="1.066978" stroke-linecap="butt" stroke-linejoin="round" stroke="rgb(100%, 100%, 100%)" stroke-opacity="1" stroke-miterlimit="10" d="M 288 283.847656 L 288 5.480469 "/>
</g>
<g clip-path="url(#clip-17)">
<path fill="none" stroke-width="1.066978" stroke-linecap="butt" stroke-linejoin="round" stroke="rgb(100%, 100%, 100%)" stroke-opacity="1" stroke-miterlimit="10" d="M 416.417969 283.847656 L 416.417969 5.480469 "/>
</g>
<g clip-path="url(#clip-18)">
<path fill="none" stroke-width="1.066978" stroke-linecap="butt" stroke-linejoin="round" stroke="rgb(100%, 100%, 100%)" stroke-opacity="1" stroke-miterlimit="10" d="M 544.835938 283.847656 L 544.835938 5.480469 "/>
</g>
<g clip-path="url(#clip-19)">
<path fill="none" stroke-width="3.200935" stroke-linecap="butt" stroke-linejoin="round" stroke="rgb(0%, 0%, 0%)" stroke-opacity="1" stroke-miterlimit="10" d="M -2304 261.269531 L -2270.09375 259.507812 L -2229 256.992188 L -2187.90625 254.039062 L -2146.8125 250.605469 L -2105.71875 246.644531 L -2064.625 242.105469 L -2023.53125 236.949219 L -1982.4375 231.132812 L -1941.34375 224.632812 L -1900.25 217.417969 L -1859.15625 209.488281 L -1818.0625 200.835938 L -1776.96875 191.484375 L -1735.875 181.464844 L -1694.78125 170.828125 L -1653.6875 159.648438 L -1612.59375 148.015625 L -1571.5 136.039062 L -1530.40625 123.839844 L -1489.3125 111.570312 L -1448.21875 99.378906 L -1407.125 87.433594 L -1366.03125 75.914062 L -1324.933594 64.996094 L -1283.839844 54.859375 L -1242.746094 45.667969 L -1201.652344 37.589844 L -1160.558594 30.761719 L -1119.464844 25.316406 L -1078.371094 21.351562 L -1037.277344 18.941406 L -996.183594 18.132812 L -955.089844 18.941406 L -913.996094 21.351562 L -872.902344 25.316406 L -831.808594 30.761719 L -790.714844 37.589844 L -749.621094 45.667969 L -708.527344 54.859375 L -667.433594 64.996094 L -626.339844 75.914062 L -585.246094 87.433594 L -544.152344 99.378906 L -503.058594 111.570312 L -461.964844 123.839844 L -420.871094 136.039062 L -379.777344 148.015625 L -338.683594 159.648438 L -297.589844 170.828125 L -256.496094 181.464844 L -215.398438 191.484375 L -174.304688 200.835938 L -133.210938 209.488281 L -92.117188 217.417969 L -51.023438 224.632812 L -9.929688 231.132812 L 31.164062 236.949219 L 72.257812 242.105469 L 113.351562 246.644531 L 154.445312 250.605469 L 195.539062 254.039062 L 236.632812 256.992188 L 277.726562 259.507812 L 318.820312 261.644531 L 359.914062 263.4375 L 401.007812 264.933594 L 442.101562 266.175781 L 483.195312 267.195312 L 524.289062 268.027344 L 565.382812 268.703125 L 606.476562 269.25 L 647.570312 269.683594 L 688.664062 270.027344 L 729.757812 270.300781 L 770.851562 270.515625 L 811.945312 270.679688 L 853.042969 270.808594 L 894.136719 270.90625 L 935.230469 270.980469 L 976.324219 271.039062 L 1017.417969 271.078125 L 1058.511719 271.109375 "/>
</g>
<g clip-path="url(#clip-20)">
<path fill="none" stroke-width="3.200935" stroke-linecap="butt" stroke-linejoin="round" stroke="rgb(0%, 0%, 0%)" stroke-opacity="1" stroke-miterlimit="10" d="M 5.480469 271.195312 L 570.519531 271.195312 "/>
</g>
<g clip-path="url(#clip-21)">
<path fill="none" stroke-width="3.200935" stroke-linecap="butt" stroke-linejoin="round" stroke="rgb(29.803922%, 63.921569%, 51.764706%)" stroke-opacity="1" stroke-miterlimit="10" d="M 278.855469 283.847656 L 278.855469 5.480469 "/>
</g>
<path fill="none" stroke-width="1.066978" stroke-linecap="butt" stroke-linejoin="round" stroke="rgb(20%, 20%, 20%)" stroke-opacity="1" stroke-miterlimit="10" d="M 31.164062 286.589844 L 31.164062 283.847656 "/>
<path fill="none" stroke-width="1.066978" stroke-linecap="butt" stroke-linejoin="round" stroke="rgb(20%, 20%, 20%)" stroke-opacity="1" stroke-miterlimit="10" d="M 159.582031 286.589844 L 159.582031 283.847656 "/>
<path fill="none" stroke-width="1.066978" stroke-linecap="butt" stroke-linejoin="round" stroke="rgb(20%, 20%, 20%)" stroke-opacity="1" stroke-miterlimit="10" d="M 288 286.589844 L 288 283.847656 "/>
<path fill="none" stroke-width="1.066978" stroke-linecap="butt" stroke-linejoin="round" stroke="rgb(20%, 20%, 20%)" stroke-opacity="1" stroke-miterlimit="10" d="M 416.417969 286.589844 L 416.417969 283.847656 "/>
<path fill="none" stroke-width="1.066978" stroke-linecap="butt" stroke-linejoin="round" stroke="rgb(20%, 20%, 20%)" stroke-opacity="1" stroke-miterlimit="10" d="M 544.835938 286.589844 L 544.835938 283.847656 "/>
<g fill="rgb(30.196078%, 30.196078%, 30.196078%)" fill-opacity="1">
<use xlink:href="#glyph-0-1" x="19.164062" y="297.021484"/>
<use xlink:href="#glyph-0-2" x="26.164062" y="297.021484"/>
<use xlink:href="#glyph-0-3" x="29.164062" y="297.021484"/>
<use xlink:href="#glyph-0-3" x="36.164062" y="297.021484"/>
</g>
<g fill="rgb(30.196078%, 30.196078%, 30.196078%)" fill-opacity="1">
<use xlink:href="#glyph-0-1" x="147.582031" y="297.021484"/>
<use xlink:href="#glyph-0-2" x="154.582031" y="297.021484"/>
<use xlink:href="#glyph-0-1" x="157.582031" y="297.021484"/>
<use xlink:href="#glyph-0-4" x="164.582031" y="297.021484"/>
</g>
<g fill="rgb(30.196078%, 30.196078%, 30.196078%)" fill-opacity="1">
<use xlink:href="#glyph-0-1" x="276" y="297.021484"/>
<use xlink:href="#glyph-0-2" x="283" y="297.021484"/>
<use xlink:href="#glyph-0-4" x="286" y="297.021484"/>
<use xlink:href="#glyph-0-3" x="293" y="297.021484"/>
</g>
<g fill="rgb(30.196078%, 30.196078%, 30.196078%)" fill-opacity="1">
<use xlink:href="#glyph-0-1" x="404.417969" y="297.021484"/>
<use xlink:href="#glyph-0-2" x="411.417969" y="297.021484"/>
<use xlink:href="#glyph-0-5" x="414.417969" y="297.021484"/>
<use xlink:href="#glyph-0-4" x="421.417969" y="297.021484"/>
</g>
<g fill="rgb(30.196078%, 30.196078%, 30.196078%)" fill-opacity="1">
<use xlink:href="#glyph-0-6" x="532.835938" y="297.021484"/>
<use xlink:href="#glyph-0-2" x="539.835938" y="297.021484"/>
<use xlink:href="#glyph-0-3" x="542.835938" y="297.021484"/>
<use xlink:href="#glyph-0-3" x="549.835938" y="297.021484"/>
</g>
<g fill="rgb(0%, 0%, 0%)" fill-opacity="1">
<use xlink:href="#glyph-1-1" x="284" y="314.299805"/>
</g>
</svg>
