<?xml version="1.0" encoding="UTF-8"?>
<svg xmlns="http://www.w3.org/2000/svg" xmlns:xlink="http://www.w3.org/1999/xlink" width="360pt" height="252pt" viewBox="0 0 360 252" version="1.1">
<defs>
<clipPath id="clip1">
  <path d="M 8.21875 5.480469 L 354.519531 5.480469 L 354.519531 228.503906 L 8.21875 228.503906 Z M 8.21875 5.480469 "/>
</clipPath>
<clipPath id="clip2">
  <path d="M 8.21875 192 L 354.519531 192 L 354.519531 194 L 8.21875 194 Z M 8.21875 192 "/>
</clipPath>
<clipPath id="clip3">
  <path d="M 8.21875 141 L 354.519531 141 L 354.519531 143 L 8.21875 143 Z M 8.21875 141 "/>
</clipPath>
<clipPath id="clip4">
  <path d="M 8.21875 91 L 354.519531 91 L 354.519531 92 L 8.21875 92 Z M 8.21875 91 "/>
</clipPath>
<clipPath id="clip5">
  <path d="M 8.21875 40 L 354.519531 40 L 354.519531 41 L 8.21875 41 Z M 8.21875 40 "/>
</clipPath>
<clipPath id="clip6">
  <path d="M 63 5.480469 L 64 5.480469 L 64 228.503906 L 63 228.503906 Z M 63 5.480469 "/>
</clipPath>
<clipPath id="clip7">
  <path d="M 141 5.480469 L 143 5.480469 L 143 228.503906 L 141 228.503906 Z M 141 5.480469 "/>
</clipPath>
<clipPath id="clip8">
  <path d="M 220 5.480469 L 221 5.480469 L 221 228.503906 L 220 228.503906 Z M 220 5.480469 "/>
</clipPath>
<clipPath id="clip9">
  <path d="M 299 5.480469 L 300 5.480469 L 300 228.503906 L 299 228.503906 Z M 299 5.480469 "/>
</clipPath>
<clipPath id="clip10">
  <path d="M 8.21875 217 L 354.519531 217 L 354.519531 219 L 8.21875 219 Z M 8.21875 217 "/>
</clipPath>
<clipPath id="clip11">
  <path d="M 8.21875 167 L 354.519531 167 L 354.519531 169 L 8.21875 169 Z M 8.21875 167 "/>
</clipPath>
<clipPath id="clip12">
  <path d="M 8.21875 116 L 354.519531 116 L 354.519531 118 L 8.21875 118 Z M 8.21875 116 "/>
</clipPath>
<clipPath id="clip13">
  <path d="M 8.21875 65 L 354.519531 65 L 354.519531 67 L 8.21875 67 Z M 8.21875 65 "/>
</clipPath>
<clipPath id="clip14">
  <path d="M 8.21875 14 L 354.519531 14 L 354.519531 16 L 8.21875 16 Z M 8.21875 14 "/>
</clipPath>
<clipPath id="clip15">
  <path d="M 23 5.480469 L 25 5.480469 L 25 228.503906 L 23 228.503906 Z M 23 5.480469 "/>
</clipPath>
<clipPath id="clip16">
  <path d="M 102 5.480469 L 104 5.480469 L 104 228.503906 L 102 228.503906 Z M 102 5.480469 "/>
</clipPath>
<clipPath id="clip17">
  <path d="M 180 5.480469 L 182 5.480469 L 182 228.503906 L 180 228.503906 Z M 180 5.480469 "/>
</clipPath>
<clipPath id="clip18">
  <path d="M 259 5.480469 L 261 5.480469 L 261 228.503906 L 259 228.503906 Z M 259 5.480469 "/>
</clipPath>
<clipPath id="clip19">
  <path d="M 338 5.480469 L 340 5.480469 L 340 228.503906 L 338 228.503906 Z M 338 5.480469 "/>
</clipPath>
<clipPath id="clip20">
  <path d="M 180 5.480469 L 182 5.480469 L 182 228.503906 L 180 228.503906 Z M 180 5.480469 "/>
</clipPath>
</defs>
<g id="surface9">
<rect x="0" y="0" width="360" height="252" style="fill:rgb(100%,100%,100%);fill-opacity:1;stroke:none;"/>
<rect x="0" y="0" width="360" height="252" style="fill:rgb(100%,100%,100%);fill-opacity:1;stroke:none;"/>
<path style="fill:none;stroke-width:1.066978;stroke-linecap:round;stroke-linejoin:round;stroke:rgb(100%,100%,100%);stroke-opacity:1;stroke-miterlimit:10;" d="M 0 252 L 360 252 L 360 0 L 0 0 Z M 0 252 "/>
<g clip-path="url(#clip1)" clip-rule="nonzero">
<path style=" stroke:none;fill-rule:nonzero;fill:rgb(92.156863%,92.156863%,92.156863%);fill-opacity:1;" d="M 8.21875 228.503906 L 354.519531 228.503906 L 354.519531 5.480469 L 8.21875 5.480469 Z M 8.21875 228.503906 "/>
</g>
<g clip-path="url(#clip2)" clip-rule="nonzero">
<path style="fill:none;stroke-width:0.533489;stroke-linecap:butt;stroke-linejoin:round;stroke:rgb(100%,100%,100%);stroke-opacity:1;stroke-miterlimit:10;" d="M 8.21875 192.957031 L 354.519531 192.957031 "/>
</g>
<g clip-path="url(#clip3)" clip-rule="nonzero">
<path style="fill:none;stroke-width:0.533489;stroke-linecap:butt;stroke-linejoin:round;stroke:rgb(100%,100%,100%);stroke-opacity:1;stroke-miterlimit:10;" d="M 8.21875 142.132813 L 354.519531 142.132813 "/>
</g>
<g clip-path="url(#clip4)" clip-rule="nonzero">
<path style="fill:none;stroke-width:0.533489;stroke-linecap:butt;stroke-linejoin:round;stroke:rgb(100%,100%,100%);stroke-opacity:1;stroke-miterlimit:10;" d="M 8.21875 91.3125 L 354.519531 91.3125 "/>
</g>
<g clip-path="url(#clip5)" clip-rule="nonzero">
<path style="fill:none;stroke-width:0.533489;stroke-linecap:butt;stroke-linejoin:round;stroke:rgb(100%,100%,100%);stroke-opacity:1;stroke-miterlimit:10;" d="M 8.21875 40.492188 L 354.519531 40.492188 "/>
</g>
<g clip-path="url(#clip6)" clip-rule="nonzero">
<path style="fill:none;stroke-width:0.533489;stroke-linecap:butt;stroke-linejoin:round;stroke:rgb(100%,100%,100%);stroke-opacity:1;stroke-miterlimit:10;" d="M 63.3125 228.503906 L 63.3125 5.480469 "/>
</g>
<g clip-path="url(#clip7)" clip-rule="nonzero">
<path style="fill:none;stroke-width:0.533489;stroke-linecap:butt;stroke-linejoin:round;stroke:rgb(100%,100%,100%);stroke-opacity:1;stroke-miterlimit:10;" d="M 142.015625 228.503906 L 142.015625 5.480469 "/>
</g>
<g clip-path="url(#clip8)" clip-rule="nonzero">
<path style="fill:none;stroke-width:0.533489;stroke-linecap:butt;stroke-linejoin:round;stroke:rgb(100%,100%,100%);stroke-opacity:1;stroke-miterlimit:10;" d="M 220.722656 228.503906 L 220.722656 5.480469 "/>
</g>
<g clip-path="url(#clip9)" clip-rule="nonzero">
<path style="fill:none;stroke-width:0.533489;stroke-linecap:butt;stroke-linejoin:round;stroke:rgb(100%,100%,100%);stroke-opacity:1;stroke-miterlimit:10;" d="M 299.425781 228.503906 L 299.425781 5.480469 "/>
</g>
<g clip-path="url(#clip10)" clip-rule="nonzero">
<path style="fill:none;stroke-width:1.066978;stroke-linecap:butt;stroke-linejoin:round;stroke:rgb(100%,100%,100%);stroke-opacity:1;stroke-miterlimit:10;" d="M 8.21875 218.367188 L 354.519531 218.367188 "/>
</g>
<g clip-path="url(#clip11)" clip-rule="nonzero">
<path style="fill:none;stroke-width:1.066978;stroke-linecap:butt;stroke-linejoin:round;stroke:rgb(100%,100%,100%);stroke-opacity:1;stroke-miterlimit:10;" d="M 8.21875 167.542969 L 354.519531 167.542969 "/>
</g>
<g clip-path="url(#clip12)" clip-rule="nonzero">
<path style="fill:none;stroke-width:1.066978;stroke-linecap:butt;stroke-linejoin:round;stroke:rgb(100%,100%,100%);stroke-opacity:1;stroke-miterlimit:10;" d="M 8.21875 116.722656 L 354.519531 116.722656 "/>
</g>
<g clip-path="url(#clip13)" clip-rule="nonzero">
<path style="fill:none;stroke-width:1.066978;stroke-linecap:butt;stroke-linejoin:round;stroke:rgb(100%,100%,100%);stroke-opacity:1;stroke-miterlimit:10;" d="M 8.21875 65.902344 L 354.519531 65.902344 "/>
</g>
<g clip-path="url(#clip14)" clip-rule="nonzero">
<path style="fill:none;stroke-width:1.066978;stroke-linecap:butt;stroke-linejoin:round;stroke:rgb(100%,100%,100%);stroke-opacity:1;stroke-miterlimit:10;" d="M 8.21875 15.078125 L 354.519531 15.078125 "/>
</g>
<g clip-path="url(#clip15)" clip-rule="nonzero">
<path style="fill:none;stroke-width:1.066978;stroke-linecap:butt;stroke-linejoin:round;stroke:rgb(100%,100%,100%);stroke-opacity:1;stroke-miterlimit:10;" d="M 23.960938 228.503906 L 23.960938 5.480469 "/>
</g>
<g clip-path="url(#clip16)" clip-rule="nonzero">
<path style="fill:none;stroke-width:1.066978;stroke-linecap:butt;stroke-linejoin:round;stroke:rgb(100%,100%,100%);stroke-opacity:1;stroke-miterlimit:10;" d="M 102.664063 228.503906 L 102.664063 5.480469 "/>
</g>
<g clip-path="url(#clip17)" clip-rule="nonzero">
<path style="fill:none;stroke-width:1.066978;stroke-linecap:butt;stroke-linejoin:round;stroke:rgb(100%,100%,100%);stroke-opacity:1;stroke-miterlimit:10;" d="M 181.371094 228.503906 L 181.371094 5.480469 "/>
</g>
<g clip-path="url(#clip18)" clip-rule="nonzero">
<path style="fill:none;stroke-width:1.066978;stroke-linecap:butt;stroke-linejoin:round;stroke:rgb(100%,100%,100%);stroke-opacity:1;stroke-miterlimit:10;" d="M 260.074219 228.503906 L 260.074219 5.480469 "/>
</g>
<g clip-path="url(#clip19)" clip-rule="nonzero">
<path style="fill:none;stroke-width:1.066978;stroke-linecap:butt;stroke-linejoin:round;stroke:rgb(100%,100%,100%);stroke-opacity:1;stroke-miterlimit:10;" d="M 338.78125 228.503906 L 338.78125 5.480469 "/>
</g>
<path style="fill:none;stroke-width:3.200935;stroke-linecap:butt;stroke-linejoin:round;stroke:rgb(0%,0%,0%);stroke-opacity:1;stroke-miterlimit:10;" d="M 23.960938 218.367188 L 52.292969 218.367188 L 55.441406 218.363281 L 58.589844 218.363281 L 64.886719 218.355469 L 68.035156 218.347656 L 71.183594 218.335938 L 74.332031 218.316406 L 77.480469 218.285156 L 80.628906 218.238281 L 83.777344 218.167969 L 86.925781 218.054688 L 90.070313 217.890625 L 93.21875 217.648438 L 96.367188 217.300781 L 99.515625 216.804688 L 102.664063 216.113281 L 105.8125 215.160156 L 108.960938 213.871094 L 112.109375 212.148438 L 115.257813 209.894531 L 118.40625 206.984375 L 121.554688 203.296875 L 124.703125 198.695313 L 127.851563 193.058594 L 131 186.269531 L 134.148438 178.242188 L 137.296875 168.925781 L 140.441406 158.316406 L 143.589844 146.472656 L 146.738281 133.527344 L 149.886719 119.675781 L 153.035156 105.210938 L 156.183594 90.476563 L 159.332031 75.890625 L 162.480469 61.910156 L 165.628906 49.015625 L 168.777344 37.679688 L 171.925781 28.339844 L 175.074219 21.371094 L 178.222656 17.070313 L 181.371094 15.617188 L 184.519531 17.070313 L 187.667969 21.371094 L 190.8125 28.339844 L 193.960938 37.679688 L 197.109375 49.015625 L 200.257813 61.910156 L 203.40625 75.890625 L 206.554688 90.476563 L 209.703125 105.210938 L 212.851563 119.675781 L 216 133.527344 L 219.148438 146.472656 L 222.296875 158.316406 L 225.445313 168.925781 L 228.59375 178.242188 L 231.742188 186.269531 L 234.890625 193.058594 L 238.039063 198.695313 L 241.1875 203.296875 L 244.332031 206.984375 L 247.480469 209.894531 L 250.628906 212.148438 L 253.777344 213.871094 L 256.925781 215.160156 L 260.074219 216.113281 L 263.222656 216.804688 L 266.371094 217.300781 L 269.519531 217.648438 L 272.667969 217.890625 L 275.816406 218.054688 L 278.964844 218.167969 L 282.113281 218.238281 L 285.261719 218.285156 L 288.410156 218.316406 L 291.558594 218.335938 L 294.703125 218.347656 L 297.851563 218.355469 L 304.148438 218.363281 L 307.296875 218.363281 L 310.445313 218.367188 L 338.78125 218.367188 "/>
<g clip-path="url(#clip20)" clip-rule="nonzero">
<path style="fill:none;stroke-width:1.066978;stroke-linecap:butt;stroke-linejoin:round;stroke:rgb(85.098039%,34.509804%,16.078431%);stroke-opacity:1;stroke-miterlimit:10;" d="M 181.371094 228.503906 L 181.371094 5.480469 "/>
</g>
<path style=" stroke:none;fill-rule:nonzero;fill:rgb(0%,0%,0%);fill-opacity:1;" d="M 183.796875 243.617188 L 181.375 239.78125 L 178.957031 243.617188 L 176.824219 243.617188 L 180.160156 238.550781 L 177.105469 233.984375 L 179.238281 233.984375 L 181.375 237.386719 L 183.515625 233.984375 L 185.636719 233.984375 L 182.710938 238.550781 L 185.914063 243.617188 Z M 183.796875 243.617188 "/>
</g>
</svg>
