<?xml version="1.0" encoding="UTF-8"?>
<svg xmlns="http://www.w3.org/2000/svg" xmlns:xlink="http://www.w3.org/1999/xlink" width="504" height="360" viewBox="0 0 504 360">
<defs>
<g>
<g id="glyph-0-0">
<path d="M 0.640625 0 L 0.640625 -14.296875 L 11.984375 -14.296875 L 11.984375 0 Z M 10.1875 -1.796875 L 10.1875 -12.5 L 2.4375 -12.5 L 2.4375 -1.796875 Z M 10.1875 -1.796875 "/>
</g>
<g id="glyph-0-1">
<path d="M 0.625 0 C 0.6875 -1.195312 0.929688 -2.238281 1.359375 -3.125 C 1.796875 -4.019531 2.640625 -4.828125 3.890625 -5.546875 L 5.765625 -6.640625 C 6.597656 -7.117188 7.179688 -7.53125 7.515625 -7.875 C 8.046875 -8.414062 8.3125 -9.035156 8.3125 -9.734375 C 8.3125 -10.535156 8.066406 -11.175781 7.578125 -11.65625 C 7.097656 -12.132812 6.453125 -12.375 5.640625 -12.375 C 4.441406 -12.375 3.613281 -11.921875 3.15625 -11.015625 C 2.90625 -10.523438 2.769531 -9.847656 2.75 -8.984375 L 0.96875 -8.984375 C 0.988281 -10.203125 1.210938 -11.191406 1.640625 -11.953125 C 2.390625 -13.304688 3.726562 -13.984375 5.65625 -13.984375 C 7.25 -13.984375 8.410156 -13.550781 9.140625 -12.6875 C 9.878906 -11.820312 10.25 -10.863281 10.25 -9.8125 C 10.25 -8.6875 9.859375 -7.734375 9.078125 -6.953125 C 8.617188 -6.484375 7.804688 -5.921875 6.640625 -5.265625 L 5.296875 -4.53125 C 4.660156 -4.175781 4.160156 -3.84375 3.796875 -3.53125 C 3.148438 -2.96875 2.742188 -2.34375 2.578125 -1.65625 L 10.1875 -1.65625 L 10.1875 0 Z M 0.625 0 "/>
</g>
<g id="glyph-0-2">
<path d="M 2.46875 -3.546875 C 2.582031 -2.546875 3.046875 -1.859375 3.859375 -1.484375 C 4.265625 -1.285156 4.742188 -1.1875 5.296875 -1.1875 C 6.328125 -1.1875 7.09375 -1.515625 7.59375 -2.171875 C 8.09375 -2.835938 8.34375 -3.570312 8.34375 -4.375 C 8.34375 -5.351562 8.046875 -6.109375 7.453125 -6.640625 C 6.859375 -7.171875 6.148438 -7.4375 5.328125 -7.4375 C 4.722656 -7.4375 4.203125 -7.316406 3.765625 -7.078125 C 3.335938 -6.847656 2.972656 -6.523438 2.671875 -6.109375 L 1.140625 -6.203125 L 2.203125 -13.703125 L 9.453125 -13.703125 L 9.453125 -12 L 3.515625 -12 L 2.921875 -8.125 C 3.253906 -8.375 3.566406 -8.5625 3.859375 -8.6875 C 4.367188 -8.894531 4.96875 -9 5.65625 -9 C 6.925781 -9 8.003906 -8.585938 8.890625 -7.765625 C 9.785156 -6.941406 10.234375 -5.898438 10.234375 -4.640625 C 10.234375 -3.328125 9.828125 -2.164062 9.015625 -1.15625 C 8.203125 -0.15625 6.898438 0.34375 5.109375 0.34375 C 3.984375 0.34375 2.984375 0.0234375 2.109375 -0.609375 C 1.234375 -1.242188 0.742188 -2.222656 0.640625 -3.546875 Z M 2.46875 -3.546875 "/>
</g>
<g id="glyph-0-3">
<path d="M 13.578125 -6.765625 C 14.515625 -6.765625 15.3125 -6.429688 15.96875 -5.765625 C 16.632812 -5.109375 16.96875 -4.316406 16.96875 -3.390625 C 16.96875 -2.453125 16.632812 -1.648438 15.96875 -0.984375 C 15.3125 -0.328125 14.515625 0 13.578125 0 C 12.640625 0 11.835938 -0.328125 11.171875 -0.984375 C 10.515625 -1.648438 10.1875 -2.453125 10.1875 -3.390625 C 10.1875 -4.316406 10.515625 -5.109375 11.171875 -5.765625 C 11.835938 -6.429688 12.640625 -6.765625 13.578125 -6.765625 Z M 12.171875 -13.875 L 13.25 -13.875 L 5.453125 0.375 L 4.375 0.375 Z M 4.03125 -8.109375 C 4.582031 -8.109375 5.054688 -8.304688 5.453125 -8.703125 C 5.847656 -9.097656 6.046875 -9.566406 6.046875 -10.109375 C 6.046875 -10.660156 5.847656 -11.132812 5.453125 -11.53125 C 5.054688 -11.925781 4.582031 -12.125 4.03125 -12.125 C 3.476562 -12.125 3.003906 -11.925781 2.609375 -11.53125 C 2.210938 -11.144531 2.015625 -10.671875 2.015625 -10.109375 C 2.015625 -9.566406 2.210938 -9.097656 2.609375 -8.703125 C 3.003906 -8.304688 3.476562 -8.109375 4.03125 -8.109375 Z M 4.03125 -13.515625 C 4.96875 -13.515625 5.765625 -13.179688 6.421875 -12.515625 C 7.085938 -11.847656 7.421875 -11.046875 7.421875 -10.109375 C 7.421875 -9.179688 7.085938 -8.382812 6.421875 -7.71875 C 5.765625 -7.0625 4.96875 -6.734375 4.03125 -6.734375 C 3.09375 -6.734375 2.289062 -7.0625 1.625 -7.71875 C 0.96875 -8.382812 0.640625 -9.179688 0.640625 -10.109375 C 0.640625 -11.046875 0.96875 -11.847656 1.625 -12.515625 C 2.289062 -13.179688 3.09375 -13.515625 4.03125 -13.515625 Z M 13.578125 -1.375 C 14.128906 -1.375 14.597656 -1.570312 14.984375 -1.96875 C 15.378906 -2.363281 15.578125 -2.835938 15.578125 -3.390625 C 15.578125 -3.941406 15.378906 -4.410156 14.984375 -4.796875 C 14.597656 -5.191406 14.128906 -5.390625 13.578125 -5.390625 C 13.023438 -5.390625 12.550781 -5.191406 12.15625 -4.796875 C 11.757812 -4.410156 11.5625 -3.941406 11.5625 -3.390625 C 11.5625 -2.835938 11.757812 -2.363281 12.15625 -1.96875 C 12.550781 -1.570312 13.023438 -1.375 13.578125 -1.375 Z M 13.578125 -1.375 "/>
</g>
<g id="glyph-0-4">
<path d="M 10.421875 -13.703125 L 10.421875 -12.171875 C 9.972656 -11.734375 9.375 -10.972656 8.625 -9.890625 C 7.882812 -8.816406 7.226562 -7.660156 6.65625 -6.421875 C 6.09375 -5.203125 5.664062 -4.097656 5.375 -3.109375 C 5.1875 -2.460938 4.945312 -1.425781 4.65625 0 L 2.71875 0 C 3.15625 -2.65625 4.125 -5.300781 5.625 -7.9375 C 6.519531 -9.476562 7.457031 -10.8125 8.4375 -11.9375 L 0.734375 -11.9375 L 0.734375 -13.703125 Z M 10.421875 -13.703125 "/>
</g>
<g id="glyph-1-0">
<path d="M 0.390625 0 L 0.390625 -8.609375 L 7.21875 -8.609375 L 7.21875 0 Z M 6.140625 -1.078125 L 6.140625 -7.53125 L 1.46875 -7.53125 L 1.46875 -1.078125 Z M 6.140625 -1.078125 "/>
</g>
<g id="glyph-1-1">
<path d="M 1.15625 -5.9375 L 1.15625 -6.75 C 1.914062 -6.820312 2.441406 -6.945312 2.734375 -7.125 C 3.035156 -7.300781 3.265625 -7.710938 3.421875 -8.359375 L 4.25 -8.359375 L 4.25 0 L 3.125 0 L 3.125 -5.9375 Z M 1.15625 -5.9375 "/>
</g>
<g id="glyph-1-2">
<path d="M 3.25 -8.390625 C 4.332031 -8.390625 5.117188 -7.941406 5.609375 -7.046875 C 5.984375 -6.359375 6.171875 -5.410156 6.171875 -4.203125 C 6.171875 -3.066406 6 -2.125 5.65625 -1.375 C 5.164062 -0.300781 4.359375 0.234375 3.234375 0.234375 C 2.234375 0.234375 1.484375 -0.203125 0.984375 -1.078125 C 0.578125 -1.816406 0.375 -2.800781 0.375 -4.03125 C 0.375 -4.976562 0.5 -5.796875 0.75 -6.484375 C 1.207031 -7.753906 2.039062 -8.390625 3.25 -8.390625 Z M 3.234375 -0.734375 C 3.785156 -0.734375 4.222656 -0.972656 4.546875 -1.453125 C 4.867188 -1.941406 5.03125 -2.847656 5.03125 -4.171875 C 5.03125 -5.117188 4.910156 -5.898438 4.671875 -6.515625 C 4.441406 -7.128906 3.988281 -7.4375 3.3125 -7.4375 C 2.6875 -7.4375 2.226562 -7.144531 1.9375 -6.5625 C 1.65625 -5.976562 1.515625 -5.117188 1.515625 -3.984375 C 1.515625 -3.128906 1.609375 -2.441406 1.796875 -1.921875 C 2.078125 -1.128906 2.554688 -0.734375 3.234375 -0.734375 Z M 3.234375 -0.734375 "/>
</g>
<g id="glyph-1-3">
<path d="M 1.484375 -2.140625 C 1.554688 -1.535156 1.835938 -1.117188 2.328125 -0.890625 C 2.578125 -0.773438 2.863281 -0.71875 3.1875 -0.71875 C 3.8125 -0.71875 4.273438 -0.914062 4.578125 -1.3125 C 4.878906 -1.707031 5.03125 -2.148438 5.03125 -2.640625 C 5.03125 -3.222656 4.847656 -3.675781 4.484375 -4 C 4.128906 -4.320312 3.703125 -4.484375 3.203125 -4.484375 C 2.835938 -4.484375 2.523438 -4.410156 2.265625 -4.265625 C 2.003906 -4.128906 1.785156 -3.9375 1.609375 -3.6875 L 0.6875 -3.734375 L 1.328125 -8.25 L 5.6875 -8.25 L 5.6875 -7.234375 L 2.125 -7.234375 L 1.765625 -4.90625 C 1.960938 -5.050781 2.148438 -5.160156 2.328125 -5.234375 C 2.640625 -5.359375 3 -5.421875 3.40625 -5.421875 C 4.175781 -5.421875 4.828125 -5.171875 5.359375 -4.671875 C 5.898438 -4.179688 6.171875 -3.554688 6.171875 -2.796875 C 6.171875 -2.003906 5.921875 -1.300781 5.421875 -0.6875 C 4.929688 -0.0820312 4.148438 0.21875 3.078125 0.21875 C 2.398438 0.21875 1.796875 0.0234375 1.265625 -0.359375 C 0.742188 -0.742188 0.453125 -1.335938 0.390625 -2.140625 Z M 1.484375 -2.140625 "/>
</g>
<g id="glyph-1-4">
<path d="M 0.375 0 C 0.414062 -0.71875 0.566406 -1.34375 0.828125 -1.875 C 1.085938 -2.414062 1.59375 -2.90625 2.34375 -3.34375 L 3.46875 -4 C 3.96875 -4.289062 4.320312 -4.539062 4.53125 -4.75 C 4.851562 -5.070312 5.015625 -5.441406 5.015625 -5.859375 C 5.015625 -6.347656 4.863281 -6.734375 4.5625 -7.015625 C 4.269531 -7.304688 3.882812 -7.453125 3.40625 -7.453125 C 2.675781 -7.453125 2.175781 -7.179688 1.90625 -6.640625 C 1.75 -6.335938 1.664062 -5.929688 1.65625 -5.421875 L 0.578125 -5.421875 C 0.585938 -6.148438 0.722656 -6.742188 0.984375 -7.203125 C 1.441406 -8.015625 2.25 -8.421875 3.40625 -8.421875 C 4.363281 -8.421875 5.0625 -8.160156 5.5 -7.640625 C 5.945312 -7.117188 6.171875 -6.539062 6.171875 -5.90625 C 6.171875 -5.238281 5.9375 -4.664062 5.46875 -4.1875 C 5.195312 -3.90625 4.707031 -3.566406 4 -3.171875 L 3.1875 -2.734375 C 2.8125 -2.523438 2.515625 -2.320312 2.296875 -2.125 C 1.898438 -1.789062 1.648438 -1.414062 1.546875 -1 L 6.140625 -1 L 6.140625 0 Z M 0.375 0 "/>
</g>
<g id="glyph-1-5">
<path d="M 3.125 0.234375 C 2.125 0.234375 1.398438 -0.0351562 0.953125 -0.578125 C 0.503906 -1.128906 0.28125 -1.796875 0.28125 -2.578125 L 1.390625 -2.578125 C 1.429688 -2.035156 1.53125 -1.640625 1.6875 -1.390625 C 1.96875 -0.953125 2.460938 -0.734375 3.171875 -0.734375 C 3.734375 -0.734375 4.179688 -0.878906 4.515625 -1.171875 C 4.847656 -1.472656 5.015625 -1.859375 5.015625 -2.328125 C 5.015625 -2.898438 4.835938 -3.300781 4.484375 -3.53125 C 4.128906 -3.769531 3.640625 -3.890625 3.015625 -3.890625 C 2.941406 -3.890625 2.867188 -3.882812 2.796875 -3.875 C 2.722656 -3.875 2.648438 -3.875 2.578125 -3.875 L 2.578125 -4.8125 C 2.691406 -4.789062 2.785156 -4.78125 2.859375 -4.78125 C 2.929688 -4.78125 3.007812 -4.78125 3.09375 -4.78125 C 3.488281 -4.78125 3.8125 -4.84375 4.0625 -4.96875 C 4.507812 -5.1875 4.734375 -5.578125 4.734375 -6.140625 C 4.734375 -6.554688 4.582031 -6.875 4.28125 -7.09375 C 3.988281 -7.320312 3.644531 -7.4375 3.25 -7.4375 C 2.550781 -7.4375 2.066406 -7.203125 1.796875 -6.734375 C 1.648438 -6.484375 1.566406 -6.117188 1.546875 -5.640625 L 0.5 -5.640625 C 0.5 -6.265625 0.625 -6.796875 0.875 -7.234375 C 1.300781 -8.015625 2.054688 -8.40625 3.140625 -8.40625 C 3.992188 -8.40625 4.65625 -8.210938 5.125 -7.828125 C 5.59375 -7.453125 5.828125 -6.898438 5.828125 -6.171875 C 5.828125 -5.660156 5.691406 -5.242188 5.421875 -4.921875 C 5.242188 -4.722656 5.019531 -4.566406 4.75 -4.453125 C 5.1875 -4.328125 5.53125 -4.09375 5.78125 -3.75 C 6.03125 -3.40625 6.15625 -2.984375 6.15625 -2.484375 C 6.15625 -1.679688 5.890625 -1.023438 5.359375 -0.515625 C 4.835938 -0.015625 4.09375 0.234375 3.125 0.234375 Z M 3.125 0.234375 "/>
</g>
<g id="glyph-2-0">
<path d="M 1.046875 -10.078125 L 9.171875 -10.078125 L 9.171875 0 L 1.046875 0 Z M 7.90625 -1.265625 L 7.90625 -8.8125 L 2.3125 -8.8125 L 2.3125 -1.265625 Z M 7.90625 -1.265625 "/>
</g>
<g id="glyph-2-1">
<path d="M 7.546875 0 L 5.125 0 L 3.828125 -2.234375 L 2.546875 0 L 0.171875 0 L 2.71875 -3.78125 L 0.28125 -7.4375 L 2.671875 -7.4375 L 3.921875 -5.28125 L 5.140625 -7.4375 L 7.453125 -7.4375 L 5 -3.8125 Z M 7.546875 0 "/>
</g>
</g>
<clipPath id="clip-0">
<path clip-rule="nonzero" d="M 5.480469 5.480469 L 498.523438 5.480469 L 498.523438 319.851562 L 5.480469 319.851562 Z M 5.480469 5.480469 "/>
</clipPath>
<clipPath id="clip-1">
<path clip-rule="nonzero" d="M 5.480469 251 L 498.523438 251 L 498.523438 253 L 5.480469 253 Z M 5.480469 251 "/>
</clipPath>
<clipPath id="clip-2">
<path clip-rule="nonzero" d="M 5.480469 144 L 498.523438 144 L 498.523438 145 L 5.480469 145 Z M 5.480469 144 "/>
</clipPath>
<clipPath id="clip-3">
<path clip-rule="nonzero" d="M 5.480469 36 L 498.523438 36 L 498.523438 38 L 5.480469 38 Z M 5.480469 36 "/>
</clipPath>
<clipPath id="clip-4">
<path clip-rule="nonzero" d="M 18 5.480469 L 19 5.480469 L 19 319.851562 L 18 319.851562 Z M 18 5.480469 "/>
</clipPath>
<clipPath id="clip-5">
<path clip-rule="nonzero" d="M 111 5.480469 L 113 5.480469 L 113 319.851562 L 111 319.851562 Z M 111 5.480469 "/>
</clipPath>
<clipPath id="clip-6">
<path clip-rule="nonzero" d="M 205 5.480469 L 206 5.480469 L 206 319.851562 L 205 319.851562 Z M 205 5.480469 "/>
</clipPath>
<clipPath id="clip-7">
<path clip-rule="nonzero" d="M 298 5.480469 L 299 5.480469 L 299 319.851562 L 298 319.851562 Z M 298 5.480469 "/>
</clipPath>
<clipPath id="clip-8">
<path clip-rule="nonzero" d="M 391 5.480469 L 393 5.480469 L 393 319.851562 L 391 319.851562 Z M 391 5.480469 "/>
</clipPath>
<clipPath id="clip-9">
<path clip-rule="nonzero" d="M 485 5.480469 L 486 5.480469 L 486 319.851562 L 485 319.851562 Z M 485 5.480469 "/>
</clipPath>
<clipPath id="clip-10">
<path clip-rule="nonzero" d="M 5.480469 305 L 498.523438 305 L 498.523438 307 L 5.480469 307 Z M 5.480469 305 "/>
</clipPath>
<clipPath id="clip-11">
<path clip-rule="nonzero" d="M 5.480469 197 L 498.523438 197 L 498.523438 199 L 5.480469 199 Z M 5.480469 197 "/>
</clipPath>
<clipPath id="clip-12">
<path clip-rule="nonzero" d="M 5.480469 90 L 498.523438 90 L 498.523438 92 L 5.480469 92 Z M 5.480469 90 "/>
</clipPath>
<clipPath id="clip-13">
<path clip-rule="nonzero" d="M 64 5.480469 L 66 5.480469 L 66 319.851562 L 64 319.851562 Z M 64 5.480469 "/>
</clipPath>
<clipPath id="clip-14">
<path clip-rule="nonzero" d="M 158 5.480469 L 160 5.480469 L 160 319.851562 L 158 319.851562 Z M 158 5.480469 "/>
</clipPath>
<clipPath id="clip-15">
<path clip-rule="nonzero" d="M 251 5.480469 L 253 5.480469 L 253 319.851562 L 251 319.851562 Z M 251 5.480469 "/>
</clipPath>
<clipPath id="clip-16">
<path clip-rule="nonzero" d="M 344 5.480469 L 346 5.480469 L 346 319.851562 L 344 319.851562 Z M 344 5.480469 "/>
</clipPath>
<clipPath id="clip-17">
<path clip-rule="nonzero" d="M 438 5.480469 L 440 5.480469 L 440 319.851562 L 438 319.851562 Z M 438 5.480469 "/>
</clipPath>
<clipPath id="clip-18">
<path clip-rule="nonzero" d="M 5.480469 303 L 498.523438 303 L 498.523438 308 L 5.480469 308 Z M 5.480469 303 "/>
</clipPath>
<clipPath id="clip-19">
<path clip-rule="nonzero" d="M 213 5.480469 L 217 5.480469 L 217 319.851562 L 213 319.851562 Z M 213 5.480469 "/>
</clipPath>
</defs>
<rect x="-50.4" y="-36" width="604.8" height="432" fill="rgb(100%, 100%, 100%)" fill-opacity="1"/>
<rect x="-50.4" y="-36" width="604.8" height="432" fill="rgb(100%, 100%, 100%)" fill-opacity="1"/>
<path fill="none" stroke-width="1.066978" stroke-linecap="round" stroke-linejoin="round" stroke="rgb(100%, 100%, 100%)" stroke-opacity="1" stroke-miterlimit="10" d="M 0 360 L 504 360 L 504 0 L 0 0 Z M 0 360 "/>
<g clip-path="url(#clip-0)">
<path fill-rule="nonzero" fill="rgb(92.156863%, 92.156863%, 92.156863%)" fill-opacity="1" d="M 5.480469 319.847656 L 498.523438 319.847656 L 498.523438 5.476562 L 5.480469 5.476562 Z M 5.480469 319.847656 "/>
</g>
<g clip-path="url(#clip-1)">
<path fill="none" stroke-width="0.533489" stroke-linecap="butt" stroke-linejoin="round" stroke="rgb(100%, 100%, 100%)" stroke-opacity="1" stroke-miterlimit="10" d="M 5.480469 251.832031 L 498.519531 251.832031 "/>
</g>
<g clip-path="url(#clip-2)">
<path fill="none" stroke-width="0.533489" stroke-linecap="butt" stroke-linejoin="round" stroke="rgb(100%, 100%, 100%)" stroke-opacity="1" stroke-miterlimit="10" d="M 5.480469 144.375 L 498.519531 144.375 "/>
</g>
<g clip-path="url(#clip-3)">
<path fill="none" stroke-width="0.533489" stroke-linecap="butt" stroke-linejoin="round" stroke="rgb(100%, 100%, 100%)" stroke-opacity="1" stroke-miterlimit="10" d="M 5.480469 36.921875 L 498.519531 36.921875 "/>
</g>
<g clip-path="url(#clip-4)">
<path fill="none" stroke-width="0.533489" stroke-linecap="butt" stroke-linejoin="round" stroke="rgb(100%, 100%, 100%)" stroke-opacity="1" stroke-miterlimit="10" d="M 18.550781 319.847656 L 18.550781 5.480469 "/>
</g>
<g clip-path="url(#clip-5)">
<path fill="none" stroke-width="0.533489" stroke-linecap="butt" stroke-linejoin="round" stroke="rgb(100%, 100%, 100%)" stroke-opacity="1" stroke-miterlimit="10" d="M 111.929688 319.847656 L 111.929688 5.480469 "/>
</g>
<g clip-path="url(#clip-6)">
<path fill="none" stroke-width="0.533489" stroke-linecap="butt" stroke-linejoin="round" stroke="rgb(100%, 100%, 100%)" stroke-opacity="1" stroke-miterlimit="10" d="M 205.308594 319.847656 L 205.308594 5.480469 "/>
</g>
<g clip-path="url(#clip-7)">
<path fill="none" stroke-width="0.533489" stroke-linecap="butt" stroke-linejoin="round" stroke="rgb(100%, 100%, 100%)" stroke-opacity="1" stroke-miterlimit="10" d="M 298.691406 319.847656 L 298.691406 5.480469 "/>
</g>
<g clip-path="url(#clip-8)">
<path fill="none" stroke-width="0.533489" stroke-linecap="butt" stroke-linejoin="round" stroke="rgb(100%, 100%, 100%)" stroke-opacity="1" stroke-miterlimit="10" d="M 392.070312 319.847656 L 392.070312 5.480469 "/>
</g>
<g clip-path="url(#clip-9)">
<path fill="none" stroke-width="0.533489" stroke-linecap="butt" stroke-linejoin="round" stroke="rgb(100%, 100%, 100%)" stroke-opacity="1" stroke-miterlimit="10" d="M 485.449219 319.847656 L 485.449219 5.480469 "/>
</g>
<g clip-path="url(#clip-10)">
<path fill="none" stroke-width="1.066978" stroke-linecap="butt" stroke-linejoin="round" stroke="rgb(100%, 100%, 100%)" stroke-opacity="1" stroke-miterlimit="10" d="M 5.480469 305.558594 L 498.519531 305.558594 "/>
</g>
<g clip-path="url(#clip-11)">
<path fill="none" stroke-width="1.066978" stroke-linecap="butt" stroke-linejoin="round" stroke="rgb(100%, 100%, 100%)" stroke-opacity="1" stroke-miterlimit="10" d="M 5.480469 198.105469 L 498.519531 198.105469 "/>
</g>
<g clip-path="url(#clip-12)">
<path fill="none" stroke-width="1.066978" stroke-linecap="butt" stroke-linejoin="round" stroke="rgb(100%, 100%, 100%)" stroke-opacity="1" stroke-miterlimit="10" d="M 5.480469 90.648438 L 498.519531 90.648438 "/>
</g>
<g clip-path="url(#clip-13)">
<path fill="none" stroke-width="1.066978" stroke-linecap="butt" stroke-linejoin="round" stroke="rgb(100%, 100%, 100%)" stroke-opacity="1" stroke-miterlimit="10" d="M 65.242188 319.847656 L 65.242188 5.480469 "/>
</g>
<g clip-path="url(#clip-14)">
<path fill="none" stroke-width="1.066978" stroke-linecap="butt" stroke-linejoin="round" stroke="rgb(100%, 100%, 100%)" stroke-opacity="1" stroke-miterlimit="10" d="M 158.621094 319.847656 L 158.621094 5.480469 "/>
</g>
<g clip-path="url(#clip-15)">
<path fill="none" stroke-width="1.066978" stroke-linecap="butt" stroke-linejoin="round" stroke="rgb(100%, 100%, 100%)" stroke-opacity="1" stroke-miterlimit="10" d="M 252 319.847656 L 252 5.480469 "/>
</g>
<g clip-path="url(#clip-16)">
<path fill="none" stroke-width="1.066978" stroke-linecap="butt" stroke-linejoin="round" stroke="rgb(100%, 100%, 100%)" stroke-opacity="1" stroke-miterlimit="10" d="M 345.378906 319.847656 L 345.378906 5.480469 "/>
</g>
<g clip-path="url(#clip-17)">
<path fill="none" stroke-width="1.066978" stroke-linecap="butt" stroke-linejoin="round" stroke="rgb(100%, 100%, 100%)" stroke-opacity="1" stroke-miterlimit="10" d="M 438.757812 319.847656 L 438.757812 5.480469 "/>
</g>
<path fill="none" stroke-width="3.200935" stroke-linecap="butt" stroke-linejoin="round" stroke="rgb(0%, 0%, 0%)" stroke-opacity="1" stroke-miterlimit="10" d="M 27.890625 305.464844 L 32.371094 305.429688 L 36.855469 305.378906 L 41.335938 305.316406 L 45.820312 305.230469 L 50.300781 305.121094 L 54.785156 304.976562 L 59.265625 304.789062 L 63.746094 304.550781 L 68.230469 304.242188 L 72.710938 303.851562 L 77.195312 303.359375 L 81.675781 302.746094 L 86.160156 301.984375 L 90.640625 301.042969 L 95.125 299.890625 L 99.605469 298.488281 L 104.085938 296.796875 L 108.570312 294.773438 L 113.050781 292.363281 L 117.535156 289.515625 L 122.015625 286.183594 L 126.5 282.304688 L 130.980469 277.832031 L 135.464844 272.707031 L 139.945312 266.882812 L 144.425781 260.316406 L 148.910156 252.972656 L 153.390625 244.828125 L 157.875 235.871094 L 162.355469 226.097656 L 166.839844 215.539062 L 171.320312 204.222656 L 175.804688 192.210938 L 180.285156 179.585938 L 184.765625 166.449219 L 189.25 152.921875 L 193.730469 139.148438 L 198.214844 125.289062 L 202.695312 111.519531 L 207.179688 98.03125 L 211.660156 85.023438 L 216.140625 72.695312 L 220.625 61.246094 L 225.105469 50.867188 L 229.589844 41.742188 L 234.070312 34.03125 L 238.554688 27.882812 L 243.035156 23.402344 L 247.519531 20.683594 L 252 19.769531 L 256.480469 20.683594 L 260.964844 23.402344 L 265.445312 27.882812 L 269.929688 34.03125 L 274.410156 41.742188 L 278.894531 50.867188 L 283.375 61.246094 L 287.859375 72.695312 L 292.339844 85.023438 L 296.820312 98.03125 L 301.304688 111.519531 L 305.785156 125.289062 L 310.269531 139.148438 L 314.75 152.921875 L 319.234375 166.449219 L 323.714844 179.585938 L 328.195312 192.210938 L 332.679688 204.222656 L 337.160156 215.539062 L 341.644531 226.097656 L 346.125 235.871094 L 350.609375 244.828125 L 355.089844 252.972656 L 359.574219 260.316406 L 364.054688 266.882812 L 368.535156 272.707031 L 373.019531 277.832031 L 377.5 282.304688 L 381.984375 286.183594 L 386.464844 289.515625 L 390.949219 292.363281 L 395.429688 294.773438 L 399.914062 296.796875 L 404.394531 298.488281 L 408.875 299.890625 L 413.359375 301.042969 L 417.839844 301.984375 L 422.324219 302.746094 L 426.804688 303.359375 L 431.289062 303.851562 L 435.769531 304.242188 L 440.253906 304.550781 L 444.734375 304.789062 L 449.214844 304.976562 L 453.699219 305.121094 L 458.179688 305.230469 L 462.664062 305.316406 L 467.144531 305.378906 L 471.628906 305.429688 L 476.109375 305.464844 "/>
<g clip-path="url(#clip-18)">
<path fill="none" stroke-width="3.200935" stroke-linecap="butt" stroke-linejoin="round" stroke="rgb(0%, 0%, 0%)" stroke-opacity="1" stroke-miterlimit="10" d="M 5.480469 305.558594 L 498.519531 305.558594 "/>
</g>
<path fill-rule="nonzero" fill="rgb(9.411765%, 46.666667%, 54.901961%)" fill-opacity="0.8" d="M 27.890625 305.464844 L 33.492188 305.417969 L 35.359375 305.398438 L 37.226562 305.375 L 39.097656 305.351562 L 40.964844 305.324219 L 44.699219 305.253906 L 46.566406 305.214844 L 48.433594 305.171875 L 50.300781 305.121094 L 52.167969 305.066406 L 54.035156 305.003906 L 55.902344 304.933594 L 57.773438 304.859375 L 59.640625 304.773438 L 61.507812 304.675781 L 63.375 304.570312 L 65.242188 304.453125 L 67.109375 304.324219 L 68.976562 304.183594 L 70.84375 304.027344 L 72.710938 303.851562 L 74.578125 303.660156 L 76.449219 303.449219 L 78.316406 303.21875 L 80.183594 302.964844 L 82.050781 302.6875 L 83.917969 302.386719 L 85.785156 302.054688 L 87.652344 301.691406 L 89.519531 301.296875 L 91.386719 300.867188 L 93.253906 300.398438 L 95.125 299.890625 L 96.992188 299.339844 L 98.859375 298.742188 L 100.726562 298.09375 L 102.59375 297.394531 L 104.460938 296.640625 L 106.328125 295.828125 L 108.195312 294.953125 L 110.0625 294.011719 L 111.929688 293.003906 L 113.800781 291.917969 L 115.667969 290.757812 L 117.535156 289.515625 L 119.402344 288.191406 L 121.269531 286.773438 L 123.136719 285.265625 L 125.003906 283.664062 L 126.871094 281.957031 L 128.738281 280.148438 L 130.605469 278.226562 L 132.476562 276.199219 L 134.34375 274.050781 L 136.210938 271.785156 L 138.078125 269.398438 L 139.945312 266.882812 L 141.8125 264.238281 L 143.679688 261.464844 L 145.546875 258.554688 L 147.414062 255.507812 L 149.28125 252.324219 L 151.152344 249.003906 L 153.019531 245.539062 L 154.886719 241.933594 L 156.753906 238.1875 L 158.621094 234.296875 L 160.488281 230.269531 L 162.355469 226.097656 L 164.222656 221.792969 L 166.089844 217.351562 L 167.957031 212.777344 L 169.828125 208.074219 L 171.695312 203.246094 L 173.5625 198.300781 L 175.429688 193.238281 L 177.296875 188.066406 L 179.164062 182.796875 L 181.03125 177.429688 L 182.898438 171.980469 L 184.765625 166.449219 L 186.632812 160.855469 L 188.503906 155.199219 L 190.371094 149.496094 L 192.238281 143.757812 L 194.105469 137.996094 L 197.839844 126.441406 L 199.707031 120.679688 L 201.574219 114.945312 L 203.441406 109.246094 L 205.308594 103.605469 L 207.179688 98.03125 L 209.046875 92.542969 L 210.914062 87.152344 L 212.78125 81.871094 L 214.648438 76.714844 L 214.648438 305.558594 L 27.890625 305.558594 Z M 27.890625 305.464844 "/>
<path fill-rule="nonzero" fill="rgb(29.803922%, 63.921569%, 51.764706%)" fill-opacity="0.8" d="M 214.648438 76.714844 L 216.890625 70.71875 L 219.128906 64.953125 L 221.371094 59.433594 L 223.613281 54.195312 L 225.855469 49.253906 L 228.09375 44.632812 L 230.335938 40.355469 L 232.578125 36.4375 L 234.816406 32.894531 L 237.058594 29.75 L 239.300781 27.015625 L 241.542969 24.703125 L 243.78125 22.828125 L 246.023438 21.390625 L 248.265625 20.402344 L 250.507812 19.871094 L 252.746094 19.792969 L 254.988281 20.175781 L 257.230469 21.011719 L 259.46875 22.296875 L 261.710938 24.03125 L 263.953125 26.199219 L 266.195312 28.792969 L 268.433594 31.804688 L 270.675781 35.214844 L 272.917969 39.007812 L 275.15625 43.167969 L 277.398438 47.675781 L 279.640625 52.515625 L 281.882812 57.65625 L 284.121094 63.082031 L 286.363281 68.769531 L 288.605469 74.695312 L 290.84375 80.828125 L 293.085938 87.152344 L 295.328125 93.632812 L 297.570312 100.253906 L 299.808594 106.984375 L 302.050781 113.800781 L 304.292969 120.679688 L 306.535156 127.597656 L 308.773438 134.53125 L 311.015625 141.457031 L 313.257812 148.351562 L 315.496094 155.199219 L 317.738281 161.976562 L 319.980469 168.671875 L 322.222656 175.261719 L 324.460938 181.730469 L 326.703125 188.066406 L 328.945312 194.257812 L 331.183594 200.292969 L 333.425781 206.15625 L 335.667969 211.847656 L 337.910156 217.351562 L 340.148438 222.664062 L 342.390625 227.785156 L 344.632812 232.703125 L 346.875 237.417969 L 349.113281 241.933594 L 351.355469 246.242188 L 353.597656 250.347656 L 355.835938 254.253906 L 358.078125 257.957031 L 360.320312 261.464844 L 362.5625 264.777344 L 364.800781 267.902344 L 367.042969 270.84375 L 369.285156 273.609375 L 371.523438 276.199219 L 373.765625 278.621094 L 376.007812 280.882812 L 378.25 282.992188 L 380.488281 284.953125 L 382.730469 286.773438 L 384.972656 288.460938 L 387.210938 290.023438 L 389.453125 291.464844 L 391.695312 292.792969 L 393.9375 294.011719 L 396.175781 295.132812 L 398.417969 296.160156 L 400.660156 297.101562 L 402.902344 297.960938 L 405.140625 298.742188 L 407.382812 299.453125 L 409.625 300.097656 L 411.863281 300.683594 L 414.105469 301.210938 L 416.347656 301.691406 L 418.589844 302.121094 L 420.828125 302.507812 L 423.070312 302.859375 L 425.3125 303.171875 L 427.550781 303.449219 L 429.792969 303.699219 L 432.035156 303.921875 L 434.277344 304.121094 L 436.515625 304.296875 L 438.757812 304.453125 L 438.757812 305.558594 L 214.648438 305.558594 Z M 214.648438 76.714844 "/>
<g fill="rgb(100%, 100%, 100%)" fill-opacity="1">
<use xlink:href="#glyph-0-1" x="157.296875" y="269.415039"/>
<use xlink:href="#glyph-0-2" x="168.296875" y="269.415039"/>
<use xlink:href="#glyph-0-3" x="179.296875" y="269.415039"/>
</g>
<g fill="rgb(100%, 100%, 100%)" fill-opacity="1">
<use xlink:href="#glyph-0-4" x="269.351562" y="269.415039"/>
<use xlink:href="#glyph-0-2" x="280.351562" y="269.415039"/>
<use xlink:href="#glyph-0-3" x="291.351562" y="269.415039"/>
</g>
<g clip-path="url(#clip-19)">
<path fill="none" stroke-width="3.200935" stroke-linecap="butt" stroke-linejoin="round" stroke="rgb(9.803922%, 25.882353%, 29.803922%)" stroke-opacity="1" stroke-miterlimit="10" d="M 214.648438 319.847656 L 214.648438 5.480469 "/>
</g>
<path fill="none" stroke-width="1.066978" stroke-linecap="butt" stroke-linejoin="round" stroke="rgb(20%, 20%, 20%)" stroke-opacity="1" stroke-miterlimit="10" d="M 65.242188 322.589844 L 65.242188 319.847656 "/>
<path fill="none" stroke-width="1.066978" stroke-linecap="butt" stroke-linejoin="round" stroke="rgb(20%, 20%, 20%)" stroke-opacity="1" stroke-miterlimit="10" d="M 158.621094 322.589844 L 158.621094 319.847656 "/>
<path fill="none" stroke-width="1.066978" stroke-linecap="butt" stroke-linejoin="round" stroke="rgb(20%, 20%, 20%)" stroke-opacity="1" stroke-miterlimit="10" d="M 252 322.589844 L 252 319.847656 "/>
<path fill="none" stroke-width="1.066978" stroke-linecap="butt" stroke-linejoin="round" stroke="rgb(20%, 20%, 20%)" stroke-opacity="1" stroke-miterlimit="10" d="M 345.378906 322.589844 L 345.378906 319.847656 "/>
<path fill="none" stroke-width="1.066978" stroke-linecap="butt" stroke-linejoin="round" stroke="rgb(20%, 20%, 20%)" stroke-opacity="1" stroke-miterlimit="10" d="M 438.757812 322.589844 L 438.757812 319.847656 "/>
<g fill="rgb(30.196078%, 30.196078%, 30.196078%)" fill-opacity="1">
<use xlink:href="#glyph-1-1" x="58.242188" y="333.021484"/>
<use xlink:href="#glyph-1-2" x="65.242188" y="333.021484"/>
</g>
<g fill="rgb(30.196078%, 30.196078%, 30.196078%)" fill-opacity="1">
<use xlink:href="#glyph-1-1" x="151.621094" y="333.021484"/>
<use xlink:href="#glyph-1-3" x="158.621094" y="333.021484"/>
</g>
<g fill="rgb(30.196078%, 30.196078%, 30.196078%)" fill-opacity="1">
<use xlink:href="#glyph-1-4" x="245" y="333.021484"/>
<use xlink:href="#glyph-1-2" x="252" y="333.021484"/>
</g>
<g fill="rgb(30.196078%, 30.196078%, 30.196078%)" fill-opacity="1">
<use xlink:href="#glyph-1-4" x="338.378906" y="333.021484"/>
<use xlink:href="#glyph-1-3" x="345.378906" y="333.021484"/>
</g>
<g fill="rgb(30.196078%, 30.196078%, 30.196078%)" fill-opacity="1">
<use xlink:href="#glyph-1-5" x="431.757812" y="333.021484"/>
<use xlink:href="#glyph-1-2" x="438.757812" y="333.021484"/>
</g>
<g fill="rgb(0%, 0%, 0%)" fill-opacity="1">
<use xlink:href="#glyph-2-1" x="248" y="350.299805"/>
</g>
</svg>
