<?xml version="1.0" encoding="UTF-8"?>
<svg xmlns="http://www.w3.org/2000/svg" xmlns:xlink="http://www.w3.org/1999/xlink" width="504pt" height="288pt" viewBox="0 0 504 288" version="1.1">
<defs>
<clipPath id="clip1">
  <path d="M 8.21875 5.480469 L 498.519531 5.480469 L 498.519531 264.503906 L 8.21875 264.503906 Z M 8.21875 5.480469 "/>
</clipPath>
<clipPath id="clip2">
  <path d="M 8.21875 208 L 498.519531 208 L 498.519531 209 L 8.21875 209 Z M 8.21875 208 "/>
</clipPath>
<clipPath id="clip3">
  <path d="M 8.21875 119 L 498.519531 119 L 498.519531 121 L 8.21875 121 Z M 8.21875 119 "/>
</clipPath>
<clipPath id="clip4">
  <path d="M 8.21875 31 L 498.519531 31 L 498.519531 32 L 8.21875 32 Z M 8.21875 31 "/>
</clipPath>
<clipPath id="clip5">
  <path d="M 55 5.480469 L 56 5.480469 L 56 264.503906 L 55 264.503906 Z M 55 5.480469 "/>
</clipPath>
<clipPath id="clip6">
  <path d="M 154 5.480469 L 155 5.480469 L 155 264.503906 L 154 264.503906 Z M 154 5.480469 "/>
</clipPath>
<clipPath id="clip7">
  <path d="M 253 5.480469 L 254 5.480469 L 254 264.503906 L 253 264.503906 Z M 253 5.480469 "/>
</clipPath>
<clipPath id="clip8">
  <path d="M 352 5.480469 L 353 5.480469 L 353 264.503906 L 352 264.503906 Z M 352 5.480469 "/>
</clipPath>
<clipPath id="clip9">
  <path d="M 451 5.480469 L 452 5.480469 L 452 264.503906 L 451 264.503906 Z M 451 5.480469 "/>
</clipPath>
<clipPath id="clip10">
  <path d="M 8.21875 252 L 498.519531 252 L 498.519531 254 L 8.21875 254 Z M 8.21875 252 "/>
</clipPath>
<clipPath id="clip11">
  <path d="M 8.21875 163 L 498.519531 163 L 498.519531 165 L 8.21875 165 Z M 8.21875 163 "/>
</clipPath>
<clipPath id="clip12">
  <path d="M 8.21875 75 L 498.519531 75 L 498.519531 77 L 8.21875 77 Z M 8.21875 75 "/>
</clipPath>
<clipPath id="clip13">
  <path d="M 104 5.480469 L 106 5.480469 L 106 264.503906 L 104 264.503906 Z M 104 5.480469 "/>
</clipPath>
<clipPath id="clip14">
  <path d="M 203 5.480469 L 205 5.480469 L 205 264.503906 L 203 264.503906 Z M 203 5.480469 "/>
</clipPath>
<clipPath id="clip15">
  <path d="M 302 5.480469 L 304 5.480469 L 304 264.503906 L 302 264.503906 Z M 302 5.480469 "/>
</clipPath>
<clipPath id="clip16">
  <path d="M 401 5.480469 L 403 5.480469 L 403 264.503906 L 401 264.503906 Z M 401 5.480469 "/>
</clipPath>
</defs>
<g id="surface419">
<rect x="0" y="0" width="504" height="288" style="fill:rgb(100%,100%,100%);fill-opacity:1;stroke:none;"/>
<rect x="0" y="0" width="504" height="288" style="fill:rgb(100%,100%,100%);fill-opacity:1;stroke:none;"/>
<path style="fill:none;stroke-width:1.066978;stroke-linecap:round;stroke-linejoin:round;stroke:rgb(100%,100%,100%);stroke-opacity:1;stroke-miterlimit:10;" d="M 0 288 L 504 288 L 504 0 L 0 0 Z M 0 288 "/>
<g clip-path="url(#clip1)" clip-rule="nonzero">
<path style=" stroke:none;fill-rule:nonzero;fill:rgb(92.156863%,92.156863%,92.156863%);fill-opacity:1;" d="M 8.21875 264.503906 L 498.519531 264.503906 L 498.519531 5.480469 L 8.21875 5.480469 Z M 8.21875 264.503906 "/>
</g>
<g clip-path="url(#clip2)" clip-rule="nonzero">
<path style="fill:none;stroke-width:0.533489;stroke-linecap:butt;stroke-linejoin:round;stroke:rgb(100%,100%,100%);stroke-opacity:1;stroke-miterlimit:10;" d="M 8.21875 208.460938 L 498.519531 208.460938 "/>
</g>
<g clip-path="url(#clip3)" clip-rule="nonzero">
<path style="fill:none;stroke-width:0.533489;stroke-linecap:butt;stroke-linejoin:round;stroke:rgb(100%,100%,100%);stroke-opacity:1;stroke-miterlimit:10;" d="M 8.21875 119.921875 L 498.519531 119.921875 "/>
</g>
<g clip-path="url(#clip4)" clip-rule="nonzero">
<path style="fill:none;stroke-width:0.533489;stroke-linecap:butt;stroke-linejoin:round;stroke:rgb(100%,100%,100%);stroke-opacity:1;stroke-miterlimit:10;" d="M 8.21875 31.382813 L 498.519531 31.382813 "/>
</g>
<g clip-path="url(#clip5)" clip-rule="nonzero">
<path style="fill:none;stroke-width:0.533489;stroke-linecap:butt;stroke-linejoin:round;stroke:rgb(100%,100%,100%);stroke-opacity:1;stroke-miterlimit:10;" d="M 55.269531 264.503906 L 55.269531 5.480469 "/>
</g>
<g clip-path="url(#clip6)" clip-rule="nonzero">
<path style="fill:none;stroke-width:0.533489;stroke-linecap:butt;stroke-linejoin:round;stroke:rgb(100%,100%,100%);stroke-opacity:1;stroke-miterlimit:10;" d="M 154.320313 264.503906 L 154.320313 5.480469 "/>
</g>
<g clip-path="url(#clip7)" clip-rule="nonzero">
<path style="fill:none;stroke-width:0.533489;stroke-linecap:butt;stroke-linejoin:round;stroke:rgb(100%,100%,100%);stroke-opacity:1;stroke-miterlimit:10;" d="M 253.371094 264.503906 L 253.371094 5.480469 "/>
</g>
<g clip-path="url(#clip8)" clip-rule="nonzero">
<path style="fill:none;stroke-width:0.533489;stroke-linecap:butt;stroke-linejoin:round;stroke:rgb(100%,100%,100%);stroke-opacity:1;stroke-miterlimit:10;" d="M 352.421875 264.503906 L 352.421875 5.480469 "/>
</g>
<g clip-path="url(#clip9)" clip-rule="nonzero">
<path style="fill:none;stroke-width:0.533489;stroke-linecap:butt;stroke-linejoin:round;stroke:rgb(100%,100%,100%);stroke-opacity:1;stroke-miterlimit:10;" d="M 451.472656 264.503906 L 451.472656 5.480469 "/>
</g>
<g clip-path="url(#clip10)" clip-rule="nonzero">
<path style="fill:none;stroke-width:1.066978;stroke-linecap:butt;stroke-linejoin:round;stroke:rgb(100%,100%,100%);stroke-opacity:1;stroke-miterlimit:10;" d="M 8.21875 252.730469 L 498.519531 252.730469 "/>
</g>
<g clip-path="url(#clip11)" clip-rule="nonzero">
<path style="fill:none;stroke-width:1.066978;stroke-linecap:butt;stroke-linejoin:round;stroke:rgb(100%,100%,100%);stroke-opacity:1;stroke-miterlimit:10;" d="M 8.21875 164.191406 L 498.519531 164.191406 "/>
</g>
<g clip-path="url(#clip12)" clip-rule="nonzero">
<path style="fill:none;stroke-width:1.066978;stroke-linecap:butt;stroke-linejoin:round;stroke:rgb(100%,100%,100%);stroke-opacity:1;stroke-miterlimit:10;" d="M 8.21875 75.652344 L 498.519531 75.652344 "/>
</g>
<g clip-path="url(#clip13)" clip-rule="nonzero">
<path style="fill:none;stroke-width:1.066978;stroke-linecap:butt;stroke-linejoin:round;stroke:rgb(100%,100%,100%);stroke-opacity:1;stroke-miterlimit:10;" d="M 104.792969 264.503906 L 104.792969 5.480469 "/>
</g>
<g clip-path="url(#clip14)" clip-rule="nonzero">
<path style="fill:none;stroke-width:1.066978;stroke-linecap:butt;stroke-linejoin:round;stroke:rgb(100%,100%,100%);stroke-opacity:1;stroke-miterlimit:10;" d="M 203.84375 264.503906 L 203.84375 5.480469 "/>
</g>
<g clip-path="url(#clip15)" clip-rule="nonzero">
<path style="fill:none;stroke-width:1.066978;stroke-linecap:butt;stroke-linejoin:round;stroke:rgb(100%,100%,100%);stroke-opacity:1;stroke-miterlimit:10;" d="M 302.894531 264.503906 L 302.894531 5.480469 "/>
</g>
<g clip-path="url(#clip16)" clip-rule="nonzero">
<path style="fill:none;stroke-width:1.066978;stroke-linecap:butt;stroke-linejoin:round;stroke:rgb(100%,100%,100%);stroke-opacity:1;stroke-miterlimit:10;" d="M 401.945313 264.503906 L 401.945313 5.480469 "/>
</g>
<path style="fill-rule:nonzero;fill:rgb(29.803922%,63.921569%,51.764706%);fill-opacity:1;stroke-width:1.066978;stroke-linecap:butt;stroke-linejoin:miter;stroke:rgb(9.803922%,25.882353%,29.803922%);stroke-opacity:1;stroke-miterlimit:10;" d="M 30.503906 252.730469 L 80.03125 252.730469 L 80.03125 243.3125 L 30.503906 243.3125 Z M 30.503906 252.730469 "/>
<path style="fill-rule:nonzero;fill:rgb(29.803922%,63.921569%,51.764706%);fill-opacity:1;stroke-width:1.066978;stroke-linecap:butt;stroke-linejoin:miter;stroke:rgb(9.803922%,25.882353%,29.803922%);stroke-opacity:1;stroke-miterlimit:10;" d="M 80.03125 252.730469 L 129.558594 252.730469 L 129.558594 243.3125 L 80.03125 243.3125 Z M 80.03125 252.730469 "/>
<path style="fill-rule:nonzero;fill:rgb(29.803922%,63.921569%,51.764706%);fill-opacity:1;stroke-width:1.066978;stroke-linecap:butt;stroke-linejoin:miter;stroke:rgb(9.803922%,25.882353%,29.803922%);stroke-opacity:1;stroke-miterlimit:10;" d="M 129.554688 252.730469 L 179.082031 252.730469 L 179.082031 224.472656 L 129.554688 224.472656 Z M 129.554688 252.730469 "/>
<path style="fill-rule:nonzero;fill:rgb(29.803922%,63.921569%,51.764706%);fill-opacity:1;stroke-width:1.066978;stroke-linecap:butt;stroke-linejoin:miter;stroke:rgb(9.803922%,25.882353%,29.803922%);stroke-opacity:1;stroke-miterlimit:10;" d="M 179.082031 252.730469 L 228.609375 252.730469 L 228.609375 196.214844 L 179.082031 196.214844 Z M 179.082031 252.730469 "/>
<path style="fill-rule:nonzero;fill:rgb(29.803922%,63.921569%,51.764706%);fill-opacity:1;stroke-width:1.066978;stroke-linecap:butt;stroke-linejoin:miter;stroke:rgb(9.803922%,25.882353%,29.803922%);stroke-opacity:1;stroke-miterlimit:10;" d="M 228.605469 252.730469 L 278.132813 252.730469 L 278.132813 17.253906 L 228.605469 17.253906 Z M 228.605469 252.730469 "/>
<path style="fill-rule:nonzero;fill:rgb(29.803922%,63.921569%,51.764706%);fill-opacity:1;stroke-width:1.066978;stroke-linecap:butt;stroke-linejoin:miter;stroke:rgb(9.803922%,25.882353%,29.803922%);stroke-opacity:1;stroke-miterlimit:10;" d="M 278.132813 252.730469 L 327.660156 252.730469 L 327.660156 196.214844 L 278.132813 196.214844 Z M 278.132813 252.730469 "/>
<path style="fill-rule:nonzero;fill:rgb(29.803922%,63.921569%,51.764706%);fill-opacity:1;stroke-width:1.066978;stroke-linecap:butt;stroke-linejoin:miter;stroke:rgb(9.803922%,25.882353%,29.803922%);stroke-opacity:1;stroke-miterlimit:10;" d="M 327.65625 252.730469 L 377.183594 252.730469 L 377.183594 224.472656 L 327.65625 224.472656 Z M 327.65625 252.730469 "/>
<path style="fill-rule:nonzero;fill:rgb(29.803922%,63.921569%,51.764706%);fill-opacity:1;stroke-width:1.066978;stroke-linecap:butt;stroke-linejoin:miter;stroke:rgb(9.803922%,25.882353%,29.803922%);stroke-opacity:1;stroke-miterlimit:10;" d="M 377.183594 252.730469 L 426.710938 252.730469 L 426.710938 243.3125 L 377.183594 243.3125 Z M 377.183594 252.730469 "/>
<path style="fill-rule:nonzero;fill:rgb(29.803922%,63.921569%,51.764706%);fill-opacity:1;stroke-width:1.066978;stroke-linecap:butt;stroke-linejoin:miter;stroke:rgb(9.803922%,25.882353%,29.803922%);stroke-opacity:1;stroke-miterlimit:10;" d="M 426.707031 252.730469 L 476.234375 252.730469 L 476.234375 243.3125 L 426.707031 243.3125 Z M 426.707031 252.730469 "/>
<path style="fill:none;stroke-width:2.133957;stroke-linecap:butt;stroke-linejoin:round;stroke:rgb(0%,0%,0%);stroke-opacity:1;stroke-miterlimit:10;" d="M 55.269531 244.675781 L 56.042969 244.605469 L 56.820313 244.535156 L 57.59375 244.46875 L 58.371094 244.40625 L 59.144531 244.34375 L 59.921875 244.285156 L 60.695313 244.226563 L 61.472656 244.167969 L 62.246094 244.117188 L 63.023438 244.0625 L 63.796875 244.011719 L 64.574219 243.964844 L 65.347656 243.917969 L 66.125 243.871094 L 66.898438 243.824219 L 67.675781 243.78125 L 69.222656 243.695313 L 70 243.65625 L 70.773438 243.613281 L 71.550781 243.574219 L 72.324219 243.535156 L 73.101563 243.496094 L 73.875 243.453125 L 74.652344 243.414063 L 75.425781 243.375 L 76.203125 243.335938 L 76.976563 243.292969 L 77.753906 243.25 L 78.527344 243.207031 L 79.304688 243.164063 L 80.078125 243.121094 L 80.855469 243.074219 L 81.628906 243.027344 L 82.40625 242.976563 L 83.179688 242.925781 L 83.957031 242.875 L 84.730469 242.820313 L 85.507813 242.765625 L 86.28125 242.707031 L 87.058594 242.644531 L 87.832031 242.582031 L 88.609375 242.515625 L 89.382813 242.449219 L 90.160156 242.375 L 90.933594 242.300781 L 91.710938 242.226563 L 92.484375 242.144531 L 93.261719 242.0625 L 94.035156 241.976563 L 94.8125 241.886719 L 95.585938 241.792969 L 96.363281 241.695313 L 97.136719 241.59375 L 97.914063 241.488281 L 98.6875 241.378906 L 99.464844 241.269531 L 100.238281 241.152344 L 101.015625 241.03125 L 101.789063 240.90625 L 102.566406 240.773438 L 103.339844 240.640625 L 104.117188 240.503906 L 104.890625 240.359375 L 105.664063 240.210938 L 106.441406 240.058594 L 107.214844 239.902344 L 107.992188 239.742188 L 108.765625 239.574219 L 109.542969 239.402344 L 110.316406 239.226563 L 111.09375 239.042969 L 111.867188 238.859375 L 112.644531 238.667969 L 113.417969 238.46875 L 114.195313 238.269531 L 114.96875 238.0625 L 115.746094 237.851563 L 116.519531 237.636719 L 117.296875 237.414063 L 118.070313 237.1875 L 118.847656 236.957031 L 119.621094 236.71875 L 120.398438 236.480469 L 121.171875 236.234375 L 121.949219 235.984375 L 122.722656 235.730469 L 123.5 235.46875 L 124.273438 235.207031 L 125.050781 234.9375 L 125.824219 234.664063 L 126.601563 234.390625 L 127.375 234.109375 L 128.152344 233.824219 L 128.925781 233.539063 L 129.703125 233.246094 L 130.476563 232.953125 L 131.253906 232.652344 L 132.027344 232.351563 L 132.804688 232.046875 L 133.578125 231.742188 L 134.355469 231.429688 L 135.128906 231.117188 L 135.90625 230.800781 L 136.679688 230.484375 L 137.457031 230.164063 L 138.230469 229.839844 L 139.007813 229.515625 L 139.78125 229.1875 L 140.558594 228.859375 L 142.105469 228.195313 L 142.882813 227.859375 L 143.65625 227.519531 L 144.433594 227.179688 L 145.207031 226.839844 L 145.984375 226.496094 L 146.757813 226.152344 L 147.535156 225.800781 L 148.308594 225.453125 L 149.085938 225.101563 L 149.859375 224.746094 L 150.636719 224.390625 L 151.410156 224.027344 L 152.1875 223.664063 L 152.960938 223.300781 L 153.738281 222.929688 L 154.511719 222.558594 L 155.289063 222.179688 L 156.0625 221.800781 L 156.839844 221.414063 L 157.613281 221.023438 L 158.390625 220.628906 L 159.164063 220.230469 L 159.941406 219.824219 L 160.714844 219.414063 L 161.492188 218.996094 L 162.265625 218.570313 L 163.042969 218.140625 L 163.816406 217.703125 L 164.59375 217.253906 L 165.367188 216.800781 L 166.144531 216.335938 L 166.917969 215.863281 L 167.695313 215.382813 L 168.46875 214.886719 L 169.246094 214.382813 L 170.019531 213.875 L 170.796875 213.347656 L 171.570313 212.808594 L 172.347656 212.261719 L 173.121094 211.699219 L 173.898438 211.125 L 174.671875 210.535156 L 175.449219 209.933594 L 176.222656 209.316406 L 176.996094 208.683594 L 177.773438 208.035156 L 178.546875 207.375 L 179.324219 206.6875 L 180.097656 205.988281 L 180.875 205.277344 L 181.648438 204.539063 L 182.425781 203.785156 L 183.199219 203.015625 L 183.976563 202.21875 L 184.75 201.410156 L 185.527344 200.574219 L 186.300781 199.714844 L 187.078125 198.84375 L 187.851563 197.9375 L 188.628906 197.015625 L 189.402344 196.070313 L 190.179688 195.09375 L 190.953125 194.097656 L 191.730469 193.078125 L 192.503906 192.023438 L 193.28125 190.953125 L 194.054688 189.847656 L 194.832031 188.714844 L 195.605469 187.558594 L 196.382813 186.363281 L 197.15625 185.144531 L 197.933594 183.902344 L 198.707031 182.617188 L 199.484375 181.308594 L 200.257813 179.96875 L 201.035156 178.589844 L 201.808594 177.191406 L 202.585938 175.75 L 203.359375 174.277344 L 204.136719 172.78125 L 204.910156 171.234375 L 205.6875 169.664063 L 206.460938 168.070313 L 207.238281 166.425781 L 208.011719 164.757813 L 208.789063 163.058594 L 209.5625 161.316406 L 210.339844 159.554688 L 211.113281 157.757813 L 211.890625 155.925781 L 212.664063 154.074219 L 213.4375 152.179688 L 214.214844 150.265625 L 214.988281 148.328125 L 215.765625 146.351563 L 216.539063 144.363281 L 217.316406 142.347656 L 218.089844 140.304688 L 218.867188 138.25 L 219.640625 136.175781 L 220.417969 134.082031 L 221.191406 131.980469 L 221.96875 129.863281 L 222.742188 127.738281 L 223.519531 125.609375 L 224.292969 123.472656 L 225.070313 121.335938 L 225.84375 119.199219 L 226.621094 117.070313 L 227.394531 114.949219 L 228.171875 112.835938 L 228.945313 110.742188 L 229.722656 108.65625 L 230.496094 106.601563 L 231.273438 104.566406 L 232.046875 102.550781 L 232.824219 100.582031 L 233.597656 98.640625 L 234.375 96.730469 L 235.148438 94.878906 L 235.925781 93.058594 L 236.699219 91.292969 L 237.476563 89.582031 L 238.25 87.910156 L 239.027344 86.320313 L 239.800781 84.789063 L 240.578125 83.296875 L 241.351563 81.914063 L 242.128906 80.582031 L 242.902344 79.316406 L 243.679688 78.152344 L 244.453125 77.042969 L 245.230469 76.027344 L 246.003906 75.105469 L 246.78125 74.246094 L 247.554688 73.503906 L 248.332031 72.839844 L 249.105469 72.242188 L 249.878906 71.789063 L 250.65625 71.402344 L 251.429688 71.097656 L 252.207031 70.925781 L 252.980469 70.816406 L 253.757813 70.816406 L 254.53125 70.925781 L 255.308594 71.097656 L 256.082031 71.402344 L 256.859375 71.789063 L 257.632813 72.242188 L 258.410156 72.839844 L 259.183594 73.503906 L 259.960938 74.246094 L 260.734375 75.105469 L 261.511719 76.027344 L 262.285156 77.042969 L 263.0625 78.152344 L 263.835938 79.316406 L 264.613281 80.582031 L 265.386719 81.914063 L 266.164063 83.296875 L 266.9375 84.789063 L 267.714844 86.320313 L 268.488281 87.910156 L 269.265625 89.582031 L 270.039063 91.292969 L 270.816406 93.058594 L 271.589844 94.878906 L 272.367188 96.730469 L 273.140625 98.640625 L 273.917969 100.582031 L 274.691406 102.550781 L 275.46875 104.566406 L 276.242188 106.601563 L 277.019531 108.65625 L 277.792969 110.742188 L 278.570313 112.835938 L 279.34375 114.949219 L 280.121094 117.070313 L 280.894531 119.199219 L 281.671875 121.335938 L 282.445313 123.472656 L 283.222656 125.609375 L 283.996094 127.738281 L 284.769531 129.863281 L 285.546875 131.980469 L 286.320313 134.082031 L 287.097656 136.175781 L 287.871094 138.25 L 288.648438 140.304688 L 289.421875 142.347656 L 290.199219 144.363281 L 290.972656 146.351563 L 291.75 148.328125 L 292.523438 150.265625 L 293.300781 152.179688 L 294.074219 154.074219 L 294.851563 155.925781 L 295.625 157.757813 L 296.402344 159.554688 L 297.175781 161.316406 L 297.953125 163.058594 L 298.726563 164.757813 L 299.503906 166.425781 L 300.277344 168.070313 L 301.054688 169.664063 L 301.828125 171.234375 L 302.605469 172.78125 L 303.378906 174.277344 L 304.15625 175.75 L 304.929688 177.191406 L 305.707031 178.589844 L 306.480469 179.96875 L 307.257813 181.308594 L 308.03125 182.617188 L 308.808594 183.902344 L 309.582031 185.144531 L 310.359375 186.363281 L 311.132813 187.558594 L 311.910156 188.714844 L 312.683594 189.847656 L 313.460938 190.953125 L 314.234375 192.023438 L 315.011719 193.078125 L 315.785156 194.097656 L 316.5625 195.09375 L 317.335938 196.070313 L 318.113281 197.015625 L 318.886719 197.9375 L 319.664063 198.84375 L 320.4375 199.714844 L 321.210938 200.574219 L 321.988281 201.410156 L 322.761719 202.21875 L 323.539063 203.015625 L 324.3125 203.785156 L 325.089844 204.539063 L 325.863281 205.277344 L 326.640625 205.988281 L 327.414063 206.6875 L 328.191406 207.375 L 328.964844 208.035156 L 329.742188 208.683594 L 330.515625 209.316406 L 331.292969 209.933594 L 332.066406 210.535156 L 332.84375 211.125 L 333.617188 211.699219 L 334.394531 212.261719 L 335.167969 212.808594 L 335.945313 213.347656 L 336.71875 213.875 L 337.496094 214.382813 L 338.269531 214.886719 L 339.046875 215.382813 L 339.820313 215.863281 L 340.597656 216.335938 L 341.371094 216.800781 L 342.148438 217.253906 L 342.921875 217.703125 L 343.699219 218.140625 L 344.472656 218.570313 L 345.25 218.996094 L 346.023438 219.414063 L 346.800781 219.824219 L 347.574219 220.230469 L 348.351563 220.628906 L 349.125 221.023438 L 349.902344 221.414063 L 350.675781 221.800781 L 351.453125 222.179688 L 352.226563 222.558594 L 353.003906 222.929688 L 353.777344 223.300781 L 354.554688 223.664063 L 355.328125 224.027344 L 356.105469 224.390625 L 357.652344 225.101563 L 358.429688 225.453125 L 359.203125 225.800781 L 359.980469 226.152344 L 360.753906 226.496094 L 361.53125 226.839844 L 362.304688 227.179688 L 363.082031 227.519531 L 363.855469 227.859375 L 364.632813 228.195313 L 365.40625 228.527344 L 366.183594 228.859375 L 366.957031 229.1875 L 367.734375 229.515625 L 368.507813 229.839844 L 369.285156 230.164063 L 370.058594 230.484375 L 370.835938 230.800781 L 371.609375 231.117188 L 372.386719 231.429688 L 373.160156 231.742188 L 373.9375 232.046875 L 374.710938 232.351563 L 375.488281 232.652344 L 376.261719 232.953125 L 377.039063 233.246094 L 377.8125 233.539063 L 378.589844 233.824219 L 379.363281 234.109375 L 380.140625 234.390625 L 380.914063 234.664063 L 381.691406 234.9375 L 382.464844 235.207031 L 383.242188 235.46875 L 384.015625 235.730469 L 384.792969 235.984375 L 385.566406 236.234375 L 386.34375 236.480469 L 387.117188 236.71875 L 387.894531 236.957031 L 388.667969 237.1875 L 389.445313 237.414063 L 390.21875 237.636719 L 390.996094 237.851563 L 391.769531 238.0625 L 392.546875 238.269531 L 394.09375 238.667969 L 394.871094 238.859375 L 395.644531 239.042969 L 396.421875 239.226563 L 397.195313 239.402344 L 397.972656 239.574219 L 398.746094 239.742188 L 399.523438 239.902344 L 400.296875 240.058594 L 401.074219 240.210938 L 401.847656 240.359375 L 402.625 240.503906 L 403.398438 240.640625 L 404.175781 240.773438 L 404.949219 240.90625 L 405.726563 241.03125 L 406.5 241.152344 L 407.277344 241.269531 L 408.050781 241.378906 L 408.828125 241.488281 L 409.601563 241.59375 L 410.378906 241.695313 L 411.152344 241.792969 L 411.929688 241.886719 L 412.703125 241.976563 L 413.480469 242.0625 L 414.253906 242.144531 L 415.03125 242.226563 L 415.804688 242.300781 L 416.582031 242.375 L 417.355469 242.449219 L 418.132813 242.515625 L 418.90625 242.582031 L 419.683594 242.644531 L 420.457031 242.707031 L 421.234375 242.765625 L 422.007813 242.820313 L 422.785156 242.875 L 423.558594 242.925781 L 424.335938 242.976563 L 425.109375 243.027344 L 425.886719 243.074219 L 426.660156 243.121094 L 427.4375 243.164063 L 428.984375 243.25 L 429.761719 243.292969 L 430.535156 243.335938 L 431.3125 243.375 L 432.085938 243.414063 L 432.863281 243.453125 L 433.636719 243.496094 L 434.414063 243.535156 L 435.1875 243.574219 L 435.964844 243.613281 L 436.738281 243.65625 L 437.515625 243.695313 L 438.289063 243.738281 L 439.066406 243.78125 L 439.839844 243.824219 L 440.617188 243.871094 L 441.390625 243.917969 L 442.167969 243.964844 L 442.941406 244.011719 L 443.71875 244.0625 L 444.492188 244.117188 L 445.269531 244.167969 L 446.042969 244.226563 L 446.820313 244.285156 L 447.59375 244.34375 L 448.371094 244.40625 L 449.144531 244.46875 L 449.921875 244.535156 L 450.695313 244.605469 L 451.472656 244.675781 "/>
<path style=" stroke:none;fill-rule:nonzero;fill:rgb(0%,0%,0%);fill-opacity:1;" d="M 255.074219 279.617188 L 253.351563 276.9375 L 251.617188 279.617188 L 249.574219 279.617188 L 252.28125 275.792969 L 249.703125 272.21875 L 251.773438 272.21875 L 253.351563 274.640625 L 254.925781 272.21875 L 257.011719 272.21875 L 254.433594 275.773438 L 257.160156 279.617188 Z M 255.074219 279.617188 "/>
</g>
</svg>
