<?xml version="1.0" encoding="UTF-8"?>
<svg xmlns="http://www.w3.org/2000/svg" xmlns:xlink="http://www.w3.org/1999/xlink" width="360pt" height="252pt" viewBox="0 0 360 252" version="1.1">
<defs>
<clipPath id="clip1">
  <path d="M 8.21875 5.480469 L 354.519531 5.480469 L 354.519531 228.503906 L 8.21875 228.503906 Z M 8.21875 5.480469 "/>
</clipPath>
<clipPath id="clip2">
  <path d="M 8.21875 192 L 354.519531 192 L 354.519531 194 L 8.21875 194 Z M 8.21875 192 "/>
</clipPath>
<clipPath id="clip3">
  <path d="M 8.21875 141 L 354.519531 141 L 354.519531 143 L 8.21875 143 Z M 8.21875 141 "/>
</clipPath>
<clipPath id="clip4">
  <path d="M 8.21875 91 L 354.519531 91 L 354.519531 92 L 8.21875 92 Z M 8.21875 91 "/>
</clipPath>
<clipPath id="clip5">
  <path d="M 8.21875 40 L 354.519531 40 L 354.519531 41 L 8.21875 41 Z M 8.21875 40 "/>
</clipPath>
<clipPath id="clip6">
  <path d="M 63 5.480469 L 64 5.480469 L 64 228.503906 L 63 228.503906 Z M 63 5.480469 "/>
</clipPath>
<clipPath id="clip7">
  <path d="M 141 5.480469 L 143 5.480469 L 143 228.503906 L 141 228.503906 Z M 141 5.480469 "/>
</clipPath>
<clipPath id="clip8">
  <path d="M 220 5.480469 L 221 5.480469 L 221 228.503906 L 220 228.503906 Z M 220 5.480469 "/>
</clipPath>
<clipPath id="clip9">
  <path d="M 299 5.480469 L 300 5.480469 L 300 228.503906 L 299 228.503906 Z M 299 5.480469 "/>
</clipPath>
<clipPath id="clip10">
  <path d="M 8.21875 217 L 354.519531 217 L 354.519531 219 L 8.21875 219 Z M 8.21875 217 "/>
</clipPath>
<clipPath id="clip11">
  <path d="M 8.21875 167 L 354.519531 167 L 354.519531 169 L 8.21875 169 Z M 8.21875 167 "/>
</clipPath>
<clipPath id="clip12">
  <path d="M 8.21875 116 L 354.519531 116 L 354.519531 118 L 8.21875 118 Z M 8.21875 116 "/>
</clipPath>
<clipPath id="clip13">
  <path d="M 8.21875 65 L 354.519531 65 L 354.519531 67 L 8.21875 67 Z M 8.21875 65 "/>
</clipPath>
<clipPath id="clip14">
  <path d="M 8.21875 14 L 354.519531 14 L 354.519531 16 L 8.21875 16 Z M 8.21875 14 "/>
</clipPath>
<clipPath id="clip15">
  <path d="M 23 5.480469 L 25 5.480469 L 25 228.503906 L 23 228.503906 Z M 23 5.480469 "/>
</clipPath>
<clipPath id="clip16">
  <path d="M 102 5.480469 L 104 5.480469 L 104 228.503906 L 102 228.503906 Z M 102 5.480469 "/>
</clipPath>
<clipPath id="clip17">
  <path d="M 180 5.480469 L 182 5.480469 L 182 228.503906 L 180 228.503906 Z M 180 5.480469 "/>
</clipPath>
<clipPath id="clip18">
  <path d="M 259 5.480469 L 261 5.480469 L 261 228.503906 L 259 228.503906 Z M 259 5.480469 "/>
</clipPath>
<clipPath id="clip19">
  <path d="M 338 5.480469 L 340 5.480469 L 340 228.503906 L 338 228.503906 Z M 338 5.480469 "/>
</clipPath>
<clipPath id="clip20">
  <path d="M 179 5.480469 L 183 5.480469 L 183 228.503906 L 179 228.503906 Z M 179 5.480469 "/>
</clipPath>
</defs>
<g id="surface289">
<rect x="0" y="0" width="360" height="252" style="fill:rgb(100%,100%,100%);fill-opacity:1;stroke:none;"/>
<rect x="0" y="0" width="360" height="252" style="fill:rgb(100%,100%,100%);fill-opacity:1;stroke:none;"/>
<path style="fill:none;stroke-width:1.066978;stroke-linecap:round;stroke-linejoin:round;stroke:rgb(100%,100%,100%);stroke-opacity:1;stroke-miterlimit:10;" d="M 0 252 L 360 252 L 360 0 L 0 0 Z M 0 252 "/>
<g clip-path="url(#clip1)" clip-rule="nonzero">
<path style=" stroke:none;fill-rule:nonzero;fill:rgb(92.156863%,92.156863%,92.156863%);fill-opacity:1;" d="M 8.21875 228.503906 L 354.519531 228.503906 L 354.519531 5.480469 L 8.21875 5.480469 Z M 8.21875 228.503906 "/>
</g>
<g clip-path="url(#clip2)" clip-rule="nonzero">
<path style="fill:none;stroke-width:0.533489;stroke-linecap:butt;stroke-linejoin:round;stroke:rgb(100%,100%,100%);stroke-opacity:1;stroke-miterlimit:10;" d="M 8.21875 192.957031 L 354.519531 192.957031 "/>
</g>
<g clip-path="url(#clip3)" clip-rule="nonzero">
<path style="fill:none;stroke-width:0.533489;stroke-linecap:butt;stroke-linejoin:round;stroke:rgb(100%,100%,100%);stroke-opacity:1;stroke-miterlimit:10;" d="M 8.21875 142.132813 L 354.519531 142.132813 "/>
</g>
<g clip-path="url(#clip4)" clip-rule="nonzero">
<path style="fill:none;stroke-width:0.533489;stroke-linecap:butt;stroke-linejoin:round;stroke:rgb(100%,100%,100%);stroke-opacity:1;stroke-miterlimit:10;" d="M 8.21875 91.3125 L 354.519531 91.3125 "/>
</g>
<g clip-path="url(#clip5)" clip-rule="nonzero">
<path style="fill:none;stroke-width:0.533489;stroke-linecap:butt;stroke-linejoin:round;stroke:rgb(100%,100%,100%);stroke-opacity:1;stroke-miterlimit:10;" d="M 8.21875 40.492188 L 354.519531 40.492188 "/>
</g>
<g clip-path="url(#clip6)" clip-rule="nonzero">
<path style="fill:none;stroke-width:0.533489;stroke-linecap:butt;stroke-linejoin:round;stroke:rgb(100%,100%,100%);stroke-opacity:1;stroke-miterlimit:10;" d="M 63.3125 228.503906 L 63.3125 5.480469 "/>
</g>
<g clip-path="url(#clip7)" clip-rule="nonzero">
<path style="fill:none;stroke-width:0.533489;stroke-linecap:butt;stroke-linejoin:round;stroke:rgb(100%,100%,100%);stroke-opacity:1;stroke-miterlimit:10;" d="M 142.015625 228.503906 L 142.015625 5.480469 "/>
</g>
<g clip-path="url(#clip8)" clip-rule="nonzero">
<path style="fill:none;stroke-width:0.533489;stroke-linecap:butt;stroke-linejoin:round;stroke:rgb(100%,100%,100%);stroke-opacity:1;stroke-miterlimit:10;" d="M 220.722656 228.503906 L 220.722656 5.480469 "/>
</g>
<g clip-path="url(#clip9)" clip-rule="nonzero">
<path style="fill:none;stroke-width:0.533489;stroke-linecap:butt;stroke-linejoin:round;stroke:rgb(100%,100%,100%);stroke-opacity:1;stroke-miterlimit:10;" d="M 299.425781 228.503906 L 299.425781 5.480469 "/>
</g>
<g clip-path="url(#clip10)" clip-rule="nonzero">
<path style="fill:none;stroke-width:1.066978;stroke-linecap:butt;stroke-linejoin:round;stroke:rgb(100%,100%,100%);stroke-opacity:1;stroke-miterlimit:10;" d="M 8.21875 218.367188 L 354.519531 218.367188 "/>
</g>
<g clip-path="url(#clip11)" clip-rule="nonzero">
<path style="fill:none;stroke-width:1.066978;stroke-linecap:butt;stroke-linejoin:round;stroke:rgb(100%,100%,100%);stroke-opacity:1;stroke-miterlimit:10;" d="M 8.21875 167.542969 L 354.519531 167.542969 "/>
</g>
<g clip-path="url(#clip12)" clip-rule="nonzero">
<path style="fill:none;stroke-width:1.066978;stroke-linecap:butt;stroke-linejoin:round;stroke:rgb(100%,100%,100%);stroke-opacity:1;stroke-miterlimit:10;" d="M 8.21875 116.722656 L 354.519531 116.722656 "/>
</g>
<g clip-path="url(#clip13)" clip-rule="nonzero">
<path style="fill:none;stroke-width:1.066978;stroke-linecap:butt;stroke-linejoin:round;stroke:rgb(100%,100%,100%);stroke-opacity:1;stroke-miterlimit:10;" d="M 8.21875 65.902344 L 354.519531 65.902344 "/>
</g>
<g clip-path="url(#clip14)" clip-rule="nonzero">
<path style="fill:none;stroke-width:1.066978;stroke-linecap:butt;stroke-linejoin:round;stroke:rgb(100%,100%,100%);stroke-opacity:1;stroke-miterlimit:10;" d="M 8.21875 15.078125 L 354.519531 15.078125 "/>
</g>
<g clip-path="url(#clip15)" clip-rule="nonzero">
<path style="fill:none;stroke-width:1.066978;stroke-linecap:butt;stroke-linejoin:round;stroke:rgb(100%,100%,100%);stroke-opacity:1;stroke-miterlimit:10;" d="M 23.960938 228.503906 L 23.960938 5.480469 "/>
</g>
<g clip-path="url(#clip16)" clip-rule="nonzero">
<path style="fill:none;stroke-width:1.066978;stroke-linecap:butt;stroke-linejoin:round;stroke:rgb(100%,100%,100%);stroke-opacity:1;stroke-miterlimit:10;" d="M 102.664063 228.503906 L 102.664063 5.480469 "/>
</g>
<g clip-path="url(#clip17)" clip-rule="nonzero">
<path style="fill:none;stroke-width:1.066978;stroke-linecap:butt;stroke-linejoin:round;stroke:rgb(100%,100%,100%);stroke-opacity:1;stroke-miterlimit:10;" d="M 181.371094 228.503906 L 181.371094 5.480469 "/>
</g>
<g clip-path="url(#clip18)" clip-rule="nonzero">
<path style="fill:none;stroke-width:1.066978;stroke-linecap:butt;stroke-linejoin:round;stroke:rgb(100%,100%,100%);stroke-opacity:1;stroke-miterlimit:10;" d="M 260.074219 228.503906 L 260.074219 5.480469 "/>
</g>
<g clip-path="url(#clip19)" clip-rule="nonzero">
<path style="fill:none;stroke-width:1.066978;stroke-linecap:butt;stroke-linejoin:round;stroke:rgb(100%,100%,100%);stroke-opacity:1;stroke-miterlimit:10;" d="M 338.78125 228.503906 L 338.78125 5.480469 "/>
</g>
<path style="fill:none;stroke-width:3.200935;stroke-linecap:butt;stroke-linejoin:round;stroke:rgb(0%,0%,0%);stroke-opacity:1;stroke-miterlimit:10;" d="M 23.960938 218.367188 L 52.292969 218.367188 L 55.441406 218.363281 L 58.589844 218.363281 L 64.886719 218.355469 L 68.035156 218.347656 L 71.183594 218.335938 L 74.332031 218.316406 L 77.480469 218.285156 L 80.628906 218.238281 L 83.777344 218.167969 L 86.925781 218.054688 L 90.070313 217.890625 L 93.21875 217.648438 L 96.367188 217.300781 L 99.515625 216.804688 L 102.664063 216.113281 L 105.8125 215.160156 L 108.960938 213.871094 L 112.109375 212.148438 L 115.257813 209.894531 L 118.40625 206.984375 L 121.554688 203.296875 L 124.703125 198.695313 L 127.851563 193.058594 L 131 186.269531 L 134.148438 178.242188 L 137.296875 168.925781 L 140.441406 158.316406 L 143.589844 146.472656 L 146.738281 133.527344 L 149.886719 119.675781 L 153.035156 105.210938 L 156.183594 90.476563 L 159.332031 75.890625 L 162.480469 61.910156 L 165.628906 49.015625 L 168.777344 37.679688 L 171.925781 28.339844 L 175.074219 21.371094 L 178.222656 17.070313 L 181.371094 15.617188 L 184.519531 17.070313 L 187.667969 21.371094 L 190.8125 28.339844 L 193.960938 37.679688 L 197.109375 49.015625 L 200.257813 61.910156 L 203.40625 75.890625 L 206.554688 90.476563 L 209.703125 105.210938 L 212.851563 119.675781 L 216 133.527344 L 219.148438 146.472656 L 222.296875 158.316406 L 225.445313 168.925781 L 228.59375 178.242188 L 231.742188 186.269531 L 234.890625 193.058594 L 238.039063 198.695313 L 241.1875 203.296875 L 244.332031 206.984375 L 247.480469 209.894531 L 250.628906 212.148438 L 253.777344 213.871094 L 256.925781 215.160156 L 260.074219 216.113281 L 263.222656 216.804688 L 266.371094 217.300781 L 269.519531 217.648438 L 272.667969 217.890625 L 275.816406 218.054688 L 278.964844 218.167969 L 282.113281 218.238281 L 285.261719 218.285156 L 288.410156 218.316406 L 291.558594 218.335938 L 294.703125 218.347656 L 297.851563 218.355469 L 304.148438 218.363281 L 307.296875 218.363281 L 310.445313 218.367188 L 338.78125 218.367188 "/>
<g clip-path="url(#clip20)" clip-rule="nonzero">
<path style="fill:none;stroke-width:3.200935;stroke-linecap:butt;stroke-linejoin:round;stroke:rgb(9.411765%,46.666667%,54.901961%);stroke-opacity:1;stroke-miterlimit:10;" d="M 181.371094 228.503906 L 181.371094 5.480469 "/>
</g>
<path style="fill:none;stroke-width:3.200935;stroke-linecap:butt;stroke-linejoin:round;stroke:rgb(29.803922%,63.921569%,51.764706%);stroke-opacity:1;stroke-miterlimit:10;" d="M 23.960938 218.367188 L 102.664063 218.367188 L 105.8125 218.363281 L 112.109375 218.363281 L 118.40625 218.355469 L 124.703125 218.332031 L 127.851563 218.308594 L 131 218.273438 L 134.148438 218.21875 L 137.296875 218.132813 L 140.441406 218.007813 L 143.589844 217.820313 L 146.738281 217.546875 L 149.886719 217.15625 L 153.035156 216.601563 L 156.183594 215.828125 L 159.332031 214.773438 L 162.480469 213.351563 L 165.628906 211.464844 L 168.777344 209.003906 L 171.925781 205.847656 L 175.074219 201.871094 L 178.222656 196.9375 L 181.371094 190.925781 L 184.519531 183.734375 L 187.667969 175.28125 L 190.8125 165.53125 L 193.960938 154.5 L 197.109375 142.273438 L 200.257813 128.996094 L 203.40625 114.90625 L 206.554688 100.308594 L 209.703125 85.574219 L 212.851563 71.140625 L 216 57.46875 L 219.148438 45.039063 L 222.296875 34.324219 L 225.445313 25.738281 L 228.59375 19.632813 L 231.742188 16.265625 L 234.890625 15.777344 L 238.039063 18.195313 L 241.1875 23.410156 L 244.332031 31.203125 L 247.480469 41.257813 L 250.628906 53.164063 L 253.777344 66.472656 L 256.925781 80.707031 L 263.222656 110.082031 L 266.371094 124.378906 L 269.519531 137.953125 L 272.667969 150.550781 L 275.816406 161.996094 L 278.964844 172.175781 L 282.113281 181.058594 L 285.261719 188.664063 L 288.410156 195.058594 L 291.558594 200.335938 L 294.703125 204.621094 L 297.851563 208.035156 L 301 210.714844 L 304.148438 212.777344 L 307.296875 214.34375 L 310.445313 215.511719 L 313.59375 216.371094 L 316.742188 216.992188 L 319.890625 217.429688 L 323.039063 217.742188 L 326.1875 217.953125 L 329.335938 218.097656 L 332.484375 218.195313 L 335.632813 218.257813 L 338.78125 218.296875 "/>
<path style="fill:none;stroke-width:3.200935;stroke-linecap:butt;stroke-linejoin:round;stroke:rgb(60.392157%,81.568627%,47.45098%);stroke-opacity:1;stroke-miterlimit:10;" d="M 23.960938 218.296875 L 27.109375 218.257813 L 30.257813 218.195313 L 33.40625 218.097656 L 36.554688 217.953125 L 39.699219 217.742188 L 42.847656 217.429688 L 45.996094 216.992188 L 49.144531 216.371094 L 52.292969 215.511719 L 55.441406 214.34375 L 58.589844 212.777344 L 61.738281 210.714844 L 64.886719 208.035156 L 68.035156 204.621094 L 71.183594 200.335938 L 74.332031 195.058594 L 77.480469 188.664063 L 80.628906 181.058594 L 83.777344 172.175781 L 86.925781 161.996094 L 90.070313 150.550781 L 93.21875 137.953125 L 96.367188 124.378906 L 99.515625 110.082031 L 105.8125 80.707031 L 108.960938 66.472656 L 112.109375 53.164063 L 115.257813 41.257813 L 118.40625 31.203125 L 121.554688 23.410156 L 124.703125 18.195313 L 127.851563 15.777344 L 131 16.265625 L 134.148438 19.632813 L 137.296875 25.738281 L 140.441406 34.324219 L 143.589844 45.039063 L 146.738281 57.46875 L 149.886719 71.140625 L 153.035156 85.574219 L 156.183594 100.308594 L 159.332031 114.90625 L 162.480469 128.996094 L 165.628906 142.273438 L 168.777344 154.5 L 171.925781 165.53125 L 175.074219 175.28125 L 178.222656 183.734375 L 181.371094 190.925781 L 184.519531 196.9375 L 187.667969 201.871094 L 190.8125 205.847656 L 193.960938 209.003906 L 197.109375 211.464844 L 200.257813 213.351563 L 203.40625 214.773438 L 206.554688 215.828125 L 209.703125 216.601563 L 212.851563 217.15625 L 216 217.546875 L 219.148438 217.820313 L 222.296875 218.007813 L 225.445313 218.132813 L 228.59375 218.21875 L 231.742188 218.273438 L 234.890625 218.308594 L 238.039063 218.332031 L 241.1875 218.34375 L 244.332031 218.355469 L 250.628906 218.363281 L 256.925781 218.363281 L 260.074219 218.367188 L 338.78125 218.367188 "/>
<path style=" stroke:none;fill-rule:nonzero;fill:rgb(60.392157%,81.568627%,47.45098%);fill-opacity:1;" d="M 52.203125 52.035156 L 53.570313 52.035156 L 52.769531 56.671875 L 52.761719 56.726563 L 52.753906 56.757813 L 52.75 56.789063 L 52.726563 56.894531 L 52.703125 57.011719 L 52.699219 57.054688 L 52.691406 57.097656 L 52.683594 57.136719 L 52.675781 57.179688 L 52.671875 57.222656 L 52.65625 57.308594 L 52.652344 57.351563 L 52.636719 57.4375 L 52.628906 57.523438 L 52.621094 57.566406 L 52.617188 57.605469 L 52.613281 57.648438 L 52.609375 57.6875 L 52.601563 57.726563 L 52.597656 57.769531 L 52.59375 57.808594 L 52.585938 57.847656 L 52.582031 57.882813 L 52.578125 57.914063 L 52.574219 57.949219 L 52.570313 57.976563 L 52.570313 58.007813 L 52.566406 58.03125 L 52.566406 58.058594 L 52.5625 58.082031 L 52.5625 58.160156 L 52.566406 58.195313 L 52.570313 58.234375 L 52.578125 58.304688 L 52.585938 58.34375 L 52.59375 58.378906 L 52.605469 58.410156 L 52.628906 58.480469 L 52.644531 58.511719 L 52.65625 58.542969 L 52.675781 58.578125 L 52.691406 58.605469 L 52.730469 58.667969 L 52.75 58.695313 L 52.773438 58.726563 L 52.820313 58.78125 L 52.847656 58.804688 L 52.875 58.832031 L 52.902344 58.855469 L 52.929688 58.875 L 52.960938 58.898438 L 53.023438 58.9375 L 53.058594 58.957031 L 53.128906 58.988281 L 53.167969 59.003906 L 53.203125 59.015625 L 53.242188 59.027344 L 53.28125 59.035156 L 53.324219 59.042969 L 53.363281 59.050781 L 53.492188 59.0625 L 53.640625 59.0625 L 53.746094 59.054688 L 53.851563 59.042969 L 53.960938 59.027344 L 54.070313 59.007813 L 54.179688 58.984375 L 54.289063 58.957031 L 54.402344 58.925781 L 54.628906 58.847656 L 54.746094 58.800781 L 54.859375 58.753906 L 55.085938 58.652344 L 55.195313 58.597656 L 55.304688 58.539063 L 55.515625 58.414063 L 55.621094 58.347656 L 55.722656 58.277344 L 56.8125 52.035156 L 58.199219 52.035156 L 56.921875 59.289063 L 57.90625 59.496094 L 57.839844 59.871094 L 55.523438 59.871094 L 55.671875 58.753906 L 55.609375 58.816406 L 55.484375 58.933594 L 55.425781 58.992188 L 55.367188 59.046875 L 55.304688 59.101563 L 55.25 59.152344 L 55.191406 59.207031 L 55.136719 59.253906 L 55.078125 59.304688 L 55.023438 59.351563 L 54.859375 59.480469 L 54.804688 59.519531 L 54.75 59.5625 L 54.695313 59.597656 L 54.640625 59.636719 L 54.585938 59.671875 L 54.421875 59.765625 L 54.3125 59.820313 L 54.257813 59.84375 L 54.199219 59.867188 L 54.144531 59.890625 L 54.085938 59.910156 L 54.03125 59.929688 L 53.914063 59.960938 L 53.851563 59.976563 L 53.726563 60 L 53.601563 60.015625 L 53.535156 60.023438 L 53.46875 60.027344 L 53.398438 60.027344 L 53.328125 60.03125 L 53.261719 60.027344 L 53.195313 60.027344 L 53.132813 60.019531 L 53.066406 60.015625 L 53.007813 60.003906 L 52.945313 59.992188 L 52.886719 59.980469 L 52.832031 59.964844 L 52.773438 59.949219 L 52.722656 59.929688 L 52.667969 59.910156 L 52.617188 59.890625 L 52.464844 59.820313 L 52.371094 59.765625 L 52.324219 59.734375 L 52.238281 59.671875 L 51.5625 63.523438 L 50.179688 63.523438 Z M 52.203125 52.035156 "/>
<path style=" stroke:none;fill-rule:nonzero;fill:rgb(60.392157%,81.568627%,47.45098%);fill-opacity:1;" d="M 72.601563 55.488281 L 72.601563 56.335938 L 64.65625 56.335938 L 64.65625 55.488281 Z M 72.601563 52.070313 L 72.601563 52.917969 L 64.65625 52.917969 L 64.65625 52.070313 Z M 72.601563 52.070313 "/>
<path style=" stroke:none;fill-rule:nonzero;fill:rgb(60.392157%,81.568627%,47.45098%);fill-opacity:1;" d="M 79.035156 54.476563 L 79.035156 53.226563 L 86.738281 53.226563 L 86.738281 54.476563 Z M 79.035156 54.476563 "/>
<path style=" stroke:none;fill-rule:nonzero;fill:rgb(60.392157%,81.568627%,47.45098%);fill-opacity:1;" d="M 90.816406 59.871094 L 90.816406 58.8125 L 90.902344 58.621094 L 90.992188 58.433594 L 91.085938 58.25 L 91.1875 58.070313 L 91.289063 57.894531 L 91.390625 57.726563 L 91.5 57.5625 L 91.613281 57.402344 L 91.730469 57.246094 L 91.851563 57.09375 L 91.972656 56.945313 L 92.097656 56.800781 L 92.226563 56.660156 L 92.351563 56.519531 L 92.480469 56.382813 L 92.609375 56.25 L 92.742188 56.117188 L 93.007813 55.867188 L 93.140625 55.746094 L 93.277344 55.625 L 93.410156 55.503906 L 93.546875 55.386719 L 93.945313 55.046875 L 94.078125 54.9375 L 94.210938 54.832031 L 94.34375 54.722656 L 94.476563 54.621094 L 94.609375 54.515625 L 94.738281 54.414063 L 94.863281 54.308594 L 94.988281 54.207031 L 95.109375 54.101563 L 95.226563 54 L 95.34375 53.894531 L 95.457031 53.792969 L 95.566406 53.691406 L 95.675781 53.585938 L 95.882813 53.378906 L 95.976563 53.273438 L 96.070313 53.164063 L 96.15625 53.058594 L 96.242188 52.949219 L 96.320313 52.839844 L 96.394531 52.726563 L 96.46875 52.617188 L 96.535156 52.503906 L 96.597656 52.386719 L 96.65625 52.269531 L 96.703125 52.148438 L 96.746094 52.023438 L 96.785156 51.898438 L 96.816406 51.769531 L 96.839844 51.636719 L 96.855469 51.5 L 96.863281 51.359375 L 96.867188 51.21875 L 96.867188 51.121094 L 96.863281 51.023438 L 96.855469 50.929688 L 96.832031 50.75 L 96.792969 50.578125 L 96.773438 50.5 L 96.746094 50.417969 L 96.71875 50.34375 L 96.6875 50.269531 L 96.652344 50.195313 L 96.617188 50.125 L 96.578125 50.058594 L 96.535156 49.992188 L 96.441406 49.867188 L 96.390625 49.808594 L 96.339844 49.753906 L 96.285156 49.703125 L 96.226563 49.652344 L 96.167969 49.605469 L 96.105469 49.558594 L 96.039063 49.515625 L 95.972656 49.476563 L 95.832031 49.40625 L 95.757813 49.375 L 95.679688 49.34375 L 95.601563 49.316406 L 95.523438 49.292969 L 95.441406 49.269531 L 95.359375 49.25 L 95.1875 49.21875 L 95.007813 49.195313 L 94.726563 49.183594 L 94.546875 49.191406 L 94.460938 49.195313 L 94.375 49.203125 L 94.289063 49.214844 L 94.203125 49.230469 L 94.121094 49.246094 L 93.957031 49.285156 L 93.875 49.308594 L 93.796875 49.335938 L 93.722656 49.363281 L 93.648438 49.394531 L 93.574219 49.429688 L 93.503906 49.464844 L 93.433594 49.503906 L 93.300781 49.589844 L 93.175781 49.683594 L 93.113281 49.734375 L 93.054688 49.789063 L 92.945313 49.90625 L 92.894531 49.964844 L 92.84375 50.03125 L 92.75 50.164063 L 92.707031 50.238281 L 92.667969 50.308594 L 92.628906 50.386719 L 92.59375 50.460938 L 92.5625 50.542969 L 92.507813 50.707031 L 92.484375 50.796875 L 92.445313 50.976563 L 92.429688 51.070313 L 92.417969 51.167969 L 90.882813 51.027344 L 90.898438 50.902344 L 90.945313 50.652344 L 90.976563 50.53125 L 91.007813 50.414063 L 91.046875 50.292969 L 91.085938 50.175781 L 91.179688 49.949219 L 91.234375 49.835938 L 91.289063 49.726563 L 91.351563 49.617188 L 91.417969 49.511719 L 91.488281 49.410156 L 91.558594 49.3125 L 91.636719 49.214844 L 91.71875 49.121094 L 91.804688 49.03125 L 91.992188 48.859375 L 92.089844 48.777344 L 92.191406 48.695313 L 92.300781 48.621094 L 92.410156 48.550781 L 92.523438 48.480469 L 92.640625 48.414063 L 92.761719 48.355469 L 92.886719 48.296875 L 93.015625 48.242188 L 93.148438 48.191406 L 93.289063 48.148438 L 93.433594 48.105469 L 93.578125 48.070313 L 93.730469 48.039063 L 93.886719 48.011719 L 94.046875 47.988281 L 94.210938 47.972656 L 94.378906 47.960938 L 94.550781 47.953125 L 94.898438 47.953125 L 95.234375 47.96875 L 95.394531 47.984375 L 95.554688 48.003906 L 95.707031 48.027344 L 95.855469 48.054688 L 96.003906 48.085938 L 96.144531 48.121094 L 96.285156 48.160156 L 96.417969 48.203125 L 96.550781 48.25 L 96.675781 48.300781 L 96.796875 48.359375 L 96.914063 48.417969 L 97.027344 48.480469 L 97.136719 48.550781 L 97.238281 48.621094 L 97.339844 48.695313 L 97.527344 48.859375 L 97.617188 48.949219 L 97.699219 49.039063 L 97.777344 49.132813 L 97.855469 49.234375 L 97.925781 49.335938 L 97.988281 49.441406 L 98.050781 49.550781 L 98.109375 49.667969 L 98.160156 49.785156 L 98.207031 49.90625 L 98.25 50.03125 L 98.289063 50.160156 L 98.320313 50.292969 L 98.347656 50.429688 L 98.371094 50.570313 L 98.386719 50.714844 L 98.398438 50.863281 L 98.40625 51.015625 L 98.410156 51.167969 L 98.402344 51.402344 L 98.390625 51.519531 L 98.375 51.632813 L 98.355469 51.746094 L 98.332031 51.859375 L 98.304688 51.96875 L 98.234375 52.1875 L 98.195313 52.292969 L 98.148438 52.398438 L 98.105469 52.503906 L 98.003906 52.714844 L 97.949219 52.816406 L 97.890625 52.917969 L 97.828125 53.015625 L 97.765625 53.117188 L 97.625 53.3125 L 97.554688 53.40625 L 97.480469 53.503906 L 97.40625 53.597656 L 97.328125 53.691406 L 97.164063 53.878906 L 97.078125 53.972656 L 96.992188 54.0625 L 96.902344 54.15625 L 96.621094 54.425781 L 96.527344 54.511719 L 96.332031 54.691406 L 96.234375 54.777344 L 96.136719 54.867188 L 96.035156 54.953125 L 95.9375 55.042969 L 95.734375 55.214844 L 95.628906 55.296875 L 95.324219 55.554688 L 95.222656 55.636719 L 95.117188 55.722656 L 94.914063 55.894531 L 94.808594 55.980469 L 94.605469 56.144531 L 94.503906 56.230469 L 94.40625 56.3125 L 94.308594 56.398438 L 94.210938 56.480469 L 94.113281 56.566406 L 94.019531 56.652344 L 93.925781 56.734375 L 93.832031 56.820313 L 93.746094 56.90625 L 93.65625 56.992188 L 93.570313 57.078125 L 93.40625 57.25 L 93.25 57.421875 L 93.171875 57.511719 L 93.097656 57.597656 L 93.023438 57.6875 L 92.957031 57.773438 L 92.886719 57.863281 L 92.824219 57.953125 L 92.765625 58.039063 L 92.707031 58.132813 L 92.652344 58.222656 L 92.601563 58.316406 L 92.554688 58.40625 L 92.507813 58.5 L 92.464844 58.597656 L 98.59375 58.597656 L 98.59375 59.871094 Z M 90.816406 59.871094 "/>
<path style=" stroke:none;fill-rule:nonzero;fill:rgb(0%,0%,0%);fill-opacity:1;" d="M 52.203125 36.789063 L 53.570313 36.789063 L 52.769531 41.425781 L 52.761719 41.480469 L 52.753906 41.511719 L 52.75 41.542969 L 52.742188 41.574219 L 52.734375 41.609375 L 52.726563 41.648438 L 52.71875 41.683594 L 52.710938 41.726563 L 52.703125 41.765625 L 52.699219 41.808594 L 52.691406 41.847656 L 52.675781 41.933594 L 52.671875 41.976563 L 52.65625 42.0625 L 52.652344 42.105469 L 52.636719 42.191406 L 52.628906 42.277344 L 52.621094 42.320313 L 52.617188 42.359375 L 52.613281 42.402344 L 52.609375 42.441406 L 52.601563 42.480469 L 52.597656 42.523438 L 52.59375 42.5625 L 52.585938 42.597656 L 52.582031 42.636719 L 52.570313 42.730469 L 52.570313 42.757813 L 52.566406 42.785156 L 52.566406 42.8125 L 52.5625 42.832031 L 52.5625 42.914063 L 52.566406 42.949219 L 52.570313 42.988281 L 52.578125 43.058594 L 52.59375 43.128906 L 52.628906 43.234375 L 52.644531 43.265625 L 52.65625 43.296875 L 52.675781 43.328125 L 52.691406 43.359375 L 52.730469 43.421875 L 52.75 43.449219 L 52.820313 43.53125 L 52.847656 43.558594 L 52.875 43.582031 L 52.902344 43.609375 L 52.929688 43.628906 L 52.960938 43.652344 L 53.023438 43.691406 L 53.058594 43.707031 L 53.09375 43.726563 L 53.128906 43.742188 L 53.167969 43.753906 L 53.203125 43.769531 L 53.242188 43.78125 L 53.28125 43.789063 L 53.324219 43.796875 L 53.363281 43.804688 L 53.492188 43.816406 L 53.539063 43.816406 L 53.640625 43.8125 L 53.746094 43.808594 L 53.851563 43.796875 L 53.960938 43.78125 L 54.070313 43.761719 L 54.179688 43.738281 L 54.289063 43.710938 L 54.515625 43.640625 L 54.628906 43.597656 L 54.746094 43.554688 L 54.859375 43.507813 L 55.085938 43.40625 L 55.195313 43.347656 L 55.304688 43.292969 L 55.515625 43.167969 L 55.621094 43.101563 L 55.722656 43.03125 L 56.8125 36.789063 L 58.199219 36.789063 L 56.921875 44.042969 L 57.90625 44.25 L 57.839844 44.625 L 55.523438 44.625 L 55.671875 43.507813 L 55.609375 43.570313 L 55.484375 43.6875 L 55.425781 43.742188 L 55.367188 43.800781 L 55.304688 43.855469 L 55.25 43.90625 L 55.191406 43.957031 L 55.136719 44.007813 L 55.078125 44.058594 L 55.023438 44.105469 L 54.859375 44.234375 L 54.640625 44.390625 L 54.585938 44.425781 L 54.421875 44.519531 L 54.3125 44.574219 L 54.257813 44.597656 L 54.199219 44.621094 L 54.144531 44.644531 L 54.085938 44.664063 L 54.03125 44.683594 L 53.914063 44.714844 L 53.851563 44.730469 L 53.726563 44.753906 L 53.601563 44.769531 L 53.535156 44.777344 L 53.46875 44.78125 L 53.261719 44.78125 L 53.195313 44.777344 L 53.132813 44.773438 L 53.066406 44.765625 L 53.007813 44.757813 L 52.945313 44.746094 L 52.886719 44.734375 L 52.832031 44.71875 L 52.773438 44.703125 L 52.722656 44.683594 L 52.667969 44.664063 L 52.617188 44.644531 L 52.464844 44.574219 L 52.371094 44.519531 L 52.324219 44.488281 L 52.238281 44.425781 L 51.5625 48.277344 L 50.179688 48.277344 Z M 52.203125 36.789063 "/>
<path style=" stroke:none;fill-rule:nonzero;fill:rgb(0%,0%,0%);fill-opacity:1;" d="M 72.601563 40.238281 L 72.601563 41.089844 L 64.65625 41.089844 L 64.65625 40.238281 Z M 72.601563 36.824219 L 72.601563 37.671875 L 64.65625 37.671875 L 64.65625 36.824219 Z M 72.601563 36.824219 "/>
<path style=" stroke:none;fill-rule:nonzero;fill:rgb(0%,0%,0%);fill-opacity:1;" d="M 87.011719 38.75 L 87.007813 39.082031 L 87 39.402344 L 86.984375 39.714844 L 86.960938 40.015625 L 86.929688 40.308594 L 86.894531 40.585938 L 86.851563 40.855469 L 86.804688 41.113281 L 86.75 41.363281 L 86.6875 41.597656 L 86.621094 41.824219 L 86.550781 42.042969 L 86.476563 42.25 L 86.394531 42.449219 L 86.308594 42.640625 L 86.21875 42.824219 L 86.125 42.996094 L 86.027344 43.160156 L 85.921875 43.320313 L 85.8125 43.464844 L 85.699219 43.605469 L 85.582031 43.734375 L 85.464844 43.855469 L 85.339844 43.96875 L 85.210938 44.074219 L 85.078125 44.171875 L 84.945313 44.261719 L 84.804688 44.34375 L 84.660156 44.417969 L 84.511719 44.484375 L 84.359375 44.542969 L 84.207031 44.59375 L 84.050781 44.640625 L 83.894531 44.679688 L 83.738281 44.714844 L 83.574219 44.742188 L 83.414063 44.765625 L 83.246094 44.777344 L 83.082031 44.789063 L 82.910156 44.792969 L 82.742188 44.789063 L 82.40625 44.765625 L 82.242188 44.742188 L 82.082031 44.714844 L 81.921875 44.679688 L 81.765625 44.640625 L 81.613281 44.59375 L 81.460938 44.542969 L 81.3125 44.484375 L 81.164063 44.417969 L 81.023438 44.34375 L 80.882813 44.261719 L 80.746094 44.171875 L 80.617188 44.074219 L 80.488281 43.96875 L 80.367188 43.855469 L 80.246094 43.734375 L 80.128906 43.605469 L 80.019531 43.464844 L 79.914063 43.320313 L 79.8125 43.164063 L 79.714844 43 L 79.621094 42.828125 L 79.53125 42.648438 L 79.449219 42.457031 L 79.371094 42.257813 L 79.296875 42.050781 L 79.226563 41.832031 L 79.160156 41.605469 L 79.101563 41.371094 L 79.050781 41.121094 L 79.003906 40.863281 L 78.960938 40.59375 L 78.929688 40.3125 L 78.902344 40.023438 L 78.878906 39.71875 L 78.863281 39.40625 L 78.855469 39.082031 L 78.851563 38.75 L 78.855469 38.398438 L 78.863281 38.0625 L 78.878906 37.738281 L 78.902344 37.425781 L 78.929688 37.125 L 78.960938 36.839844 L 79.003906 36.566406 L 79.050781 36.300781 L 79.101563 36.050781 L 79.160156 35.8125 L 79.226563 35.585938 L 79.296875 35.367188 L 79.371094 35.15625 L 79.449219 34.957031 L 79.535156 34.765625 L 79.625 34.585938 L 79.71875 34.414063 L 79.816406 34.25 L 79.917969 34.097656 L 80.027344 33.953125 L 80.140625 33.820313 L 80.253906 33.695313 L 80.375 33.578125 L 80.5 33.46875 L 80.628906 33.367188 L 80.757813 33.273438 L 80.894531 33.191406 L 81.035156 33.113281 L 81.179688 33.046875 L 81.328125 32.988281 L 81.480469 32.933594 L 81.632813 32.886719 L 81.789063 32.84375 L 81.949219 32.808594 L 82.109375 32.777344 L 82.277344 32.75 L 82.441406 32.730469 L 82.613281 32.714844 L 82.785156 32.707031 L 82.960938 32.703125 L 83.128906 32.707031 L 83.292969 32.714844 L 83.457031 32.730469 L 83.617188 32.75 L 83.777344 32.777344 L 83.933594 32.808594 L 84.085938 32.84375 L 84.238281 32.886719 L 84.390625 32.933594 L 84.535156 32.988281 L 84.683594 33.046875 L 84.824219 33.113281 L 84.964844 33.191406 L 85.097656 33.273438 L 85.230469 33.367188 L 85.359375 33.46875 L 85.480469 33.578125 L 85.601563 33.695313 L 85.714844 33.820313 L 85.828125 33.953125 L 85.9375 34.097656 L 86.039063 34.25 L 86.136719 34.414063 L 86.230469 34.585938 L 86.320313 34.765625 L 86.40625 34.957031 L 86.484375 35.15625 L 86.558594 35.367188 L 86.628906 35.585938 L 86.695313 35.8125 L 86.753906 36.050781 L 86.808594 36.300781 L 86.855469 36.566406 L 86.898438 36.839844 L 86.933594 37.125 L 86.960938 37.425781 L 86.984375 37.738281 L 87 38.0625 L 87.007813 38.398438 Z M 85.488281 38.75 L 85.484375 38.472656 L 85.480469 38.207031 L 85.472656 37.949219 L 85.460938 37.703125 L 85.445313 37.464844 L 85.425781 37.238281 L 85.40625 37.019531 L 85.378906 36.8125 L 85.351563 36.613281 L 85.320313 36.421875 L 85.285156 36.238281 L 85.246094 36.0625 L 85.207031 35.898438 L 85.160156 35.738281 L 85.113281 35.585938 L 85.0625 35.441406 L 85.007813 35.304688 L 84.953125 35.175781 L 84.890625 35.050781 L 84.828125 34.9375 L 84.761719 34.832031 L 84.691406 34.730469 L 84.621094 34.632813 L 84.542969 34.546875 L 84.464844 34.464844 L 84.382813 34.386719 L 84.300781 34.320313 L 84.210938 34.257813 L 84.121094 34.203125 L 83.933594 34.109375 L 83.835938 34.070313 L 83.734375 34.035156 L 83.632813 34.003906 L 83.527344 33.980469 L 83.421875 33.960938 L 83.308594 33.941406 L 83.195313 33.929688 L 82.960938 33.921875 L 82.835938 33.925781 L 82.714844 33.929688 L 82.59375 33.941406 L 82.476563 33.960938 L 82.363281 33.980469 L 82.253906 34.003906 L 82.148438 34.035156 L 82.042969 34.070313 L 81.941406 34.109375 L 81.84375 34.15625 L 81.75 34.203125 L 81.65625 34.261719 L 81.566406 34.324219 L 81.480469 34.394531 L 81.398438 34.46875 L 81.316406 34.550781 L 81.242188 34.640625 L 81.167969 34.738281 L 81.09375 34.839844 L 81.027344 34.945313 L 80.964844 35.0625 L 80.902344 35.183594 L 80.847656 35.3125 L 80.792969 35.449219 L 80.742188 35.59375 L 80.695313 35.746094 L 80.648438 35.90625 L 80.609375 36.074219 L 80.570313 36.246094 L 80.535156 36.429688 L 80.503906 36.621094 L 80.476563 36.820313 L 80.449219 37.027344 L 80.429688 37.246094 L 80.410156 37.472656 L 80.394531 37.710938 L 80.382813 37.953125 L 80.375 38.210938 L 80.371094 38.472656 L 80.367188 38.75 L 80.371094 39.015625 L 80.375 39.269531 L 80.382813 39.519531 L 80.394531 39.761719 L 80.410156 39.992188 L 80.429688 40.214844 L 80.449219 40.429688 L 80.476563 40.636719 L 80.503906 40.835938 L 80.535156 41.023438 L 80.570313 41.207031 L 80.613281 41.378906 L 80.652344 41.546875 L 80.699219 41.707031 L 80.746094 41.859375 L 80.800781 42.003906 L 80.855469 42.144531 L 80.910156 42.273438 L 80.972656 42.398438 L 81.035156 42.515625 L 81.105469 42.625 L 81.175781 42.726563 L 81.25 42.824219 L 81.324219 42.914063 L 81.40625 42.996094 L 81.488281 43.074219 L 81.570313 43.148438 L 81.660156 43.210938 L 81.75 43.269531 L 81.84375 43.324219 L 81.941406 43.371094 L 82.039063 43.410156 L 82.140625 43.449219 L 82.246094 43.480469 L 82.351563 43.503906 L 82.460938 43.527344 L 82.574219 43.542969 L 82.691406 43.554688 L 82.808594 43.5625 L 82.929688 43.566406 L 83.046875 43.5625 L 83.160156 43.554688 L 83.273438 43.542969 L 83.382813 43.527344 L 83.492188 43.503906 L 83.597656 43.480469 L 83.699219 43.449219 L 83.800781 43.410156 L 83.898438 43.371094 L 83.996094 43.324219 L 84.089844 43.269531 L 84.179688 43.210938 L 84.265625 43.148438 L 84.351563 43.074219 L 84.433594 42.996094 L 84.511719 42.914063 L 84.585938 42.824219 L 84.660156 42.726563 L 84.726563 42.625 L 84.796875 42.515625 L 84.859375 42.398438 L 84.921875 42.273438 L 84.980469 42.144531 L 85.035156 42.003906 L 85.089844 41.859375 L 85.136719 41.707031 L 85.183594 41.546875 L 85.226563 41.378906 L 85.265625 41.207031 L 85.304688 41.023438 L 85.339844 40.835938 L 85.371094 40.636719 L 85.398438 40.429688 L 85.421875 40.214844 L 85.441406 39.992188 L 85.457031 39.761719 L 85.46875 39.519531 L 85.480469 39.269531 L 85.484375 39.015625 Z M 85.488281 38.75 "/>
<path style=" stroke:none;fill-rule:nonzero;fill:rgb(29.803922%,63.921569%,51.764706%);fill-opacity:1;" d="M 52.203125 21.542969 L 53.570313 21.542969 L 52.769531 26.175781 L 52.765625 26.203125 L 52.761719 26.234375 L 52.753906 26.265625 L 52.75 26.296875 L 52.742188 26.328125 L 52.734375 26.363281 L 52.726563 26.402344 L 52.71875 26.4375 L 52.710938 26.476563 L 52.703125 26.519531 L 52.699219 26.5625 L 52.691406 26.601563 L 52.675781 26.6875 L 52.671875 26.730469 L 52.65625 26.816406 L 52.652344 26.859375 L 52.636719 26.945313 L 52.628906 27.03125 L 52.621094 27.070313 L 52.613281 27.15625 L 52.609375 27.195313 L 52.601563 27.234375 L 52.59375 27.3125 L 52.585938 27.351563 L 52.578125 27.421875 L 52.570313 27.484375 L 52.570313 27.511719 L 52.566406 27.539063 L 52.566406 27.566406 L 52.5625 27.585938 L 52.5625 27.664063 L 52.570313 27.742188 L 52.578125 27.8125 L 52.59375 27.882813 L 52.617188 27.953125 L 52.628906 27.984375 L 52.644531 28.019531 L 52.65625 28.050781 L 52.675781 28.082031 L 52.691406 28.113281 L 52.730469 28.175781 L 52.75 28.203125 L 52.820313 28.285156 L 52.847656 28.3125 L 52.929688 28.382813 L 52.960938 28.40625 L 53.023438 28.445313 L 53.058594 28.460938 L 53.09375 28.480469 L 53.128906 28.496094 L 53.167969 28.507813 L 53.203125 28.523438 L 53.242188 28.53125 L 53.28125 28.542969 L 53.324219 28.550781 L 53.363281 28.558594 L 53.492188 28.570313 L 53.539063 28.570313 L 53.640625 28.566406 L 53.746094 28.5625 L 53.851563 28.550781 L 53.960938 28.535156 L 54.070313 28.515625 L 54.179688 28.492188 L 54.289063 28.464844 L 54.515625 28.394531 L 54.628906 28.351563 L 54.746094 28.308594 L 54.859375 28.261719 L 55.085938 28.160156 L 55.304688 28.042969 L 55.410156 27.984375 L 55.515625 27.921875 L 55.621094 27.855469 L 55.722656 27.785156 L 56.8125 21.542969 L 58.199219 21.542969 L 56.921875 28.792969 L 57.90625 29.003906 L 57.839844 29.378906 L 55.523438 29.378906 L 55.671875 28.261719 L 55.609375 28.324219 L 55.484375 28.441406 L 55.425781 28.496094 L 55.367188 28.554688 L 55.304688 28.605469 L 55.25 28.660156 L 55.191406 28.710938 L 55.136719 28.761719 L 55.078125 28.8125 L 55.023438 28.859375 L 54.859375 28.988281 L 54.695313 29.105469 L 54.53125 29.210938 L 54.421875 29.273438 L 54.3125 29.328125 L 54.257813 29.351563 L 54.199219 29.375 L 54.144531 29.398438 L 54.085938 29.417969 L 54.03125 29.4375 L 53.914063 29.46875 L 53.851563 29.484375 L 53.726563 29.507813 L 53.601563 29.523438 L 53.535156 29.527344 L 53.46875 29.535156 L 53.261719 29.535156 L 53.195313 29.53125 L 53.132813 29.527344 L 53.066406 29.519531 L 53.007813 29.511719 L 52.945313 29.5 L 52.886719 29.488281 L 52.832031 29.472656 L 52.773438 29.457031 L 52.722656 29.4375 L 52.667969 29.417969 L 52.617188 29.398438 L 52.464844 29.328125 L 52.371094 29.273438 L 52.324219 29.242188 L 52.238281 29.179688 L 51.5625 33.03125 L 50.179688 33.03125 Z M 52.203125 21.542969 "/>
<path style=" stroke:none;fill-rule:nonzero;fill:rgb(29.803922%,63.921569%,51.764706%);fill-opacity:1;" d="M 72.601563 24.992188 L 72.601563 25.84375 L 64.65625 25.84375 L 64.65625 24.992188 Z M 72.601563 21.574219 L 72.601563 22.425781 L 64.65625 22.425781 L 64.65625 21.574219 Z M 72.601563 21.574219 "/>
<path style=" stroke:none;fill-rule:nonzero;fill:rgb(29.803922%,63.921569%,51.764706%);fill-opacity:1;" d="M 79.042969 29.378906 L 79.042969 28.320313 L 79.128906 28.125 L 79.222656 27.9375 L 79.316406 27.753906 L 79.414063 27.578125 L 79.515625 27.402344 L 79.621094 27.234375 L 79.726563 27.070313 L 79.839844 26.910156 L 79.957031 26.753906 L 80.078125 26.601563 L 80.199219 26.453125 L 80.324219 26.308594 L 80.453125 26.164063 L 80.578125 26.027344 L 80.707031 25.890625 L 80.839844 25.757813 L 80.96875 25.625 L 81.234375 25.375 L 81.367188 25.253906 L 81.503906 25.132813 L 81.636719 25.011719 L 81.773438 24.894531 L 82.171875 24.554688 L 82.4375 24.335938 L 82.703125 24.125 L 82.835938 24.023438 L 82.964844 23.921875 L 83.089844 23.816406 L 83.214844 23.714844 L 83.335938 23.609375 L 83.453125 23.507813 L 83.570313 23.402344 L 83.683594 23.300781 L 83.796875 23.195313 L 83.902344 23.09375 L 84.007813 22.988281 L 84.109375 22.882813 L 84.296875 22.671875 L 84.46875 22.453125 L 84.625 22.234375 L 84.695313 22.121094 L 84.761719 22.007813 L 84.824219 21.894531 L 84.882813 21.777344 L 84.933594 21.65625 L 84.976563 21.53125 L 85.011719 21.40625 L 85.042969 21.273438 L 85.066406 21.140625 L 85.082031 21.007813 L 85.089844 20.867188 L 85.09375 20.726563 L 85.09375 20.628906 L 85.089844 20.53125 L 85.082031 20.4375 L 85.070313 20.34375 L 85.058594 20.257813 L 85.042969 20.171875 L 85.023438 20.085938 L 85 20.003906 L 84.972656 19.925781 L 84.945313 19.851563 L 84.914063 19.773438 L 84.84375 19.632813 L 84.804688 19.5625 L 84.761719 19.5 L 84.71875 19.433594 L 84.667969 19.375 L 84.621094 19.316406 L 84.511719 19.207031 L 84.453125 19.160156 L 84.394531 19.109375 L 84.332031 19.066406 L 84.265625 19.023438 L 84.199219 18.984375 L 84.128906 18.945313 L 84.058594 18.914063 L 83.984375 18.878906 L 83.828125 18.824219 L 83.75 18.800781 L 83.667969 18.777344 L 83.585938 18.757813 L 83.5 18.738281 L 83.414063 18.726563 L 83.234375 18.703125 L 83.140625 18.695313 L 83.046875 18.691406 L 82.863281 18.691406 L 82.773438 18.695313 L 82.601563 18.710938 L 82.515625 18.722656 L 82.429688 18.738281 L 82.347656 18.753906 L 82.183594 18.792969 L 82.101563 18.816406 L 82.023438 18.84375 L 81.949219 18.871094 L 81.875 18.902344 L 81.800781 18.9375 L 81.730469 18.972656 L 81.664063 19.011719 L 81.59375 19.054688 L 81.527344 19.097656 L 81.402344 19.191406 L 81.339844 19.242188 L 81.285156 19.296875 L 81.226563 19.351563 L 81.171875 19.410156 L 81.070313 19.535156 L 81.023438 19.601563 L 80.976563 19.671875 L 80.933594 19.742188 L 80.855469 19.890625 L 80.824219 19.96875 L 80.789063 20.046875 L 80.761719 20.128906 L 80.734375 20.214844 L 80.710938 20.300781 L 80.691406 20.390625 L 80.671875 20.484375 L 80.65625 20.578125 L 80.644531 20.675781 L 79.109375 20.535156 L 79.128906 20.40625 L 79.148438 20.285156 L 79.171875 20.160156 L 79.234375 19.917969 L 79.3125 19.683594 L 79.359375 19.570313 L 79.40625 19.453125 L 79.460938 19.34375 L 79.515625 19.230469 L 79.578125 19.125 L 79.644531 19.019531 L 79.714844 18.917969 L 79.789063 18.820313 L 79.867188 18.722656 L 79.949219 18.628906 L 80.035156 18.539063 L 80.125 18.453125 L 80.21875 18.367188 L 80.316406 18.285156 L 80.417969 18.203125 L 80.636719 18.054688 L 80.75 17.988281 L 80.867188 17.921875 L 80.988281 17.863281 L 81.113281 17.804688 L 81.246094 17.75 L 81.378906 17.699219 L 81.515625 17.652344 L 81.660156 17.613281 L 81.804688 17.578125 L 81.957031 17.546875 L 82.113281 17.519531 L 82.273438 17.496094 L 82.4375 17.480469 L 82.605469 17.46875 L 82.777344 17.460938 L 82.953125 17.457031 L 83.296875 17.464844 L 83.460938 17.476563 L 83.621094 17.492188 L 83.78125 17.511719 L 83.933594 17.53125 L 84.085938 17.558594 L 84.230469 17.589844 L 84.371094 17.625 L 84.511719 17.667969 L 84.644531 17.710938 L 84.777344 17.757813 L 84.902344 17.808594 L 85.023438 17.867188 L 85.140625 17.925781 L 85.253906 17.988281 L 85.363281 18.054688 L 85.566406 18.203125 L 85.753906 18.367188 L 85.84375 18.453125 L 86.007813 18.640625 L 86.082031 18.738281 L 86.152344 18.84375 L 86.21875 18.949219 L 86.277344 19.058594 L 86.335938 19.175781 L 86.386719 19.292969 L 86.433594 19.414063 L 86.476563 19.539063 L 86.515625 19.667969 L 86.546875 19.800781 L 86.574219 19.9375 L 86.597656 20.078125 L 86.613281 20.222656 L 86.628906 20.371094 L 86.632813 20.519531 L 86.636719 20.675781 L 86.636719 20.792969 L 86.628906 20.910156 L 86.617188 21.027344 L 86.601563 21.140625 L 86.582031 21.253906 L 86.558594 21.363281 L 86.53125 21.476563 L 86.5 21.585938 L 86.460938 21.695313 L 86.421875 21.800781 L 86.378906 21.90625 L 86.332031 22.011719 L 86.28125 22.117188 L 86.230469 22.21875 L 86.175781 22.320313 L 86.117188 22.421875 L 86.054688 22.523438 L 85.992188 22.621094 L 85.925781 22.722656 L 85.855469 22.816406 L 85.707031 23.011719 L 85.632813 23.105469 L 85.554688 23.199219 L 85.390625 23.386719 L 85.304688 23.480469 L 85.21875 23.570313 L 85.128906 23.660156 L 84.753906 24.019531 L 84.558594 24.199219 L 84.460938 24.285156 L 84.363281 24.375 L 84.261719 24.460938 L 84.164063 24.546875 L 84.0625 24.636719 L 83.960938 24.71875 L 83.859375 24.804688 L 83.753906 24.890625 L 83.652344 24.976563 L 83.550781 25.058594 L 83.449219 25.144531 L 83.34375 25.230469 L 83.140625 25.402344 L 83.035156 25.484375 L 82.933594 25.570313 L 82.730469 25.734375 L 82.535156 25.90625 L 82.4375 25.988281 L 82.339844 26.074219 L 82.246094 26.15625 L 82.152344 26.242188 L 81.882813 26.5 L 81.800781 26.582031 L 81.714844 26.671875 L 81.632813 26.757813 L 81.476563 26.929688 L 81.398438 27.019531 L 81.324219 27.105469 L 81.253906 27.195313 L 81.183594 27.28125 L 81.117188 27.371094 L 81.050781 27.457031 L 80.933594 27.636719 L 80.878906 27.730469 L 80.828125 27.820313 L 80.734375 28.007813 L 80.695313 28.101563 L 86.820313 28.101563 L 86.820313 29.378906 Z M 79.042969 29.378906 "/>
<path style=" stroke:none;fill-rule:nonzero;fill:rgb(0%,0%,0%);fill-opacity:1;" d="M 183.796875 243.617188 L 181.375 239.78125 L 178.957031 243.617188 L 176.824219 243.617188 L 180.160156 238.550781 L 177.105469 233.984375 L 179.238281 233.984375 L 181.375 237.386719 L 183.515625 233.984375 L 185.636719 233.984375 L 182.710938 238.550781 L 185.914063 243.617188 Z M 183.796875 243.617188 "/>
</g>
</svg>
